<svg xmlns="http://www.w3.org/2000/svg" xmlns:xlink="http://www.w3.org/1999/xlink" width="110" height="110" viewBox="0 0 110 110">
  <defs>
    <filter id="Trazado_982547" x="0" y="0" width="110" height="110" filterUnits="userSpaceOnUse">
      <feOffset dy="3" input="SourceAlpha"/>
      <feGaussianBlur stdDeviation="3" result="blur"/>
      <feFlood flood-opacity="0.161"/>
      <feComposite operator="in" in2="blur"/>
      <feComposite in="SourceGraphic"/>
    </filter>
  </defs>
  <g id="Grupo_1212287" data-name="Grupo 1212287" transform="translate(17 -1877.28)">
    <g id="Grupo_1211417" data-name="Grupo 1211417" transform="translate(-394 -4196)">
      <g id="Grupo_1200150" data-name="Grupo 1200150" transform="translate(386 6079.28)">
        <g id="Grupo_1185951" data-name="Grupo 1185951" transform="translate(0 0)">
          <g id="Grupo_1184083" data-name="Grupo 1184083" transform="translate(0 0)">
            <g id="Grupo_1183743" data-name="Grupo 1183743" transform="translate(0 0)">
              <g id="Grupo_1181545" data-name="Grupo 1181545">
                <g id="Grupo_1177562" data-name="Grupo 1177562">
                  <g id="Grupo_1173147" data-name="Grupo 1173147" transform="translate(0 0)">
                    <g id="Grupo_1163801" data-name="Grupo 1163801" transform="translate(0 0)">
                      <g id="Grupo_1163014" data-name="Grupo 1163014" transform="translate(0 0)">
                        <g id="Grupo_1157015" data-name="Grupo 1157015" transform="translate(0 0)">
                          <g id="Grupo_1155792" data-name="Grupo 1155792" transform="translate(0 0)">
                            <g id="Grupo_1154703" data-name="Grupo 1154703" transform="translate(0 0)">
                              <g id="Grupo_1150789" data-name="Grupo 1150789">
                                <g id="Grupo_1154212" data-name="Grupo 1154212">
                                  <g id="Grupo_1152583" data-name="Grupo 1152583">
                                    <g id="Grupo_1146973" data-name="Grupo 1146973">
                                      <g id="Grupo_1146954" data-name="Grupo 1146954">
                                        <g transform="matrix(1, 0, 0, 1, -9, -6)" filter="url(#Trazado_982547)">
                                          <g id="Trazado_982547-2" data-name="Trazado 982547" transform="translate(9 6)" fill="#fdecc1">
                                            <path d="M 46.00000762939453 90.49988555908203 C 39.99188613891602 90.49988555908203 34.16427612304688 89.32352447509766 28.67906188964844 87.00347137451172 C 23.38020706176758 84.76226043701172 18.62104797363281 81.55342864990234 14.53375434875488 77.46615600585938 C 10.44647407531738 73.37887573242188 7.237647533416748 68.61971282958984 4.996420860290527 63.32085800170898 C 2.676367521286011 57.83565902709961 1.500007629394531 52.00806045532227 1.500007629394531 45.99993896484375 C 1.500007629394531 39.99181747436523 2.676367521286011 34.16421890258789 4.996420860290527 28.67901802062988 C 7.237647533416748 23.38017845153809 10.44647407531738 18.62101936340332 14.53375434875488 14.53373908996582 C 18.62104797363281 10.44645881652832 23.38020706176758 7.237632274627686 28.67906188964844 4.996418952941895 C 34.16427612304688 2.676365613937378 39.99188613891602 1.500005602836609 46.00000762939453 1.500005602836609 C 52.00812911987305 1.500005602836609 57.83573913574219 2.676365613937378 63.32095336914062 4.996418952941895 C 68.61980438232422 7.237632274627686 73.37896728515625 10.44645881652832 77.46626281738281 14.53373908996582 C 81.55354309082031 18.62101936340332 84.76236724853516 23.38017845153809 87.00359344482422 28.67901802062988 C 89.32364654541016 34.16421890258789 90.50000762939453 39.99181747436523 90.50000762939453 45.99993896484375 C 90.50000762939453 52.00806045532227 89.32364654541016 57.83565902709961 87.00359344482422 63.32085800170898 C 84.76236724853516 68.61971282958984 81.55354309082031 73.37887573242188 77.46626281738281 77.46615600585938 C 73.37896728515625 81.55342864990234 68.61980438232422 84.76226043701172 63.32095336914062 87.00347137451172 C 57.83573913574219 89.32352447509766 52.00812911987305 90.49988555908203 46.00000762939453 90.49988555908203 Z" stroke="none"/>
                                            <path d="M 46.00000762939453 2.999992370605469 C 40.19372177124023 2.999992370605469 34.56270599365234 4.136497497558594 29.26339340209961 6.377906799316406 C 24.14333343505859 8.543510437011719 19.54441833496094 11.64437866210938 15.59440612792969 15.59439849853516 C 11.6444091796875 19.54439544677734 8.543525695800781 24.14329528808594 6.377922058105469 29.26335144042969 C 4.136505126953125 34.56266784667969 3.000007629394531 40.19366836547852 3.000007629394531 45.99993896484375 C 3.000007629394531 51.80620956420898 4.136505126953125 57.43722534179688 6.377922058105469 62.73654174804688 C 8.543525695800781 67.85658264160156 11.6444091796875 72.45548248291016 15.59440612792969 76.40549468994141 C 19.54441833496094 80.35549926757812 24.14333343505859 83.45636749267578 29.26337814331055 85.62196350097656 C 34.56270599365234 87.86338043212891 40.19372177124023 88.9998779296875 46.00000762939453 88.9998779296875 C 51.80629348754883 88.9998779296875 57.43730926513672 87.86338043212891 62.73662185668945 85.62196350097656 C 67.85668182373047 83.45636749267578 72.45558166503906 80.35549926757812 76.40559387207031 76.40549468994141 C 80.35560607910156 72.45548248291016 83.45648193359375 67.85658264160156 85.62207794189453 62.73654174804688 C 87.86351013183594 57.43722534179688 89.00000762939453 51.80620956420898 89.00000762939453 45.99993896484375 C 89.00000762939453 40.19366836547852 87.86351013183594 34.56266784667969 85.62207794189453 29.26335144042969 C 83.45648193359375 24.14329528808594 80.35560607910156 19.54439544677734 76.40559387207031 15.59439849853516 C 72.45558166503906 11.64437866210938 67.85668182373047 8.543510437011719 62.73662185668945 6.377906799316406 C 57.43729400634766 4.136497497558594 51.80629348754883 2.999992370605469 46.00000762939453 2.999992370605469 M 46.00000762939453 -7.62939453125e-06 C 71.40509033203125 -7.62939453125e-06 92.00000762939453 20.59487915039062 92.00000762939453 45.99993896484375 C 92.00000762939453 71.40501403808594 71.40509033203125 91.99988555908203 46.00000762939453 91.99988555908203 C 20.59490966796875 91.99988555908203 7.62939453125e-06 71.40501403808594 7.62939453125e-06 45.99993896484375 C 7.62939453125e-06 20.59487915039062 20.59490966796875 -7.62939453125e-06 46.00000762939453 -7.62939453125e-06 Z" stroke="none" fill="#f8c234"/>
                                          </g>
                                        </g>
                                      </g>
                                    </g>
                                  </g>
                                </g>
                              </g>
                            </g>
                          </g>
                        </g>
                      </g>
                    </g>
                  </g>
                </g>
              </g>
            </g>
          </g>
        </g>
      </g>
    </g>
    <g id="evento-virtual_1_" data-name="evento-virtual (1)" transform="translate(3.187 1906.701)">
      <g id="Grupo_1212285" data-name="Grupo 1212285" transform="translate(1.005 1.005)">
        <path id="Trazado_1084653" data-name="Trazado 1084653" d="M95.694,53.1H43.906a3.5,3.5,0,0,1-3.5-3.5V11a3.5,3.5,0,0,1,3.5-3.5H95.694A3.5,3.5,0,0,1,99.2,11V49.6a3.5,3.5,0,0,1-3.5,3.5Z" transform="translate(-35.992 -7.5)" fill="#c8effe"/>
        <path id="Trazado_1084654" data-name="Trazado 1084654" d="M47.347,53.1H43.9a3.5,3.5,0,0,1-3.5-3.5V11a3.5,3.5,0,0,1,3.5-3.5h3.443a3.5,3.5,0,0,0-3.5,3.5V49.6a3.5,3.5,0,0,0,3.5,3.5Z" transform="translate(-35.99 -7.5)" fill="#99e6fc"/>
        <g id="Grupo_1212280" data-name="Grupo 1212280" transform="translate(9.789 2.504)">
          <path id="Trazado_1084655" data-name="Trazado 1084655" d="M116.211,228.2h1.184a7.72,7.72,0,0,1,7.72,7.72c0,.733-.594,8.3-1.327,8.3h-13.97c-.733,0-1.327-7.568-1.327-8.3A7.72,7.72,0,0,1,116.211,228.2Z" transform="translate(-104.744 -201.12)" fill="#9be69d"/>
          <path id="Trazado_1084656" data-name="Trazado 1084656" d="M92.218,26.184A11.685,11.685,0,0,0,80.533,37.869v4.272a6.648,6.648,0,0,0,6.648,6.648H97.255a6.648,6.648,0,0,0,6.648-6.648V37.869A11.685,11.685,0,0,0,92.218,26.184Z" transform="translate(-80.533 -26.184)" fill="#fe646f"/>
          <path id="Trazado_1084657" data-name="Trazado 1084657" d="M93.687,48.789H87.179a6.647,6.647,0,0,1-6.647-6.648V37.869A11.692,11.692,0,0,1,95.471,26.644c-6.588-.31-11.365,8.242-6.158,12.987l-2.274,2.51A6.648,6.648,0,0,0,93.687,48.789Z" transform="translate(-80.532 -26.184)" fill="#fd4755"/>
          <path id="Trazado_1084658" data-name="Trazado 1084658" d="M112.542,230.451a7.7,7.7,0,0,0-2.261,5.459c0,.733-.86,5.082-.127,5.082h-4.522c-.733,0,.127-4.35.127-5.082a7.719,7.719,0,0,1,7.72-7.72h1.185a7.726,7.726,0,0,1,1.669.181A7.7,7.7,0,0,0,112.542,230.451Z" transform="translate(-102.012 -201.114)" fill="#6fd7a3"/>
          <g id="Grupo_1212279" data-name="Grupo 1212279" transform="translate(4.008 11.893)">
            <path id="Trazado_1084659" data-name="Trazado 1084659" d="M126.538,117.765v3.683a8.053,8.053,0,0,1-5.151,7.512v1.792a2.947,2.947,0,0,1-2.794,2.97,2.9,2.9,0,0,1-3.009-2.9v-1.863a8.053,8.053,0,0,1-5.148-7.511v-3.683a8.134,8.134,0,0,1,.075-1.106.675.675,0,0,1,.927-.528,6.433,6.433,0,0,0,6.589-1.049.713.713,0,0,1,.919,0,6.432,6.432,0,0,0,6.589,1.049.675.675,0,0,1,.927.528A8.071,8.071,0,0,1,126.538,117.765Z" transform="translate(-110.436 -114.914)" fill="#ffdfcf"/>
            <path id="Trazado_1084660" data-name="Trazado 1084660" d="M121.776,136.327c-.128.059-.257.114-.389.164v1.792a2.947,2.947,0,0,1-2.794,2.97,2.9,2.9,0,0,1-3.009-2.9v-1.863a8.053,8.053,0,0,1-5.148-7.511V125.3a8.131,8.131,0,0,1,.075-1.106.675.675,0,0,1,.927-.528,6.462,6.462,0,0,0,3.771.337c-.022.239-.032.48-.032.725v3.683a8.053,8.053,0,0,0,6.6,7.921Z" transform="translate(-110.436 -122.444)" fill="#ffcebf"/>
          </g>
        </g>
        <g id="Grupo_1212281" data-name="Grupo 1212281" transform="translate(23.23 31.775)">
          <path id="Trazado_1084661" data-name="Trazado 1084661" d="M199.787,424.7H182a1.185,1.185,0,0,1-1.186-1.185v-1.089a10.077,10.077,0,0,1,20.154,0v1.089A1.185,1.185,0,0,1,199.787,424.7Z" transform="translate(-180.818 -389.859)" fill="#fe646f"/>
          <path id="Trazado_1084662" data-name="Trazado 1084662" d="M186.818,422.42v1.09A1.186,1.186,0,0,0,188,424.695h-6a1.186,1.186,0,0,1-1.186-1.185v-1.09A10.084,10.084,0,0,1,193.9,412.8,10.081,10.081,0,0,0,186.818,422.42Z" transform="translate(-180.818 -389.855)" fill="#fd4755"/>
          <path id="Trazado_1084663" data-name="Trazado 1084663" d="M199.517,267.884H182.271a1.454,1.454,0,0,1-1.454-1.454V254.642a10.077,10.077,0,1,1,20.154,0V266.43a1.454,1.454,0,0,1-1.454,1.454Z" transform="translate(-180.817 -244.565)" fill="#ffe177"/>
          <path id="Trazado_1084664" data-name="Trazado 1084664" d="M186.462,254.647v11.787a1.454,1.454,0,0,0,1.454,1.455h-5.645a1.454,1.454,0,0,1-1.454-1.455V254.647a10.081,10.081,0,0,1,12.9-9.675A10.08,10.08,0,0,0,186.462,254.647Z" transform="translate(-180.817 -244.569)" fill="#ffd15b"/>
        </g>
        <g id="Grupo_1212282" data-name="Grupo 1212282" transform="translate(46.46 31.775)">
          <path id="Trazado_1084665" data-name="Trazado 1084665" d="M373.1,424.7H355.319a1.186,1.186,0,0,1-1.186-1.185v-1.089a10.077,10.077,0,1,1,20.154,0v1.089A1.185,1.185,0,0,1,373.1,424.7Z" transform="translate(-354.133 -389.859)" fill="#d9b1ee"/>
          <path id="Trazado_1084666" data-name="Trazado 1084666" d="M377.978,349.634h-4.74a5.943,5.943,0,0,1-5.943-5.943v-3.764h16.626v3.764A5.943,5.943,0,0,1,377.978,349.634Z" transform="translate(-365.531 -327.145)" fill="#ffdfcf"/>
          <path id="Trazado_1084667" data-name="Trazado 1084667" d="M377.957,349.636h-4.719a5.942,5.942,0,0,1-5.943-5.943v-3.764h4.719v3.764A5.943,5.943,0,0,0,377.957,349.636Z" transform="translate(-365.532 -327.147)" fill="#ffcebf"/>
          <path id="Trazado_1084668" data-name="Trazado 1084668" d="M360.134,422.42v1.09a1.186,1.186,0,0,0,1.186,1.185h-6a1.186,1.186,0,0,1-1.186-1.185v-1.09a10.084,10.084,0,0,1,13.078-9.622A10.081,10.081,0,0,0,360.134,422.42Z" transform="translate(-354.134 -389.855)" fill="#cb97e7"/>
          <path id="Trazado_1084669" data-name="Trazado 1084669" d="M369.368,262.22H359.052a4.919,4.919,0,0,1-4.919-4.919v-2.659a10.077,10.077,0,1,1,20.154,0V257.3A4.919,4.919,0,0,1,369.368,262.22Z" transform="translate(-354.133 -244.565)" fill="#d1a08f"/>
          <path id="Trazado_1084670" data-name="Trazado 1084670" d="M363.911,262.222h-4.858a4.919,4.919,0,0,1-4.919-4.919v-2.659a10.083,10.083,0,0,1,12.506-9.782,10.078,10.078,0,0,0-7.648,9.782V257.3a4.919,4.919,0,0,0,4.919,4.919Z" transform="translate(-354.133 -244.567)" fill="#c68d7a"/>
        </g>
        <g id="Grupo_1212283" data-name="Grupo 1212283" transform="translate(0 31.775)">
          <path id="Trazado_1084671" data-name="Trazado 1084671" d="M26.469,424.7H8.686A1.185,1.185,0,0,1,7.5,423.514v-1.089a10.077,10.077,0,0,1,20.154,0v1.089A1.185,1.185,0,0,1,26.469,424.7Z" transform="translate(-7.5 -389.859)" fill="#03bed7"/>
          <path id="Trazado_1084672" data-name="Trazado 1084672" d="M31.345,349.634H26.6a5.943,5.943,0,0,1-5.943-5.943v-3.764H37.288v3.764A5.943,5.943,0,0,1,31.345,349.634Z" transform="translate(-18.898 -327.145)" fill="#d1a08f"/>
          <path id="Trazado_1084673" data-name="Trazado 1084673" d="M31.324,349.636H26.606a5.942,5.942,0,0,1-5.943-5.943v-3.764h4.719v3.764A5.943,5.943,0,0,0,31.324,349.636Z" transform="translate(-18.899 -327.147)" fill="#c68d7a"/>
          <path id="Trazado_1084674" data-name="Trazado 1084674" d="M13.5,422.42v1.09a1.186,1.186,0,0,0,1.186,1.185h-6A1.186,1.186,0,0,1,7.5,423.51v-1.09A10.084,10.084,0,0,1,20.578,412.8,10.081,10.081,0,0,0,13.5,422.42Z" transform="translate(-7.5 -389.855)" fill="#07b2cd"/>
          <path id="Trazado_1084675" data-name="Trazado 1084675" d="M22.735,262.22H12.419A4.919,4.919,0,0,1,7.5,257.3v-2.659a10.077,10.077,0,1,1,20.154,0V257.3A4.919,4.919,0,0,1,22.735,262.22Z" transform="translate(-7.5 -244.565)" fill="#596c76"/>
          <path id="Trazado_1084676" data-name="Trazado 1084676" d="M17.278,262.222H12.419A4.919,4.919,0,0,1,7.5,257.3v-2.659a10.083,10.083,0,0,1,12.506-9.782,10.078,10.078,0,0,0-7.648,9.782V257.3A4.919,4.919,0,0,0,17.278,262.222Z" transform="translate(-7.5 -244.567)" fill="#465a61"/>
        </g>
        <g id="Grupo_1212284" data-name="Grupo 1212284" transform="translate(37.036 4.347)">
          <path id="Trazado_1084677" data-name="Trazado 1084677" d="M301.722,39.933H288.075a4.253,4.253,0,0,0-4.253,4.253v7.232a4.253,4.253,0,0,0,4.253,4.253h4.255v3.9a1.446,1.446,0,0,0,2.588.888l3.728-4.789h3.077a4.253,4.253,0,0,0,4.253-4.253V44.186a4.253,4.253,0,0,0-4.253-4.253Z" transform="translate(-283.822 -39.933)" fill="#ffe177"/>
          <path id="Trazado_1084678" data-name="Trazado 1084678" d="M291.7,55.672h-3.628a4.254,4.254,0,0,1-4.253-4.253V44.187a4.254,4.254,0,0,1,4.253-4.253H291.7a4.254,4.254,0,0,0-4.253,4.253v7.232A4.254,4.254,0,0,0,291.7,55.672Z" transform="translate(-283.821 -39.934)" fill="#ffd15b"/>
        </g>
      </g>
      <g id="Grupo_1212286" data-name="Grupo 1212286" transform="translate(0 0)">
        <path id="Trazado_1084679" data-name="Trazado 1084679" d="M151.308,180.447a1.005,1.005,0,1,0-.913-1.791,4.314,4.314,0,0,1-3.906,0,1.005,1.005,0,1,0-.913,1.791,6.331,6.331,0,0,0,5.732,0Z" transform="translate(-125.589 -154.615)"/>
        <path id="Trazado_1084680" data-name="Trazado 1084680" d="M142.642,140.153V139a1.005,1.005,0,1,0-2.01,0v1.153a1.005,1.005,0,1,0,2.01,0Z" transform="translate(-121.783 -119.499)"/>
        <path id="Trazado_1084681" data-name="Trazado 1084681" d="M186.383,141.158a1,1,0,0,0,1.005-1.005V139a1.005,1.005,0,0,0-2.011,0v1.153A1,1,0,0,0,186.383,141.158Z" transform="translate(-160.531 -119.499)"/>
        <path id="Trazado_1084682" data-name="Trazado 1084682" d="M66.848,49.741a5.906,5.906,0,0,0,1.777-4.226V42.857a11.048,11.048,0,0,0-3.408-7.984V4.509A4.514,4.514,0,0,0,60.708,0H8.919A4.514,4.514,0,0,0,4.41,4.509V23.769a1.005,1.005,0,0,0,2.01,0V4.509a2.5,2.5,0,0,1,2.5-2.5H60.708a2.5,2.5,0,0,1,2.5,2.5V33.336a11.076,11.076,0,0,0-16.746,9.521v2.659c0,.029,0,.057,0,.085H45.395V42.857c0-.179,0-.361-.013-.539a1.005,1.005,0,0,0-2.008.1c.007.145.011.293.011.439V54.645a.45.45,0,0,1-.449.449H25.69a.449.449,0,0,1-.449-.449V42.857A9.073,9.073,0,0,1,42.2,38.379a1.005,1.005,0,0,0,1.748-.993,11.079,11.079,0,0,0-13.89-4.764,8.785,8.785,0,0,0-3.3-2.389v-.125a9.1,9.1,0,0,0,3.947-3.684,7.62,7.62,0,0,0,4.465-6.958V15.194a12.69,12.69,0,1,0-25.381,0v4.272A7.631,7.631,0,0,0,15.2,26.786a9.142,9.142,0,0,0,1.245,1.555,9.027,9.027,0,0,0,2.5,1.767v.127a8.733,8.733,0,0,0-2.852,1.9c-.187.187-.366.384-.535.587a11.047,11.047,0,0,0-9.138.084V28.461a1.005,1.005,0,1,0-2.01,0v5.555A11.071,11.071,0,0,0,0,42.857v2.659a5.906,5.906,0,0,0,1.777,4.226,6.959,6.959,0,0,0,4,5.879A11.091,11.091,0,0,0,0,65.345v1.089a2.193,2.193,0,0,0,2.191,2.191H19.974a2.193,2.193,0,0,0,2.191-2.191V65.345a11.091,11.091,0,0,0-5.774-9.725,6.959,6.959,0,0,0,4-5.878,5.937,5.937,0,0,0,1.394-2.131h1.45v7.034a2.462,2.462,0,0,0,2.46,2.46H26.9a11.082,11.082,0,0,0-3.67,8.24v1.09a2.193,2.193,0,0,0,2.191,2.191H43.2a2.193,2.193,0,0,0,2.191-2.191v-1.09a11.01,11.01,0,0,0-3.246-7.837c-.139-.139-.282-.272-.427-.4h1.213a2.462,2.462,0,0,0,2.46-2.46V47.611h1.45a5.941,5.941,0,0,0,1.394,2.131,6.959,6.959,0,0,0,4,5.878,11.091,11.091,0,0,0-5.774,9.725v1.089a2.193,2.193,0,0,0,2.191,2.191H66.434a2.193,2.193,0,0,0,2.191-2.191V65.345a11.091,11.091,0,0,0-5.774-9.725,6.959,6.959,0,0,0,4-5.879ZM11.8,19.466V15.194a10.68,10.68,0,1,1,21.36,0v4.272a5.628,5.628,0,0,1-1.329,3.646,8.9,8.9,0,0,0,.079-1.176V18.253a9.11,9.11,0,0,0-.085-1.244,1.68,1.68,0,0,0-2.3-1.32,5.427,5.427,0,0,1-5.558-.886,1.709,1.709,0,0,0-2.22,0,5.427,5.427,0,0,1-5.557.885,1.68,1.68,0,0,0-2.3,1.321,9.177,9.177,0,0,0-.085,1.243v3.683a9.128,9.128,0,0,0,.229,2.027,5.632,5.632,0,0,1-2.226-4.5Zm6.071,7.453a7,7,0,0,1-2.064-4.983V18.253c0-.184.007-.368.021-.552a7.441,7.441,0,0,0,7.025-1.209A7.44,7.44,0,0,0,29.878,17.7c.014.183.021.367.021.552v3.683a7.091,7.091,0,0,1-4.508,6.574,1,1,0,0,0-.643.938v1.792a1.949,1.949,0,0,1-1.825,1.965,1.9,1.9,0,0,1-1.967-1.9V29.448a1,1,0,0,0-.643-.938A7.024,7.024,0,0,1,17.871,26.919ZM2.011,42.857a9.072,9.072,0,0,1,18.144,0v2.659a3.918,3.918,0,0,1-3.914,3.914H5.924a3.918,3.918,0,0,1-3.914-3.914ZM20.154,65.345v1.089a.181.181,0,0,1-.18.18H2.191a.181.181,0,0,1-.18-.18V65.345a9.082,9.082,0,0,1,9.059-9.072H11.1a9.082,9.082,0,0,1,9.059,9.072Zm-6.7-11.082H8.712a4.945,4.945,0,0,1-4.582-3.1,5.9,5.9,0,0,0,1.795.279H16.24a5.9,5.9,0,0,0,1.794-.278,4.943,4.943,0,0,1-4.581,3.1Zm8.71-8.663c0-.028,0-.057,0-.085V42.857a11.077,11.077,0,0,0-4.811-9.131c.053-.057.106-.114.162-.17a6.719,6.719,0,0,1,1.579-1.172,3.911,3.911,0,0,0,3.755,2.832l.146,0a3.9,3.9,0,0,0,3.6-2.836,6.772,6.772,0,0,1,1.634,1.22,11.081,11.081,0,0,0-5,9.259V45.6H22.163ZM40.727,58.93a9.012,9.012,0,0,1,2.657,6.415v1.09a.18.18,0,0,1-.18.18H25.421a.18.18,0,0,1-.18-.18v-1.09a9.074,9.074,0,0,1,5.275-8.24h7.592A9.067,9.067,0,0,1,40.727,58.93Zm7.744-16.073a9.072,9.072,0,0,1,18.144,0v2.659A3.918,3.918,0,0,1,62.7,49.429H52.385a3.918,3.918,0,0,1-3.914-3.914ZM66.615,65.345v1.089a.181.181,0,0,1-.18.18H48.651a.181.181,0,0,1-.18-.18V65.345a9.082,9.082,0,0,1,9.059-9.072h.026A9.082,9.082,0,0,1,66.615,65.345Zm-6.7-11.082H55.172a4.943,4.943,0,0,1-4.581-3.1,5.9,5.9,0,0,0,1.794.278H62.7a5.9,5.9,0,0,0,1.795-.279A4.945,4.945,0,0,1,59.913,54.263Z" transform="translate(0 0)"/>
        <path id="Trazado_1084683" data-name="Trazado 1084683" d="M282.861,32.43h-1.283a5.264,5.264,0,0,0-5.258,5.258v7.232a5.264,5.264,0,0,0,5.258,5.258h3.25v2.9a2.421,2.421,0,0,0,1.655,2.318,2.5,2.5,0,0,0,.813.137,2.42,2.42,0,0,0,1.918-.949l3.427-4.4h2.585a5.264,5.264,0,0,0,5.258-5.258V37.688a5.264,5.264,0,0,0-5.258-5.258h-7.673a1.005,1.005,0,1,0,0,2.011h7.673a3.251,3.251,0,0,1,3.248,3.248v7.232a3.251,3.251,0,0,1-3.248,3.248h-3.076a1,1,0,0,0-.793.388l-3.729,4.79a.441.441,0,0,1-.789-.271v-3.9a1,1,0,0,0-1.005-1.005h-4.256a3.251,3.251,0,0,1-3.248-3.248V37.688a3.251,3.251,0,0,1,3.248-3.248h1.283a1.005,1.005,0,1,0,0-2.011Z" transform="translate(-239.284 -28.083)"/>
        <path id="Trazado_1084684" data-name="Trazado 1084684" d="M324.834,72.83H311.967a1.005,1.005,0,0,0,0,2.011h12.867a1.005,1.005,0,1,0,0-2.011Z" transform="translate(-269.283 -63.068)"/>
        <path id="Trazado_1084685" data-name="Trazado 1084685" d="M324.834,105.078H311.967a1.005,1.005,0,1,0,0,2.01h12.867a1.005,1.005,0,1,0,0-2.01Z" transform="translate(-269.283 -90.994)"/>
      </g>
    </g>
  </g>
</svg>
