<svg xmlns="http://www.w3.org/2000/svg" xmlns:xlink="http://www.w3.org/1999/xlink" width="110" height="110" viewBox="0 0 110 110">
  <defs>
    <filter id="Trazado_982547" x="0" y="0" width="110" height="110" filterUnits="userSpaceOnUse">
      <feOffset dy="3" input="SourceAlpha"/>
      <feGaussianBlur stdDeviation="3" result="blur"/>
      <feFlood flood-opacity="0.161"/>
      <feComposite operator="in" in2="blur"/>
      <feComposite in="SourceGraphic"/>
    </filter>
  </defs>
  <g id="Grupo_1212291" data-name="Grupo 1212291" transform="translate(-298 -1878.28)">
    <g id="Grupo_1211418" data-name="Grupo 1211418" transform="translate(-394 -4196)">
      <g id="Grupo_1200151" data-name="Grupo 1200151" transform="translate(701 6080.28)">
        <g id="Grupo_1185952" data-name="Grupo 1185952" transform="translate(0 0)">
          <g id="Grupo_1184115" data-name="Grupo 1184115">
            <g id="Grupo_1183744" data-name="Grupo 1183744" transform="translate(0 0)">
              <g id="Grupo_1181546" data-name="Grupo 1181546">
                <g id="Grupo_1177563" data-name="Grupo 1177563">
                  <g id="Grupo_1173148" data-name="Grupo 1173148" transform="translate(0 0)">
                    <g id="Grupo_1163803" data-name="Grupo 1163803" transform="translate(0 0)">
                      <g id="Grupo_1163015" data-name="Grupo 1163015" transform="translate(0 0)">
                        <g id="Grupo_1157017" data-name="Grupo 1157017" transform="translate(0 0)">
                          <g id="Grupo_1155793" data-name="Grupo 1155793" transform="translate(0 0)">
                            <g id="Grupo_1154704" data-name="Grupo 1154704" transform="translate(0 0)">
                              <g id="Grupo_1150790" data-name="Grupo 1150790">
                                <g id="Grupo_1154214" data-name="Grupo 1154214">
                                  <g id="Grupo_1152583" data-name="Grupo 1152583">
                                    <g id="Grupo_1146973" data-name="Grupo 1146973">
                                      <g id="Grupo_1146954" data-name="Grupo 1146954">
                                        <g transform="matrix(1, 0, 0, 1, -9, -6)" filter="url(#Trazado_982547)">
                                          <g id="Trazado_982547-2" data-name="Trazado 982547" transform="translate(9 6)" fill="#fdecc1">
                                            <path d="M 46.00000762939453 90.49988555908203 C 39.99188613891602 90.49988555908203 34.16427612304688 89.32352447509766 28.67906188964844 87.00347137451172 C 23.38020706176758 84.76226043701172 18.62104797363281 81.55342864990234 14.53375434875488 77.46615600585938 C 10.44647407531738 73.37887573242188 7.237647533416748 68.61971282958984 4.996420860290527 63.32085800170898 C 2.676367521286011 57.83565902709961 1.500007629394531 52.00806045532227 1.500007629394531 45.99993896484375 C 1.500007629394531 39.99181747436523 2.676367521286011 34.16421890258789 4.996420860290527 28.67901802062988 C 7.237647533416748 23.38017845153809 10.44647407531738 18.62101936340332 14.53375434875488 14.53373908996582 C 18.62104797363281 10.44645881652832 23.38020706176758 7.237632274627686 28.67906188964844 4.996418952941895 C 34.16427612304688 2.676365613937378 39.99188613891602 1.500005602836609 46.00000762939453 1.500005602836609 C 52.00812911987305 1.500005602836609 57.83573913574219 2.676365613937378 63.32095336914062 4.996418952941895 C 68.61980438232422 7.237632274627686 73.37896728515625 10.44645881652832 77.46626281738281 14.53373908996582 C 81.55354309082031 18.62101936340332 84.76236724853516 23.38017845153809 87.00359344482422 28.67901802062988 C 89.32364654541016 34.16421890258789 90.50000762939453 39.99181747436523 90.50000762939453 45.99993896484375 C 90.50000762939453 52.00806045532227 89.32364654541016 57.83565902709961 87.00359344482422 63.32085800170898 C 84.76236724853516 68.61971282958984 81.55354309082031 73.37887573242188 77.46626281738281 77.46615600585938 C 73.37896728515625 81.55342864990234 68.61980438232422 84.76226043701172 63.32095336914062 87.00347137451172 C 57.83573913574219 89.32352447509766 52.00812911987305 90.49988555908203 46.00000762939453 90.49988555908203 Z" stroke="none"/>
                                            <path d="M 46.00000762939453 2.999992370605469 C 40.19372177124023 2.999992370605469 34.56270599365234 4.136497497558594 29.26339340209961 6.377906799316406 C 24.14333343505859 8.543510437011719 19.54441833496094 11.64437866210938 15.59440612792969 15.59439849853516 C 11.6444091796875 19.54439544677734 8.543525695800781 24.14329528808594 6.377922058105469 29.26335144042969 C 4.136505126953125 34.56266784667969 3.000007629394531 40.19366836547852 3.000007629394531 45.99993896484375 C 3.000007629394531 51.80620956420898 4.136505126953125 57.43722534179688 6.377922058105469 62.73654174804688 C 8.543525695800781 67.85658264160156 11.6444091796875 72.45548248291016 15.59440612792969 76.40549468994141 C 19.54441833496094 80.35549926757812 24.14333343505859 83.45636749267578 29.26337814331055 85.62196350097656 C 34.56270599365234 87.86338043212891 40.19372177124023 88.9998779296875 46.00000762939453 88.9998779296875 C 51.80629348754883 88.9998779296875 57.43730926513672 87.86338043212891 62.73662185668945 85.62196350097656 C 67.85668182373047 83.45636749267578 72.45558166503906 80.35549926757812 76.40559387207031 76.40549468994141 C 80.35560607910156 72.45548248291016 83.45648193359375 67.85658264160156 85.62207794189453 62.73654174804688 C 87.86351013183594 57.43722534179688 89.00000762939453 51.80620956420898 89.00000762939453 45.99993896484375 C 89.00000762939453 40.19366836547852 87.86351013183594 34.56266784667969 85.62207794189453 29.26335144042969 C 83.45648193359375 24.14329528808594 80.35560607910156 19.54439544677734 76.40559387207031 15.59439849853516 C 72.45558166503906 11.64437866210938 67.85668182373047 8.543510437011719 62.73662185668945 6.377906799316406 C 57.43729400634766 4.136497497558594 51.80629348754883 2.999992370605469 46.00000762939453 2.999992370605469 M 46.00000762939453 -7.62939453125e-06 C 71.40509033203125 -7.62939453125e-06 92.00000762939453 20.59487915039062 92.00000762939453 45.99993896484375 C 92.00000762939453 71.40501403808594 71.40509033203125 91.99988555908203 46.00000762939453 91.99988555908203 C 20.59490966796875 91.99988555908203 7.62939453125e-06 71.40501403808594 7.62939453125e-06 45.99993896484375 C 7.62939453125e-06 20.59487915039062 20.59490966796875 -7.62939453125e-06 46.00000762939453 -7.62939453125e-06 Z" stroke="none" fill="#f8c234"/>
                                          </g>
                                        </g>
                                      </g>
                                    </g>
                                  </g>
                                </g>
                              </g>
                            </g>
                          </g>
                        </g>
                      </g>
                    </g>
                  </g>
                </g>
              </g>
            </g>
          </g>
        </g>
      </g>
    </g>
    <g id="birrete" transform="translate(320.96 1898.239)">
      <g id="Grupo_1212289" data-name="Grupo 1212289" transform="translate(0.939 0.939)">
        <path id="Trazado_1084686" data-name="Trazado 1084686" d="M69.7,80.136v40.5a1.646,1.646,0,0,1-1.647,1.646H9.147A1.646,1.646,0,0,1,7.5,120.64v-40.5A1.646,1.646,0,0,1,9.147,78.49H68.056A1.646,1.646,0,0,1,69.7,80.136Z" transform="translate(-7.5 -69.605)" fill="#e6fdff"/>
        <path id="Trazado_1084687" data-name="Trazado 1084687" d="M69.7,80.136v40.5a1.646,1.646,0,0,1-1.647,1.646H9.147A1.646,1.646,0,0,1,7.5,120.64v-2.109H62.351a3.331,3.331,0,0,0,3.332-3.33V78.49h2.373A1.646,1.646,0,0,1,69.7,80.136Z" transform="translate(-7.5 -69.605)" fill="#c1eaf4"/>
        <g id="Grupo_1212288" data-name="Grupo 1212288" transform="translate(0 8.885)">
          <path id="Trazado_1084688" data-name="Trazado 1084688" d="M69.7,80.136V86H7.5V80.136A1.646,1.646,0,0,1,9.147,78.49H68.056A1.646,1.646,0,0,1,69.7,80.136Z" transform="translate(-7.5 -78.49)" fill="#466175"/>
          <path id="Trazado_1084689" data-name="Trazado 1084689" d="M69.7,368.43v5.862a1.646,1.646,0,0,1-1.647,1.646H9.147A1.646,1.646,0,0,1,7.5,374.292V368.43Z" transform="translate(-7.5 -332.142)" fill="#466175"/>
          <path id="Trazado_1084690" data-name="Trazado 1084690" d="M166.038,100.57v20.423l-15.019,6.121L136,120.993V100.57Z" transform="translate(-119.917 -97.807)" fill="#466175"/>
        </g>
        <path id="Trazado_1084691" data-name="Trazado 1084691" d="M166.038,100.57v20.423l-15.019,6.121L136,120.993v-3.608l15.019,5.975,10.718-4.349a1.659,1.659,0,0,0,1.036-1.537V105.618l-11.046,4.5a1.876,1.876,0,0,1-1.417,0L136,104.287V100.57Z" transform="translate(-119.917 -88.922)" fill="#2d4859"/>
        <path id="Trazado_1084692" data-name="Trazado 1084692" d="M166.038,205.27v7.319l-15.019,6.121L136,212.589V205.27l15.019,6.12,11.755-4.79Z" transform="translate(-119.917 -180.518)" fill="#4fe8bc"/>
        <path id="Trazado_1084693" data-name="Trazado 1084693" d="M166.038,205.27v7.319l-15.019,6.121L136,212.589v-3.608l15.019,5.975,10.718-4.349a1.659,1.659,0,0,0,1.036-1.537V206.6Z" transform="translate(-119.917 -180.518)" fill="#17c6a5"/>
        <path id="Trazado_1084694" data-name="Trazado 1084694" d="M125.405,16.384,103.6,7.5,81.8,16.384l21.8,8.884Z" transform="translate(-72.502 -7.5)" fill="#4fe8bc"/>
        <path id="Trazado_1084695" data-name="Trazado 1084695" d="M207.36,436.061H191.12l1.274-3.916,1.214-3.729h11.264Z" transform="translate(-168.139 -375.736)" fill="#aec9d6"/>
        <path id="Trazado_1084696" data-name="Trazado 1084696" d="M207.36,436.062H191.12l1.274-3.916h7.956a2.141,2.141,0,0,0,2.056-2.745l-.288-.984h2.753Z" transform="translate(-168.139 -375.737)" fill="#8fb2bc"/>
        <path id="Trazado_1084697" data-name="Trazado 1084697" d="M177.283,476.827a1.434,1.434,0,0,1-1.434,1.433H152.434A1.436,1.436,0,0,1,151,476.827a2.323,2.323,0,0,1,2.32-2.32h21.642a2.32,2.32,0,0,1,2.32,2.32Z" transform="translate(-133.04 -416.058)" fill="#466175"/>
        <path id="Trazado_1084698" data-name="Trazado 1084698" d="M176.6,475.186a2.317,2.317,0,0,1,.68,1.641,1.434,1.434,0,0,1-1.434,1.433H152.434A1.436,1.436,0,0,1,151,476.826a2.316,2.316,0,0,1,.046-.459h21.986a1.434,1.434,0,0,0,1.434-1.433,2.3,2.3,0,0,0-.04-.428h.536A2.31,2.31,0,0,1,176.6,475.186Z" transform="translate(-133.04 -416.057)" fill="#2d4859"/>
        <path id="Trazado_1084699" data-name="Trazado 1084699" d="M476.4,80.136V86h-4.02V78.49h2.373A1.646,1.646,0,0,1,476.4,80.136Z" transform="translate(-414.197 -69.605)" fill="#2d4859"/>
        <path id="Trazado_1084700" data-name="Trazado 1084700" d="M65.683,368.43H69.7v5.862a1.646,1.646,0,0,1-1.647,1.646H9.147A1.646,1.646,0,0,1,7.5,374.292v-2.109H62.351a3.331,3.331,0,0,0,3.332-3.33Z" transform="translate(-7.5 -323.257)" fill="#2d4859"/>
      </g>
      <g id="Grupo_1212290" data-name="Grupo 1212290" transform="translate(0 0.001)">
        <path id="Trazado_1084701" data-name="Trazado 1084701" d="M61.495,70.987H57.533a.939.939,0,0,0,0,1.877h3.962a.709.709,0,0,1,.708.708v4.923H50.814a.939.939,0,0,0,0,1.877H62.2v26.9H55.1a.939.939,0,0,0,0,1.877h7.1v4.923a.709.709,0,0,1-.708.708H2.585a.709.709,0,0,1-.708-.708v-4.923h48.9a.939.939,0,0,0,0-1.877H1.877v-26.9H13.267a.939.939,0,0,0,0-1.877H1.877V73.572a.709.709,0,0,1,.708-.708H6.514a.939.939,0,1,0,0-1.877H2.585A2.588,2.588,0,0,0,0,73.572v40.5a2.588,2.588,0,0,0,2.585,2.585h22.53l-1.266,3.891H21.22a3.263,3.263,0,0,0-3.26,3.259,2.375,2.375,0,0,0,2.372,2.372H43.748a2.375,2.375,0,0,0,2.372-2.372,3.263,3.263,0,0,0-3.26-3.259H40.231l-1.266-3.891H61.5a2.588,2.588,0,0,0,2.585-2.585v-40.5a2.589,2.589,0,0,0-2.586-2.585ZM38.257,120.551h-6.1a.939.939,0,1,0,0,1.877H42.861a1.384,1.384,0,0,1,1.382,1.382.5.5,0,0,1-.5.495H20.332a.5.5,0,0,1-.5-.495,1.384,1.384,0,0,1,1.382-1.382h6.6a.939.939,0,1,0,0-1.877h-2l1.266-3.891h9.9Z" transform="translate(0 -62.103)"/>
        <path id="Trazado_1084702" data-name="Trazado 1084702" d="M74.885,10.693l6.2,2.526V33.011a.939.939,0,0,0,.584.869L85.8,35.565v3.972a.939.939,0,0,0,1.877,0V36.33L96.688,40a.938.938,0,0,0,.708,0l15.019-6.12a.939.939,0,0,0,.584-.869V13.219l6.2-2.526a.939.939,0,0,0,0-1.738L97.4.07a.939.939,0,0,0-.708,0l-21.8,8.884a.939.939,0,0,0,0,1.739ZM85.8,15.142V26.219l-2.841-1.158V13.984ZM82.962,32.38V27.088L85.8,28.246v5.292Zm14.08,5.738L87.68,34.3V29.011l9.008,3.671a.938.938,0,0,0,.708,0l13.726-5.593V32.38Zm0-36.165,19.315,7.871L106.34,13.906a.939.939,0,0,0,.708,1.738l4.073-1.66V25.061L97.042,30.8,87.68,26.984V15.907l9.008,3.671a.938.938,0,0,0,.708,0l5.582-2.275a.939.939,0,1,0-.709-1.738l-5.227,2.13-7.813-3.184L97.4,11.183a.939.939,0,0,0-.708-1.738L86.741,13.5,77.727,9.824Z" transform="translate(-65.002 -0.001)"/>
      </g>
    </g>
  </g>
</svg>
