<svg xmlns="http://www.w3.org/2000/svg" xmlns:xlink="http://www.w3.org/1999/xlink" width="110" height="110" viewBox="0 0 110 110">
  <defs>
    <filter id="Trazado_982547" x="0" y="0" width="110" height="110" filterUnits="userSpaceOnUse">
      <feOffset dy="3" input="SourceAlpha"/>
      <feGaussianBlur stdDeviation="3" result="blur"/>
      <feFlood flood-opacity="0.161"/>
      <feComposite operator="in" in2="blur"/>
      <feComposite in="SourceGraphic"/>
    </filter>
  </defs>
  <g id="Grupo_1212293" data-name="Grupo 1212293" transform="translate(17 -2235.28)">
    <g id="Grupo_1211419" data-name="Grupo 1211419" transform="translate(-394 -3838)">
      <g id="Grupo_1200150" data-name="Grupo 1200150" transform="translate(386 6079.28)">
        <g id="Grupo_1185951" data-name="Grupo 1185951" transform="translate(0 0)">
          <g id="Grupo_1184083" data-name="Grupo 1184083" transform="translate(0 0)">
            <g id="Grupo_1183743" data-name="Grupo 1183743" transform="translate(0 0)">
              <g id="Grupo_1181545" data-name="Grupo 1181545">
                <g id="Grupo_1177562" data-name="Grupo 1177562">
                  <g id="Grupo_1173147" data-name="Grupo 1173147" transform="translate(0 0)">
                    <g id="Grupo_1163801" data-name="Grupo 1163801" transform="translate(0 0)">
                      <g id="Grupo_1163014" data-name="Grupo 1163014" transform="translate(0 0)">
                        <g id="Grupo_1157015" data-name="Grupo 1157015" transform="translate(0 0)">
                          <g id="Grupo_1155792" data-name="Grupo 1155792" transform="translate(0 0)">
                            <g id="Grupo_1154703" data-name="Grupo 1154703" transform="translate(0 0)">
                              <g id="Grupo_1150789" data-name="Grupo 1150789">
                                <g id="Grupo_1154212" data-name="Grupo 1154212">
                                  <g id="Grupo_1152583" data-name="Grupo 1152583">
                                    <g id="Grupo_1146973" data-name="Grupo 1146973">
                                      <g id="Grupo_1146954" data-name="Grupo 1146954">
                                        <g transform="matrix(1, 0, 0, 1, -9, -6)" filter="url(#Trazado_982547)">
                                          <g id="Trazado_982547-2" data-name="Trazado 982547" transform="translate(9 6)" fill="#fdecc1">
                                            <path d="M 46.00000762939453 90.49988555908203 C 39.99188613891602 90.49988555908203 34.16427612304688 89.32352447509766 28.67906188964844 87.00347137451172 C 23.38020706176758 84.76226043701172 18.62104797363281 81.55342864990234 14.53375434875488 77.46615600585938 C 10.44647407531738 73.37887573242188 7.237647533416748 68.61971282958984 4.996420860290527 63.32085800170898 C 2.676367521286011 57.83565902709961 1.500007629394531 52.00806045532227 1.500007629394531 45.99993896484375 C 1.500007629394531 39.99181747436523 2.676367521286011 34.16421890258789 4.996420860290527 28.67901802062988 C 7.237647533416748 23.38017845153809 10.44647407531738 18.62101936340332 14.53375434875488 14.53373908996582 C 18.62104797363281 10.44645881652832 23.38020706176758 7.237632274627686 28.67906188964844 4.996418952941895 C 34.16427612304688 2.676365613937378 39.99188613891602 1.500005602836609 46.00000762939453 1.500005602836609 C 52.00812911987305 1.500005602836609 57.83573913574219 2.676365613937378 63.32095336914062 4.996418952941895 C 68.61980438232422 7.237632274627686 73.37896728515625 10.44645881652832 77.46626281738281 14.53373908996582 C 81.55354309082031 18.62101936340332 84.76236724853516 23.38017845153809 87.00359344482422 28.67901802062988 C 89.32364654541016 34.16421890258789 90.50000762939453 39.99181747436523 90.50000762939453 45.99993896484375 C 90.50000762939453 52.00806045532227 89.32364654541016 57.83565902709961 87.00359344482422 63.32085800170898 C 84.76236724853516 68.61971282958984 81.55354309082031 73.37887573242188 77.46626281738281 77.46615600585938 C 73.37896728515625 81.55342864990234 68.61980438232422 84.76226043701172 63.32095336914062 87.00347137451172 C 57.83573913574219 89.32352447509766 52.00812911987305 90.49988555908203 46.00000762939453 90.49988555908203 Z" stroke="none"/>
                                            <path d="M 46.00000762939453 2.999992370605469 C 40.19372177124023 2.999992370605469 34.56270599365234 4.136497497558594 29.26339340209961 6.377906799316406 C 24.14333343505859 8.543510437011719 19.54441833496094 11.64437866210938 15.59440612792969 15.59439849853516 C 11.6444091796875 19.54439544677734 8.543525695800781 24.14329528808594 6.377922058105469 29.26335144042969 C 4.136505126953125 34.56266784667969 3.000007629394531 40.19366836547852 3.000007629394531 45.99993896484375 C 3.000007629394531 51.80620956420898 4.136505126953125 57.43722534179688 6.377922058105469 62.73654174804688 C 8.543525695800781 67.85658264160156 11.6444091796875 72.45548248291016 15.59440612792969 76.40549468994141 C 19.54441833496094 80.35549926757812 24.14333343505859 83.45636749267578 29.26337814331055 85.62196350097656 C 34.56270599365234 87.86338043212891 40.19372177124023 88.9998779296875 46.00000762939453 88.9998779296875 C 51.80629348754883 88.9998779296875 57.43730926513672 87.86338043212891 62.73662185668945 85.62196350097656 C 67.85668182373047 83.45636749267578 72.45558166503906 80.35549926757812 76.40559387207031 76.40549468994141 C 80.35560607910156 72.45548248291016 83.45648193359375 67.85658264160156 85.62207794189453 62.73654174804688 C 87.86351013183594 57.43722534179688 89.00000762939453 51.80620956420898 89.00000762939453 45.99993896484375 C 89.00000762939453 40.19366836547852 87.86351013183594 34.56266784667969 85.62207794189453 29.26335144042969 C 83.45648193359375 24.14329528808594 80.35560607910156 19.54439544677734 76.40559387207031 15.59439849853516 C 72.45558166503906 11.64437866210938 67.85668182373047 8.543510437011719 62.73662185668945 6.377906799316406 C 57.43729400634766 4.136497497558594 51.80629348754883 2.999992370605469 46.00000762939453 2.999992370605469 M 46.00000762939453 -7.62939453125e-06 C 71.40509033203125 -7.62939453125e-06 92.00000762939453 20.59487915039062 92.00000762939453 45.99993896484375 C 92.00000762939453 71.40501403808594 71.40509033203125 91.99988555908203 46.00000762939453 91.99988555908203 C 20.59490966796875 91.99988555908203 7.62939453125e-06 71.40501403808594 7.62939453125e-06 45.99993896484375 C 7.62939453125e-06 20.59487915039062 20.59490966796875 -7.62939453125e-06 46.00000762939453 -7.62939453125e-06 Z" stroke="none" fill="#f8c234"/>
                                          </g>
                                        </g>
                                      </g>
                                    </g>
                                  </g>
                                </g>
                              </g>
                            </g>
                          </g>
                        </g>
                      </g>
                    </g>
                  </g>
                </g>
              </g>
            </g>
          </g>
        </g>
      </g>
    </g>
    <g id="Layer_32" data-name="Layer 32" transform="translate(1.163 2254.203)">
      <path id="Trazado_1084703" data-name="Trazado 1084703" d="M41,21.571V31.854a2.571,2.571,0,0,0,2.571,2.571v5.142l5.142-5.142H59a2.571,2.571,0,0,0,2.571-2.571V21.571A2.571,2.571,0,0,0,59,19H43.571A2.571,2.571,0,0,0,41,21.571Z" transform="translate(9.989 4.851)" fill="#fcbe42"/>
      <path id="Trazado_1084704" data-name="Trazado 1084704" d="M30.568,34.142V29H25.427v5.142a2.571,2.571,0,0,1-2.571,2.571H19v5.142H37V36.712H33.139A2.571,2.571,0,0,1,30.568,34.142Z" transform="translate(3.711 7.705)" fill="#ffd3b6"/>
      <path id="Trazado_1084705" data-name="Trazado 1084705" d="M52.7,45.283v5.142H9V45.283A10.283,10.283,0,0,1,19.283,35h5.27a6.427,6.427,0,0,0,12.6,0h5.27A10.283,10.283,0,0,1,52.7,45.283Z" transform="translate(0.857 9.418)" fill="#fcbe42"/>
      <path id="Trazado_1084706" data-name="Trazado 1084706" d="M17,13H40.137V24.568a11.568,11.568,0,1,1-23.137,0Z" transform="translate(3.14 3.139)" fill="#ffd3b6"/>
      <path id="Trazado_1084707" data-name="Trazado 1084707" d="M40.137,7H17V19.854H30.075a2.57,2.57,0,0,0,1.817-.753l1.818-1.818L35.527,19.1a2.571,2.571,0,0,0,1.818.753h2.792Z" transform="translate(3.14 1.427)" fill="#7a838b"/>
      <path id="Trazado_1084708" data-name="Trazado 1084708" d="M55.844,39H7L9.571,67.278h43.7Z" transform="translate(0.287 10.559)" fill="#7a838b"/>
      <circle id="Elipse_12608" data-name="Elipse 12608" cx="3.856" cy="3.856" r="3.856" transform="translate(27.853 59.842)" fill="#d6e4e8"/>
      <g id="Grupo_1212292" data-name="Grupo 1212292" transform="translate(12.428 3.285)">
        <path id="Trazado_1084709" data-name="Trazado 1084709" d="M13,18.425V21h5.142V18.425A10.283,10.283,0,0,1,28.425,8.142H31A10.283,10.283,0,0,1,41.278,18.425V21H46.42V18.425A15.425,15.425,0,0,0,31,3H28.425A15.425,15.425,0,0,0,13,18.425Z" transform="translate(-10.429 -3)" fill="#ff938d"/>
        <path id="Trazado_1084710" data-name="Trazado 1084710" d="M13.571,15h5.142V25.283H13.571A2.571,2.571,0,0,1,11,22.712V17.571A2.571,2.571,0,0,1,13.571,15Z" transform="translate(-11 0.425)" fill="#ff938d"/>
        <path id="Trazado_1084711" data-name="Trazado 1084711" d="M2.571,0H7.712V10.283H2.571A2.571,2.571,0,0,1,0,7.712V2.571A2.571,2.571,0,0,1,2.571,0Z" transform="translate(38.561 25.708) rotate(180)" fill="#ff938d"/>
      </g>
      <path id="Trazado_1084712" data-name="Trazado 1084712" d="M68.985,22.566H53.56a3.812,3.812,0,0,0-1.285.237V21.281a3.856,3.856,0,0,0-2.62-3.635A16.662,16.662,0,0,0,45.448,7.57a1.285,1.285,0,0,0-1.914,1.715,14.1,14.1,0,0,1,3.54,8.14H44.487A11.583,11.583,0,0,0,32.994,7.142H30.423A11.583,11.583,0,0,0,18.931,17.425H16.35A14.152,14.152,0,0,1,30.423,4.571h2.571a14.139,14.139,0,0,1,7.07,1.891,1.285,1.285,0,1,0,1.285-2.225A16.71,16.71,0,0,0,32.994,2H30.423A16.716,16.716,0,0,0,13.767,17.644a3.856,3.856,0,0,0-2.625,3.636v5.142A3.856,3.856,0,0,0,15,30.278h4.113a12.9,12.9,0,0,0,8.741,9.69v1.878a1.285,1.285,0,0,1-1.285,1.285H20.14a11.6,11.6,0,0,0-9.59,5.142H7.287A1.285,1.285,0,0,0,6,49.676L8.572,77.954a1.285,1.285,0,0,0,1.285,1.168h43.7a1.285,1.285,0,0,0,1.285-1.168l2.571-28.278a1.285,1.285,0,0,0-1.285-1.4H52.867a11.6,11.6,0,0,0-9.59-5.142H36.85a1.285,1.285,0,0,1-1.285-1.285V39.969a12.9,12.9,0,0,0,8.741-9.69h4.113a3.813,3.813,0,0,0,1.285-.237v6.663a3.864,3.864,0,0,0,2.571,3.636v4.076a1.285,1.285,0,0,0,.793,1.188,1.269,1.269,0,0,0,.492.1,1.285,1.285,0,0,0,.909-.376l4.765-4.765h9.751a3.856,3.856,0,0,0,3.856-3.856V26.422a3.856,3.856,0,0,0-3.856-3.856ZM30.423,9.712h2.571a9.008,9.008,0,0,1,9,9V20H40.487a1.285,1.285,0,0,1-.91-.377L37.759,17.8a1.285,1.285,0,0,0-1.818,0l-1.818,1.818a1.285,1.285,0,0,1-.91.377H21.426V18.71a9.008,9.008,0,0,1,9-9ZM15,27.708a1.285,1.285,0,0,1-1.285-1.285V21.281A1.285,1.285,0,0,1,15,20h3.856v7.712Zm5.142,18h4.294a7.638,7.638,0,0,0,1.558,2.571H13.854A9.029,9.029,0,0,1,20.14,45.7ZM52.387,76.552H11.031L8.7,50.844H54.73ZM39.421,45.7h3.856a9.029,9.029,0,0,1,6.287,2.571H37.425A7.638,7.638,0,0,0,38.983,45.7Zm-3.234-.067a5.121,5.121,0,0,1-8.957,0,3.856,3.856,0,0,0,3.193-3.789V40.5a12.634,12.634,0,0,0,2.571,0v1.351a3.856,3.856,0,0,0,3.193,3.789Zm-4.478-7.645A10.3,10.3,0,0,1,21.426,27.708V22.566H33.214a3.828,3.828,0,0,0,2.728-1.13l.909-.909.909.909a3.828,3.828,0,0,0,2.728,1.13h1.505v5.142A10.3,10.3,0,0,1,31.709,37.991Zm16.71-10.283H44.563V20h3.856A1.285,1.285,0,0,1,49.7,21.281v5.142A1.285,1.285,0,0,1,48.419,27.708Zm21.851,9a1.285,1.285,0,0,1-1.285,1.285H58.7a1.285,1.285,0,0,0-.909.376l-2.948,2.948V39.276a1.285,1.285,0,0,0-1.285-1.285,1.285,1.285,0,0,1-1.285-1.285V26.422a1.285,1.285,0,0,1,1.285-1.285H68.985a1.285,1.285,0,0,1,1.285,1.285Z" transform="translate(0 0)"/>
      <path id="Trazado_1084713" data-name="Trazado 1084713" d="M30.285,19A1.285,1.285,0,0,0,29,20.285v1.285a1.285,1.285,0,0,0,2.571,0V20.285A1.285,1.285,0,0,0,30.285,19Z" transform="translate(6.565 4.851)"/>
      <path id="Trazado_1084714" data-name="Trazado 1084714" d="M22.285,19A1.285,1.285,0,0,0,21,20.285v1.285a1.285,1.285,0,0,0,2.571,0V20.285A1.285,1.285,0,0,0,22.285,19Z" transform="translate(4.282 4.851)"/>
      <path id="Trazado_1084715" data-name="Trazado 1084715" d="M27.142,46a5.142,5.142,0,1,0,5.142,5.142A5.142,5.142,0,0,0,27.142,46Zm0,7.712a2.571,2.571,0,1,1,2.571-2.571A2.571,2.571,0,0,1,27.142,53.712Z" transform="translate(4.567 12.557)"/>
      <path id="Trazado_1084716" data-name="Trazado 1084716" d="M57.139,21H46.856a1.285,1.285,0,0,0-1.285,1.285v5.633l-.711-.356a1.286,1.286,0,0,0-1.149,2.3l2.571,1.285A1.285,1.285,0,0,0,48.142,30V23.571h9a1.285,1.285,0,0,0,0-2.571Z" transform="translate(10.56 5.422)"/>
      <path id="Trazado_1084717" data-name="Trazado 1084717" d="M55.455,24.438a1.285,1.285,0,0,0-1.8-.257l-1.8,1.35-1.8-1.35a1.285,1.285,0,0,0-1.542,2.057l1.2.9-1.2.9a1.285,1.285,0,0,0,1.542,2.057l1.8-1.35,1.8,1.35A1.285,1.285,0,0,0,55.2,28.037l-1.2-.9,1.2-.9A1.285,1.285,0,0,0,55.455,24.438Z" transform="translate(11.987 6.257)"/>
    </g>
  </g>
</svg>
