<svg xmlns="http://www.w3.org/2000/svg" xmlns:xlink="http://www.w3.org/1999/xlink" width="111.51" height="111.51" viewBox="0 0 111.51 111.51">
  <defs>
    <filter id="Elipse_11513" x="0" y="0" width="111.51" height="111.51" filterUnits="userSpaceOnUse">
      <feOffset dy="3" input="SourceAlpha"/>
      <feGaussianBlur stdDeviation="3" result="blur"/>
      <feFlood flood-opacity="0.161"/>
      <feComposite operator="in" in2="blur"/>
      <feComposite in="SourceGraphic"/>
    </filter>
    <clipPath id="clip-path">
      <circle id="Elipse_12614" data-name="Elipse 12614" cx="36" cy="36" r="36" transform="translate(351.565 3189.565)" fill="#fff" stroke="#707070" stroke-width="1"/>
    </clipPath>
    <linearGradient id="linear-gradient" x1="0.045" y1="0.955" x2="0.955" y2="0.045" gradientUnits="objectBoundingBox">
      <stop offset="0" stop-color="#fcc60e"/>
      <stop offset="1" stop-color="#e92e29"/>
    </linearGradient>
  </defs>
  <g id="Grupo_1212315" data-name="Grupo 1212315" transform="translate(-324.401 -3165.482)">
    <g id="Grupo_1211723" data-name="Grupo 1211723" transform="translate(0 -2059.973)">
      <g id="Grupo_1209508" data-name="Grupo 1209508" transform="translate(-0.691 3363.245)">
        <g id="Grupo_1144092" data-name="Grupo 1144092" transform="translate(334.093 1868.211)">
          <g id="Grupo_1143593" data-name="Grupo 1143593" transform="translate(0 0)">
            <g id="Grupo_1143497" data-name="Grupo 1143497" transform="translate(0 0)">
              <g transform="matrix(1, 0, 0, 1, -9, -6)" filter="url(#Elipse_11513)">
                <g id="Elipse_11513-2" data-name="Elipse 11513" transform="translate(9 6)" fill="#fdf2d5" stroke="#f5c038" stroke-width="3">
                  <circle cx="46.755" cy="46.755" r="46.755" stroke="none"/>
                  <circle cx="46.755" cy="46.755" r="45.255" fill="none"/>
                </g>
              </g>
            </g>
          </g>
        </g>
      </g>
    </g>
    <g id="Enmascarar_grupo_1098926" data-name="Enmascarar grupo 1098926" transform="translate(-6.565 -7.565)" clip-path="url(#clip-path)">
      <path id="elearning_4289477" d="M31.651,27.095,19.468,22l12.183-5.1L43.834,22ZM42.395,55.913v-3.1h-3.95A4.853,4.853,0,0,0,42.395,55.913Zm4.194-23.553a.416.416,0,1,0-.416-.416A.412.412,0,0,0,46.589,32.361Zm-7.408,3.468V27.638l-6.873,2.876a1.7,1.7,0,0,1-1.316,0L23.7,27.46v8.368a2.765,2.765,0,0,0,2.762,2.762h9.961A2.765,2.765,0,0,0,39.181,35.829ZM38.445,49.4h3.95V46.3A4.853,4.853,0,0,0,38.445,49.4ZM72.706,11.132V61.574A11.145,11.145,0,0,1,61.574,72.706H11.132A11.145,11.145,0,0,1,0,61.574V11.132A11.145,11.145,0,0,1,11.132,0H61.574A11.145,11.145,0,0,1,72.706,11.132ZM59.358,51.108a8.259,8.259,0,0,0-8.249-8.249H42.976A8.263,8.263,0,0,0,34.9,49.4H33.142V42h3.277a6.177,6.177,0,0,0,6.17-6.17V26.212l2.3-.961v4.237a2.992,2.992,0,1,0,3.408,0V23.826l.613-.257a1.7,1.7,0,0,0,0-3.144l-16.6-6.945a1.705,1.705,0,0,0-1.316,0L14.4,20.425a1.7,1.7,0,0,0,0,3.144l5.892,2.465v9.794A6.177,6.177,0,0,0,26.457,42h3.277v9.109a1.7,1.7,0,0,0,1.7,1.7H34.9a8.263,8.263,0,0,0,8.071,6.545h8.133a8.258,8.258,0,0,0,8.249-8.249Zm-8.249-4.841H45.8v9.682h5.306a4.841,4.841,0,0,0,0-9.682Z" transform="translate(351.565 3189.713)" fill="url(#linear-gradient)"/>
    </g>
  </g>
</svg>
