<svg xmlns="http://www.w3.org/2000/svg" xmlns:xlink="http://www.w3.org/1999/xlink" width="400" height="267" viewBox="0 0 400 267">
  <defs>
    <clipPath id="clip-path">
      <rect id="Rectángulo_418535" data-name="Rectángulo 418535" width="400" height="267" transform="translate(1019.68 802)" fill="#fff" stroke="#707070" stroke-width="1" opacity="0.6"/>
    </clipPath>
  </defs>
  <g id="Enmascarar_grupo_1098922" data-name="Enmascarar grupo 1098922" transform="translate(-1019.68 -802)" clip-path="url(#clip-path)">
    <g id="Grupo_1212247" data-name="Grupo 1212247" transform="translate(11.689 15.53)">
      <path id="Trazado_1084577" data-name="Trazado 1084577" d="M21.682,0H355.4c11.975,0,21.682,10.341,21.682,23.1V131.556c0,12.756-9.707,23.1-21.682,23.1H21.682C9.707,154.654,0,144.313,0,131.556V23.1C0,10.341,9.707,0,21.682,0Z" transform="translate(1019.68 868.719)" fill="#28e5b1"/>
      <g id="_13271165_5196967" data-name="13271165_5196967" transform="translate(1019.982 799.16)">
        <g id="Grupo_1212216" data-name="Grupo 1212216" transform="translate(8.973 1.247)">
          <circle id="Elipse_12588" data-name="Elipse 12588" cx="49.586" cy="49.586" r="49.586" transform="translate(1 83.891) rotate(-80.78)" fill="none" stroke="#280b38" stroke-linecap="round" stroke-miterlimit="10" stroke-width="1" stroke-dasharray="5.01 5.01"/>
          <circle id="Elipse_12589" data-name="Elipse 12589" cx="64.962" cy="64.962" r="64.962" transform="translate(122.573 178.854) rotate(-45)" fill="none" stroke="#280b38" stroke-linecap="round" stroke-miterlimit="10" stroke-width="1" stroke-dasharray="5.03 5.03"/>
          <circle id="Elipse_12590" data-name="Elipse 12590" cx="53.366" cy="53.366" r="53.366" transform="matrix(0.267, -0.964, 0.964, 0.267, 240.639, 120.004)" fill="none" stroke="#280b38" stroke-linecap="round" stroke-miterlimit="10" stroke-width="1" stroke-dasharray="4.94 4.94"/>
        </g>
        <g id="Grupo_1212235" data-name="Grupo 1212235" transform="translate(80.645 4.809)">
          <g id="Grupo_1212223" data-name="Grupo 1212223" transform="translate(0 29.364)">
            <g id="Grupo_1212218" data-name="Grupo 1212218">
              <rect id="Rectángulo_418523" data-name="Rectángulo 418523" width="266.596" height="166.038" rx="3.1" transform="translate(0 0.207)" fill="#fff" stroke="#280b38" stroke-miterlimit="10" stroke-width="1"/>
              <path id="Trazado_1084510" data-name="Trazado 1084510" d="M644.638,165.44H383.632a3.094,3.094,0,0,0-3.092,3.092v10.285h266.6V167.938a2.5,2.5,0,0,0-2.5-2.5Z" transform="translate(-380.54 -165.44)" fill="#fff" stroke="#280b38" stroke-miterlimit="10" stroke-width="1"/>
              <g id="Grupo_1212217" data-name="Grupo 1212217" transform="translate(4.845 4.657)">
                <circle id="Elipse_12591" data-name="Elipse 12591" cx="2.338" cy="2.338" r="2.338" fill="#280b38"/>
                <circle id="Elipse_12592" data-name="Elipse 12592" cx="2.338" cy="2.338" r="2.338" transform="translate(9.408)" fill="#280b38"/>
                <circle id="Elipse_12593" data-name="Elipse 12593" cx="2.338" cy="2.338" r="2.338" transform="translate(18.816)" fill="#280b38"/>
              </g>
            </g>
            <g id="Grupo_1212219" data-name="Grupo 1212219" transform="translate(16.592 28.394)">
              <rect id="Rectángulo_418524" data-name="Rectángulo 418524" width="37.388" height="37.388" transform="translate(0 10.662)" fill="none" stroke="#280b38" stroke-linecap="round" stroke-linejoin="round" stroke-width="1"/>
              <rect id="Rectángulo_418525" data-name="Rectángulo 418525" width="37.388" height="37.388" transform="translate(10.662)" fill="none" stroke="#280b38" stroke-linecap="round" stroke-linejoin="round" stroke-width="1"/>
              <path id="Trazado_1084511" data-name="Trazado 1084511" d="M398.14,206.222,408.8,195.56H446.19l-10.662,10.662" transform="translate(-398.14 -195.56)" fill="none" stroke="#280b38" stroke-linecap="round" stroke-linejoin="round" stroke-width="1"/>
              <line id="Línea_231" data-name="Línea 231" y1="10.671" x2="10.662" transform="translate(37.388 37.378)" fill="none" stroke="#280b38" stroke-linecap="round" stroke-linejoin="round" stroke-width="1"/>
              <line id="Línea_232" data-name="Línea 232" y1="10.671" x2="10.662" transform="translate(0 37.378)" fill="none" stroke="#280b38" stroke-linecap="round" stroke-linejoin="round" stroke-width="1"/>
            </g>
            <g id="Grupo_1212220" data-name="Grupo 1212220" transform="translate(16.592 89.085)">
              <rect id="Rectángulo_418526" data-name="Rectángulo 418526" width="35.926" height="1.603" transform="translate(23.473)" fill="#280b38"/>
              <rect id="Rectángulo_418527" data-name="Rectángulo 418527" width="59.4" height="1.603" transform="translate(0 6.542)" fill="#280b38"/>
              <rect id="Rectángulo_418528" data-name="Rectángulo 418528" width="59.4" height="1.603" transform="translate(0 13.085)" fill="#280b38"/>
              <rect id="Rectángulo_418529" data-name="Rectángulo 418529" width="59.4" height="1.603" transform="translate(0 19.618)" fill="#280b38"/>
              <rect id="Rectángulo_418530" data-name="Rectángulo 418530" width="59.4" height="1.603" transform="translate(0 26.16)" fill="#280b38"/>
              <rect id="Rectángulo_418531" data-name="Rectángulo 418531" width="59.4" height="1.603" transform="translate(0 32.702)" fill="#280b38"/>
              <rect id="Rectángulo_418532" data-name="Rectángulo 418532" width="59.4" height="1.603" transform="translate(0 39.245)" fill="#280b38"/>
              <rect id="Rectángulo_418533" data-name="Rectángulo 418533" width="59.4" height="1.603" transform="translate(0 45.787)" fill="#280b38"/>
            </g>
            <g id="Grupo_1212221" data-name="Grupo 1212221" transform="translate(86.815 76.972)">
              <path id="Trazado_1084512" data-name="Trazado 1084512" d="M489.728,283.48,474.39,297.489l4.468,20.3,19.806,6.278L514,310.045l-4.468-20.287Z" transform="translate(-472.733 -249.175)" fill="none" stroke="#280b38" stroke-linecap="round" stroke-linejoin="round" stroke-width="1"/>
              <path id="Trazado_1084513" data-name="Trazado 1084513" d="M501.138,247.09,485.8,261.1l4.468,20.3,19.806,6.278,15.338-14.018-4.468-20.287Z" transform="translate(-473.386 -247.09)" fill="none" stroke="#280b38" stroke-linecap="round" stroke-linejoin="round" stroke-width="1"/>
              <path id="Trazado_1084514" data-name="Trazado 1084514" d="M526.947,275.33,511.6,289.348l4.468,20.287,19.806,6.278L551.212,301.9l-4.459-20.3Z" transform="translate(-474.865 -248.708)" fill="none" stroke="#280b38" stroke-linecap="round" stroke-linejoin="round" stroke-width="1"/>
              <path id="Trazado_1084515" data-name="Trazado 1084515" d="M530.086,272.935a3.256,3.256,0,1,1-4.6-.207A3.252,3.252,0,0,1,530.086,272.935Z" transform="translate(-475.599 -248.51)" fill="#280b38"/>
              <path id="Trazado_1084516" data-name="Trazado 1084516" d="M487.012,260.647a1.681,1.681,0,1,1-2.376-.1A1.683,1.683,0,0,1,487.012,260.647Z" transform="translate(-473.288 -247.836)" fill="#280b38"/>
              <path id="Trazado_1084517" data-name="Trazado 1084517" d="M475.552,296.977a1.681,1.681,0,1,1-2.376-.1A1.683,1.683,0,0,1,475.552,296.977Z" transform="translate(-472.632 -249.917)" fill="#280b38"/>
              <path id="Trazado_1084518" data-name="Trazado 1084518" d="M512.812,288.9a1.681,1.681,0,1,1-2.376-.1A1.683,1.683,0,0,1,512.812,288.9Z" transform="translate(-474.767 -249.454)" fill="#280b38"/>
              <path id="Trazado_1084519" data-name="Trazado 1084519" d="M539.617,316.058a3.156,3.156,0,1,1-4.459-.2A3.158,3.158,0,0,1,539.617,316.058Z" transform="translate(-476.156 -250.983)" fill="#280b38"/>
              <path id="Trazado_1084520" data-name="Trazado 1084520" d="M518.348,309.551a2.956,2.956,0,1,1-4.176-.189A2.953,2.953,0,0,1,518.348,309.551Z" transform="translate(-474.957 -250.614)" fill="#280b38"/>
              <circle id="Elipse_12594" data-name="Elipse 12594" cx="3.611" cy="3.611" r="3.611" transform="translate(13.066 37.706) rotate(-87.15)" fill="#280b38"/>
              <path id="Trazado_1084521" data-name="Trazado 1084521" d="M501.642,324.957a1.681,1.681,0,1,1-2.376-.1A1.683,1.683,0,0,1,501.642,324.957Z" transform="translate(-474.127 -251.52)" fill="#280b38"/>
            </g>
            <g id="Grupo_1212222" data-name="Grupo 1212222" transform="translate(72.098 38.283)">
              <path id="Trazado_1084522" data-name="Trazado 1084522" d="M498.876,208.27l-38.9,22.776h38.9Z" transform="translate(-457.19 -206.177)" fill="none" stroke="#280b38" stroke-miterlimit="10" stroke-width="1"/>
              <circle id="Elipse_12595" data-name="Elipse 12595" cx="2.093" cy="2.093" r="2.093" transform="translate(39.594)" fill="#280b38"/>
              <circle id="Elipse_12596" data-name="Elipse 12596" cx="2.093" cy="2.093" r="2.093" transform="translate(39.594 22.776)" fill="#280b38"/>
              <circle id="Elipse_12597" data-name="Elipse 12597" cx="2.093" cy="2.093" r="2.093" transform="translate(0 22.776)" fill="#280b38"/>
            </g>
          </g>
          <g id="Grupo_1212234" data-name="Grupo 1212234" transform="translate(120.081)">
            <path id="Trazado_1084523" data-name="Trazado 1084523" d="M613.472,137.222a27.179,27.179,0,0,1,13.886,17c.735,2.715,1.065,5.609,2.526,8,1.716,2.8,4.7,4.506,7.2,6.637s4.695,5.317,3.875,8.494c-1,3.837-6,6.033-6,10,0,3.837,4.6,5.911,6.25,9.37,1.442,3.035.32,6.816-1.942,9.3s-5.43,3.94-8.579,5.119a79,79,0,0,1-50.039,1.6,16.752,16.752,0,0,1-6.674-3.3c-1.848-1.7-2.97-4.393-2.168-6.759,1.112-3.262,5.458-5.147,5.326-8.6-.132-3.309-4.28-4.883-5.713-7.872-1.612-3.356.679-7.287,3.337-9.9s5.939-4.987,6.91-8.579c1.2-4.393-1.49-8.814-2.319-13.292a16.7,16.7,0,0,1,2.6-12.359c5.1-7.457,15.234-8.6,23.454-7.391a26.437,26.437,0,0,1,8.041,2.508Z" transform="translate(-511.528 -134.291)" fill="#280b38"/>
            <g id="Grupo_1212227" data-name="Grupo 1212227" transform="translate(0 43.953)">
              <g id="Grupo_1212225" data-name="Grupo 1212225">
                <g id="Grupo_1212224" data-name="Grupo 1212224">
                  <path id="Trazado_1084524" data-name="Trazado 1084524" d="M519.77,190.535s-4.223-10.266-6.1-9.587.867,10.2.867,10.2-6.646,4.1-6.618,8.2c.019,3.036,3.752,4.393,7.353,8.777l8.588-5.741c-1.414-2.555,1.207-12.067-4.091-11.859Z" transform="translate(-507.92 -180.916)" fill="#ffc1a1"/>
                  <path id="Trazado_1084525" data-name="Trazado 1084525" d="M516.292,192.826a9.3,9.3,0,0,1,2.5-.792c.273-.047.16-.462-.113-.415a9.746,9.746,0,0,0-2.291.7,5.856,5.856,0,0,0-1.867,1.178,1.929,1.929,0,0,0-.556,1.706,1.4,1.4,0,0,0,1.292,1.065,5.928,5.928,0,0,0,2.3-.179,5.329,5.329,0,0,0-.311,2.6.071.071,0,0,0,.009.047,1.121,1.121,0,0,1-1.386.236c-.019-.009-.038-.009-.057-.019a6.7,6.7,0,0,0-.9-1.442,18.993,18.993,0,0,0-1.64-1.942c-.188-.2-.5.1-.3.3a17.257,17.257,0,0,1,1.282,1.471,8.865,8.865,0,0,1,1.112,1.669,1.393,1.393,0,0,1-.207,1.678,1.22,1.22,0,0,1-1.612,0,.2.2,0,0,0-.057-.038,9.86,9.86,0,0,0-.528-1.046,11.364,11.364,0,0,0-1.876-2.413c-.2-.2-.5.113-.3.3a11.08,11.08,0,0,1,1.763,2.253c.415.707,1.178,1.951.443,2.7-.688.688-1.895-.292-2.423-.764a6.04,6.04,0,0,1-1.537-2.159c-.1-.255-.518-.141-.415.113a6.133,6.133,0,0,0,.547,1.046h-.019a.047.047,0,0,1-.028-.009c-.019,0-.038-.019-.047-.019l-.113-.057a1.662,1.662,0,0,1-.217-.132.213.213,0,0,0-.292.075.222.222,0,0,0,.075.292,2.5,2.5,0,0,0,1,.4h.028c.123.151.255.3.387.443a4.847,4.847,0,0,0,2,1.357,1.319,1.319,0,0,0,1.735-.962,1.869,1.869,0,0,0,.009-.792,1.6,1.6,0,0,0,1.4,0,1.679,1.679,0,0,0,.905-1.659.748.748,0,0,0-.028-.141,1.544,1.544,0,0,0,1.424-.264,2.88,2.88,0,0,0,1.159,1.489.214.214,0,0,0,.217-.368c-1.565-.971-1.207-3.054-.651-4.5a.216.216,0,0,0-.264-.264,5.476,5.476,0,0,1-2.611.273.959.959,0,0,1-.811-.613,1.283,1.283,0,0,1,.076-.952,3.554,3.554,0,0,1,1.81-1.433Z" transform="translate(-507.949 -181.529)" fill="#c16b5b"/>
                </g>
                <path id="Trazado_1084526" data-name="Trazado 1084526" d="M583.908,202.236c-10.794,3.9-30.534,34.5-30.534,34.5L525.809,199.38s-10.492,2.772-14.169,10.125c0,0,24.256,33.645,28.554,39.726,4.553,6.448,16.856,11.642,25.8,3.5,7.655-6.967,17.911-18.75,17.911-18.75v-31.75Z" transform="translate(-508.133 -181.974)" fill="#93329e"/>
              </g>
              <path id="Trazado_1084527" data-name="Trazado 1084527" d="M647.87,339.6c-1.772-16.79-4.959-29.054-7.862-35.2l-66.649-.8a336.782,336.782,0,0,0-5.779,36h80.281Z" transform="translate(-511.338 -187.945)" fill="#2a1543"/>
              <path id="Trazado_1084528" data-name="Trazado 1084528" d="M640.359,298.364c-41.818,9.352-66.649-.8-66.649-.8,1.584-4.883,10.907-49.662,10.907-49.662-9.371-3.186-10.426-19.514-.028-29.365l2.875-16.375,10.719-3.837,14.037-.094,14.2,4.582,1.452,69.072,12.481,26.462Z" transform="translate(-511.689 -181.908)" fill="#93329e"/>
              <path id="Trazado_1084529" data-name="Trazado 1084529" d="M614.431,259.7c-2.272.424-10.455-.613-12.934,1.16s-10.605,9.267-9.493,10.756c.707.943,6.476-3.365,6.476-3.365s-5.505,6.524-4.2,7.523,6.731-5.694,6.731-5.694-5.1,7.551-3.441,8.635,6.184-7.051,6.184-7.051-1.537,2.847.207,4.987c1.348,1.659,4.035,2.489,4.582,1.527s-2.027-2.715-2.14-3.158a7.444,7.444,0,0,1,.537-2.14c4.27,2.121,9.587-1.527,9.587-1.527L614.44,259.68Z" transform="translate(-512.732 -185.429)" fill="#ffc1a1"/>
              <path id="Trazado_1084530" data-name="Trazado 1084530" d="M628.66,203.1c15.357,6.693,33.325,28.413,36.775,31.863,8.55,8.55,6.872,19.571-.962,22.154-3.384,1.122-47.927,13.584-47.927,13.584s-3.846-8.579-3.846-15.762l36.86-11.906-20.4-16.3-.5-23.634Z" transform="translate(-513.923 -182.187)" fill="#93329e"/>
              <g id="Grupo_1212226" data-name="Grupo 1212226" transform="translate(44.75 16.332)">
                <path id="Trazado_1084531" data-name="Trazado 1084531" d="M595.61,199.7l7.372,32.335L618.018,199.7l-4.534-1.461-14.046.094Z" transform="translate(-557.694 -198.24)" fill="#d497db"/>
                <path id="Trazado_1084532" data-name="Trazado 1084532" d="M591.936,201.576l-2.046,8.1,5.392,1.226-2.621,4.827,9.993,16.5,12.915-15.47-1.452-5.694,6.1-1.7-.179-7.853" transform="translate(-557.367 -198.427)" fill="none" stroke="#280b38" stroke-linecap="round" stroke-linejoin="round" stroke-width="0.5"/>
                <path id="Trazado_1084533" data-name="Trazado 1084533" d="M612.95,257.068q20.56-6.349,41.111-12.708" transform="translate(-558.688 -200.883)" fill="none" stroke="#280b38" stroke-linecap="round" stroke-linejoin="round" stroke-width="0.5"/>
                <path id="Trazado_1084534" data-name="Trazado 1084534" d="M627.54,226.05c7.155,5.534,16.346,12.755,23.417,18.392" transform="translate(-559.524 -199.833)" fill="none" stroke="#280b38" stroke-linecap="round" stroke-linejoin="round" stroke-width="0.5"/>
                <path id="Trazado_1084535" data-name="Trazado 1084535" d="M626.97,227.71l3,.321" transform="translate(-559.491 -199.929)" fill="none" stroke="#280b38" stroke-linecap="round" stroke-linejoin="round" stroke-width="0.5"/>
                <path id="Trazado_1084536" data-name="Trazado 1084536" d="M616.93,274.148c10.851-3.535,21.88-6.476,32.91-9.408" transform="translate(-558.916 -202.05)" fill="none" stroke="#280b38" stroke-linecap="round" stroke-linejoin="round" stroke-width="0.5"/>
                <path id="Trazado_1084537" data-name="Trazado 1084537" d="M587.1,204.12q-1.244,7.3-2.479,14.593c-3.111,3.205-5.977,7.014-7.146,11.331a16.8,16.8,0,0,0,1.471,12.972,12.332,12.332,0,0,0,11.18,6.08" transform="translate(-556.618 -198.577)" fill="none" stroke="#280b38" stroke-linecap="round" stroke-linejoin="round" stroke-width="0.5"/>
                <path id="Trazado_1084538" data-name="Trazado 1084538" d="M556.031,239.43a6.762,6.762,0,0,1-.641,5.006" transform="translate(-555.39 -200.6)" fill="none" stroke="#280b38" stroke-linecap="round" stroke-linejoin="round" stroke-width="0.5"/>
                <path id="Trazado_1084539" data-name="Trazado 1084539" d="M557.2,240.69a6.343,6.343,0,0,1-.113,5.109" transform="translate(-555.487 -200.672)" fill="none" stroke="#280b38" stroke-linecap="round" stroke-linejoin="round" stroke-width="0.5"/>
              </g>
            </g>
            <g id="Grupo_1212233" data-name="Grupo 1212233" transform="translate(69.73 3.739)">
              <path id="Trazado_1084540" data-name="Trazado 1084540" d="M583.462,169.409c0,.094.019.2.028.292.009.113.019.217.028.33.584,5.477,2.555,8.946,5.289,11.529a46.339,46.339,0,0,0,4.035,3.337c.386.292.745.575,1.1.848.273.217.528.434.792.66,2.677,2.281,4.186,4.78,3.809,11.925a8.017,8.017,0,0,0,14.753.8,71.4,71.4,0,0,1,4.11-20.787c.434-1.235.848-2.291,1.207-3.13.679-1.621,1.15-2.5,1.15-2.5s.622-19.052-1.848-24.246c-6.014-12.547-29.648-9.644-31.986-.028-2.244,9.182-2.913,15.9-2.47,20.956Z" transform="translate(-581.971 -138.363)" fill="#ffc1a1"/>
              <path id="Trazado_1084541" data-name="Trazado 1084541" d="M581.9,157.83a46.316,46.316,0,0,0,14.612-8.682,40.4,40.4,0,0,0,24.548,18.647c.528-4.506,1.141-9.191.547-13.688s-2.442-8.993-5.93-11.887c-3.092-2.564-7.193-3.648-11.209-3.9a24.2,24.2,0,0,0-11.859,2.027A19.248,19.248,0,0,0,581.89,157.83Z" transform="translate(-581.888 -138.257)" fill="#280b38"/>
              <g id="Grupo_1212228" data-name="Grupo 1212228" transform="translate(34.544 26.842)">
                <path id="Trazado_1084542" data-name="Trazado 1084542" d="M626.892,174.96c-2.14,2.281-5.336,2.762-7.155,1.065s-1.555-4.921.584-7.212,5.336-2.762,7.155-1.065S629.032,172.669,626.892,174.96Z" transform="translate(-618.531 -166.73)" fill="#ffc1a1"/>
                <path id="Trazado_1084543" data-name="Trazado 1084543" d="M626.252,168.955a3.456,3.456,0,0,0-3.045-.1,2.908,2.908,0,0,0-1.216.839,1.709,1.709,0,0,0-.33,1.574,2.344,2.344,0,0,0,.782,1.028,2.179,2.179,0,0,1,.528.594.888.888,0,0,1-1.207,1.188.39.39,0,0,0-.368.688,1.668,1.668,0,0,0,2.272-2.234,3.148,3.148,0,0,0-.7-.82,1.884,1.884,0,0,1-.566-.688.974.974,0,0,1,.2-.848,1.5,1.5,0,0,1,.311-.283,1.619,1.619,0,0,1,1.1.443,1.41,1.41,0,0,1,.283,1.169.4.4,0,0,0,.3.471h.066a.394.394,0,0,0,.405-.311,2.161,2.161,0,0,0-.443-1.838,1.813,1.813,0,0,0-.566-.434,2.454,2.454,0,0,1,1.782.217,1.516,1.516,0,0,1,.66,1.885.39.39,0,1,0,.688.368,2.3,2.3,0,0,0-.952-2.922Z" transform="translate(-618.683 -166.835)" fill="#c16b5b"/>
              </g>
              <g id="Grupo_1212232" data-name="Grupo 1212232" transform="translate(4.05 19.848)">
                <path id="Trazado_1084544" data-name="Trazado 1084544" d="M594.765,169.581a2.866,2.866,0,0,0-1.075-.3,1.576,1.576,0,0,0-.99.226,1.217,1.217,0,0,0-.481.924,2.213,2.213,0,0,0,.217,1.009.371.371,0,0,0,.434.255.358.358,0,0,0,.255-.434,2.031,2.031,0,0,1-.2-.745.629.629,0,0,1,.113-.368.029.029,0,0,1-.009.019.5.5,0,0,1,.33-.179h.471a3.611,3.611,0,0,1,.613.207.356.356,0,0,0,.434-.141.364.364,0,0,0-.123-.49Z" transform="translate(-586.53 -159.882)" fill="#c16b5b"/>
                <path id="Trazado_1084545" data-name="Trazado 1084545" d="M586.6,160.121a6.418,6.418,0,0,1,6.005-.123,1.025,1.025,0,0,1,.462,1.339,1.076,1.076,0,0,1-1.527.368,4.627,4.627,0,0,0-1.621-.415c0-.028.047.019.019.019a4.48,4.48,0,0,0-2.074.4c-.038.019-.075.038-.141.066a1,1,0,0,1-1.122-1.65Z" transform="translate(-586.184 -159.311)"/>
                <path id="Trazado_1084546" data-name="Trazado 1084546" d="M599.378,160.232a6.447,6.447,0,0,1,5.977.622,1.012,1.012,0,0,1,.292,1.386,1.022,1.022,0,0,1-1.386.292c-.179-.123-.358-.226-.547-.33-.019,0-.019,0-.028-.009-.038-.019-.066-.028-.1-.047a2.2,2.2,0,0,0-.226-.085,4.6,4.6,0,0,0-.613-.189c-.057-.009-.386-.113-.132-.028a1.362,1.362,0,0,0-.273-.038c-.2-.019-.4-.038-.6-.038h-.406c-.2.028-.4.057-.594.1l-.311.085c-.038.009-.085.028-.122.038h-.01a1,1,0,0,1-.914-1.782Z" transform="translate(-586.91 -159.338)"/>
                <path id="Trazado_1084547" data-name="Trazado 1084547" d="M598.436,174.725a6.4,6.4,0,0,1-4.478,1.263c-.443-.038-.481.641-.038.688a7.178,7.178,0,0,0,4.968-1.442c.349-.264-.1-.773-.452-.509Z" transform="translate(-586.609 -160.19)" fill="#8e4136"/>
                <g id="Grupo_1212231" data-name="Grupo 1212231" transform="translate(1.343 5.777)">
                  <g id="Grupo_1212229" data-name="Grupo 1212229" transform="translate(11.793 0.33)">
                    <path id="Trazado_1084548" data-name="Trazado 1084548" d="M603.353,167.355a1.618,1.618,0,1,1-1.669-1.565A1.614,1.614,0,0,1,603.353,167.355Z" transform="translate(-600.119 -165.789)"/>
                    <path id="Trazado_1084549" data-name="Trazado 1084549" d="M601.653,166.933a.472.472,0,1,1-.49-.452A.48.48,0,0,1,601.653,166.933Z" transform="translate(-600.153 -165.829)" fill="#fff"/>
                  </g>
                  <g id="Grupo_1212230" data-name="Grupo 1212230">
                    <path id="Trazado_1084550" data-name="Trazado 1084550" d="M590.843,167a1.618,1.618,0,1,1-1.669-1.565A1.614,1.614,0,0,1,590.843,167Z" transform="translate(-587.609 -165.439)"/>
                    <path id="Trazado_1084551" data-name="Trazado 1084551" d="M589.153,166.582a.472.472,0,1,1-.49-.452A.48.48,0,0,1,589.153,166.582Z" transform="translate(-587.643 -165.479)" fill="#fff"/>
                  </g>
                </g>
              </g>
            </g>
          </g>
        </g>
        <g id="Grupo_1212236" data-name="Grupo 1212236" transform="translate(169.656 -8.587)">
          <path id="Trazado_1084552" data-name="Trazado 1084552" d="M536.49,106.732l-7.89,7.89a15.158,15.158,0,1,1-10.719-4.44V99.03a26.312,26.312,0,1,0,18.609,7.711Z" transform="translate(-491.57 -99.03)" fill="#d497db" stroke="#280b38" stroke-linecap="round" stroke-linejoin="round" stroke-width="1"/>
          <path id="Trazado_1084553" data-name="Trazado 1084553" d="M530.2,114.622l7.89-7.89a26.226,26.226,0,0,0-18.6-7.7v11.152a15.111,15.111,0,0,1,10.719,4.44Z" transform="translate(-493.17 -99.03)" fill="#fff" stroke="#280b38" stroke-linecap="round" stroke-linejoin="round" stroke-width="1"/>
        </g>
        <g id="Grupo_1212238" data-name="Grupo 1212238" transform="translate(39.639 162.499)">
          <path id="Trazado_1084554" data-name="Trazado 1084554" d="M397.005,331.548a29.982,29.982,0,1,0-49.53,22.729,13.063,13.063,0,0,1,4.506,9.917V369.3h30.063v-5.109a13.368,13.368,0,0,1,4.666-10.059A29.908,29.908,0,0,0,397,331.538Z" transform="translate(-337.041 -301.565)" fill="#fff" stroke="#280b38" stroke-miterlimit="10" stroke-width="1"/>
          <path id="Trazado_1084555" data-name="Trazado 1084555" d="M373.8,368.973V334.64H382.8v10.709H353.1V334.64h8.993v34.333" transform="translate(-337.961 -303.46)" fill="none" stroke="#280b38" stroke-linecap="round" stroke-linejoin="round" stroke-width="1"/>
          <g id="Grupo_1212237" data-name="Grupo 1212237" transform="translate(10.661 64.73)">
            <path id="Trazado_1084556" data-name="Trazado 1084556" d="M362.719,388.41V391.3a2.959,2.959,0,0,0,2.96,2.96h5.637a2.959,2.959,0,0,0,2.96-2.96V388.41H362.71Z" transform="translate(-349.173 -371.272)" fill="#93329e" stroke="#280b38" stroke-linecap="round" stroke-linejoin="round" stroke-width="1"/>
            <path id="Trazado_1084557" data-name="Trazado 1084557" d="M352.39,374.27v11.661a4.993,4.993,0,0,0,5,5h21.041a4.993,4.993,0,0,0,5-5V374.27Z" transform="translate(-348.581 -370.461)" fill="#d497db" stroke="#280b38" stroke-linecap="round" stroke-linejoin="round" stroke-width="1"/>
            <rect id="Rectángulo_418534" data-name="Rectángulo 418534" width="38.651" height="4.761" rx="2.22" fill="#93329e" stroke="#280b38" stroke-linecap="round" stroke-linejoin="round" stroke-width="1"/>
            <path id="Trazado_1084558" data-name="Trazado 1084558" d="M383.173,380.478H352.479a1.5,1.5,0,0,1-1.5-1.5h0a1.5,1.5,0,0,1,1.5-1.5h30.694a1.5,1.5,0,0,1,1.5,1.5h0A1.5,1.5,0,0,1,383.173,380.478Z" transform="translate(-348.501 -370.645)" fill="#93329e" stroke="#280b38" stroke-linecap="round" stroke-linejoin="round" stroke-width="1"/>
            <path id="Trazado_1084559" data-name="Trazado 1084559" d="M383.173,386.588H352.479a1.5,1.5,0,0,1-1.5-1.5h0a1.5,1.5,0,0,1,1.5-1.5h30.694a1.5,1.5,0,0,1,1.5,1.5h0A1.5,1.5,0,0,1,383.173,386.588Z" transform="translate(-348.501 -370.996)" fill="#93329e" stroke="#280b38" stroke-linecap="round" stroke-linejoin="round" stroke-width="1"/>
          </g>
        </g>
        <g id="Grupo_1212240" data-name="Grupo 1212240" transform="translate(321.857 -8.587)">
          <path id="Trazado_1084560" data-name="Trazado 1084560" d="M653.644,105.88c-11.5,0-20.834,7.938-20.834,17.724a16.339,16.339,0,0,0,5.581,12.067l-1.521,5.657,6.334-2.4a23.542,23.542,0,0,0,10.447,2.4c11.5,0,20.834-7.938,20.834-17.724s-9.33-17.724-20.834-17.724Z" transform="translate(-632.81 -105.88)" fill="#fff" stroke="#280b38" stroke-linecap="round" stroke-linejoin="round" stroke-width="1"/>
          <g id="Grupo_1212239" data-name="Grupo 1212239" transform="translate(10.919 16.013)">
            <path id="Trazado_1084561" data-name="Trazado 1084561" d="M650.591,128.651a1.711,1.711,0,1,1-1.711-1.711A1.713,1.713,0,0,1,650.591,128.651Z" transform="translate(-647.17 -126.94)" fill="#280b38"/>
            <path id="Trazado_1084562" data-name="Trazado 1084562" d="M661.392,128.651a1.711,1.711,0,1,1-1.711-1.711A1.713,1.713,0,0,1,661.392,128.651Z" transform="translate(-649.758 -126.94)" fill="#280b38"/>
            <circle id="Elipse_12598" data-name="Elipse 12598" cx="1.711" cy="1.711" r="1.711" transform="translate(16.416)" fill="#280b38"/>
          </g>
        </g>
        <g id="Grupo_1212241" data-name="Grupo 1212241" transform="translate(0 102.614)">
          <ellipse id="Elipse_12599" data-name="Elipse 12599" cx="9.616" cy="26.396" rx="9.616" ry="26.396" transform="matrix(0.967, -0.253, 0.253, 0.967, 11.996, 4.867)" fill="none" stroke="#280b38" stroke-linecap="round" stroke-miterlimit="10" stroke-width="1"/>
          <path id="Trazado_1084563" data-name="Trazado 1084563" d="M277.021,291.979c-7.363,12.585-17.054,20.607-21.635,17.93s-2.328-15.055,5.034-27.64,17.054-20.607,21.635-17.93,2.328,15.055-5.034,27.64Z" transform="translate(-240.739 -259.168)" fill="none" stroke="#280b38" stroke-linecap="round" stroke-miterlimit="10" stroke-width="1"/>
          <ellipse id="Elipse_12600" data-name="Elipse 12600" cx="26.396" cy="9.616" rx="26.396" ry="9.616" transform="matrix(0.967, -0.253, 0.253, 0.967, 0, 25.347)" fill="none" stroke="#280b38" stroke-linecap="round" stroke-miterlimit="10" stroke-width="1"/>
          <path id="Trazado_1084564" data-name="Trazado 1084564" d="M263.409,295.881c-12.585-7.363-20.607-17.053-17.93-21.635s15.055-2.328,27.64,5.034,20.608,17.053,17.93,21.635-15.055,2.328-27.64-5.034Z" transform="translate(-240.278 -259.629)" fill="none" stroke="#280b38" stroke-linecap="round" stroke-miterlimit="10" stroke-width="1"/>
          <path id="Trazado_1084565" data-name="Trazado 1084565" d="M273.788,287.114a4.535,4.535,0,1,1-5.534-3.243A4.537,4.537,0,0,1,273.788,287.114Z" transform="translate(-241.418 -260.308)" fill="#93329e"/>
          <circle id="Elipse_12601" data-name="Elipse 12601" cx="2.536" cy="2.536" r="2.536" transform="translate(41.127 7.735)" fill="#93329e"/>
          <path id="Trazado_1084566" data-name="Trazado 1084566" d="M290.042,304.986a2.536,2.536,0,1,1-2.536-2.536A2.537,2.537,0,0,1,290.042,304.986Z" transform="translate(-242.57 -261.381)" fill="#93329e"/>
          <path id="Trazado_1084567" data-name="Trazado 1084567" d="M247.571,284.48a2.532,2.532,0,1,1,.99,3.441A2.528,2.528,0,0,1,247.571,284.48Z" transform="translate(-240.409 -260.276)" fill="#93329e"/>
        </g>
        <g id="Grupo_1212245" data-name="Grupo 1212245" transform="translate(307.813 160.646)">
          <g id="Grupo_1212242" data-name="Grupo 1212242" transform="translate(25.326 7.648)">
            <path id="Trazado_1084568" data-name="Trazado 1084568" d="M672.947,312.669c0-2.027.933-4.214,2.706-4.883a5.94,5.94,0,0,0-4.987,1.5,6.93,6.93,0,0,0-2.055,5.1,10.107,10.107,0,0,1-.028,3.111c-.594,1.942-2.819,2.5-4.534,3.365-3.856,1.951-6.024,7.1-4.855,11.51.4,1.508,1.141,2.96,1.1,4.525-.066,2.564-2.159,4.468-4.12,5.92s-4.157,3.064-4.648,5.581c-.575,2.941,1.461,6.024.622,8.89-.471,1.6-1.744,2.753-2.687,4.091s-1.555,3.309-.613,4.648l16.827.368a6.352,6.352,0,0,0,2.47-6.5c-.405-1.782-1.574-3.469-1.216-5.26.434-2.159,2.8-3.12,3.931-4.959,1.273-2.046.811-4.8.076-7.127s-1.725-4.732-1.358-7.165c.641-4.176,5-6.787,5.675-10.945a12.311,12.311,0,0,0-.914-5.911,18.536,18.536,0,0,1-1.4-5.845Z" transform="translate(-648.381 -307.713)" fill="#d497db"/>
            <path id="Trazado_1084569" data-name="Trazado 1084569" d="M671.554,313.78c-.66,1.207-.207,2.706.32,3.978s1.131,2.668.716,3.988c-.5,1.584-2.215,2.357-3.545,3.347a9.454,9.454,0,0,0-3.516,9.389c.292,1.32.858,2.545,1.254,3.837a6.363,6.363,0,0,1,.132,3.969c-.547,1.489-1.895,2.508-2.97,3.677a12.2,12.2,0,0,0-3.1,9.568" transform="translate(-649.09 -308.061)" fill="none" stroke="#280b38" stroke-linecap="round" stroke-linejoin="round" stroke-width="0.5"/>
          </g>
          <g id="Grupo_1212243" data-name="Grupo 1212243" transform="translate(0 7.183)">
            <path id="Trazado_1084570" data-name="Trazado 1084570" d="M647.859,357.5c-1.98-1.659-4.666-3.007-5.128-5.543-.641-3.516,3.563-6.74,2.526-10.153-.952-3.12-5.571-3.827-6.646-6.91-.82-2.347.82-4.761,1.367-7.193a8.6,8.6,0,0,0-5.062-9.6c-1.97-.773-4.431-.933-5.628-2.687a12.189,12.189,0,0,1-1.112-3.46,6.886,6.886,0,0,0-6.58-4.742c1.593.264,2.451,2.149,2.281,3.761a16.111,16.111,0,0,1-1.678,4.525c-.641,1.489-1.028,3.252-.255,4.676.886,1.612,2.96,2.2,4.082,3.658a5.656,5.656,0,0,1,.358,5.5,30.348,30.348,0,0,1-3.007,4.911,8.772,8.772,0,0,0-1.744,5.383c.405,4.563,6.373,7.315,6.316,11.9-.019,1.678-.877,3.205-1.546,4.742s-1.15,3.337-.424,4.845a5.921,5.921,0,0,0,2.932,2.517,12.94,12.94,0,0,1,3.394,1.97,3.187,3.187,0,0,1,.943,3.554l19.033.066a13,13,0,0,0-4.421-11.708Z" transform="translate(-621.515 -307.219)" fill="#d497db"/>
            <path id="Trazado_1084571" data-name="Trazado 1084571" d="M625.8,313.49a2.241,2.241,0,0,1,.085,2.272,4.81,4.81,0,0,0-.6,2.291,2.721,2.721,0,0,0,1.442,1.857c.7.415,1.49.65,2.215,1.018a6.571,6.571,0,0,1,2.875,8.786,29.58,29.58,0,0,1-2.291,3.271,4.978,4.978,0,0,0-1.028,3.743c.4,1.753,2.168,2.79,3.78,3.6s3.384,1.819,3.818,3.563a5.049,5.049,0,0,1-1.178,4.044,28.868,28.868,0,0,0-2.621,3.469,6.7,6.7,0,0,0,.651,7.108" transform="translate(-621.73 -307.579)" fill="none" stroke="#280b38" stroke-linecap="round" stroke-linejoin="round" stroke-width="0.5"/>
          </g>
          <g id="Grupo_1212244" data-name="Grupo 1212244" transform="translate(11.735)">
            <path id="Trazado_1084572" data-name="Trazado 1084572" d="M657.283,364.731l-22.427-.584a21.956,21.956,0,0,0,3.865-5.92,7.482,7.482,0,0,0-.452-6.816c-1.263-1.819-3.62-2.922-4.186-5.062-.632-2.413,1.357-4.676,3.281-6.269s4.129-3.45,4.1-5.948c-.038-3.865-5.477-6.382-4.827-10.191.377-2.206,2.649-3.469,4.553-4.647s3.912-3.139,3.318-5.307c-.443-1.621-2.244-2.658-2.508-4.327-.33-2.121,1.669-3.026,2.649-4.516a9.069,9.069,0,0,0,1.537-5.543,6.964,6.964,0,0,1,2.772,3.658c.415,1.518-.17,3.083.66,4.6.754,1.386,2.338,2.065,3.526,3.1a7.082,7.082,0,0,1,2.328,5.986c-.245,2.385-1.772,4.761-1.16,7.193.716,2.866,4.271,4.468,4.638,7.4.537,4.3-6.024,6.787-5.92,11.114.066,2.611,2.508,4.4,4.148,6.448,3.5,4.374,3.988,11.567.1,15.611Z" transform="translate(-633.963 -299.6)" fill="#93329e"/>
            <path id="Trazado_1084573" data-name="Trazado 1084573" d="M647.456,306.01a2.9,2.9,0,0,0-1,3.545c.518,1.094,1.659,1.725,2.47,2.621a5.259,5.259,0,0,1,.255,6.524c-1.056,1.367-2.809,2.234-3.337,3.875-.566,1.772.575,3.62,1.772,5.043s2.583,2.951,2.6,4.817c.019,2.149-1.763,3.818-3.375,5.241s-3.309,3.233-3.054,5.364c.264,2.225,2.517,3.582,3.8,5.421a7.105,7.105,0,0,1-1.131,9.135" transform="translate(-634.525 -299.967)" fill="none" stroke="#280b38" stroke-linecap="round" stroke-linejoin="round" stroke-width="0.5"/>
          </g>
          <path id="Trazado_1084574" data-name="Trazado 1084574" d="M665.313,396.663H627.539L622.59,364.13h47.672Z" transform="translate(-621.577 -303.297)" fill="#fff" stroke="#280b38" stroke-miterlimit="10" stroke-width="1"/>
        </g>
        <g id="Grupo_1212246" data-name="Grupo 1212246" transform="translate(22.876 60.013)">
          <path id="Trazado_1084575" data-name="Trazado 1084575" d="M371.929,192.85H321.447a2.12,2.12,0,0,0-2.187,2.046v29.158a2.12,2.12,0,0,0,2.187,2.046h50.482a2.12,2.12,0,0,0,2.187-2.046V194.9A2.12,2.12,0,0,0,371.929,192.85Z" transform="translate(-319.26 -192.85)" fill="#93329e" stroke="#280b38" stroke-linecap="round" stroke-linejoin="round" stroke-width="1"/>
          <path id="Trazado_1084576" data-name="Trazado 1084576" d="M357.269,208.811l-15.79-8.541a1.335,1.335,0,0,0-2,1.075v17.091a1.332,1.332,0,0,0,2,1.075l15.79-8.541a1.209,1.209,0,0,0,0-2.159Z" transform="translate(-320.419 -193.265)" fill="#280b38"/>
        </g>
      </g>
    </g>
  </g>
</svg>
