<svg xmlns="http://www.w3.org/2000/svg" xmlns:xlink="http://www.w3.org/1999/xlink" width="400" height="281" viewBox="0 0 400 281">
  <defs>
    <clipPath id="clip-path">
      <rect id="Rectángulo_418566" data-name="Rectángulo 418566" width="400" height="281" transform="translate(1020 4233)" fill="#fff" stroke="#707070" stroke-width="1"/>
    </clipPath>
  </defs>
  <g id="Enmascarar_grupo_1098928" data-name="Enmascarar grupo 1098928" transform="translate(-1020 -4233)" clip-path="url(#clip-path)">
    <g id="Grupo_1212598" data-name="Grupo 1212598" transform="translate(-1)">
      <rect id="Rectángulo_418565" data-name="Rectángulo 418565" width="315" height="202" rx="28" transform="translate(1066 4281)" fill="#f8c234"/>
      <g id="Grupo_1212597" data-name="Grupo 1212597" transform="translate(-649.711 3733.792)">
        <g id="Grupo_1212367" data-name="Grupo 1212367" transform="translate(1707.678 710.237)">
          <ellipse id="Elipse_12625" data-name="Elipse 12625" cx="171.282" cy="30.85" rx="171.282" ry="30.85" fill="#786ab5"/>
        </g>
        <g id="Grupo_1212368" data-name="Grupo 1212368" transform="translate(1798.531 749.346)">
          <path id="Trazado_1085000" data-name="Trazado 1085000" d="M2195.086,1528.792l-.142-.216a4.21,4.21,0,0,0,1.682-2.129,1.4,1.4,0,0,0-.277-1.115.777.777,0,0,0-.665-.356c-1.272.018-3.114,2.643-3.132,2.669l-.335.482.1-.578c0-.024.4-2.344-.407-3.037a1.047,1.047,0,0,0-1.067-.091,1.562,1.562,0,0,0-.992.891c-.531,1.276.439,3.293.449,3.314l-.232.113c-.042-.087-1.031-2.142-.456-3.526a1.808,1.808,0,0,1,1.147-1.037,1.286,1.286,0,0,1,1.319.139c.674.577.635,2.01.559,2.778.594-.769,1.955-2.361,3.042-2.376a1.029,1.029,0,0,1,.877.461,1.656,1.656,0,0,1,.324,1.314A4.407,4.407,0,0,1,2195.086,1528.792Z" transform="translate(-2189.434 -1524.064)" fill="#42428e"/>
        </g>
        <g id="Grupo_1212397" data-name="Grupo 1212397" transform="translate(1827.374 514.736)">
          <g id="Grupo_1212396" data-name="Grupo 1212396" transform="translate(0 0)">
            <g id="Grupo_1212369" data-name="Grupo 1212369" transform="translate(20.09 14.717)">
              <path id="Trazado_1085001" data-name="Trazado 1085001" d="M2403.314,585.614c1.852,2.313,3.138,2.412,4.045,1.687s1.09-2-.762-4.315c-3.374-4.214-6.646-4.936-6.646-4.936S2399.89,581.34,2403.314,585.614Z" transform="translate(-2399.951 -578.05)" fill="#553e93"/>
            </g>
            <g id="Grupo_1212370" data-name="Grupo 1212370" transform="translate(15.652 32.02)">
              <path id="Trazado_1085002" data-name="Trazado 1085002" d="M2381.927,660.735c1,2.788,2.189,3.3,3.281,2.9s1.68-1.542.676-4.33c-1.829-5.079-4.692-6.821-4.692-6.821S2380.072,655.582,2381.927,660.735Z" transform="translate(-2380.857 -652.489)" fill="#553e93"/>
            </g>
            <g id="Grupo_1212395" data-name="Grupo 1212395">
              <g id="Grupo_1212372" data-name="Grupo 1212372" transform="translate(0 32.636)">
                <g id="Grupo_1212371" data-name="Grupo 1212371">
                  <path id="Trazado_1085003" data-name="Trazado 1085003" d="M2313.52,709.878l.54.154c.024-.083,2.46-8.439,9.716-19.27a108.739,108.739,0,0,1,39.494-35.123l-.263-.5a109.283,109.283,0,0,0-39.71,35.327C2316,701.371,2313.543,709.794,2313.52,709.878Z" transform="translate(-2313.52 -655.143)" fill="#553e93"/>
                </g>
              </g>
              <g id="Grupo_1212374" data-name="Grupo 1212374" transform="translate(26.756 10.269)">
                <g id="Grupo_1212373" data-name="Grupo 1212373">
                  <path id="Trazado_1085004" data-name="Trazado 1085004" d="M2429.424,596.586l.549-.114c-4.144-19.942,9.469-37.035,9.607-37.206l-.436-.353C2439,559.086,2425.226,576.379,2429.424,596.586Z" transform="translate(-2428.628 -558.913)" fill="#553e93"/>
                </g>
              </g>
              <g id="Grupo_1212376" data-name="Grupo 1212376" transform="translate(36.279 40.82)">
                <g id="Grupo_1212375" data-name="Grupo 1212375">
                  <path id="Trazado_1085005" data-name="Trazado 1085005" d="M2472.008,691.982a19.857,19.857,0,0,0,10.419.89l-.127-.546a18.828,18.828,0,0,1-12.418-1.977l-.282.485A16.381,16.381,0,0,0,2472.008,691.982Z" transform="translate(-2469.6 -690.349)" fill="#553e93"/>
                </g>
              </g>
              <g id="Grupo_1212378" data-name="Grupo 1212378" transform="translate(5.39 69.175)">
                <g id="Grupo_1212377" data-name="Grupo 1212377">
                  <path id="Trazado_1085006" data-name="Trazado 1085006" d="M2336.71,819.067c11.229,2.886,21.955.968,31.877-5.7a8.215,8.215,0,0,1,.752-.478.182.182,0,0,1-.064.007l.024-.56c-.166-.007-.306.083-1.024.566-9.785,6.573-20.358,8.464-31.425,5.62Z" transform="translate(-2336.71 -812.337)" fill="#553e93"/>
                </g>
              </g>
              <g id="Grupo_1212380" data-name="Grupo 1212380" transform="translate(22.763 59.726)">
                <g id="Grupo_1212379" data-name="Grupo 1212379">
                  <path id="Trazado_1085007" data-name="Trazado 1085007" d="M2411.45,788.033l.558.057c.762-7.574,9.193-15.92,9.278-16l-.392-.4a46.56,46.56,0,0,0-4.418,5.21C2414.409,779.728,2411.859,783.959,2411.45,788.033Z" transform="translate(-2411.45 -771.686)" fill="#553e93"/>
                </g>
              </g>
              <g id="Grupo_1212382" data-name="Grupo 1212382" transform="translate(47.034 28.317)">
                <g id="Grupo_1212381" data-name="Grupo 1212381">
                  <path id="Trazado_1085008" data-name="Trazado 1085008" d="M2520.049,638.588c-3.727,1.442-4.5,2.749-4.077,3.832s1.867,1.532,5.594.09c6.789-2.627,9.311-5.858,9.311-5.858S2526.939,635.923,2520.049,638.588Z" transform="translate(-2515.87 -636.562)" fill="#553e93"/>
                </g>
              </g>
              <g id="Grupo_1212384" data-name="Grupo 1212384" transform="translate(43.303 41.039)">
                <g id="Grupo_1212383" data-name="Grupo 1212383">
                  <path id="Trazado_1085009" data-name="Trazado 1085009" d="M2504.859,691.365c-3.988.251-5.115,1.266-5.042,2.425s1.318,2.024,5.306,1.773c7.265-.458,10.644-2.778,10.644-2.778S2512.23,690.9,2504.859,691.365Z" transform="translate(-2499.814 -691.291)" fill="#553e93"/>
                </g>
              </g>
              <g id="Grupo_1212386" data-name="Grupo 1212386" transform="translate(29.767 54.052)">
                <g id="Grupo_1212385" data-name="Grupo 1212385">
                  <path id="Trazado_1085010" data-name="Trazado 1085010" d="M2443.5,751.049c-2.207,1.977-2.236,3.266-1.462,4.131s2.059.979,4.267-1c4.021-3.6,4.563-6.908,4.563-6.908S2447.583,747.4,2443.5,751.049Z" transform="translate(-2441.581 -747.275)" fill="#553e93"/>
                </g>
              </g>
              <g id="Grupo_1212388" data-name="Grupo 1212388" transform="translate(35.326 26.608)">
                <g id="Grupo_1212387" data-name="Grupo 1212387">
                  <path id="Trazado_1085011" data-name="Trazado 1085011" d="M2466.69,634.659c-1.66,2.454-1.375,3.712-.413,4.362s2.236.449,3.9-2.006c3.025-4.471,2.745-7.81,2.745-7.81S2469.758,630.123,2466.69,634.659Z" transform="translate(-2465.5 -629.206)" fill="#553e93"/>
                </g>
              </g>
              <g id="Grupo_1212390" data-name="Grupo 1212390" transform="translate(16.459 63.667)">
                <g id="Grupo_1212389" data-name="Grupo 1212389">
                  <path id="Trazado_1085012" data-name="Trazado 1085012" d="M2384.763,795.626c-.9,2.822-.276,3.948.83,4.3s2.271-.2,3.175-3.02c1.646-5.141.439-8.267.439-8.267S2386.434,790.41,2384.763,795.626Z" transform="translate(-2384.331 -788.642)" fill="#553e93"/>
                </g>
              </g>
              <g id="Grupo_1212392" data-name="Grupo 1212392" transform="translate(32.524 66.672)">
                <g id="Grupo_1212391" data-name="Grupo 1212391">
                  <path id="Trazado_1085013" data-name="Trazado 1085013" d="M2456,803.73c-2.579,1.458-2.884,2.711-2.312,3.722s1.8,1.4,4.382-.061c4.7-2.656,5.936-5.77,5.936-5.77S2460.77,801.035,2456,803.73Z" transform="translate(-2453.444 -801.567)" fill="#553e93"/>
                </g>
              </g>
              <g id="Grupo_1212394" data-name="Grupo 1212394" transform="translate(35.14)">
                <g id="Grupo_1212393" data-name="Grupo 1212393">
                  <path id="Trazado_1085014" data-name="Trazado 1085014" d="M2466.535,522.461c-2.256,3.3-2.15,4.811-1.191,5.466s2.407.207,4.663-3.092c4.11-6.008,4.361-10.1,4.361-10.1S2470.706,516.365,2466.535,522.461Z" transform="translate(-2464.699 -514.736)" fill="#553e93"/>
                </g>
              </g>
            </g>
          </g>
        </g>
        <g id="Grupo_1212398" data-name="Grupo 1212398" transform="translate(1708.797 627.597)">
          <path id="Trazado_1085015" data-name="Trazado 1085015" d="M1882.579,1059.052s-56.721-72.561-75.832-56.43,48.781,40.2,64.624,61.847Z" transform="translate(-1803.385 -1000.282)" fill="#c8c1e1"/>
        </g>
        <g id="Grupo_1212402" data-name="Grupo 1212402" transform="translate(1683.343 638.209)">
          <g id="Grupo_1212399" data-name="Grupo 1212399" transform="translate(0 0)">
            <path id="Trazado_1085016" data-name="Trazado 1085016" d="M1774.793,1082.766s-61.478-51.443-78.259-32.731,50.721,24.52,68.026,40.113Z" transform="translate(-1693.877 -1045.937)" fill="#786ab5"/>
          </g>
          <g id="Grupo_1212401" data-name="Grupo 1212401" transform="translate(12.419 9.534)">
            <g id="Grupo_1212400" data-name="Grupo 1212400">
              <path id="Trazado_1085017" data-name="Trazado 1085017" d="M1810.116,1118.427c-11.755-10.987-28.206-18.789-39.936-23.4a192.834,192.834,0,0,0-22.873-7.449l.15-.625a193.612,193.612,0,0,1,22.959,7.476c11.782,4.631,28.31,12.473,40.139,23.528Z" transform="translate(-1747.307 -1086.953)" fill="#fff"/>
            </g>
          </g>
        </g>
        <g id="Grupo_1212416" data-name="Grupo 1212416" transform="translate(1694.822 663.187)">
          <g id="Grupo_1212404" data-name="Grupo 1212404" transform="translate(0.113 0)">
            <g id="Grupo_1212403" data-name="Grupo 1212403">
              <path id="Trazado_1085018" data-name="Trazado 1085018" d="M1771.77,1209.742c13.289-2.681,19.308,16.577,31.651,7.119s10.806-9.851,20.088-6.751c0,0,9.454,4.716,15.378,3.276,23.375-5.684,34.7-50.81,4.31-58.6-2.194-.562-4.79-.013-7.606.726-15.273,4.021-16.858,12.532-35.488.609s-23.357,18.92-33.317,22.263-19.667,4.162-22.695,17.589S1758.484,1212.432,1771.77,1209.742Z" transform="translate(-1743.746 -1153.395)" fill="#c8c1e1"/>
            </g>
          </g>
          <g id="Grupo_1212415" data-name="Grupo 1212415" transform="translate(0 2.644)">
            <g id="Grupo_1212406" data-name="Grupo 1212406" transform="translate(0 23.436)">
              <g id="Grupo_1212405" data-name="Grupo 1212405">
                <path id="Trazado_1085019" data-name="Trazado 1085019" d="M1846.124,1267.29l.159-.877c-.386-.071-39.423-6.745-103.021,19.32l.338.825C1806.96,1260.591,1845.738,1267.22,1846.124,1267.29Z" transform="translate(-1743.262 -1265.597)" fill="#fff"/>
              </g>
            </g>
            <g id="Grupo_1212408" data-name="Grupo 1212408" transform="translate(52.247)">
              <g id="Grupo_1212407" data-name="Grupo 1212407">
                <path id="Trazado_1085020" data-name="Trazado 1085020" d="M1968.848,1182.722c5.035-11.105,3.9-17.677,3.851-17.952l-.877.162c.012.065,1.12,6.6-3.786,17.422Z" transform="translate(-1968.035 -1164.77)" fill="#fff"/>
              </g>
            </g>
            <g id="Grupo_1212410" data-name="Grupo 1212410" transform="translate(37.828 3.143)">
              <g id="Grupo_1212409" data-name="Grupo 1212409">
                <path id="Trazado_1085021" data-name="Trazado 1085021" d="M1923.652,1202.542c.534-5.132-2.278-10.961-8.133-16.855a59.529,59.529,0,0,0-9.037-7.4l-.479.752c.18.115,17.99,11.606,16.762,23.407Z" transform="translate(-1906.003 -1178.291)" fill="#fff"/>
              </g>
            </g>
            <g id="Grupo_1212412" data-name="Grupo 1212412" transform="translate(15.174 30.839)">
              <g id="Grupo_1212411" data-name="Grupo 1212411">
                <path id="Trazado_1085022" data-name="Trazado 1085022" d="M1831.654,1299.827c.627-1.259.926-2.03.939-2.066l-.833-.315c-.062.163-6.377,16.4-23.216,23.166l.333.827C1822.445,1315.984,1829.32,1304.518,1831.654,1299.827Z" transform="translate(-1808.543 -1297.446)" fill="#fff"/>
              </g>
            </g>
            <g id="Grupo_1212414" data-name="Grupo 1212414" transform="translate(35.244 37.195)">
              <g id="Grupo_1212413" data-name="Grupo 1212413">
                <path id="Trazado_1085023" data-name="Trazado 1085023" d="M1898.026,1343.275a21.037,21.037,0,0,0,.189-13.5,15.578,15.578,0,0,0-2.662-4.987l-.669.59c.059.067,5.85,6.832,2.295,17.618Z" transform="translate(-1894.885 -1324.788)" fill="#fff"/>
              </g>
            </g>
          </g>
        </g>
        <g id="Grupo_1212417" data-name="Grupo 1212417" transform="translate(1869.869 521.566)" opacity="0.6">
          <path id="Trazado_1085024" data-name="Trazado 1085024" d="M2496.34,665.157s37.329-131.8,72.713-120.33-44.583,82.777-54.234,121.49Z" transform="translate(-2496.34 -544.119)" fill="#c8c1e1"/>
        </g>
        <g id="Grupo_1212421" data-name="Grupo 1212421" transform="translate(1890.166 566.148)">
          <g id="Grupo_1212418" data-name="Grupo 1212418" transform="translate(0 0)" opacity="0.6">
            <path id="Trazado_1085025" data-name="Trazado 1085025" d="M2583.66,797.091s52.5-74.666,76.458-59.018-48.581,41.887-63.031,64.129Z" transform="translate(-2583.66 -735.917)" fill="#786ab5"/>
          </g>
          <g id="Grupo_1212420" data-name="Grupo 1212420" transform="translate(6.866 11.052)">
            <g id="Grupo_1212419" data-name="Grupo 1212419">
              <path id="Trazado_1085026" data-name="Trazado 1085026" d="M2613.819,836.51c9.7-15.542,25.5-28.962,37.047-37.483a219.469,219.469,0,0,1,22.97-14.92l-.349-.644a220.24,220.24,0,0,0-23.056,14.975c-11.6,8.559-27.473,22.045-37.233,37.684Z" transform="translate(-2613.198 -783.463)" fill="#fff"/>
            </g>
          </g>
        </g>
        <g id="Grupo_1212427" data-name="Grupo 1212427" transform="translate(1728.04 566.47)">
          <g id="Grupo_1212424" data-name="Grupo 1212424" transform="translate(57.737 115.873)">
            <g id="Grupo_1212422" data-name="Grupo 1212422" transform="translate(1.305)">
              <path id="Trazado_1085027" data-name="Trazado 1085027" d="M2207.7,1262.983v-27.176h-54.817v27.175c0,7.062-4.7,12.786-10.5,12.786h-2.209v3.509h80.227v-3.509H2218.2C2212.4,1275.769,2207.7,1270.044,2207.7,1262.983Z" transform="translate(-2140.181 -1235.807)" fill="#4f1a44"/>
            </g>
            <g id="Grupo_1212423" data-name="Grupo 1212423" transform="translate(0 39.961)">
              <path id="Trazado_1085028" data-name="Trazado 1085028" d="M2215.653,1411.234h-79.332a1.754,1.754,0,0,1-1.754-1.754h0a1.754,1.754,0,0,1,1.754-1.754h79.332a1.755,1.755,0,0,1,1.754,1.754h0A1.754,1.754,0,0,1,2215.653,1411.234Z" transform="translate(-2134.567 -1407.726)" fill="#552748"/>
            </g>
          </g>
          <g id="Grupo_1212425" data-name="Grupo 1212425" transform="translate(0 0)">
            <path id="Trazado_1085029" data-name="Trazado 1085029" d="M2078.7,869.86l-185.37-2.127a7.244,7.244,0,0,1-7.161-7.244V747.351a7.245,7.245,0,0,1,7.134-7.244l182.978-2.8a7.243,7.243,0,0,1,7.354,7.1l2.391,118.069A7.241,7.241,0,0,1,2078.7,869.86Z" transform="translate(-1886.172 -737.304)" fill="#552748"/>
          </g>
          <g id="Grupo_1212426" data-name="Grupo 1212426" transform="translate(7.183 11.397)">
            <path id="Trazado_1085030" data-name="Trazado 1085030" d="M2096.453,885.057H1920.647a3.574,3.574,0,0,1-3.574-3.574V789.911a3.574,3.574,0,0,1,3.574-3.575h175.805a3.574,3.574,0,0,1,3.574,3.575v91.572A3.575,3.575,0,0,1,2096.453,885.057Z" transform="translate(-1917.073 -786.336)" fill="#786ab5"/>
          </g>
        </g>
        <g id="Grupo_1212458" data-name="Grupo 1212458" transform="translate(1945.671 686.895)">
          <g id="Grupo_1212437" data-name="Grupo 1212437" transform="translate(0 19.032)">
            <g id="Grupo_1212428" data-name="Grupo 1212428">
              <path id="Trazado_1085031" data-name="Trazado 1085031" d="M2831.142,1337.27l34.088.078,38.805.967.1,2.922-37.536-1.631c-3.772.13-6.714,3.585-6.572,7.718h0c.143,4.132,3.316,7.377,7.088,7.246l37.435-1.291.075,2.158-72.965,3.217c-4.9.169-9.016-4.743-9.2-10.107h0C2822.276,1343.181,2826.247,1337.438,2831.142,1337.27Z" transform="translate(-2822.454 -1337.27)" fill="#c8c1e1"/>
            </g>
            <g id="Grupo_1212429" data-name="Grupo 1212429" transform="translate(34.238 0.077)">
              <path id="Trazado_1085032" data-name="Trazado 1085032" d="M2969.759,1347.618h0c-.185-5.364,3.635-9.849,8.531-10.018l38.806.967.1,2.922-37.536-1.631c-3.772.13-6.715,3.586-6.572,7.718h0c.143,4.132,3.316,7.377,7.088,7.247l37.435-1.291.074,3.5-38.726,0C2974.063,1357.195,2969.945,1352.983,2969.759,1347.618Z" transform="translate(-2969.752 -1337.6)" fill="#c8c1e1"/>
            </g>
            <g id="Grupo_1212430" data-name="Grupo 1212430" transform="translate(37.57 2.343)">
              <path id="Trazado_1085033" data-name="Trazado 1085033" d="M2990.662,1347.35l37.535,1.623h0c-3.386.546-4.405,3.987-4.873,5.823-.949,3.724,1.871,5.865,5.287,6.176l0,.051-37.435,1.291c-3.772.13-6.946-3.115-7.088-7.247h0C2983.949,1350.934,2986.892,1347.48,2990.662,1347.35Z" transform="translate(-2984.085 -1347.35)" fill="#f0eeff"/>
            </g>
            <g id="Grupo_1212431" data-name="Grupo 1212431" transform="translate(44.913 11.505)">
              <rect id="Rectángulo_418558" data-name="Rectángulo 418558" width="22.463" height="0.204" transform="matrix(1, -0.022, 0.022, 1, 0, 0.503)" fill="#66192d"/>
            </g>
            <g id="Grupo_1212433" data-name="Grupo 1212433" transform="translate(33.264 3.882)">
              <g id="Grupo_1212432" data-name="Grupo 1212432">
                <path id="Trazado_1085034" data-name="Trazado 1085034" d="M2968.92,1366.2a.351.351,0,0,0,.279-.13.268.268,0,0,0-.092-.4c-.024-.014-2.447-1.468-2.841-5.539a5.578,5.578,0,0,1,2.91-5.614.273.273,0,0,0,.139-.393.364.364,0,0,0-.453-.12,6.076,6.076,0,0,0-3.264,6.177c.423,4.372,3.027,5.911,3.138,5.975A.352.352,0,0,0,2968.92,1366.2Z" transform="translate(-2965.562 -1353.972)" fill="#66192d"/>
              </g>
            </g>
            <g id="Grupo_1212434" data-name="Grupo 1212434" transform="translate(53.637 9.326)">
              <rect id="Rectángulo_418559" data-name="Rectángulo 418559" width="0.205" height="16.738" transform="translate(0 0.205) rotate(-89.106)" fill="#66192d"/>
            </g>
            <g id="Grupo_1212436" data-name="Grupo 1212436" transform="translate(24.605 5.181)">
              <g id="Grupo_1212435" data-name="Grupo 1212435">
                <path id="Trazado_1085035" data-name="Trazado 1085035" d="M2930.156,1369.664a8.146,8.146,0,0,1-.343-9.765.336.336,0,0,1,.263-.143l5.7-.2a.342.342,0,0,1,.3.172.334.334,0,0,1-.013.349,6.891,6.891,0,0,0-1.014,4.766,18.039,18.039,0,0,0,1.655,4.224.336.336,0,0,1-.278.5l-6.006.207h-.012A.345.345,0,0,1,2930.156,1369.664Zm4.247-4.656a7.046,7.046,0,0,1,.793-4.759l-4.925.17a7.317,7.317,0,0,0,.3,8.686l5.3-.183A19.006,19.006,0,0,1,2934.4,1365.008Z" transform="translate(-2928.307 -1359.559)" fill="#66192d"/>
              </g>
            </g>
          </g>
          <g id="Grupo_1212447" data-name="Grupo 1212447" transform="translate(7.904 0)">
            <g id="Grupo_1212438" data-name="Grupo 1212438" transform="translate(0 0.001)">
              <path id="Trazado_1085036" data-name="Trazado 1085036" d="M2931.222,1256.1l-34.9-.7-39.518,1.553-.06,2.978,38.215-2.212c3.845.077,6.892,3.554,6.808,7.766h0c-.085,4.212-3.27,7.563-7.115,7.486l-38.155-.767-.044,2.2,74.369,1.495c4.991.1,9.125-4.251,9.236-9.718h0C2940.169,1260.709,2936.213,1256.2,2931.222,1256.1Z" transform="translate(-2856.456 -1255.394)" fill="#ff8548"/>
            </g>
            <g id="Grupo_1212439" data-name="Grupo 1212439" transform="translate(0)">
              <path id="Trazado_1085037" data-name="Trazado 1085037" d="M2905.164,1265.472h0c.109-5.467-3.847-9.981-8.838-10.081l-39.518,1.553-.06,2.978,38.215-2.212c3.844.077,6.892,3.554,6.808,7.766h0c-.085,4.212-3.271,7.563-7.115,7.486l-38.155-.767-.044,2.2,39.471.793C2900.917,1275.29,2905.052,1270.939,2905.164,1265.472Z" transform="translate(-2856.458 -1255.391)" fill="#ff8548"/>
            </g>
            <g id="Grupo_1212440" data-name="Grupo 1212440" transform="translate(0.043 2.329)">
              <path id="Trazado_1085038" data-name="Trazado 1085038" d="M2895.1,1265.41l-38.215,2.2h0c3.458.506,4.546,4,5.049,5.861,1.021,3.779-1.82,6-5.3,6.369v.052l38.155.766c3.845.077,7.03-3.274,7.115-7.486h0C2902,1268.964,2898.949,1265.487,2895.1,1265.41Z" transform="translate(-2856.643 -1265.41)" fill="#f0eeff"/>
            </g>
            <g id="Grupo_1212441" data-name="Grupo 1212441" transform="translate(5.516 12.134)">
              <rect id="Rectángulo_418560" data-name="Rectángulo 418560" width="0.208" height="30.803" transform="translate(0 0.208) rotate(-88.848)" fill="#66192d"/>
            </g>
            <g id="Grupo_1212443" data-name="Grupo 1212443" transform="translate(47.24 3.671)">
              <g id="Grupo_1212442" data-name="Grupo 1212442">
                <path id="Trazado_1085039" data-name="Trazado 1085039" d="M3060.257,1283.994a.3.3,0,0,0,.171-.053c.1-.068,2.442-1.714,2.761-6.3a6.5,6.5,0,0,0-3.056-6.425.3.3,0,0,0-.279.542,5.9,5.9,0,0,1,2.727,5.841c-.3,4.292-2.474,5.821-2.5,5.836a.3.3,0,0,0,.172.557Z" transform="translate(-3059.69 -1271.186)" fill="#66192d"/>
              </g>
            </g>
            <g id="Grupo_1212444" data-name="Grupo 1212444" transform="translate(5.307 9.571)">
              <rect id="Rectángulo_418561" data-name="Rectángulo 418561" width="23.652" height="0.208" transform="translate(0 0.719) rotate(-1.742)" fill="#66192d"/>
            </g>
            <g id="Grupo_1212446" data-name="Grupo 1212446" transform="translate(51.98 5.696)">
              <g id="Grupo_1212445" data-name="Grupo 1212445">
                <path id="Trazado_1085040" data-name="Trazado 1085040" d="M3083.818,1289.03l-1.56-.031a2.214,2.214,0,0,1-2.06-2.916c.164-.486.3-.975.417-1.453a4.547,4.547,0,0,0-.028-2.045,2.188,2.188,0,0,1,.446-1.873,2.211,2.211,0,0,1,1.765-.815l1.231.024h0a2.186,2.186,0,0,1,1.9,1.152,7.149,7.149,0,0,1-.111,6.783,2.2,2.2,0,0,1-1.958,1.174Zm-1.032-8.524a1.605,1.605,0,0,0-1.281.592,1.58,1.58,0,0,0-.322,1.354,5.157,5.157,0,0,1,.026,2.318c-.117.5-.263,1-.434,1.509a1.578,1.578,0,0,0,.207,1.426,1.6,1.6,0,0,0,1.288.686l1.56.031a1.6,1.6,0,0,0,1.452-.85,6.549,6.549,0,0,0,.109-6.214,1.576,1.576,0,0,0-1.374-.826Z" transform="translate(-3080.081 -1279.896)" fill="#66192d"/>
              </g>
            </g>
          </g>
          <g id="Grupo_1212457" data-name="Grupo 1212457" transform="translate(7.904 37.9)">
            <g id="Grupo_1212448" data-name="Grupo 1212448">
              <path id="Trazado_1085041" data-name="Trazado 1085041" d="M2931.222,1419.144l-34.9-.7L2856.807,1420l-.06,2.978,38.215-2.212c3.845.077,6.892,3.554,6.808,7.766h0c-.085,4.212-3.27,7.563-7.115,7.486l-38.155-.766-.044,2.2,74.369,1.495c4.991.1,9.125-4.25,9.236-9.718h0C2940.169,1423.758,2936.213,1419.246,2931.222,1419.144Z" transform="translate(-2856.456 -1418.443)" fill="#ff8548"/>
            </g>
            <g id="Grupo_1212449" data-name="Grupo 1212449" transform="translate(0 0.002)">
              <path id="Trazado_1085042" data-name="Trazado 1085042" d="M2905.164,1428.531h0c.109-5.467-3.847-9.981-8.838-10.081L2856.808,1420l-.06,2.978,38.215-2.212c3.844.077,6.892,3.554,6.808,7.766h0c-.085,4.212-3.271,7.563-7.115,7.486l-38.155-.767-.044,2.2,39.471.793C2900.917,1438.349,2905.052,1434,2905.164,1428.531Z" transform="translate(-2856.458 -1418.45)" fill="#ff8548"/>
            </g>
            <g id="Grupo_1212450" data-name="Grupo 1212450" transform="translate(0.043 2.328)">
              <path id="Trazado_1085043" data-name="Trazado 1085043" d="M2895.1,1428.46l-38.215,2.2h0c3.458.506,4.546,4,5.049,5.861,1.021,3.779-1.82,6-5.3,6.369v.052l38.155.767c3.845.077,7.03-3.275,7.115-7.486h0C2902,1432.016,2898.949,1428.539,2895.1,1428.46Z" transform="translate(-2856.643 -1428.46)" fill="#f0eeff"/>
            </g>
            <g id="Grupo_1212451" data-name="Grupo 1212451" transform="translate(5.521 12.137)">
              <rect id="Rectángulo_418562" data-name="Rectángulo 418562" width="0.208" height="30.803" transform="translate(0 0.208) rotate(-88.848)" fill="#66192d"/>
            </g>
            <g id="Grupo_1212453" data-name="Grupo 1212453" transform="translate(47.24 3.671)">
              <g id="Grupo_1212452" data-name="Grupo 1212452">
                <path id="Trazado_1085044" data-name="Trazado 1085044" d="M3060.257,1447.044a.3.3,0,0,0,.171-.053c.1-.068,2.442-1.714,2.761-6.3a6.5,6.5,0,0,0-3.056-6.424.3.3,0,0,0-.279.542,5.905,5.905,0,0,1,2.727,5.841c-.3,4.292-2.474,5.821-2.5,5.836a.3.3,0,0,0,.172.556Z" transform="translate(-3059.69 -1434.236)" fill="#66192d"/>
              </g>
            </g>
            <g id="Grupo_1212454" data-name="Grupo 1212454" transform="translate(5.315 9.553)">
              <rect id="Rectángulo_418563" data-name="Rectángulo 418563" width="23.652" height="0.208" transform="translate(0 0.719) rotate(-1.742)" fill="#66192d"/>
            </g>
            <g id="Grupo_1212456" data-name="Grupo 1212456" transform="translate(51.98 5.698)">
              <g id="Grupo_1212455" data-name="Grupo 1212455">
                <path id="Trazado_1085045" data-name="Trazado 1085045" d="M3083.818,1452.09l-1.56-.031a2.214,2.214,0,0,1-2.06-2.916c.164-.486.3-.975.417-1.453a4.546,4.546,0,0,0-.028-2.045,2.189,2.189,0,0,1,.446-1.873,2.213,2.213,0,0,1,1.765-.816l1.231.025h0a2.187,2.187,0,0,1,1.9,1.152,7.149,7.149,0,0,1-.111,6.783,2.2,2.2,0,0,1-1.958,1.174Zm-1.032-8.526a1.6,1.6,0,0,0-1.281.592,1.58,1.58,0,0,0-.322,1.354,5.156,5.156,0,0,1,.026,2.318c-.117.5-.263,1-.434,1.508a1.577,1.577,0,0,0,.207,1.426,1.6,1.6,0,0,0,1.288.686l1.56.031a1.6,1.6,0,0,0,1.452-.85,6.549,6.549,0,0,0,.109-6.214,1.576,1.576,0,0,0-1.374-.826Z" transform="translate(-3080.081 -1442.956)" fill="#66192d"/>
              </g>
            </g>
          </g>
        </g>
        <g id="Grupo_1212509" data-name="Grupo 1212509" transform="translate(1911.291 586.856)">
          <g id="Grupo_1212459" data-name="Grupo 1212459" transform="translate(35.998 42.6)">
            <path id="Trazado_1085046" data-name="Trazado 1085046" d="M2840.643,1008.28s-12.007,15.515-11.191,27.509,15.039,2.407,15.039,2.407l1.225-28.4Z" transform="translate(-2829.412 -1008.28)" fill="#f18c7e"/>
          </g>
          <g id="Grupo_1212460" data-name="Grupo 1212460" transform="translate(21.452 149.633)">
            <path id="Trazado_1085047" data-name="Trazado 1085047" d="M2776.159,1469.1s.1,3.526-2.224,4.649-9.182,2.4-6.479,4.519c1.551,1.218,8.48,0,10.449-.109s3.865.65,5.257-.748c1.531-1.538-.473-8.667-.473-8.667a7.883,7.883,0,0,1-3.182,1.021A6.265,6.265,0,0,1,2776.159,1469.1Z" transform="translate(-2766.834 -1468.748)" fill="#66192d"/>
          </g>
          <g id="Grupo_1212461" data-name="Grupo 1212461" transform="translate(0 149.611)">
            <path id="Trazado_1085048" data-name="Trazado 1085048" d="M2683.869,1469.013s.1,3.526-2.224,4.649-9.182,2.4-6.479,4.519c1.551,1.218,8.48,0,10.449-.109s3.865.65,5.257-.748c1.531-1.538-.473-8.667-.473-8.667a7.884,7.884,0,0,1-3.182,1.022A6.291,6.291,0,0,1,2683.869,1469.013Z" transform="translate(-2674.545 -1468.656)" fill="#66192d"/>
          </g>
          <g id="Grupo_1212463" data-name="Grupo 1212463" transform="translate(6.743 76.07)">
            <g id="Grupo_1212462" data-name="Grupo 1212462">
              <path id="Trazado_1085049" data-name="Trazado 1085049" d="M2703.583,1220.343c1.743-23.1,2.154-38.683,9.463-48.7,8-10.959,29.446-18.709,37.716-19.193,13.486-.788,19.84,1.219,19.84,1.219,10.123,21.05-5.733,23.843-17.461,24.418q-.581.029-1.167.065c-7.1.447-19.726,2.251-24.5,9.307-3.784,5.587-6.41,13.431-7.518,33.663a7.174,7.174,0,0,1-7.356,6.787S2702.956,1228.651,2703.583,1220.343Z" transform="translate(-2703.554 -1152.271)" fill="#ff443c"/>
            </g>
          </g>
          <g id="Grupo_1212465" data-name="Grupo 1212465" transform="translate(25.775 78.674)">
            <g id="Grupo_1212464" data-name="Grupo 1212464">
              <path id="Trazado_1085050" data-name="Trazado 1085050" d="M2785.567,1230.131c-.23-23.162-.949-34.988,6-45.252,4.466-6.594,11.183-11.572,19.964-14.795a76.934,76.934,0,0,1,21.907-4.2c13.485-.788,19.545-2.417,19.545-2.417,10.914,26.945-29.01,21.225-39.4,32.705-4.529,5-10.14,14.516-11.248,34.748a7.174,7.174,0,0,1-7.356,6.787S2785.651,1238.6,2785.567,1230.131Z" transform="translate(-2785.43 -1163.472)" fill="#ff443c"/>
            </g>
          </g>
          <g id="Grupo_1212466" data-name="Grupo 1212466" transform="translate(25.824 88.678)">
            <path id="Trazado_1085051" data-name="Trazado 1085051" d="M2785.8,1240.416l-.155-.007c.007-.139.693-13.91,3.009-18.737,2.93-6.108,11.426-12.484,20.2-15.159l.045.148c-8.737,2.664-17.193,9.005-20.106,15.078C2786.49,1226.539,2785.807,1240.278,2785.8,1240.416Z" transform="translate(-2785.646 -1206.512)" fill="#020202"/>
          </g>
          <g id="Grupo_1212467" data-name="Grupo 1212467" transform="translate(45.24 28.519)">
            <path id="Trazado_1085052" data-name="Trazado 1085052" d="M2907.7,955.072s-5.737-9.807-18.963-6.8-18.614,16.518-19.561,48.957c0,0,12.244-.45,44.413,10.22,3.811,1.264,9.4.262,7.443-6.23C2917.4,989.157,2913.873,965.09,2907.7,955.072Z" transform="translate(-2869.176 -947.701)" fill="#fdecc1"/>
          </g>
          <g id="Grupo_1212468" data-name="Grupo 1212468" transform="translate(44.846 28.099)">
            <path id="Trazado_1085053" data-name="Trazado 1085053" d="M2920.945,956.547l-13.6,2.557s-23.788,7.035-30.448,7.091a10.783,10.783,0,0,1-9.415-4.815,35.229,35.229,0,0,1,16.628-13.418,32.625,32.625,0,0,1,3.327-1.075,24.488,24.488,0,0,1,5.915-.991C2915.8,945.638,2920.945,956.547,2920.945,956.547Z" transform="translate(-2867.478 -945.891)" fill="#fdecc1"/>
          </g>
          <g id="Grupo_1212469" data-name="Grupo 1212469" transform="translate(84.488 37.982)">
            <path id="Trazado_1085054" data-name="Trazado 1085054" d="M3051.849,989.183c.294,1.073-2.557,2.862-6.369,4s-7.14,1.186-7.435.113,2.557-2.862,6.369-4S3051.556,988.111,3051.849,989.183Z" transform="translate(-3038.024 -988.411)" fill="#66192d"/>
          </g>
          <g id="Grupo_1212470" data-name="Grupo 1212470" transform="translate(59.35 15.015)">
            <path id="Trazado_1085055" data-name="Trazado 1085055" d="M2941.22,902.693a4.033,4.033,0,0,1-3.677-1.748l-2.559-3.785-.742-1.1-4.366-6.459,1.911,7.19,1.148,4.316.327,1.23a2.026,2.026,0,0,1-1.243,2.411l-.017.006c-.372.979-.778,2.9,1.581,3.187,2.772.335,6.608-2.526,7.661-5.252Z" transform="translate(-2929.876 -889.602)" fill="#f18c7e"/>
          </g>
          <g id="Grupo_1212471" data-name="Grupo 1212471" transform="translate(63.947 12.248)">
            <path id="Trazado_1085056" data-name="Trazado 1085056" d="M2953.066,877.7a8.291,8.291,0,0,0,1.1,3.572c1.688,3.4-2.127,5.673-3.371,4.849-.154-.1-1.142-6.237-1.142-6.237l1.163-1.028Z" transform="translate(-2949.652 -877.7)" fill="#66192d"/>
          </g>
          <g id="Grupo_1212472" data-name="Grupo 1212472" transform="translate(61.259 21.431)">
            <path id="Trazado_1085057" data-name="Trazado 1085057" d="M2941.272,918.224q.01.061.015.122c.273,2.383-2.032,3.959-2.032,3.959l-.018-.01-1.147-4.316a3.8,3.8,0,0,1,2.455-.732A1.042,1.042,0,0,1,2941.272,918.224Z" transform="translate(-2938.09 -917.205)" fill="#66192d"/>
          </g>
          <g id="Grupo_1212473" data-name="Grupo 1212473" transform="translate(52.204 7.692)">
            <path id="Trazado_1085058" data-name="Trazado 1085058" d="M2899.321,867.952c-.887-4.667,1.46-9.033,5.243-9.753s7.569,2.482,8.456,7.148-1.46,9.033-5.243,9.753S2900.207,872.62,2899.321,867.952Z" transform="translate(-2899.134 -858.099)" fill="#f18c7e"/>
          </g>
          <g id="Grupo_1212474" data-name="Grupo 1212474" transform="translate(51.187 6.054)">
            <path id="Trazado_1085059" data-name="Trazado 1085059" d="M2898.868,855.272c.24.223-.012,4.776,8.239,4.283s1.555-9.345-4.429-8.436c-8.641,1.312-8.543,8.451-7.324,10.37S2898.868,855.272,2898.868,855.272Z" transform="translate(-2894.76 -851.054)" fill="#66192d"/>
          </g>
          <g id="Grupo_1212475" data-name="Grupo 1212475" transform="translate(65.305 0)">
            <path id="Trazado_1085060" data-name="Trazado 1085060" d="M2956.882,827.575s-3.158,3.108.058,4.857,11.058,1.291,9.7,5.531-2.083,10.279,1.81,10.277,6.2-.737,8.3,1.962,8.565-.448,7.332-3.9,4.015-7.7.888-10.494-9.791-4.482-12.133-8.462S2959.453,825.169,2956.882,827.575Z" transform="translate(-2955.496 -825.007)" fill="#66192d"/>
          </g>
          <g id="Grupo_1212476" data-name="Grupo 1212476" transform="translate(62.382 13.211)">
            <path id="Trazado_1085061" data-name="Trazado 1085061" d="M2942.92,881.973s3.951,2.844,3.483,6.608c0,0,1.512-2.449,1.407-3.235a30.611,30.611,0,0,0-1.148-3.5Z" transform="translate(-2942.92 -881.844)" fill="#66192d"/>
          </g>
          <g id="Grupo_1212477" data-name="Grupo 1212477" transform="translate(62.482 13.132)">
            <path id="Trazado_1085062" data-name="Trazado 1085062" d="M2946.285,884.362a1.714,1.714,0,0,1-2.391.63,1.917,1.917,0,0,1-.092-2.587,1.714,1.714,0,0,1,2.391-.63A1.916,1.916,0,0,1,2946.285,884.362Z" transform="translate(-2943.352 -881.501)" fill="#f18c7e"/>
          </g>
          <g id="Grupo_1212478" data-name="Grupo 1212478" transform="translate(67.399 1.911)">
            <path id="Trazado_1085063" data-name="Trazado 1085063" d="M2983.528,856.55c-1.013-3.813-3.26-3.984-5.64-4.166a12.36,12.36,0,0,1-2.85-.445,1.462,1.462,0,0,1-.922-.731c-.422-.859.067-2.213.634-3.78.826-2.284,1.762-4.872.365-6.881a9.415,9.415,0,0,0-6.841-4.062c-2.382.151-3.617-.117-3.759-.818s.972-1.495,1.383-1.638c3.335-1.167,7.191-1.637,12.777,2.778,4.406,3.482,4.1,5.441,3.72,7.922-.084.547-.172,1.114-.212,1.729a1.391,1.391,0,0,0,.312,1.1c.539.568,1.74.554,2.9.54,1.5-.018,3.055-.036,3.474,1.158a5.076,5.076,0,0,1-.405,3.118c-.369,1.1-.718,2.139-.289,2.866a2.507,2.507,0,0,0,1.826.964l-.052.282a2.76,2.76,0,0,1-2.022-1.1c-.5-.84-.126-1.939.264-3.1a4.9,4.9,0,0,0,.406-2.932c-.351-1-1.734-.983-3.2-.966-1.223.014-2.488.029-3.113-.63a1.68,1.68,0,0,1-.39-1.318c.041-.628.129-1.2.215-1.754.369-2.388.66-4.275-3.615-7.654-5.477-4.329-9.247-3.872-12.505-2.732-.4.139-1.293.839-1.2,1.311.048.24.485.777,3.474.588a9.716,9.716,0,0,1,7.081,4.184c1.481,2.13.477,4.909-.331,7.142-.545,1.506-1.016,2.807-.647,3.557a1.174,1.174,0,0,0,.752.585,12.141,12.141,0,0,0,2.785.432c2.483.19,4.829.369,5.9,4.378Z" transform="translate(-2964.503 -833.229)" fill="#fff"/>
          </g>
          <g id="Grupo_1212479" data-name="Grupo 1212479" transform="translate(57.934 10.067)">
            <path id="Trazado_1085064" data-name="Trazado 1085064" d="M2928.008,870.277a6.188,6.188,0,0,1-4.222-1.783l.192-.176a5.814,5.814,0,0,0,4.929,1.622l.043.258A5.626,5.626,0,0,1,2928.008,870.277Z" transform="translate(-2923.785 -868.318)" fill="#fff"/>
          </g>
          <g id="Grupo_1212481" data-name="Grupo 1212481" transform="translate(50.477 15.025)">
            <g id="Grupo_1212480" data-name="Grupo 1212480">
              <path id="Trazado_1085065" data-name="Trazado 1085065" d="M2896.165,897.332a2.44,2.44,0,0,1-1.637-.09,4.491,4.491,0,0,1-2.264-2.24c-.982-1.989-.642-4.264.756-5.07a2.341,2.341,0,0,1,2.055-.094,4.492,4.492,0,0,1,2.264,2.24c.981,1.99.643,4.264-.756,5.07A2.166,2.166,0,0,1,2896.165,897.332Zm-2.666-7.394a1.956,1.956,0,0,0-.389.171c-1.317.76-1.63,2.916-.7,4.808a4.284,4.284,0,0,0,2.157,2.138,2.187,2.187,0,0,0,1.923-.085c1.318-.759,1.63-2.917.7-4.808a4.285,4.285,0,0,0-2.157-2.138A2.289,2.289,0,0,0,2893.5,889.938Z" transform="translate(-2891.703 -889.646)" fill="#6f4975"/>
            </g>
          </g>
          <g id="Grupo_1212483" data-name="Grupo 1212483" transform="translate(57.193 12.524)">
            <g id="Grupo_1212482" data-name="Grupo 1212482">
              <path id="Trazado_1085066" data-name="Trazado 1085066" d="M2924.6,886.779a2.559,2.559,0,0,1-1.66-.275,4.456,4.456,0,0,1-2.026-2.483c-.749-2.09-.113-4.314,1.418-4.958a2.461,2.461,0,0,1,2.11.139,4.455,4.455,0,0,1,2.027,2.484h0c.749,2.09.113,4.313-1.418,4.958A2.273,2.273,0,0,1,2924.6,886.779Zm-1.781-7.656a2.08,2.08,0,0,0-.419.126c-1.442.607-2.035,2.717-1.323,4.7a4.252,4.252,0,0,0,1.931,2.37,2.3,2.3,0,0,0,1.975.133c1.442-.607,2.036-2.717,1.323-4.7h0a4.249,4.249,0,0,0-1.931-2.37A2.4,2.4,0,0,0,2922.818,879.124Z" transform="translate(-2920.597 -878.887)" fill="#6f4975"/>
            </g>
          </g>
          <g id="Grupo_1212485" data-name="Grupo 1212485" transform="translate(55.702 17.756)">
            <g id="Grupo_1212484" data-name="Grupo 1212484">
              <path id="Trazado_1085067" data-name="Trazado 1085067" d="M2914.282,902.412a.083.083,0,0,1-.073-.022.084.084,0,0,1,0-.118,3.56,3.56,0,0,1,2.383-.878.084.084,0,1,1,.006.167,3.464,3.464,0,0,0-2.268.826A.084.084,0,0,1,2914.282,902.412Z" transform="translate(-2914.183 -901.394)" fill="#6f4975"/>
            </g>
          </g>
          <g id="Grupo_1212486" data-name="Grupo 1212486" transform="translate(56.496 20.773)">
            <path id="Trazado_1085068" data-name="Trazado 1085068" d="M2917.6,916.034a15.131,15.131,0,0,0,4.534-1.657,2.322,2.322,0,0,1-1.872,2.906C2918.807,917.653,2917.6,916.034,2917.6,916.034Z" transform="translate(-2917.6 -914.377)" fill="#db6b49"/>
          </g>
          <g id="Grupo_1212487" data-name="Grupo 1212487" transform="translate(56.496 20.773)">
            <path id="Trazado_1085069" data-name="Trazado 1085069" d="M2917.6,916.034a3.115,3.115,0,0,0,1.975.106,5.58,5.58,0,0,0,2.559-1.763A22.759,22.759,0,0,1,2917.6,916.034Z" transform="translate(-2917.6 -914.377)" fill="#fff"/>
          </g>
          <g id="Grupo_1212489" data-name="Grupo 1212489" transform="translate(58.447 15.831)">
            <g id="Grupo_1212488" data-name="Grupo 1212488">
              <path id="Trazado_1085070" data-name="Trazado 1085070" d="M2926.137,893.733a.159.159,0,0,1-.074-.291,1.717,1.717,0,0,1,2.1.066.159.159,0,0,1,.037.221.175.175,0,0,1-.221.036,2.719,2.719,0,0,0-1.746-.057A.157.157,0,0,1,2926.137,893.733Z" transform="translate(-2925.991 -893.113)" fill="#060633"/>
            </g>
          </g>
          <g id="Grupo_1212490" data-name="Grupo 1212490" transform="translate(59.157 17.36)">
            <path id="Trazado_1085071" data-name="Trazado 1085071" d="M2930.041,900.26a.615.615,0,0,1-.336.777c-.268.06-.552-.191-.634-.56a.615.615,0,0,1,.336-.777C2929.676,899.639,2929.96,899.89,2930.041,900.26Z" transform="translate(-2929.048 -899.69)" fill="#060633"/>
          </g>
          <g id="Grupo_1212492" data-name="Grupo 1212492" transform="translate(52.979 17.269)">
            <g id="Grupo_1212491" data-name="Grupo 1212491">
              <path id="Trazado_1085072" data-name="Trazado 1085072" d="M2902.675,900.353a.159.159,0,0,1-.179-.241,1.717,1.717,0,0,1,1.969-.739.159.159,0,0,1,.118.191.174.174,0,0,1-.191.118,2.714,2.714,0,0,0-1.636.613A.163.163,0,0,1,2902.675,900.353Z" transform="translate(-2902.467 -899.302)" fill="#060633"/>
            </g>
          </g>
          <g id="Grupo_1212493" data-name="Grupo 1212493" transform="translate(54.216 18.748)">
            <path id="Trazado_1085073" data-name="Trazado 1085073" d="M2908.765,906.01a.523.523,0,1,1-.8-.277A.613.613,0,0,1,2908.765,906.01Z" transform="translate(-2907.792 -905.665)" fill="#060633"/>
          </g>
          <g id="Grupo_1212495" data-name="Grupo 1212495" transform="translate(69.417 39.27)">
            <g id="Grupo_1212494" data-name="Grupo 1212494">
              <path id="Trazado_1085074" data-name="Trazado 1085074" d="M2997.515,1022.19c-4.9,7.072-10.955,10.96-23.835,13.307l-.493-8.247c15.7-5.76,17.434-24.493,16.63-29.226a1.222,1.222,0,0,1,.462-1.177c1.2-.919,4.306-2.786,9.857-2.9a1.075,1.075,0,0,1,1.058.8C3003.517,1003.5,3003.292,1013.846,2997.515,1022.19Z" transform="translate(-2973.187 -993.951)" fill="#f18c7e"/>
            </g>
          </g>
          <g id="Grupo_1212496" data-name="Grupo 1212496" transform="translate(87.06 64.782)" opacity="0.3">
            <path id="Trazado_1085075" data-name="Trazado 1085075" d="M3050.779,1108.919a1.548,1.548,0,0,1-.614-.125c-1.018-.435-1.375-1.9-.8-3.269a3.086,3.086,0,0,1,1.583-1.676,1.681,1.681,0,0,1,1.312-.018c1.018.435,1.375,1.9.8,3.269h0a3.085,3.085,0,0,1-1.584,1.676A1.84,1.84,0,0,1,3050.779,1108.919Zm.872-4.765a1.416,1.416,0,0,0-.531.11,2.636,2.636,0,0,0-1.339,1.435c-.482,1.142-.23,2.346.561,2.685a1.244,1.244,0,0,0,.969-.021,2.635,2.635,0,0,0,1.339-1.436h0c.482-1.142.23-2.346-.562-2.684A1.124,1.124,0,0,0,3051.65,1104.154Z" transform="translate(-3049.092 -1103.707)" fill="#e86f62"/>
          </g>
          <g id="Grupo_1212501" data-name="Grupo 1212501" transform="translate(57.366 72.517)">
            <g id="Grupo_1212497" data-name="Grupo 1212497">
              <path id="Trazado_1085076" data-name="Trazado 1085076" d="M2933.391,1137.038s-7.644-.435-9.618,1.2-3.256,5.225-1.816,4.469a16.917,16.917,0,0,0,3.011-2.231s-3.21,3.308-2.112,3.724,3.864-2.488,3.864-2.488-3.507,4.24-2.342,4.3,3.807-3.184,3.807-3.184-3.105,4.076-1.75,4.11,2.544-3.385,3.643-2.969,4.244,2.813,5.773-.1Z" transform="translate(-2921.341 -1136.985)" fill="#f18c7e"/>
            </g>
            <g id="Grupo_1212498" data-name="Grupo 1212498" transform="translate(3.551 2.343)">
              <path id="Trazado_1085077" data-name="Trazado 1085077" d="M2936.771,1148.273l-.154-.11c.033-.045.8-1.1,1.629-1.1h.025l0,.189C2937.527,1147.241,2936.778,1148.261,2936.771,1148.273Z" transform="translate(-2936.617 -1147.065)" fill="#e86f62"/>
            </g>
            <g id="Grupo_1212499" data-name="Grupo 1212499" transform="translate(5.301 3.376)">
              <path id="Trazado_1085078" data-name="Trazado 1085078" d="M2944.3,1152.917l-.156-.108a3.332,3.332,0,0,1,1.942-1.3l.032.186A3.2,3.2,0,0,0,2944.3,1152.917Z" transform="translate(-2944.148 -1151.508)" fill="#e86f62"/>
            </g>
            <g id="Grupo_1212500" data-name="Grupo 1212500" transform="translate(6.768 4.558)">
              <path id="Trazado_1085079" data-name="Trazado 1085079" d="M2950.611,1157.935l-.154-.11c.039-.054.954-1.325,1.854-1.224l-.021.188C2951.5,1156.7,2950.62,1157.923,2950.611,1157.935Z" transform="translate(-2950.457 -1156.595)" fill="#e86f62"/>
            </g>
          </g>
          <g id="Grupo_1212508" data-name="Grupo 1212508" transform="translate(27.727 66.063)">
            <g id="Grupo_1212502" data-name="Grupo 1212502" transform="translate(1.592 0.079)">
              <path id="Trazado_1085080" data-name="Trazado 1085080" d="M2832.541,1127.748h-25.358a1.232,1.232,0,0,1-1.169-.838l-5.27-15.737a1.225,1.225,0,0,1,1.17-1.61H2826.3a2.579,2.579,0,0,1,2.448,1.754l4.963,14.821A1.226,1.226,0,0,1,2832.541,1127.748Z" transform="translate(-2800.679 -1109.562)" fill="#66192d"/>
            </g>
            <g id="Grupo_1212503" data-name="Grupo 1212503" transform="translate(0 0.079)">
              <path id="Trazado_1085081" data-name="Trazado 1085081" d="M2825.69,1127.748h-25.358a1.232,1.232,0,0,1-1.169-.838l-5.27-15.737a1.226,1.226,0,0,1,1.17-1.61h24.386a2.579,2.579,0,0,1,2.448,1.754l4.963,14.821A1.225,1.225,0,0,1,2825.69,1127.748Z" transform="translate(-2793.829 -1109.562)" fill="#66192d"/>
            </g>
            <g id="Grupo_1212504" data-name="Grupo 1212504" transform="translate(14.093 7.815)">
              <path id="Trazado_1085082" data-name="Trazado 1085082" d="M2854.46,1143.683c0-.6.689-.841,1.291-.841a1.723,1.723,0,0,1,1.578,1.493c-.006.9-.712,1.021-1.314,1.021A1.99,1.99,0,0,1,2854.46,1143.683Z" transform="translate(-2854.46 -1142.842)" fill="#deebe9"/>
            </g>
            <g id="Grupo_1212505" data-name="Grupo 1212505" transform="translate(6.491 16.041)">
              <path id="Trazado_1085083" data-name="Trazado 1085083" d="M2856.456,1178.23h-34.7v2.224h35.421a.746.746,0,0,0,.746-.746v-.011A1.468,1.468,0,0,0,2856.456,1178.23Z" transform="translate(-2821.757 -1178.23)" fill="#66192d"/>
            </g>
            <g id="Grupo_1212506" data-name="Grupo 1212506" transform="translate(26.215)">
              <path id="Trazado_1085084" data-name="Trazado 1085084" d="M2910.455,1117.256a44.406,44.406,0,0,0-2.062-6.162,3.435,3.435,0,0,0-1.782-1.715l.044-.159a3.52,3.52,0,0,1,1.882,1.793,43.364,43.364,0,0,1,2.077,6.2Z" transform="translate(-2906.611 -1109.221)" fill="#f0eeff"/>
            </g>
            <g id="Grupo_1212507" data-name="Grupo 1212507" transform="translate(30.641 9.721)">
              <path id="Trazado_1085085" data-name="Trazado 1085085" d="M2928.817,1157.444c-.94,0-1.174-.416-1.184-.433l-1.982-5.915.156-.052,1.976,5.9h0s.215.334,1.033.334Z" transform="translate(-2925.651 -1151.043)" fill="#f0eeff"/>
            </g>
          </g>
        </g>
        <g id="Grupo_1212573" data-name="Grupo 1212573" transform="translate(1746.419 582.124)">
          <g id="Grupo_1212510" data-name="Grupo 1212510">
            <path id="Trazado_1085086" data-name="Trazado 1085086" d="M1965.24,807.915V892.7a3.268,3.268,0,0,0,3.268,3.268H2127.37a3.268,3.268,0,0,0,3.268-3.268V807.915a3.268,3.268,0,0,0-3.268-3.268H1968.508A3.269,3.269,0,0,0,1965.24,807.915Z" transform="translate(-1965.24 -804.647)" fill="#c8c1e1"/>
          </g>
          <g id="Grupo_1212537" data-name="Grupo 1212537" transform="translate(0 10.653)">
            <g id="Grupo_1212511" data-name="Grupo 1212511" transform="translate(0 54.159)">
              <path id="Trazado_1085087" data-name="Trazado 1085087" d="M1965.24,1099.553v2.682a3,3,0,0,0,3,2.995h95.135a6.234,6.234,0,0,0,.62-.191c-6.771-6.578-19.8-16.9-37.614-20.382-1.308-.259-2.642-.481-4-.659q-1.8-.235-3.66-.371c-.066-.006-.133-.012-.2-.016a65.071,65.071,0,0,0-11.3.267q-1.133.119-2.259.266-1.666.22-3.256.473C1983.88,1087.457,1972.485,1093.452,1965.24,1099.553Z" transform="translate(-1965.24 -1083.477)" fill="#ff8548"/>
            </g>
            <g id="Grupo_1212512" data-name="Grupo 1212512" transform="translate(40.529 23.373)">
              <path id="Trazado_1085088" data-name="Trazado 1085088" d="M2140.3,986.678c-2.018-3.1.882-3.372,1.8-6.508l2.838-9.7.826-2.825,4.856-16.612.937,16.432.561,9.863.178,3.122c.12,2.119.7,2.411,2.305,4.228.649.736,3.074,3.715-.027,5.212C2151.793,991.227,2142.875,990.634,2140.3,986.678Z" transform="translate(-2139.602 -951.028)" fill="#fdad9b"/>
            </g>
            <g id="Grupo_1212513" data-name="Grupo 1212513" transform="translate(28.154 17.897)">
              <path id="Trazado_1085089" data-name="Trazado 1085089" d="M2100.375,948.65S2084.2,943,2086.61,930.967s14.75,10.891,14.75,10.891l.652,6.3Z" transform="translate(-2086.365 -927.473)" fill="#66192d"/>
            </g>
            <g id="Grupo_1212514" data-name="Grupo 1212514" transform="translate(45.749 39.408)">
              <path id="Trazado_1085090" data-name="Trazado 1085090" d="M2162.122,1023.148q.022.134.053.267c1.086,5.194,7.149,6.891,7.149,6.891l.031-.033-.561-9.863c-1.838-.4-4.423-.716-5.793.18A2.3,2.3,0,0,0,2162.122,1023.148Z" transform="translate(-2162.058 -1020.014)" fill="#66192d"/>
            </g>
            <g id="Grupo_1212515" data-name="Grupo 1212515" transform="translate(38.198 10.326)">
              <path id="Trazado_1085091" data-name="Trazado 1085091" d="M2158.48,910.436c-1.256-9.566-8.7-16.476-16.637-15.434s-13.346,9.64-12.09,19.206,8.7,16.476,16.637,15.434S2159.736,920,2158.48,910.436Z" transform="translate(-2129.572 -894.898)" fill="#fdad9b"/>
            </g>
            <g id="Grupo_1212516" data-name="Grupo 1212516" transform="translate(28.057)">
              <path id="Trazado_1085092" data-name="Trazado 1085092" d="M2098.108,877.814s4.775.965,6.8-2.593,3.221-6.6,11.5-6.291,15-4.55,14.647-8.961-4.884-5.86-9.044-3.751-.06-2.523-4.817-5.174-10.389,4.846-15,4.549-18.613,3.972-15.914,16.273Z" transform="translate(-2085.946 -850.476)" fill="#66192d"/>
            </g>
            <g id="Grupo_1212517" data-name="Grupo 1212517" transform="translate(36.863 25.571)">
              <path id="Trazado_1085093" data-name="Trazado 1085093" d="M2125.379,965.781a2.834,2.834,0,1,0-1.147-4.068A3,3,0,0,0,2125.379,965.781Z" transform="translate(-2123.831 -960.488)" fill="#fdad9b"/>
            </g>
            <g id="Grupo_1212518" data-name="Grupo 1212518" transform="translate(56.672 8.08)">
              <path id="Trazado_1085094" data-name="Trazado 1085094" d="M2214.774,889.028a15.555,15.555,0,0,1-2.159-.167,24.723,24.723,0,0,1-3.563-.789l.06-.188c.064.021,6.461,2.019,8.838.132,1.149-.912,1.249-1.692.958-2.118-.353-.516-1.349-.684-2.407-.07a6.029,6.029,0,0,1-3.58.987l.028-.2a5.958,5.958,0,0,0,3.452-.963c1.158-.672,2.267-.462,2.67.13.34.5.256,1.387-1,2.383A5.276,5.276,0,0,1,2214.774,889.028Z" transform="translate(-2209.052 -885.239)" fill="#fff"/>
            </g>
            <g id="Grupo_1212519" data-name="Grupo 1212519" transform="translate(35.984 3.463)">
              <path id="Trazado_1085095" data-name="Trazado 1085095" d="M2120.163,870.844l-.115-.161c1.751-1.238,3.859-1.117,6.3-.977a33.1,33.1,0,0,0,3.827.067c4.144-.227,7.414-4.152,7.5-4.4l.189.058c-.12.4-3.547,4.31-7.676,4.537a33.428,33.428,0,0,1-3.849-.067C2123.932,869.765,2121.857,869.646,2120.163,870.844Z" transform="translate(-2120.048 -865.376)" fill="#fff"/>
            </g>
            <g id="Grupo_1212520" data-name="Grupo 1212520" transform="translate(30.87 15.722)">
              <path id="Trazado_1085096" data-name="Trazado 1085096" d="M2098.491,921.537c-.163,0-.362-.109-.442-.6l0-.017,0-.017c.022-.121.578-2.941,1.736-2.787.143.019.38.122.364.6-.032.936-1.014,2.776-1.634,2.816Zm-.244-.611c.034.2.106.423.256.413.471-.03,1.42-1.748,1.449-2.625.013-.371-.142-.392-.193-.4C2098.953,918.209,2098.4,920.146,2098.247,920.926Z" transform="translate(-2098.046 -918.113)" fill="#fff"/>
            </g>
            <g id="Grupo_1212522" data-name="Grupo 1212522" transform="translate(51.919 26.447)">
              <g id="Grupo_1212521" data-name="Grupo 1212521">
                <path id="Trazado_1085097" data-name="Trazado 1085097" d="M2192.15,964.826a.294.294,0,0,0-.132-.541,3.179,3.179,0,0,0-3.385,1.927.3.3,0,0,0,.132.394.322.322,0,0,0,.394-.132,5.031,5.031,0,0,1,2.81-1.6A.3.3,0,0,0,2192.15,964.826Z" transform="translate(-2188.604 -964.255)" fill="#060633"/>
              </g>
            </g>
            <g id="Grupo_1212523" data-name="Grupo 1212523" transform="translate(54.131 29.294)">
              <path id="Trazado_1085098" data-name="Trazado 1085098" d="M2198.18,977.994c.184.676.732,1.116,1.222.982a1.138,1.138,0,0,0,.554-1.467c-.184-.676-.732-1.116-1.222-.982A1.14,1.14,0,0,0,2198.18,977.994Z" transform="translate(-2198.12 -976.504)" fill="#060633"/>
            </g>
            <g id="Grupo_1212525" data-name="Grupo 1212525" transform="translate(63.31 25.098)">
              <g id="Grupo_1212524" data-name="Grupo 1212524">
                <path id="Trazado_1085099" data-name="Trazado 1085099" d="M2240.63,959.5a.214.214,0,0,0,.158-.146.352.352,0,0,0-.114-.4,2.06,2.06,0,0,0-2.994.34.35.35,0,0,0-.006.411.217.217,0,0,0,.324.044,3.081,3.081,0,0,1,2.487-.285A.2.2,0,0,0,2240.63,959.5Z" transform="translate(-2237.611 -958.453)" fill="#060633"/>
              </g>
            </g>
            <g id="Grupo_1212526" data-name="Grupo 1212526" transform="translate(63.638 28.005)">
              <path id="Trazado_1085100" data-name="Trazado 1085100" d="M2239.035,972.109c-.087.7.252,1.31.756,1.373s.985-.449,1.072-1.145-.252-1.31-.756-1.373S2239.121,971.414,2239.035,972.109Z" transform="translate(-2239.021 -970.959)" fill="#060633"/>
            </g>
            <g id="Grupo_1212529" data-name="Grupo 1212529" transform="translate(51.814 37.516)">
              <g id="Grupo_1212527" data-name="Grupo 1212527" transform="translate(0.3 0.542)">
                <path id="Trazado_1085101" data-name="Trazado 1085101" d="M2193.23,1016.188a6.2,6.2,0,0,1-3.7-1.232.2.2,0,1,1,.24-.332c3.839,2.78,7.718-.243,7.881-.373a.205.205,0,0,1,.256.321A8.363,8.363,0,0,1,2193.23,1016.188Z" transform="translate(-2189.441 -1014.206)" fill="#020202"/>
              </g>
              <g id="Grupo_1212528" data-name="Grupo 1212528">
                <path id="Trazado_1085102" data-name="Trazado 1085102" d="M2188.361,1014.012a.2.2,0,0,1-.2-.184,2.746,2.746,0,0,1,.658-1.826c.011-.016.02-.027.024-.034a.206.206,0,0,1,.282-.061.2.2,0,0,1,.064.279l-.04.057a2.316,2.316,0,0,0-.582,1.543.2.2,0,0,1-.183.225A.107.107,0,0,1,2188.361,1014.012Z" transform="translate(-2188.15 -1011.875)" fill="#020202"/>
              </g>
            </g>
            <g id="Grupo_1212530" data-name="Grupo 1212530" transform="translate(61.201 18.467)">
              <path id="Trazado_1085103" data-name="Trazado 1085103" d="M2234.955,949.3a4.048,4.048,0,0,1-1.4-.256c-3.26-1.194-5.476-6.374-4.94-11.549.329-3.18,1.636-5.772,3.5-6.934a3.933,3.933,0,0,1,3.547-.386c3.26,1.194,5.476,6.374,4.94,11.549-.329,3.18-1.636,5.772-3.5,6.934A4.011,4.011,0,0,1,2234.955,949.3Zm-.69-18.769a3.426,3.426,0,0,0-1.83.547c-1.7,1.063-2.9,3.485-3.213,6.48h0c-.509,4.914,1.529,9.81,4.543,10.914a3.343,3.343,0,0,0,3.015-.331c1.7-1.063,2.9-3.486,3.213-6.48.509-4.914-1.529-9.81-4.543-10.914A3.432,3.432,0,0,0,2234.265,930.534Z" transform="translate(-2228.536 -929.922)" fill="#fff"/>
            </g>
            <g id="Grupo_1212531" data-name="Grupo 1212531" transform="translate(45.115 18.587)" opacity="0.3">
              <path id="Trazado_1085104" data-name="Trazado 1085104" d="M2159.333,937.966c-.091,4.946,2.684,9.657,6.2,10.523s6.438-2.442,6.529-7.388-2.684-9.657-6.2-10.523S2159.424,933.02,2159.333,937.966Z" transform="translate(-2159.331 -930.441)" fill="#fff"/>
            </g>
            <g id="Grupo_1212532" data-name="Grupo 1212532" transform="translate(61.235 19.103)" opacity="0.3">
              <path id="Trazado_1085105" data-name="Trazado 1085105" d="M2228.682,940.016c-.089,4.968,2.418,9.812,5.6,10.82s5.836-2.2,5.925-7.171-2.418-9.812-5.6-10.82S2228.771,935.048,2228.682,940.016Z" transform="translate(-2228.68 -932.66)" fill="#fff"/>
            </g>
            <g id="Grupo_1212533" data-name="Grupo 1212533" transform="translate(44.66 17.265)">
              <path id="Trazado_1085106" data-name="Trazado 1085106" d="M2165.407,944.343a5.371,5.371,0,0,1-1.24-.149c-3.866-.919-6.913-5.971-6.792-11.262h0c.07-3.077,1.172-5.661,3.022-7.089a5,5,0,0,1,4.338-.94c3.866.919,6.913,5.971,6.791,11.262-.07,3.077-1.172,5.661-3.022,7.09A5.017,5.017,0,0,1,2165.407,944.343Zm-7.422-11.4c-.115,5.019,2.722,9.8,6.323,10.655a4.409,4.409,0,0,0,3.825-.829c1.679-1.3,2.721-3.771,2.786-6.621.115-5.019-2.722-9.8-6.323-10.655a4.408,4.408,0,0,0-3.824.829c-1.679,1.3-2.721,3.771-2.786,6.621Z" transform="translate(-2157.372 -924.754)" fill="#fff"/>
            </g>
            <g id="Grupo_1212534" data-name="Grupo 1212534" transform="translate(56.925 26.539)">
              <path id="Trazado_1085107" data-name="Trazado 1085107" d="M2210.711,966.326a.569.569,0,0,1-.222-1.093,6.2,6.2,0,0,1,5.117-.087.569.569,0,0,1-.532,1.006,5.084,5.084,0,0,0-4.141.129A.565.565,0,0,1,2210.711,966.326Z" transform="translate(-2210.141 -964.651)" fill="#fff"/>
            </g>
            <g id="Grupo_1212535" data-name="Grupo 1212535" transform="translate(26.345 17.396)">
              <path id="Trazado_1085108" data-name="Trazado 1085108" d="M2080.561,929.454a3.746,3.746,0,0,1-1.9-4.139l.312.076a3.369,3.369,0,0,0,1.733,3.776Z" transform="translate(-2078.581 -925.315)" fill="#66192d"/>
            </g>
            <g id="Grupo_1212536" data-name="Grupo 1212536" transform="translate(26.366 22.409)">
              <path id="Trazado_1085109" data-name="Trazado 1085109" d="M2078.941,949.437l-.27-.174c.054-.083,1.336-2.048,2.826-2.379l.07.313C2080.208,947.5,2078.955,949.418,2078.941,949.437Z" transform="translate(-2078.671 -946.884)" fill="#66192d"/>
            </g>
          </g>
          <g id="Grupo_1212538" data-name="Grupo 1212538" transform="translate(91.763 18.286)" opacity="0.5">
            <path id="Trazado_1085110" data-name="Trazado 1085110" d="M2362.338,913.641h44.479a2.327,2.327,0,0,0,2.32-2.32V885.639a2.327,2.327,0,0,0-2.32-2.321h-44.479a2.327,2.327,0,0,0-2.321,2.321V911.32A2.328,2.328,0,0,0,2362.338,913.641Z" transform="translate(-2360.017 -883.318)" fill="#ffba41"/>
          </g>
          <g id="Grupo_1212539" data-name="Grupo 1212539" transform="translate(101.625 9.939)">
            <path id="Trazado_1085111" data-name="Trazado 1085111" d="M2404.767,877.729h44.479a2.328,2.328,0,0,0,2.321-2.321V849.728a2.327,2.327,0,0,0-2.321-2.321h-44.479a2.327,2.327,0,0,0-2.321,2.321v25.68A2.328,2.328,0,0,0,2404.767,877.729Z" transform="translate(-2402.446 -847.407)" fill="#ffba41"/>
          </g>
          <g id="Grupo_1212543" data-name="Grupo 1212543" transform="translate(92.34 36.809)">
            <g id="Grupo_1212540" data-name="Grupo 1212540">
              <path id="Trazado_1085112" data-name="Trazado 1085112" d="M2396.1,981.136c-1.515-1.662-9.225-1.49-15.173-.207a9.066,9.066,0,0,0-.033-1c-.632-7.369-2.1-17.511-5.8-16.9-2.528.42-1.77,24.9-1.77,24.9-.023.658-.028,1.36-.019,2.088-2.924-4.481-9.2-8.43-10.545-6.407-1.476,2.214,3.69,7.7,6.009,13.281s6.154,12.9,6.2,15.622h24.781C2399.608,1005.048,2397.984,983.2,2396.1,981.136Z" transform="translate(-2362.502 -963.005)" fill="#f18c7e"/>
            </g>
            <g id="Grupo_1212542" data-name="Grupo 1212542" transform="translate(16.292 11.107)">
              <g id="Grupo_1212541" data-name="Grupo 1212541">
                <path id="Trazado_1085113" data-name="Trazado 1085113" d="M2436.065,1010.849c-1.336.229-2.676-.181-3.3,7.292-.314,3.737-.572,15.5,2.956,14.91s4.732-13.927,4.732-13.927-.072,15.289,3.006,13.693,4.252-13.693,4.252-13.693-.921,14.892,2.6,12.957,4.6-9.867,4.307-13.271c-.37-4.254-3.482-4.5-6.793-4.719,0,0-3.275-2.03-5.444-1.654C2441.548,1012.581,2438.685,1010.4,2436.065,1010.849Z" transform="translate(-2432.593 -1010.788)" fill="#fdad9b"/>
              </g>
            </g>
          </g>
          <g id="Grupo_1212551" data-name="Grupo 1212551" transform="translate(0 83.199)">
            <g id="Grupo_1212544" data-name="Grupo 1212544">
              <path id="Trazado_1085114" data-name="Trazado 1085114" d="M1965.24,1162.58v4.858a3.268,3.268,0,0,0,3.268,3.268H2127.37a3.268,3.268,0,0,0,3.268-3.268V1164.2C2111.388,1163.9,2002.8,1162.919,1965.24,1162.58Z" transform="translate(-1965.24 -1162.58)" fill="#96a7e2"/>
            </g>
            <g id="Grupo_1212550" data-name="Grupo 1212550" transform="translate(12.035 2.333)">
              <g id="Grupo_1212546" data-name="Grupo 1212546" transform="translate(0 1.087)">
                <g id="Grupo_1212545" data-name="Grupo 1212545" transform="translate(0 0)">
                  <rect id="Rectángulo_418564" data-name="Rectángulo 418564" width="1.265" height="142.97" transform="translate(0 1.265) rotate(-89.679)" fill="#e7f2f0"/>
                </g>
              </g>
              <g id="Grupo_1212548" data-name="Grupo 1212548" transform="translate(71.161 1.496)">
                <g id="Grupo_1212547" data-name="Grupo 1212547">
                  <path id="Trazado_1085115" data-name="Trazado 1085115" d="M2323.16,1179.05l.172,1.264,71.634.4.007-1.267Z" transform="translate(-2323.16 -1179.05)" fill="#ff443c"/>
                </g>
              </g>
              <g id="Grupo_1212549" data-name="Grupo 1212549" transform="translate(69.357)">
                <path id="Trazado_1085116" data-name="Trazado 1085116" d="M2319.662,1174.746a2.13,2.13,0,1,0-2.13,2.13A2.13,2.13,0,0,0,2319.662,1174.746Z" transform="translate(-2315.401 -1172.616)" fill="#ff443c"/>
              </g>
            </g>
          </g>
          <g id="Grupo_1212555" data-name="Grupo 1212555" transform="translate(145.028 3.256)">
            <g id="Grupo_1212552" data-name="Grupo 1212552" transform="translate(11.538)">
              <path id="Trazado_1085117" data-name="Trazado 1085117" d="M2641.962,820.231a1.576,1.576,0,1,0-1.576,1.576A1.576,1.576,0,0,0,2641.962,820.231Z" transform="translate(-2638.811 -818.655)" fill="#ffba41"/>
            </g>
            <g id="Grupo_1212553" data-name="Grupo 1212553" transform="translate(5.839)">
              <path id="Trazado_1085118" data-name="Trazado 1085118" d="M2617.441,820.231a1.576,1.576,0,1,0-1.576,1.576A1.576,1.576,0,0,0,2617.441,820.231Z" transform="translate(-2614.29 -818.655)" fill="#553e93"/>
            </g>
            <g id="Grupo_1212554" data-name="Grupo 1212554">
              <path id="Trazado_1085119" data-name="Trazado 1085119" d="M2592.322,820.231a1.576,1.576,0,1,0-1.576,1.576A1.576,1.576,0,0,0,2592.322,820.231Z" transform="translate(-2589.17 -818.655)" fill="#f22525"/>
            </g>
          </g>
          <g id="Grupo_1212564" data-name="Grupo 1212564" transform="translate(104.97 13.29)">
            <g id="Grupo_1212556" data-name="Grupo 1212556" transform="translate(0.001 4.62)">
              <path id="Trazado_1085120" data-name="Trazado 1085120" d="M2439.69,883.9h-21.568a1.474,1.474,0,0,1-1.268-.965c-.13-.965.792-1.241,1.267-1.241l21.57.48a.866.866,0,0,1,.863.863h0A.866.866,0,0,1,2439.69,883.9Z" transform="translate(-2416.841 -881.697)" fill="#553e93"/>
            </g>
            <g id="Grupo_1212557" data-name="Grupo 1212557" transform="translate(0 1.001)">
              <path id="Trazado_1085121" data-name="Trazado 1085121" d="M2434.081,867.9H2417.8a1.124,1.124,0,0,1-.957-.775.889.889,0,0,1,.956-1l16.281.385a.675.675,0,0,1,.651.694h0A.673.673,0,0,1,2434.081,867.9Z" transform="translate(-2416.835 -866.128)" fill="#553e93"/>
            </g>
            <g id="Grupo_1212558" data-name="Grupo 1212558" transform="translate(0 9.136)">
              <path id="Trazado_1085122" data-name="Trazado 1085122" d="M2434.081,902.9H2417.8a1.124,1.124,0,0,1-.957-.775.889.889,0,0,1,.956-1l16.281.386a.675.675,0,0,1,.651.693h0A.673.673,0,0,1,2434.081,902.9Z" transform="translate(-2416.835 -901.126)" fill="#553e93"/>
            </g>
            <g id="Grupo_1212559" data-name="Grupo 1212559" transform="translate(19.07 16.871)">
              <path id="Trazado_1085123" data-name="Trazado 1085123" d="M2499.656,936.389h19.408a1.327,1.327,0,0,0,1.141-.868c.116-.868-.713-1.117-1.14-1.117l-19.409.432a.779.779,0,0,0-.777.777h0A.78.78,0,0,0,2499.656,936.389Z" transform="translate(-2498.879 -934.404)" fill="#553e93"/>
            </g>
            <g id="Grupo_1212560" data-name="Grupo 1212560" transform="translate(24.303 20.935)">
              <path id="Trazado_1085124" data-name="Trazado 1085124" d="M2521.975,953.482h14.649a1.012,1.012,0,0,0,.861-.7.8.8,0,0,0-.86-.9l-14.65.347a.608.608,0,0,0-.586.624h0A.607.607,0,0,0,2521.975,953.482Z" transform="translate(-2521.389 -951.887)" fill="#553e93"/>
            </g>
            <g id="Grupo_1212561" data-name="Grupo 1212561" transform="translate(26.852)">
              <path id="Trazado_1085125" data-name="Trazado 1085125" d="M2545.136,874.675l-11.2.611a1.494,1.494,0,0,1-1.572-1.589l.688-10.479a1.493,1.493,0,0,1,1.576-1.393l10.2.586a1.494,1.494,0,0,1,1.407,1.44l.314,9.282A1.493,1.493,0,0,1,2545.136,874.675Z" transform="translate(-2532.358 -861.822)" fill="#553e93"/>
            </g>
            <g id="Grupo_1212562" data-name="Grupo 1212562" transform="translate(10.131 16.871)">
              <path id="Trazado_1085126" data-name="Trazado 1085126" d="M2465.9,939.921l-4.808.262a.641.641,0,0,1-.674-.682l.295-4.5a.641.641,0,0,1,.676-.6l4.378.252a.64.64,0,0,1,.6.618l.135,3.984A.643.643,0,0,1,2465.9,939.921Z" transform="translate(-2460.418 -934.405)" fill="#553e93"/>
            </g>
            <g id="Grupo_1212563" data-name="Grupo 1212563" transform="translate(1.602 16.871)">
              <path id="Trazado_1085127" data-name="Trazado 1085127" d="M2429.211,939.921l-4.808.262a.641.641,0,0,1-.674-.682l.295-4.5a.641.641,0,0,1,.677-.6l4.378.252a.64.64,0,0,1,.6.618l.135,3.984A.64.64,0,0,1,2429.211,939.921Z" transform="translate(-2423.728 -934.405)" fill="#553e93"/>
            </g>
          </g>
          <g id="Grupo_1212572" data-name="Grupo 1212572" transform="translate(140.882 53.732)">
            <g id="Grupo_1212565" data-name="Grupo 1212565" opacity="0.5">
              <path id="Trazado_1085128" data-name="Trazado 1085128" d="M2574.213,1060.624H2588.1a2.879,2.879,0,0,0,2.879-2.879V1038.69a2.879,2.879,0,0,0-2.879-2.879h-13.889a2.879,2.879,0,0,0-2.879,2.879v19.055A2.877,2.877,0,0,0,2574.213,1060.624Z" transform="translate(-2571.334 -1035.811)" fill="#ffba41"/>
            </g>
            <g id="Grupo_1212566" data-name="Grupo 1212566" transform="translate(3.223 7.174)">
              <path id="Trazado_1085129" data-name="Trazado 1085129" d="M2585.684,1067.911h12.078a.825.825,0,0,0,.71-.541c.073-.54-.444-.7-.709-.7l-12.079.269a.485.485,0,0,0-.483.483h0A.484.484,0,0,0,2585.684,1067.911Z" transform="translate(-2585.201 -1066.675)" fill="#66192d"/>
            </g>
            <g id="Grupo_1212567" data-name="Grupo 1212567" transform="translate(6.48 5.148)">
              <path id="Trazado_1085130" data-name="Trazado 1085130" d="M2599.576,1058.953h9.116a.629.629,0,0,0,.536-.434.5.5,0,0,0-.535-.558l-9.117.216a.378.378,0,0,0-.365.389h0A.378.378,0,0,0,2599.576,1058.953Z" transform="translate(-2599.211 -1057.96)" fill="#66192d"/>
            </g>
            <g id="Grupo_1212568" data-name="Grupo 1212568" transform="translate(6.48 9.704)">
              <path id="Trazado_1085131" data-name="Trazado 1085131" d="M2599.576,1078.552h9.116a.629.629,0,0,0,.536-.434.5.5,0,0,0-.535-.558l-9.117.216a.378.378,0,0,0-.365.388h0A.38.38,0,0,0,2599.576,1078.552Z" transform="translate(-2599.211 -1077.56)" fill="#66192d"/>
            </g>
            <g id="Grupo_1212569" data-name="Grupo 1212569" transform="translate(3.223 16.286)">
              <path id="Trazado_1085132" data-name="Trazado 1085132" d="M2585.684,1107.11h12.078a.825.825,0,0,0,.71-.54c.073-.54-.444-.7-.709-.7l-12.079.269a.485.485,0,0,0-.483.483h0A.486.486,0,0,0,2585.684,1107.11Z" transform="translate(-2585.201 -1105.875)" fill="#66192d"/>
            </g>
            <g id="Grupo_1212570" data-name="Grupo 1212570" transform="translate(6.48 14.26)">
              <path id="Trazado_1085133" data-name="Trazado 1085133" d="M2599.576,1098.152h9.116a.629.629,0,0,0,.536-.434.5.5,0,0,0-.535-.558l-9.117.216a.378.378,0,0,0-.365.388h0A.38.38,0,0,0,2599.576,1098.152Z" transform="translate(-2599.211 -1097.159)" fill="#66192d"/>
            </g>
            <g id="Grupo_1212571" data-name="Grupo 1212571" transform="translate(6.48 18.814)">
              <path id="Trazado_1085134" data-name="Trazado 1085134" d="M2599.576,1117.743h9.116a.629.629,0,0,0,.536-.434.5.5,0,0,0-.535-.559l-9.117.216a.378.378,0,0,0-.365.388h0A.378.378,0,0,0,2599.576,1117.743Z" transform="translate(-2599.211 -1116.75)" fill="#66192d"/>
            </g>
          </g>
        </g>
        <g id="Grupo_1212580" data-name="Grupo 1212580" transform="translate(1680.152 524.034)">
          <g id="Grupo_1212574" data-name="Grupo 1212574" transform="translate(45.103 29.506)">
            <path id="Trazado_1085135" data-name="Trazado 1085135" d="M1874.674,711.446s-1.936,17.048,1.965,16.9,11.81-7.442,27.289-5.762,34.36,5.633,46.432-14.334-13.905-26.581-13.905-26.581l-61.781,29.772Z" transform="translate(-1874.194 -681.674)" fill="#553e93"/>
          </g>
          <g id="Grupo_1212575" data-name="Grupo 1212575" transform="translate(0 0)">
            <path id="Trazado_1085136" data-name="Trazado 1085136" d="M1686.442,618.759a6.374,6.374,0,0,1-4.9-1.8l-.7-.689a2.281,2.281,0,0,1,.3-3.5L1753.6,562.5a8.45,8.45,0,0,1,4.084-1.475l72.089-6.279a2.281,2.281,0,0,1,2.292,1.368h0a2.281,2.281,0,0,1-.718,2.724l-71.213,53.853a5.812,5.812,0,0,1-3.1,1.162Z" transform="translate(-1680.153 -554.736)" fill="#786ab5"/>
          </g>
          <g id="Grupo_1212578" data-name="Grupo 1212578" transform="translate(26.763 118.254)">
            <g id="Grupo_1212576" data-name="Grupo 1212576" transform="translate(0.759)">
              <path id="Trazado_1085137" data-name="Trazado 1085137" d="M1798.658,1065.6a2.7,2.7,0,0,1,3.355-2.005,2.924,2.924,0,0,1,1.908,3.559,2.7,2.7,0,0,1-3.354,2.005,2.926,2.926,0,0,1-1.909-3.559Z" transform="translate(-1798.56 -1063.483)" fill="#ff443c"/>
            </g>
            <g id="Grupo_1212577" data-name="Grupo 1212577" transform="translate(0 2.897)">
              <path id="Trazado_1085138" data-name="Trazado 1085138" d="M1798.5,1075.946c-2.826-.213-3.212,26.978-3.212,26.978s1.849.9,2.753.682,1.328-3.9,1.328-3.9l.126,3.849s3.1.092,4.163-.712c0,0-.688-26.561-5.158-26.9Z" transform="translate(-1795.293 -1075.945)" fill="#ff443c"/>
            </g>
          </g>
          <g id="Grupo_1212579" data-name="Grupo 1212579" transform="translate(28.452 26.871)">
            <path id="Trazado_1085139" data-name="Trazado 1085139" d="M1803.067,762.623l-.421-55.463a13.772,13.772,0,0,1,5.822-12.868l34.03-23.658a1.647,1.647,0,0,1,2.292.413h0a.823.823,0,0,1-.206,1.144l-36.122,25.11a9.188,9.188,0,0,0-3.883,8.6l.473,57.377Z" transform="translate(-1802.557 -670.338)" fill="#ff443c"/>
          </g>
        </g>
        <g id="Grupo_1212589" data-name="Grupo 1212589" transform="translate(1735.547 742.373)">
          <g id="Grupo_1212581" data-name="Grupo 1212581" transform="translate(180.734 11.123)">
            <path id="Trazado_1085140" data-name="Trazado 1085140" d="M2696.038,1541.92s2.419.439,2.325.966c-.151.848-2.35.9-2.35.9Z" transform="translate(-2696.013 -1541.92)" fill="#66192d"/>
          </g>
          <g id="Grupo_1212582" data-name="Grupo 1212582" transform="translate(17.36)">
            <path id="Trazado_1085141" data-name="Trazado 1085141" d="M1994.525,1504.124a1.371,1.371,0,0,1-1.332-1.692l1.347-5.572c.009-.037.019-.073.031-.108a3.924,3.924,0,0,1,3.924-2.681l48.166,2.53a1.369,1.369,0,1,1-.144,2.735l-48.166-2.531a1.177,1.177,0,0,0-1.165.764l-1.332,5.507A1.373,1.373,0,0,1,1994.525,1504.124Z" transform="translate(-1993.154 -1494.066)" fill="#66192d"/>
          </g>
          <g id="Grupo_1212583" data-name="Grupo 1212583" transform="translate(10.965 6.299)">
            <path id="Trazado_1085142" data-name="Trazado 1085142" d="M2121.474,1534.037l-153.229-3.078a2.664,2.664,0,0,1-2.6-2.7l.048-3.6a2.665,2.665,0,0,1,2.646-2.629l153.033-.867Z" transform="translate(-1965.643 -1521.166)" fill="#ff8548"/>
          </g>
          <g id="Grupo_1212584" data-name="Grupo 1212584" transform="translate(0 9.501)">
            <path id="Trazado_1085143" data-name="Trazado 1085143" d="M1929.487,1534.94l-9.574.5a1.514,1.514,0,0,0-1.435,1.492l-.009.668a1.514,1.514,0,0,0,1.493,1.534l9.467.126Z" transform="translate(-1918.47 -1534.94)" fill="#66192d"/>
          </g>
          <g id="Grupo_1212585" data-name="Grupo 1212585" transform="translate(34.747 6.947)">
            <path id="Trazado_1085144" data-name="Trazado 1085144" d="M2068.7,1524.018a16.387,16.387,0,0,0-.128,9.59l9.761.229s-2.458-5.3.131-9.887Z" transform="translate(-2067.954 -1523.951)" fill="#66192d"/>
          </g>
          <g id="Grupo_1212586" data-name="Grupo 1212586" transform="translate(162.863 6.281)">
            <path id="Trazado_1085145" data-name="Trazado 1085145" d="M2637.026,1525.943l-.023,1.709a1.212,1.212,0,0,1-.728,1.1l-11.26,4.907a3.881,3.881,0,0,1-4.665-1.207,6.733,6.733,0,0,1-1.182-4.791,10.14,10.14,0,0,1,1.706-5.409,3.084,3.084,0,0,1,3.382-1l12.258,3.985A.74.74,0,0,1,2637.026,1525.943Z" transform="translate(-2619.13 -1521.089)" fill="#ffba41"/>
          </g>
          <g id="Grupo_1212587" data-name="Grupo 1212587" transform="translate(13.707 13.647)">
            <path id="Trazado_1085146" data-name="Trazado 1085146" d="M1993.942,1553.413h0l-16.29-.217a.211.211,0,0,1,0-.421h0l16.29.217a.211.211,0,0,1,0,.421Z" transform="translate(-1977.441 -1552.775)" fill="#66192d"/>
          </g>
          <g id="Grupo_1212588" data-name="Grupo 1212588" transform="translate(48.112 14.105)">
            <path id="Trazado_1085147" data-name="Trazado 1085147" d="M2235.832,1556.634h0l-110.168-1.464a.211.211,0,0,1,0-.421h0l110.168,1.464a.211.211,0,0,1,0,.421Z" transform="translate(-2125.453 -1554.748)" fill="#66192d"/>
          </g>
        </g>
        <g id="Grupo_1212596" data-name="Grupo 1212596" transform="translate(1965.421 538.791)">
          <g id="Grupo_1212591" data-name="Grupo 1212591" transform="translate(15.502 20.498)">
            <g id="Grupo_1212590" data-name="Grupo 1212590">
              <path id="Trazado_1085148" data-name="Trazado 1085148" d="M2974.11,712a5.588,5.588,0,1,1,5.588,5.588A5.588,5.588,0,0,1,2974.11,712Z" transform="translate(-2974.11 -706.409)" fill="#ff443c"/>
            </g>
          </g>
          <g id="Grupo_1212593" data-name="Grupo 1212593" transform="translate(8.15 10.135)">
            <g id="Grupo_1212592" data-name="Grupo 1212592">
              <path id="Trazado_1085149" data-name="Trazado 1085149" d="M2945.224,672.865a2.745,2.745,0,0,1-2.3-4.237,14.886,14.886,0,0,1,24.532-.678,2.745,2.745,0,1,1-4.436,3.234,9.4,9.4,0,0,0-15.488.429A2.744,2.744,0,0,1,2945.224,672.865Z" transform="translate(-2942.482 -661.826)" fill="#ff443c"/>
            </g>
          </g>
          <g id="Grupo_1212595" data-name="Grupo 1212595">
            <g id="Grupo_1212594" data-name="Grupo 1212594">
              <path id="Trazado_1085150" data-name="Trazado 1085150" d="M2910.163,633.782a2.746,2.746,0,0,1-2.3-4.237,24.775,24.775,0,0,1,40.831-1.13,2.745,2.745,0,0,1-4.436,3.234,19.285,19.285,0,0,0-31.787.879A2.74,2.74,0,0,1,2910.163,633.782Z" transform="translate(-2907.42 -618.224)" fill="#ff443c"/>
            </g>
          </g>
        </g>
      </g>
    </g>
  </g>
</svg>
