<svg xmlns="http://www.w3.org/2000/svg" xmlns:xlink="http://www.w3.org/1999/xlink" width="103" height="103" viewBox="0 0 103 103">
  <defs>
    <filter id="Trazado_978624" x="0" y="0" width="103" height="103" filterUnits="userSpaceOnUse">
      <feOffset dy="3" input="SourceAlpha"/>
      <feGaussianBlur stdDeviation="3" result="blur"/>
      <feFlood flood-opacity="0.161"/>
      <feComposite operator="in" in2="blur"/>
      <feComposite in="SourceGraphic"/>
    </filter>
  </defs>
  <g id="Grupo_1212626" data-name="Grupo 1212626" transform="translate(-195.388 -5354)">
    <g id="Grupo_1211470" data-name="Grupo 1211470" transform="translate(204.388 5360)">
      <g id="Grupo_1209305" data-name="Grupo 1209305">
        <g id="Grupo_1178144" data-name="Grupo 1178144">
          <g id="Grupo_1177896" data-name="Grupo 1177896">
            <g id="Grupo_1176881" data-name="Grupo 1176881">
              <g id="Grupo_1175148" data-name="Grupo 1175148">
                <g id="Grupo_1173798" data-name="Grupo 1173798">
                  <g id="Grupo_1171925" data-name="Grupo 1171925">
                    <g id="Grupo_1164524" data-name="Grupo 1164524">
                      <g id="Grupo_1144123" data-name="Grupo 1144123">
                        <g transform="matrix(1, 0, 0, 1, -9, -6)" filter="url(#Trazado_978624)">
                          <g id="Trazado_978624-2" data-name="Trazado 978624" transform="translate(9 6)" fill="#f8ecfd">
                            <path d="M 42.5 83.5 C 36.96437835693359 83.5 31.59512901306152 82.41617584228516 26.54141235351562 80.27863311767578 C 21.65934181213379 78.21369171142578 17.27447128295898 75.25723266601562 13.50862312316895 71.49137878417969 C 9.742764472961426 67.72553253173828 6.786305904388428 63.34066009521484 4.721364498138428 58.45858764648438 C 2.583823442459106 53.40486907958984 1.5 48.03562164306641 1.5 42.5 C 1.5 36.96437835693359 2.583823442459106 31.59512901306152 4.721364498138428 26.54141235351562 C 6.786305904388428 21.65934181213379 9.742764472961426 17.27447128295898 13.50862312316895 13.50862312316895 C 17.27447128295898 9.742764472961426 21.65934181213379 6.786305904388428 26.54141235351562 4.721364498138428 C 31.59512901306152 2.583823442459106 36.96437835693359 1.5 42.5 1.5 C 48.03562164306641 1.5 53.40486907958984 2.583823442459106 58.45858764648438 4.721364498138428 C 63.34066009521484 6.786305904388428 67.72553253173828 9.742764472961426 71.49137878417969 13.50862312316895 C 75.25723266601562 17.27447128295898 78.21369171142578 21.65934181213379 80.27863311767578 26.54141235351562 C 82.41617584228516 31.59512901306152 83.5 36.96437835693359 83.5 42.5 C 83.5 48.03562164306641 82.41617584228516 53.40486907958984 80.27863311767578 58.45858764648438 C 78.21369171142578 63.34066009521484 75.25723266601562 67.72553253173828 71.49137878417969 71.49137878417969 C 67.72553253173828 75.25723266601562 63.34066009521484 78.21369171142578 58.45858764648438 80.27863311767578 C 53.40486907958984 82.41617584228516 48.03562164306641 83.5 42.5 83.5 Z" stroke="none"/>
                            <path d="M 42.5 3 C 37.16621398925781 3 31.99356079101562 4.043960571289062 27.125732421875 6.102882385253906 C 22.42246627807617 8.092185974121094 18.19785308837891 10.94070434570312 14.56928253173828 14.56928253173828 C 10.94070434570312 18.19785308837891 8.092185974121094 22.42246627807617 6.102882385253906 27.125732421875 C 4.043960571289062 31.99356079101562 3 37.16621398925781 3 42.5 C 3 47.83378601074219 4.043960571289062 53.00643920898438 6.102882385253906 57.87425231933594 C 8.092185974121094 62.57753372192383 10.94070434570312 66.80213165283203 14.56928253173828 70.43071746826172 C 18.19786834716797 74.05929565429688 22.42246627807617 76.90781402587891 27.125732421875 78.89711761474609 C 31.99356079101562 80.95603942871094 37.16621398925781 82 42.5 82 C 47.83378601074219 82 53.00642395019531 80.95603942871094 57.87425231933594 78.89711761474609 C 62.57753372192383 76.90781402587891 66.80213165283203 74.05929565429688 70.43071746826172 70.43071746826172 C 74.05929565429688 66.80213165283203 76.90781402587891 62.57753372192383 78.89711761474609 57.87425231933594 C 80.95603942871094 53.00642395019531 82 47.83378601074219 82 42.5 C 82 37.16621398925781 80.95603942871094 31.99356079101562 78.89711761474609 27.125732421875 C 76.90781402587891 22.42246627807617 74.05929565429688 18.19786834716797 70.43071746826172 14.56928253173828 C 66.80213165283203 10.94070434570312 62.57753372192383 8.092185974121094 57.87425231933594 6.102882385253906 C 53.00643920898438 4.043960571289062 47.83378601074219 3 42.5 3 M 42.5 0 C 65.97209167480469 0 85 19.02789306640625 85 42.5 C 85 65.97209167480469 65.97209167480469 85 42.5 85 C 19.02789306640625 85 0 65.97209167480469 0 42.5 C 0 19.02789306640625 19.02789306640625 0 42.5 0 Z" stroke="none" fill="#c252f0"/>
                          </g>
                        </g>
                      </g>
                    </g>
                  </g>
                </g>
              </g>
            </g>
          </g>
        </g>
      </g>
    </g>
    <g id="asistente-virtual_2_" data-name="asistente-virtual (2)" transform="translate(221 5368)">
      <g id="Grupo_1212617" data-name="Grupo 1212617" transform="translate(1.128 1.128)">
        <g id="Grupo_1212599" data-name="Grupo 1212599" transform="translate(0 63.06)">
          <path id="Trazado_1085151" data-name="Trazado 1085151" d="M7.5,426.81H48.351v11.684H7.5Z" transform="translate(-7.5 -426.81)" fill="#fff"/>
        </g>
        <g id="Grupo_1212600" data-name="Grupo 1212600" transform="translate(0 7.068)">
          <path id="Trazado_1085152" data-name="Trazado 1085152" d="M7.5,54.5H48.351v9.521H7.5Z" transform="translate(-7.5 -54.5)" fill="#fff"/>
        </g>
        <g id="Grupo_1212601" data-name="Grupo 1212601" transform="translate(0 16.59)">
          <path id="Trazado_1085153" data-name="Trazado 1085153" d="M7.5,117.81H48.351v46.471H7.5Z" transform="translate(-7.5 -117.81)" fill="#8ad8f6"/>
        </g>
        <g id="Grupo_1212602" data-name="Grupo 1212602" transform="translate(18.115)">
          <path id="Trazado_1085154" data-name="Trazado 1085154" d="M156.27,7.5a28.319,28.319,0,0,0-23.836,43.6l-2.181,13.546,13.307-3.528A28.316,28.316,0,1,0,156.27,7.5Z" transform="translate(-127.956 -7.5)" fill="#ff905b"/>
        </g>
        <g id="Grupo_1212603" data-name="Grupo 1212603" transform="translate(60.717 22.483)">
          <path id="Trazado_1085155" data-name="Trazado 1085155" d="M412.816,171.87h-1.588V157h1.588a7.435,7.435,0,0,1,0,14.87Z" transform="translate(-411.228 -157)" fill="#fde31d"/>
        </g>
        <g id="Grupo_1212604" data-name="Grupo 1212604" transform="translate(23.119 22.483)">
          <path id="Trazado_1085156" data-name="Trazado 1085156" d="M170.251,171.87h-1.588a7.435,7.435,0,1,1,0-14.87h1.588Z" transform="translate(-161.228 -157)" fill="#fde31d"/>
        </g>
        <g id="Grupo_1212605" data-name="Grupo 1212605" transform="translate(43.786 5.923)">
          <circle id="Elipse_12626" data-name="Elipse 12626" cx="3.008" cy="3.008" r="3.008" fill="#71e4bf"/>
        </g>
        <g id="Grupo_1212606" data-name="Grupo 1212606" transform="translate(0 63.06)">
          <path id="Trazado_1085157" data-name="Trazado 1085157" d="M7.5,426.81h3.76v11.684H7.5Z" transform="translate(-7.5 -426.81)" fill="#e3e9ee"/>
        </g>
        <g id="Grupo_1212607" data-name="Grupo 1212607" transform="translate(0 7.068)">
          <path id="Trazado_1085158" data-name="Trazado 1085158" d="M7.5,54.5h3.76v9.521H7.5Z" transform="translate(-7.5 -54.5)" fill="#e3e9ee"/>
        </g>
        <g id="Grupo_1212608" data-name="Grupo 1212608" transform="translate(0 16.59)">
          <path id="Trazado_1085159" data-name="Trazado 1085159" d="M7.5,117.81h3.76v46.471H7.5Z" transform="translate(-7.5 -117.81)" fill="#54c9f3"/>
        </g>
        <g id="Grupo_1212609" data-name="Grupo 1212609" transform="translate(23.119 22.483)">
          <path id="Trazado_1085160" data-name="Trazado 1085160" d="M164.988,164.435a7.438,7.438,0,0,1,5.264-7.112V157h-1.588a7.435,7.435,0,1,0,0,14.87h1.588v-.323A7.438,7.438,0,0,1,164.988,164.435Z" transform="translate(-161.228 -157)" fill="#e7c900"/>
        </g>
        <g id="Grupo_1212610" data-name="Grupo 1212610" transform="translate(60.717 22.483)">
          <path id="Trazado_1085161" data-name="Trazado 1085161" d="M414.988,157.323a7.432,7.432,0,0,0-2.171-.323h-1.588v14.87h1.588a7.432,7.432,0,0,0,2.171-.323Z" transform="translate(-411.228 -157)" fill="#e7c900"/>
        </g>
        <g id="Grupo_1212611" data-name="Grupo 1212611" transform="translate(18.115 0)">
          <path id="Trazado_1085162" data-name="Trazado 1085162" d="M134.18,63.608l2.014-12.5A28.318,28.318,0,0,1,158.149,7.565c-.622-.041-1.248-.064-1.88-.064a28.319,28.319,0,0,0-23.836,43.6l-2.181,13.545Z" transform="translate(-127.955 -7.501)" fill="#fe7732"/>
        </g>
        <g id="Grupo_1212612" data-name="Grupo 1212612" transform="translate(32.143 18.094)">
          <path id="Trazado_1085163" data-name="Trazado 1085163" d="M221.228,127.81H249.8v27.371H221.228Z" transform="translate(-221.228 -127.81)" fill="#fff"/>
        </g>
        <g id="Grupo_1212613" data-name="Grupo 1212613" transform="translate(32.143 18.094)">
          <path id="Trazado_1085164" data-name="Trazado 1085164" d="M221.228,127.81h3.76v27.371h-3.76Z" transform="translate(-221.228 -127.81)" fill="#e3e9ee"/>
        </g>
        <g id="Grupo_1212614" data-name="Grupo 1212614" transform="translate(42.866 36.47)">
          <path id="Trazado_1085165" data-name="Trazado 1085165" d="M292.529,250h7.128v4.512h-7.128Z" transform="translate(-292.529 -250)" fill="#fde31d"/>
        </g>
        <g id="Grupo_1212615" data-name="Grupo 1212615" transform="translate(36.655 22.605)">
          <path id="Trazado_1085166" data-name="Trazado 1085166" d="M0,0H9.362V19.551H0Z" transform="translate(19.551 0) rotate(90)" fill="#71e4bf"/>
        </g>
        <g id="Grupo_1212616" data-name="Grupo 1212616" transform="translate(36.655 22.605)">
          <path id="Trazado_1085167" data-name="Trazado 1085167" d="M0,0H9.362V3.76H0Z" transform="translate(3.76 0) rotate(90)" fill="#00dba8"/>
        </g>
      </g>
      <g id="Grupo_1212620" data-name="Grupo 1212620" transform="translate(42.67 27.286)">
        <g id="Grupo_1212618" data-name="Grupo 1212618">
          <path id="Trazado_1085168" data-name="Trazado 1085168" d="M283.728,181.435h2.256v2.256h-2.256Z" transform="translate(-283.728 -181.435)" fill="#fff"/>
        </g>
        <g id="Grupo_1212619" data-name="Grupo 1212619" transform="translate(7.52)">
          <path id="Trazado_1085169" data-name="Trazado 1085169" d="M333.728,181.435h2.256v2.256h-2.256Z" transform="translate(-333.728 -181.435)" fill="#fff"/>
        </g>
      </g>
      <g id="Grupo_1212625" data-name="Grupo 1212625" transform="translate(0 0)">
        <g id="Grupo_1212621" data-name="Grupo 1212621">
          <path id="Trazado_1085170" data-name="Trazado 1085170" d="M47.558,0A29.313,29.313,0,0,0,28.442,7.068H8.568V9.324H26.082a29.668,29.668,0,0,0-2.1,2.506h-10.4v2.256h8.87q-.746,1.215-1.375,2.5H2.256V9.324H6.312V7.068H0V77H43.106V71.159H40.851v3.585H2.256V65.316H40.851V68.9h2.256V58.551a29.807,29.807,0,0,0,4.451.334A29.442,29.442,0,0,0,47.558,0ZM40.851,63.06H2.256V18.845H20.089a29.452,29.452,0,0,0,2.451,26.128l-2.39,14.839,14.576-3.864A29.148,29.148,0,0,0,40.85,58.12v4.94Zm6.707-6.432a26.9,26.9,0,0,1-12.2-2.888l-.382-.192L22.93,56.741,24.9,44.484l-.233-.363A27.189,27.189,0,1,1,47.558,56.629Z" transform="translate(0 0)"/>
        </g>
        <g id="Grupo_1212622" data-name="Grupo 1212622" transform="translate(16.139 68.902)">
          <path id="Trazado_1085171" data-name="Trazado 1085171" d="M107.315,458.155h10.828v2.256H107.315Z" transform="translate(-107.315 -458.155)"/>
        </g>
        <g id="Grupo_1212623" data-name="Grupo 1212623" transform="translate(23.119 5.923)">
          <path id="Trazado_1085172" data-name="Trazado 1085172" d="M194.042,55.943h-.46v-4.39H179.658V47.5a4.136,4.136,0,1,0-2.256,0v4.057H162.751v4.39h-.46a8.563,8.563,0,1,0,0,17.126h.46V81.18h30.83V73.069h.46a8.563,8.563,0,0,0,0-17.126ZM176.65,43.518a1.88,1.88,0,1,1,1.88,1.88A1.882,1.882,0,0,1,176.65,43.518Zm-14.359,27.3a6.307,6.307,0,1,1,0-12.614h.46V70.813Zm2.716,8.111V53.809h26.318V72.185h-8.467V69.929h-9.384V76.7h9.384V74.441h8.467v4.483Zm15.6-6.739v2.256H175.73V72.185Zm13.439-1.372h-.46V58.2h.46a6.307,6.307,0,1,1,0,12.614Z" transform="translate(-153.728 -39.382)"/>
        </g>
        <g id="Grupo_1212624" data-name="Grupo 1212624" transform="translate(36.654 22.605)">
          <path id="Trazado_1085173" data-name="Trazado 1085173" d="M265.535,150.31H243.728v11.618h21.807Zm-2.256,9.362H245.984v-7.106h17.295Z" transform="translate(-243.728 -150.31)"/>
        </g>
      </g>
    </g>
  </g>
</svg>
