<svg xmlns="http://www.w3.org/2000/svg" xmlns:xlink="http://www.w3.org/1999/xlink" width="103" height="103" viewBox="0 0 103 103">
  <defs>
    <filter id="Trazado_978624" x="0" y="0" width="103" height="103" filterUnits="userSpaceOnUse">
      <feOffset dy="3" input="SourceAlpha"/>
      <feGaussianBlur stdDeviation="3" result="blur"/>
      <feFlood flood-opacity="0.161"/>
      <feComposite operator="in" in2="blur"/>
      <feComposite in="SourceGraphic"/>
    </filter>
  </defs>
  <g id="Grupo_1212631" data-name="Grupo 1212631" transform="translate(-611 -290)">
    <g id="Grupo_1211505" data-name="Grupo 1211505" transform="translate(0 -2785)">
      <g id="Grupo_1209502" data-name="Grupo 1209502" transform="translate(419 2761)">
        <g id="Grupo_1180764" data-name="Grupo 1180764" transform="translate(1 -4144)">
          <g id="Grupo_1179463" data-name="Grupo 1179463" transform="translate(200 4464)">
            <g id="Grupo_1144531" data-name="Grupo 1144531">
              <g transform="matrix(1, 0, 0, 1, -9, -6)" filter="url(#Trazado_978624)">
                <g id="Trazado_978624-2" data-name="Trazado 978624" transform="translate(9 6)" fill="#fef8e9">
                  <path d="M 42.5 83.5 C 36.96437835693359 83.5 31.59512901306152 82.41617584228516 26.54141235351562 80.27863311767578 C 21.65934181213379 78.21369171142578 17.27447128295898 75.25723266601562 13.50862312316895 71.49137878417969 C 9.742764472961426 67.72553253173828 6.786305904388428 63.34066009521484 4.721364498138428 58.45858764648438 C 2.583823442459106 53.40486907958984 1.5 48.03562164306641 1.5 42.5 C 1.5 36.96437835693359 2.583823442459106 31.59512901306152 4.721364498138428 26.54141235351562 C 6.786305904388428 21.65934181213379 9.742764472961426 17.27447128295898 13.50862312316895 13.50862312316895 C 17.27447128295898 9.742764472961426 21.65934181213379 6.786305904388428 26.54141235351562 4.721364498138428 C 31.59512901306152 2.583823442459106 36.96437835693359 1.5 42.5 1.5 C 48.03562164306641 1.5 53.40486907958984 2.583823442459106 58.45858764648438 4.721364498138428 C 63.34066009521484 6.786305904388428 67.72553253173828 9.742764472961426 71.49137878417969 13.50862312316895 C 75.25723266601562 17.27447128295898 78.21369171142578 21.65934181213379 80.27863311767578 26.54141235351562 C 82.41617584228516 31.59512901306152 83.5 36.96437835693359 83.5 42.5 C 83.5 48.03562164306641 82.41617584228516 53.40486907958984 80.27863311767578 58.45858764648438 C 78.21369171142578 63.34066009521484 75.25723266601562 67.72553253173828 71.49137878417969 71.49137878417969 C 67.72553253173828 75.25723266601562 63.34066009521484 78.21369171142578 58.45858764648438 80.27863311767578 C 53.40486907958984 82.41617584228516 48.03562164306641 83.5 42.5 83.5 Z" stroke="none"/>
                  <path d="M 42.5 3 C 37.16621398925781 3 31.99356079101562 4.043960571289062 27.125732421875 6.102882385253906 C 22.42246627807617 8.092185974121094 18.19785308837891 10.94070434570312 14.56928253173828 14.56928253173828 C 10.94070434570312 18.19785308837891 8.092185974121094 22.42246627807617 6.102882385253906 27.125732421875 C 4.043960571289062 31.99356079101562 3 37.16621398925781 3 42.5 C 3 47.83378601074219 4.043960571289062 53.00643920898438 6.102882385253906 57.87425231933594 C 8.092185974121094 62.57753372192383 10.94070434570312 66.80213165283203 14.56928253173828 70.43071746826172 C 18.19786834716797 74.05929565429688 22.42246627807617 76.90781402587891 27.125732421875 78.89711761474609 C 31.99356079101562 80.95603942871094 37.16621398925781 82 42.5 82 C 47.83378601074219 82 53.00642395019531 80.95603942871094 57.87425231933594 78.89711761474609 C 62.57753372192383 76.90781402587891 66.80213165283203 74.05929565429688 70.43071746826172 70.43071746826172 C 74.05929565429688 66.80213165283203 76.90781402587891 62.57753372192383 78.89711761474609 57.87425231933594 C 80.95603942871094 53.00642395019531 82 47.83378601074219 82 42.5 C 82 37.16621398925781 80.95603942871094 31.99356079101562 78.89711761474609 27.125732421875 C 76.90781402587891 22.42246627807617 74.05929565429688 18.19786834716797 70.43071746826172 14.56928253173828 C 66.80213165283203 10.94070434570312 62.57753372192383 8.092185974121094 57.87425231933594 6.102882385253906 C 53.00643920898438 4.043960571289062 47.83378601074219 3 42.5 3 M 42.5 0 C 65.97209167480469 0 85 19.02789306640625 85 42.5 C 85 65.97209167480469 65.97209167480469 85 42.5 85 C 19.02789306640625 85 0 65.97209167480469 0 42.5 C 0 19.02789306640625 19.02789306640625 0 42.5 0 Z" stroke="none" fill="#f8c234"/>
                </g>
              </g>
            </g>
          </g>
        </g>
      </g>
    </g>
    <g id="aprendizaje-electronico_1_" data-name="aprendizaje-electronico (1)" transform="translate(625.34 301.339)">
      <g id="Grupo_1212629" data-name="Grupo 1212629" transform="translate(8.941 8.941)">
        <g id="Grupo_1212628" data-name="Grupo 1212628" transform="translate(0 0)">
          <path id="Trazado_1085174" data-name="Trazado 1085174" d="M72.44,106.822v29.161H16V106.822A2.823,2.823,0,0,1,18.822,104h50.8A2.823,2.823,0,0,1,72.44,106.822Z" transform="translate(-16 -93.653)" fill="#83d8f4"/>
          <path id="Trazado_1085175" data-name="Trazado 1085175" d="M72.44,376v2.822a2.823,2.823,0,0,1-2.822,2.822h-50.8A2.823,2.823,0,0,1,16,378.822V376Z" transform="translate(-16 -333.67)" fill="#e0e0e2"/>
          <path id="Trazado_1085176" data-name="Trazado 1085176" d="M213.169,429.644H200L201.881,424h9.407Z" transform="translate(-178.365 -376.026)" fill="#57565c"/>
          <path id="Trazado_1085177" data-name="Trazado 1085177" d="M168,472h20.695v2.822H168Z" transform="translate(-150.127 -418.382)" fill="#e0e0e2"/>
          <path id="Trazado_1085178" data-name="Trazado 1085178" d="M194.813,80V91.288a24.457,24.457,0,0,1-18.813,0V80" transform="translate(-157.187 -72.475)" fill="#2d2d30"/>
          <ellipse id="Elipse_12627" data-name="Elipse 12627" cx="2.181" cy="1.817" rx="2.181" ry="1.817" transform="translate(38.313 20.867)" fill="#ffda44"/>
          <path id="Trazado_1085179" data-name="Trazado 1085179" d="M150.11,27.288,136,21.644,150.11,16l14.11,5.644Z" transform="translate(-121.89 -16)" fill="#3e3d42"/>
        </g>
        <path id="Trazado_1085180" data-name="Trazado 1085180" d="M80,248H98.813v11.288H80Z" transform="translate(-72.475 -220.721)" fill="#ffda44"/>
      </g>
      <g id="Grupo_1212630" data-name="Grupo 1212630" transform="translate(8 8)">
        <path id="Trazado_1085181" data-name="Trazado 1085181" d="M62.558,18.347H50.33V15.974l1.29-.516a.941.941,0,0,0,0-1.747L37.51,8.067a.943.943,0,0,0-.7,0L22.7,13.711a.941.941,0,0,0,0,1.747L26.813,17.1v1.244H11.763A3.766,3.766,0,0,0,8,22.11V54.092a3.766,3.766,0,0,0,3.763,3.763H31.152L29.9,61.618H26.813a.941.941,0,0,0-.941.941V65.38a.941.941,0,0,0,.941.941H47.508a.941.941,0,0,0,.941-.941V62.558a.941.941,0,0,0-.941-.941H44.424l-1.255-3.763H62.558a3.766,3.766,0,0,0,3.763-3.763V22.11A3.766,3.766,0,0,0,62.558,18.347ZM50.33,31.517a.941.941,0,1,1-.941-.941A.941.941,0,0,1,50.33,31.517ZM25.583,14.585l11.577-4.63,11.577,4.63-11.577,4.63Zm22.865,2.142v1.62h-.941V17.1Zm-2.822,1.129V27.11a23.553,23.553,0,0,1-16.932,0V17.856L36.811,21.1a.943.943,0,0,0,.7,0ZM46.567,63.5v.941H27.754V63.5ZM31.881,61.618l1.255-3.763h8.05l1.255,3.763ZM64.44,54.092a1.884,1.884,0,0,1-1.881,1.881h-50.8a1.884,1.884,0,0,1-1.881-1.881V52.211H64.44Zm0-3.763H9.881V22.11a1.884,1.884,0,0,1,1.881-1.881H26.813v7.525a.941.941,0,0,0,.591.874,25.484,25.484,0,0,0,19.512,0,.941.941,0,0,0,.591-.874V20.229h.941v8.466a.994.994,0,0,0,.014.158,2.822,2.822,0,1,0,1.853,0,.993.993,0,0,0,.014-.158V20.229H62.558A1.884,1.884,0,0,1,64.44,22.11Z" transform="translate(-8 -8)"/>
        <path id="Trazado_1085182" data-name="Trazado 1085182" d="M46.585,392H40.941a.941.941,0,1,0,0,1.881h5.644a.941.941,0,1,0,0-1.881Z" transform="translate(-36.237 -346.848)"/>
        <path id="Trazado_1085183" data-name="Trazado 1085183" d="M113.881,392h-.941a.941.941,0,1,0,0,1.881h.941a.941.941,0,1,0,0-1.881Z" transform="translate(-99.771 -346.848)"/>
        <path id="Trazado_1085184" data-name="Trazado 1085184" d="M72.941,253.169H91.754a.941.941,0,0,0,.941-.941V240.941a.941.941,0,0,0-.941-.941H72.941a.941.941,0,0,0-.941.941v11.288A.941.941,0,0,0,72.941,253.169Zm.941-11.288H90.813v9.407H73.881Z" transform="translate(-64.475 -212.721)"/>
        <path id="Trazado_1085185" data-name="Trazado 1085185" d="M72.941,217.881h7.525a.941.941,0,0,0,0-1.881H72.941a.941.941,0,1,0,0,1.881Z" transform="translate(-64.475 -191.543)"/>
        <path id="Trazado_1085186" data-name="Trazado 1085186" d="M72.941,193.881h2.822a.941.941,0,0,0,0-1.881H72.941a.941.941,0,1,0,0,1.881Z" transform="translate(-64.475 -170.365)"/>
        <path id="Trazado_1085187" data-name="Trazado 1085187" d="M264.941,241.881h18.813a.941.941,0,0,0,0-1.881H264.941a.941.941,0,0,0,0,1.881Z" transform="translate(-233.899 -212.721)"/>
        <path id="Trazado_1085188" data-name="Trazado 1085188" d="M264.941,265.881h18.813a.941.941,0,0,0,0-1.881H264.941a.941.941,0,0,0,0,1.881Z" transform="translate(-233.899 -233.899)"/>
        <path id="Trazado_1085189" data-name="Trazado 1085189" d="M264.941,289.881h14.933a.941.941,0,1,0,0-1.881H264.941a.941.941,0,0,0,0,1.881Z" transform="translate(-233.899 -255.077)"/>
        <path id="Trazado_1085190" data-name="Trazado 1085190" d="M417.881,288h-.941a.941.941,0,0,0,0,1.881h.941a.941.941,0,0,0,0-1.881Z" transform="translate(-368.026 -255.077)"/>
        <path id="Trazado_1085191" data-name="Trazado 1085191" d="M264.941,313.881h18.813a.941.941,0,0,0,0-1.881H264.941a.941.941,0,0,0,0,1.881Z" transform="translate(-233.899 -276.255)"/>
        <path id="Trazado_1085192" data-name="Trazado 1085192" d="M264.941,337.881h14.933a.941.941,0,1,0,0-1.881H264.941a.941.941,0,0,0,0,1.881Z" transform="translate(-233.899 -297.433)"/>
        <path id="Trazado_1085193" data-name="Trazado 1085193" d="M417.881,336h-.941a.941.941,0,0,0,0,1.881h.941a.941.941,0,0,0,0-1.881Z" transform="translate(-368.026 -297.433)"/>
      </g>
    </g>
  </g>
</svg>
