<svg xmlns="http://www.w3.org/2000/svg" xmlns:xlink="http://www.w3.org/1999/xlink" width="103" height="103" viewBox="0 0 103 103">
  <defs>
    <filter id="Trazado_978624" x="0" y="0" width="103" height="103" filterUnits="userSpaceOnUse">
      <feOffset dy="3" input="SourceAlpha"/>
      <feGaussianBlur stdDeviation="3" result="blur"/>
      <feFlood flood-opacity="0.161"/>
      <feComposite operator="in" in2="blur"/>
      <feComposite in="SourceGraphic"/>
    </filter>
  </defs>
  <g id="Grupo_1212253" data-name="Grupo 1212253" transform="translate(-192 -816)">
    <g id="Grupo_1211089" data-name="Grupo 1211089" transform="translate(0 21)">
      <g id="Grupo_1208646" data-name="Grupo 1208646" transform="translate(0 481)">
        <g id="Grupo_1180764" data-name="Grupo 1180764" transform="translate(1 -4144)">
          <g id="Grupo_1179463" data-name="Grupo 1179463" transform="translate(200 4464)">
            <g id="Grupo_1144531" data-name="Grupo 1144531">
              <g transform="matrix(1, 0, 0, 1, -9, -6)" filter="url(#Trazado_978624)">
                <g id="Trazado_978624-2" data-name="Trazado 978624" transform="translate(9 6)" fill="#f8ecfd">
                  <path d="M 42.5 83.5 C 36.96437835693359 83.5 31.59512901306152 82.41617584228516 26.54141235351562 80.27863311767578 C 21.65934181213379 78.21369171142578 17.27447128295898 75.25723266601562 13.50862312316895 71.49137878417969 C 9.742764472961426 67.72553253173828 6.786305904388428 63.34066009521484 4.721364498138428 58.45858764648438 C 2.583823442459106 53.40486907958984 1.5 48.03562164306641 1.5 42.5 C 1.5 36.96437835693359 2.583823442459106 31.59512901306152 4.721364498138428 26.54141235351562 C 6.786305904388428 21.65934181213379 9.742764472961426 17.27447128295898 13.50862312316895 13.50862312316895 C 17.27447128295898 9.742764472961426 21.65934181213379 6.786305904388428 26.54141235351562 4.721364498138428 C 31.59512901306152 2.583823442459106 36.96437835693359 1.5 42.5 1.5 C 48.03562164306641 1.5 53.40486907958984 2.583823442459106 58.45858764648438 4.721364498138428 C 63.34066009521484 6.786305904388428 67.72553253173828 9.742764472961426 71.49137878417969 13.50862312316895 C 75.25723266601562 17.27447128295898 78.21369171142578 21.65934181213379 80.27863311767578 26.54141235351562 C 82.41617584228516 31.59512901306152 83.5 36.96437835693359 83.5 42.5 C 83.5 48.03562164306641 82.41617584228516 53.40486907958984 80.27863311767578 58.45858764648438 C 78.21369171142578 63.34066009521484 75.25723266601562 67.72553253173828 71.49137878417969 71.49137878417969 C 67.72553253173828 75.25723266601562 63.34066009521484 78.21369171142578 58.45858764648438 80.27863311767578 C 53.40486907958984 82.41617584228516 48.03562164306641 83.5 42.5 83.5 Z" stroke="none"/>
                  <path d="M 42.5 3 C 37.16621398925781 3 31.99356079101562 4.043960571289062 27.125732421875 6.102882385253906 C 22.42246627807617 8.092185974121094 18.19785308837891 10.94070434570312 14.56928253173828 14.56928253173828 C 10.94070434570312 18.19785308837891 8.092185974121094 22.42246627807617 6.102882385253906 27.125732421875 C 4.043960571289062 31.99356079101562 3 37.16621398925781 3 42.5 C 3 47.83378601074219 4.043960571289062 53.00643920898438 6.102882385253906 57.87425231933594 C 8.092185974121094 62.57753372192383 10.94070434570312 66.80213165283203 14.56928253173828 70.43071746826172 C 18.19786834716797 74.05929565429688 22.42246627807617 76.90781402587891 27.125732421875 78.89711761474609 C 31.99356079101562 80.95603942871094 37.16621398925781 82 42.5 82 C 47.83378601074219 82 53.00642395019531 80.95603942871094 57.87425231933594 78.89711761474609 C 62.57753372192383 76.90781402587891 66.80213165283203 74.05929565429688 70.43071746826172 70.43071746826172 C 74.05929565429688 66.80213165283203 76.90781402587891 62.57753372192383 78.89711761474609 57.87425231933594 C 80.95603942871094 53.00642395019531 82 47.83378601074219 82 42.5 C 82 37.16621398925781 80.95603942871094 31.99356079101562 78.89711761474609 27.125732421875 C 76.90781402587891 22.42246627807617 74.05929565429688 18.19786834716797 70.43071746826172 14.56928253173828 C 66.80213165283203 10.94070434570312 62.57753372192383 8.092185974121094 57.87425231933594 6.102882385253906 C 53.00643920898438 4.043960571289062 47.83378601074219 3 42.5 3 M 42.5 0 C 65.97209167480469 0 85 19.02789306640625 85 42.5 C 85 65.97209167480469 65.97209167480469 85 42.5 85 C 19.02789306640625 85 0 65.97209167480469 0 42.5 C 0 19.02789306640625 19.02789306640625 0 42.5 0 Z" stroke="none" fill="#c252f0"/>
                </g>
              </g>
            </g>
          </g>
        </g>
      </g>
    </g>
    <g id="maestro" transform="translate(194.826 834.374)">
      <g id="Grupo_1212251" data-name="Grupo 1212251" transform="translate(21.774 1.063)">
        <g id="Grupo_1212248" data-name="Grupo 1212248" transform="translate(0)">
          <path id="Trazado_1084578" data-name="Trazado 1084578" d="M102.353,36.63a4.592,4.592,0,0,0-2.869-7.064,22.39,22.39,0,0,0-44.775,0,4.592,4.592,0,0,0-2.869,7.064,9.075,9.075,0,0,0,4.456,15.515,6.3,6.3,0,0,0,5.673,9.048H92.225A6.3,6.3,0,0,0,97.9,52.145a9.075,9.075,0,0,0,4.455-15.515Z" transform="translate(-48.98 -7.496)" fill="#596c76"/>
          <path id="Trazado_1084579" data-name="Trazado 1084579" d="M79.018,61.2H61.966a6.3,6.3,0,0,1-5.673-9.047,9.075,9.075,0,0,1-4.456-15.516,4.522,4.522,0,0,1-.579-1.2,4.6,4.6,0,0,1,3.448-5.863A22.412,22.412,0,0,1,82.862,8.25,22.408,22.408,0,0,0,66.241,29.57s.661,4.655.08,5.16Z" transform="translate(-48.978 -7.5)" fill="#465a61"/>
          <path id="Trazado_1084580" data-name="Trazado 1084580" d="M178.435,378.1v6.7a.942.942,0,0,1-.943.943H152.147a.944.944,0,0,1-.943-.943v-6.7a11.931,11.931,0,0,1,2.806-7.7,12.053,12.053,0,0,1,3.275-2.724,11.909,11.909,0,0,1,5.9-1.553h3.27A11.981,11.981,0,0,1,178.435,378.1Z" transform="translate(-136.703 -315.249)" fill="#97da7b"/>
          <path id="Trazado_1084581" data-name="Trazado 1084581" d="M168.549,366.306a11.984,11.984,0,0,0-9.89,11.8v7.647h-6.507a.944.944,0,0,1-.944-.944v-6.7a11.98,11.98,0,0,1,11.98-11.98h3.27A12.075,12.075,0,0,1,168.549,366.306Z" transform="translate(-136.707 -315.253)" fill="#80d261"/>
          <path id="Trazado_1084582" data-name="Trazado 1084582" d="M209.141,333.552a7.536,7.536,0,0,1-15.072,0,11.853,11.853,0,0,1,4.028-1.407V326.36h7.074v5.8A11.85,11.85,0,0,1,209.141,333.552Z" transform="translate(-173.488 -281.129)" fill="#ffdfcf"/>
          <path id="Trazado_1084583" data-name="Trazado 1084583" d="M200.807,330.91v6.984a12.041,12.041,0,0,0-4.308,5.058,7.508,7.508,0,0,1-2.43-5.493,11.851,11.851,0,0,1,4.028-1.407V330.91Z" transform="translate(-173.488 -285.034)" fill="#ffcebf"/>
          <path id="Trazado_1084584" data-name="Trazado 1084584" d="M128.848,176.637a5.127,5.127,0,0,1,7.286,5.975c-.787,2.719-4.1,5.92-6.821,5.133a3.042,3.042,0,0,1-.587-.24H100.039a3.034,3.034,0,0,1-.587.24c-2.72.787-6.034-2.414-6.82-5.133a5.125,5.125,0,0,1,7.284-5.975Z" transform="translate(-86.266 -152.149)" fill="#ffcebf"/>
          <path id="Trazado_1084585" data-name="Trazado 1084585" d="M174.145,132.332V143.4a14.465,14.465,0,1,1-28.93,0V132.867a1.207,1.207,0,0,1,1.525-1.167,21.813,21.813,0,0,0,5.608.753,19.925,19.925,0,0,0,13.723-5.342.905.905,0,0,1,1.382.2,7.905,7.905,0,0,0,5.626,3.825A1.216,1.216,0,0,1,174.145,132.332Z" transform="translate(-131.564 -109.941)" fill="#ffdfcf"/>
          <path id="Trazado_1084586" data-name="Trazado 1084586" d="M163.247,186.353a14.479,14.479,0,0,1-18.032-14.022V161.8a1.207,1.207,0,0,1,1.525-1.167,21.812,21.812,0,0,0,5.608.753V172.33A14.47,14.47,0,0,0,163.247,186.353Z" transform="translate(-131.564 -138.871)" fill="#ffcebf"/>
        </g>
        <g id="Grupo_1212249" data-name="Grupo 1212249" transform="translate(37.978 51.518)">
          <path id="Trazado_1084587" data-name="Trazado 1084587" d="M337.846,370.746l-9.043,2.113-9.043-2.113a2.485,2.485,0,0,0-3.05,2.419v14.011a2.485,2.485,0,0,0,2.484,2.485h19.217a2.485,2.485,0,0,0,2.484-2.485V373.165A2.484,2.484,0,0,0,337.846,370.746Z" transform="translate(-316.71 -370.68)" fill="#fd8087"/>
          <path id="Trazado_1084588" data-name="Trazado 1084588" d="M322.879,389.668H319.2a2.485,2.485,0,0,1-2.485-2.485v-14.01a2.484,2.484,0,0,1,3.05-2.419l1.684.393a2.468,2.468,0,0,0-1.048,2.026v14.01A2.484,2.484,0,0,0,322.879,389.668Z" transform="translate(-316.71 -370.686)" fill="#fe646f"/>
          <path id="Trazado_1084589" data-name="Trazado 1084589" d="M367.747,454.7h-2.17a3.551,3.551,0,0,0-3.551,3.551v3.511H371.3v-3.511A3.551,3.551,0,0,0,367.747,454.7Z" transform="translate(-355.598 -442.783)" fill="#ffdfcf"/>
          <path id="Trazado_1084590" data-name="Trazado 1084590" d="M368.271,454.751a3.551,3.551,0,0,0-2.952,3.5v3.512h-3.368v-3.512A3.551,3.551,0,0,1,365.5,454.7h2.17A3.466,3.466,0,0,1,368.271,454.751Z" transform="translate(-355.534 -442.782)" fill="#ffcebf"/>
        </g>
        <g id="Grupo_1212250" data-name="Grupo 1212250" transform="translate(8.124 61.977)">
          <path id="Trazado_1084591" data-name="Trazado 1084591" d="M111.162,444.42h-1.308a3.606,3.606,0,0,0-3.606,3.606v1.308a3.606,3.606,0,0,0,3.606,3.606h1.308a3.606,3.606,0,0,0,3.606-3.606v-1.308A3.606,3.606,0,0,0,111.162,444.42Z" transform="translate(-106.247 -444.419)" fill="#ffdfcf"/>
          <path id="Trazado_1084592" data-name="Trazado 1084592" d="M112.071,452.822a3.612,3.612,0,0,1-.908.115h-1.308a3.607,3.607,0,0,1-3.607-3.606v-1.309a3.607,3.607,0,0,1,3.607-3.606h1.308a3.611,3.611,0,0,1,.908.115,3.608,3.608,0,0,0-2.7,3.491v1.309a3.608,3.608,0,0,0,2.7,3.491Z" transform="translate(-106.248 -444.416)" fill="#ffcebf"/>
        </g>
      </g>
      <g id="Grupo_1212252" data-name="Grupo 1212252" transform="translate(17.278 0)">
        <path id="Trazado_1084593" data-name="Trazado 1084593" d="M202.571,189.569a1.064,1.064,0,0,0-2.128,0v1.876a1.064,1.064,0,0,0,2.128,0Z" transform="translate(-174.461 -161.766)"/>
        <path id="Trazado_1084594" data-name="Trazado 1084594" d="M281.069,191.445v-1.876a1.064,1.064,0,0,0-2.128,0v1.876a1.064,1.064,0,0,0,2.128,0Z" transform="translate(-241.824 -161.766)"/>
        <path id="Trazado_1084595" data-name="Trazado 1084595" d="M218.053,259.7a6.351,6.351,0,0,0,4.505-1.863,1.064,1.064,0,1,0-1.5-1.5,4.248,4.248,0,0,1-6,0,1.064,1.064,0,1,0-1.5,1.5A6.351,6.351,0,0,0,218.053,259.7Z" transform="translate(-185.44 -219.706)"/>
        <path id="Trazado_1084596" data-name="Trazado 1084596" d="M83.659,52.286a3.529,3.529,0,0,0-3.012-.675l-1.428.333a1.064,1.064,0,0,0,.484,2.072l1.429-.333a1.42,1.42,0,0,1,1.744,1.383V69.076A1.423,1.423,0,0,1,81.453,70.5H76.516V68.05a4.622,4.622,0,0,0-3.607-4.5V55.6l2.085-.488a1.064,1.064,0,1,0-.484-2.072l-2.664.623-1.329-.31a7.354,7.354,0,0,0,1.678-6.569q-.04-.174-.09-.347a10.165,10.165,0,0,0,6.967-9.633,10.116,10.116,0,0,0-2.6-6.783,5.661,5.661,0,0,0-.757-5.989,5.69,5.69,0,0,0-2.391-1.705,23.454,23.454,0,0,0-46.854,0,5.661,5.661,0,0,0-3.424,6.981,5.578,5.578,0,0,0,.276.715,10.141,10.141,0,0,0,4.36,16.415,7.4,7.4,0,0,0,.27,4.815,1.064,1.064,0,0,0,1.967-.811,5.252,5.252,0,0,1,.133-4.268,1.064,1.064,0,0,0-.752-1.507,8.016,8.016,0,0,1-6.455-7.861,7.938,7.938,0,0,1,2.524-5.836,1.064,1.064,0,0,0,.153-1.369,3.518,3.518,0,0,1-.6-1.974,3.539,3.539,0,0,1,2.806-3.454,1.064,1.064,0,0,0,.848-1.027,21.326,21.326,0,0,1,42.648,0,1.064,1.064,0,0,0,.847,1.027,3.544,3.544,0,0,1,2,1.213,3.528,3.528,0,0,1,.2,4.213,1.064,1.064,0,0,0,.152,1.372,8.011,8.011,0,0,1-3.932,13.7,1.064,1.064,0,0,0-.752,1.508,5.234,5.234,0,0,1,.523,2.282,5.26,5.26,0,0,1-2.263,4.309l-4.95-1.156a3.553,3.553,0,0,0-3.9,1.715,13.062,13.062,0,0,0-1.19-.766h0a12.89,12.89,0,0,0-3.431-1.345V49.346A15.586,15.586,0,0,0,65.072,37.8a4.3,4.3,0,0,0,.629.047,6.311,6.311,0,0,0,3.932-1.617,9.421,9.421,0,0,0,3.032-4.408,6.19,6.19,0,0,0-7.244-7.772v-.594A2.29,2.29,0,0,0,63.43,21.2a6.286,6.286,0,0,1-1.072-.239,1.064,1.064,0,1,0-.646,2.027,8.4,8.4,0,0,0,1.437.32.156.156,0,0,1,.145.146V32.79c0,.007,0,.013,0,.02s0,.006,0,.008v1.7a13.4,13.4,0,1,1-26.8,0V23.989a.141.141,0,0,1,.058-.117.133.133,0,0,1,.122-.024,22.846,22.846,0,0,0,5.944.786,20.955,20.955,0,0,0,14.243-5.49c.133.207.275.411.425.61a1.064,1.064,0,0,0,1.7-1.277c-.149-.2-.289-.4-.416-.61a1.971,1.971,0,0,0-3-.426A19.375,19.375,0,0,1,37.231,21.8a2.271,2.271,0,0,0-2.868,2.194v.059a6.19,6.19,0,0,0-7.245,7.773,9.421,9.421,0,0,0,3.032,4.407,6.309,6.309,0,0,0,3.932,1.616,4.3,4.3,0,0,0,.63-.047A15.585,15.585,0,0,0,45.319,49.364V51.2a12.866,12.866,0,0,0-3.488,1.359h0A13.26,13.26,0,0,0,40.145,53.7H34.761a5.191,5.191,0,0,1-1.985-.39,1.064,1.064,0,0,0-.81,1.968,7.308,7.308,0,0,0,2.8.55h3.253a12.94,12.94,0,0,0-2.665,6.185,4.686,4.686,0,0,0-.537-.032H33.5a4.671,4.671,0,0,0-.98.1L19.235,41.512a1.064,1.064,0,0,0-1.787,1.155L30.587,63a4.663,4.663,0,0,0-1.753,3.643v1.308a4.676,4.676,0,0,0,4.67,4.67H81.453A3.553,3.553,0,0,0,85,69.077V55.066a3.529,3.529,0,0,0-1.343-2.78ZM67.846,26.2a4.068,4.068,0,0,1,2.774,5.031,7.329,7.329,0,0,1-2.34,3.355,3.956,3.956,0,0,1-2.9,1.106q.043-.579.044-1.169V32.8a2.475,2.475,0,0,1,1.83-2.379,1.064,1.064,0,1,0-.551-2.055,4.577,4.577,0,0,0-1.279.564V26.252A4.051,4.051,0,0,1,67.846,26.2ZM31.5,34.585a7.329,7.329,0,0,1-2.339-3.355,4.062,4.062,0,0,1,5.2-4.978v2.68a4.573,4.573,0,0,0-1.28-.565,1.064,1.064,0,1,0-.551,2.055,2.475,2.475,0,0,1,1.83,2.389s0,.008,0,.012v1.7q0,.59.044,1.168A3.956,3.956,0,0,1,31.5,34.585ZM74.388,68.05V70.5H67.244V68.05a2.49,2.49,0,0,1,2.487-2.487H71.9A2.49,2.49,0,0,1,74.388,68.05ZM46.548,53.132a1.064,1.064,0,0,0,.9-1.051V49.859a15.566,15.566,0,0,0,4.947-.01V52.09a1.064,1.064,0,0,0,.895,1.05,10.76,10.76,0,0,1,3.041.968,6.473,6.473,0,0,1-12.876,0,10.765,10.765,0,0,1,3.094-.978Zm-5.043,2.2a8.633,8.633,0,0,0,7.322,6.636V65.4a1.064,1.064,0,0,0,2.128,0V61.971a8.635,8.635,0,0,0,7.323-6.634c.14.111.277.225.411.343v13.4a3.529,3.529,0,0,0,.3,1.421H38.727a4.642,4.642,0,0,0,.756-2.543V66.647A4.669,4.669,0,0,0,37.4,62.761,10.832,10.832,0,0,1,41.5,55.335ZM33.5,70.5a2.545,2.545,0,0,1-2.542-2.543V66.647A2.545,2.545,0,0,1,33.5,64.1h1.308a2.545,2.545,0,0,1,2.543,2.542v1.308A2.545,2.545,0,0,1,34.813,70.5Zm28.732,0a1.422,1.422,0,0,1-1.42-1.421V55.066a1.42,1.42,0,0,1,1.744-1.382l8.221,1.92v7.832h-1.05a4.62,4.62,0,0,0-4.615,4.615V70.5Z" transform="translate(-17.278 0)"/>
        <path id="Trazado_1084597" data-name="Trazado 1084597" d="M419.916,404.836a1.063,1.063,0,0,0,1.278.794l5.436-1.27a1.064,1.064,0,1,0-.484-2.072l-5.436,1.27A1.064,1.064,0,0,0,419.916,404.836Z" transform="translate(-362.778 -345.199)"/>
      </g>
    </g>
  </g>
</svg>
