<svg xmlns="http://www.w3.org/2000/svg" xmlns:xlink="http://www.w3.org/1999/xlink" width="110" height="110" viewBox="0 0 110 110">
  <defs>
    <filter id="Trazado_982547" x="0" y="0" width="110" height="110" filterUnits="userSpaceOnUse">
      <feOffset dy="3" input="SourceAlpha"/>
      <feGaussianBlur stdDeviation="3" result="blur"/>
      <feFlood flood-opacity="0.161"/>
      <feComposite operator="in" in2="blur"/>
      <feComposite in="SourceGraphic"/>
    </filter>
  </defs>
  <g id="Grupo_1212744" data-name="Grupo 1212744" transform="translate(-692 -4146.525)">
    <g id="Grupo_1211702" data-name="Grupo 1211702" transform="translate(0 -1927.754)">
      <g id="Grupo_1200151" data-name="Grupo 1200151" transform="translate(701 6080.28)">
        <g id="Grupo_1185952" data-name="Grupo 1185952" transform="translate(0 0)">
          <g id="Grupo_1184115" data-name="Grupo 1184115">
            <g id="Grupo_1183744" data-name="Grupo 1183744" transform="translate(0 0)">
              <g id="Grupo_1181546" data-name="Grupo 1181546">
                <g id="Grupo_1177563" data-name="Grupo 1177563">
                  <g id="Grupo_1173148" data-name="Grupo 1173148" transform="translate(0 0)">
                    <g id="Grupo_1163803" data-name="Grupo 1163803" transform="translate(0 0)">
                      <g id="Grupo_1163015" data-name="Grupo 1163015" transform="translate(0 0)">
                        <g id="Grupo_1157017" data-name="Grupo 1157017" transform="translate(0 0)">
                          <g id="Grupo_1155793" data-name="Grupo 1155793" transform="translate(0 0)">
                            <g id="Grupo_1154704" data-name="Grupo 1154704" transform="translate(0 0)">
                              <g id="Grupo_1150790" data-name="Grupo 1150790">
                                <g id="Grupo_1154214" data-name="Grupo 1154214">
                                  <g id="Grupo_1152583" data-name="Grupo 1152583">
                                    <g id="Grupo_1146973" data-name="Grupo 1146973">
                                      <g id="Grupo_1146954" data-name="Grupo 1146954">
                                        <g transform="matrix(1, 0, 0, 1, -9, -6)" filter="url(#Trazado_982547)">
                                          <g id="Trazado_982547-2" data-name="Trazado 982547" transform="translate(9 6)" fill="#fdecc1">
                                            <path d="M 46.00000762939453 90.49988555908203 C 39.99188613891602 90.49988555908203 34.16427612304688 89.32352447509766 28.67906188964844 87.00347137451172 C 23.38020706176758 84.76226043701172 18.62104797363281 81.55342864990234 14.53375434875488 77.46615600585938 C 10.44647407531738 73.37887573242188 7.237647533416748 68.61971282958984 4.996420860290527 63.32085800170898 C 2.676367521286011 57.83565902709961 1.500007629394531 52.00806045532227 1.500007629394531 45.99993896484375 C 1.500007629394531 39.99181747436523 2.676367521286011 34.16421890258789 4.996420860290527 28.67901802062988 C 7.237647533416748 23.38017845153809 10.44647407531738 18.62101936340332 14.53375434875488 14.53373908996582 C 18.62104797363281 10.44645881652832 23.38020706176758 7.237632274627686 28.67906188964844 4.996418952941895 C 34.16427612304688 2.676365613937378 39.99188613891602 1.500005602836609 46.00000762939453 1.500005602836609 C 52.00812911987305 1.500005602836609 57.83573913574219 2.676365613937378 63.32095336914062 4.996418952941895 C 68.61980438232422 7.237632274627686 73.37896728515625 10.44645881652832 77.46626281738281 14.53373908996582 C 81.55354309082031 18.62101936340332 84.76236724853516 23.38017845153809 87.00359344482422 28.67901802062988 C 89.32364654541016 34.16421890258789 90.50000762939453 39.99181747436523 90.50000762939453 45.99993896484375 C 90.50000762939453 52.00806045532227 89.32364654541016 57.83565902709961 87.00359344482422 63.32085800170898 C 84.76236724853516 68.61971282958984 81.55354309082031 73.37887573242188 77.46626281738281 77.46615600585938 C 73.37896728515625 81.55342864990234 68.61980438232422 84.76226043701172 63.32095336914062 87.00347137451172 C 57.83573913574219 89.32352447509766 52.00812911987305 90.49988555908203 46.00000762939453 90.49988555908203 Z" stroke="none"/>
                                            <path d="M 46.00000762939453 2.999992370605469 C 40.19372177124023 2.999992370605469 34.56270599365234 4.136497497558594 29.26339340209961 6.377906799316406 C 24.14333343505859 8.543510437011719 19.54441833496094 11.64437866210938 15.59440612792969 15.59439849853516 C 11.6444091796875 19.54439544677734 8.543525695800781 24.14329528808594 6.377922058105469 29.26335144042969 C 4.136505126953125 34.56266784667969 3.000007629394531 40.19366836547852 3.000007629394531 45.99993896484375 C 3.000007629394531 51.80620956420898 4.136505126953125 57.43722534179688 6.377922058105469 62.73654174804688 C 8.543525695800781 67.85658264160156 11.6444091796875 72.45548248291016 15.59440612792969 76.40549468994141 C 19.54441833496094 80.35549926757812 24.14333343505859 83.45636749267578 29.26337814331055 85.62196350097656 C 34.56270599365234 87.86338043212891 40.19372177124023 88.9998779296875 46.00000762939453 88.9998779296875 C 51.80629348754883 88.9998779296875 57.43730926513672 87.86338043212891 62.73662185668945 85.62196350097656 C 67.85668182373047 83.45636749267578 72.45558166503906 80.35549926757812 76.40559387207031 76.40549468994141 C 80.35560607910156 72.45548248291016 83.45648193359375 67.85658264160156 85.62207794189453 62.73654174804688 C 87.86351013183594 57.43722534179688 89.00000762939453 51.80620956420898 89.00000762939453 45.99993896484375 C 89.00000762939453 40.19366836547852 87.86351013183594 34.56266784667969 85.62207794189453 29.26335144042969 C 83.45648193359375 24.14329528808594 80.35560607910156 19.54439544677734 76.40559387207031 15.59439849853516 C 72.45558166503906 11.64437866210938 67.85668182373047 8.543510437011719 62.73662185668945 6.377906799316406 C 57.43729400634766 4.136497497558594 51.80629348754883 2.999992370605469 46.00000762939453 2.999992370605469 M 46.00000762939453 -7.62939453125e-06 C 71.40509033203125 -7.62939453125e-06 92.00000762939453 20.59487915039062 92.00000762939453 45.99993896484375 C 92.00000762939453 71.40501403808594 71.40509033203125 91.99988555908203 46.00000762939453 91.99988555908203 C 20.59490966796875 91.99988555908203 7.62939453125e-06 71.40501403808594 7.62939453125e-06 45.99993896484375 C 7.62939453125e-06 20.59487915039062 20.59490966796875 -7.62939453125e-06 46.00000762939453 -7.62939453125e-06 Z" stroke="none" fill="#f8c234"/>
                                          </g>
                                        </g>
                                      </g>
                                    </g>
                                  </g>
                                </g>
                              </g>
                            </g>
                          </g>
                        </g>
                      </g>
                    </g>
                  </g>
                </g>
              </g>
            </g>
          </g>
        </g>
      </g>
    </g>
    <g id="solucion" transform="translate(712.427 4174.76)">
      <g id="Grupo_1212742" data-name="Grupo 1212742" transform="translate(1.115 1.115)">
        <g id="Grupo_1212728" data-name="Grupo 1212728" transform="translate(33.457)">
          <path id="Trazado_1085332" data-name="Trazado 1085332" d="M272.376,21.383h-7.129a4.461,4.461,0,1,1-7.729,0H248v-3.2a1.336,1.336,0,0,1,1.549-1.315,4.462,4.462,0,0,0,2.969-8.24,15.627,15.627,0,0,1,19.858,12.753Z" transform="translate(-248 -8)" fill="#fcd770"/>
        </g>
        <g id="Grupo_1212729" data-name="Grupo 1212729" transform="translate(0 6.691)">
          <path id="Trazado_1085333" data-name="Trazado 1085333" d="M41.457,75.478v5.058H15.807a7.807,7.807,0,0,1,0-15.613h1.115a13.22,13.22,0,0,1,.187-2.23h7.1a4.461,4.461,0,1,1,7.729,0h9.519v5.058a4.461,4.461,0,1,0,0,7.729Z" transform="translate(-8 -56)" fill="#fcd770"/>
        </g>
        <g id="Grupo_1212730" data-name="Grupo 1212730" transform="translate(26.766 13.383)">
          <path id="Trazado_1085334" data-name="Trazado 1085334" d="M232.343,106.23a7.807,7.807,0,0,1,0,15.613H206.693v-5.058a4.461,4.461,0,1,1,0-7.729V104h9.519a4.461,4.461,0,1,0,7.729,0h7.129a15.7,15.7,0,0,1,.159,2.23Z" transform="translate(-200.002 -104)" fill="#e6e9ed"/>
        </g>
        <g id="Grupo_1212731" data-name="Grupo 1212731" transform="translate(9.109 0.63)">
          <path id="Trazado_1085335" data-name="Trazado 1085335" d="M102.207,12.52a4.463,4.463,0,0,1-2.969,8.24,1.336,1.336,0,0,0-1.549,1.315v3.2H88.17a4.461,4.461,0,1,0-7.729,0h-7.1a13.384,13.384,0,0,1,21.623-8.166A15.618,15.618,0,0,1,102.207,12.52Z" transform="translate(-73.34 -12.52)" fill="#e6e9ed"/>
        </g>
        <g id="Grupo_1212732" data-name="Grupo 1212732" transform="translate(11.152 55.019)">
          <path id="Trazado_1085336" data-name="Trazado 1085336" d="M96.621,403.345l2.532-.675h0v.215a8.072,8.072,0,0,0,4.461,7.218,10.412,10.412,0,0,1,6.131-4.322l.56-.139.56.139A10.412,10.412,0,0,1,117,410.1a8.072,8.072,0,0,0,4.461-7.218v-.215h0l2.532.675a11.614,11.614,0,0,1,6.217,4.146,11.6,11.6,0,0,1,2.4,7.075H88a11.612,11.612,0,0,1,7.383-10.815,11.479,11.479,0,0,1,1.238-.406Z" transform="translate(-88 -402.67)" fill="#ff826e"/>
        </g>
        <g id="Grupo_1212733" data-name="Grupo 1212733" transform="translate(33.457 53.532)">
          <path id="Trazado_1085337" data-name="Trazado 1085337" d="M259.152,393.489v.215a8.072,8.072,0,0,1-4.461,7.218,10.412,10.412,0,0,0-6.131-4.322l-.56-.139a5.714,5.714,0,0,0,5.543-4.327l.033-.134,5.576,1.487Z" transform="translate(-248 -392)" fill="#fc6e51"/>
        </g>
        <g id="Grupo_1212734" data-name="Grupo 1212734" transform="translate(22.305 53.532)">
          <path id="Trazado_1085338" data-name="Trazado 1085338" d="M173.61,392.134a5.713,5.713,0,0,0,5.543,4.327l-.56.139a10.412,10.412,0,0,0-6.131,4.322A8.072,8.072,0,0,1,168,393.7v-.215h0L173.576,392Z" transform="translate(-168 -392)" fill="#fc6e51"/>
        </g>
        <g id="Grupo_1212735" data-name="Grupo 1212735" transform="translate(46.84 39.545)">
          <path id="Trazado_1085339" data-name="Trazado 1085339" d="M352.922,300.08a7.514,7.514,0,0,1-6.251,3.346h-.441a11.158,11.158,0,0,1-2.23-6.691v-4.461h2.23a4.427,4.427,0,0,0,2.242-.6A11.158,11.158,0,0,0,352.922,300.08Z" transform="translate(-344 -291.67)" fill="#656d78"/>
        </g>
        <g id="Grupo_1212736" data-name="Grupo 1212736" transform="translate(39.033 40.952)">
          <path id="Trazado_1085340" data-name="Trazado 1085340" d="M300.268,314.34a7.495,7.495,0,0,1-2.922,2.568,11.47,11.47,0,0,0-1.238-.406l-2.532-.675L288,314.34v-2.23a10.762,10.762,0,0,0,7.807-10.349v3.658a11.158,11.158,0,0,0,2.23,6.691h0A11.116,11.116,0,0,0,300.268,314.34Z" transform="translate(-288 -301.76)" fill="#656d78"/>
        </g>
        <g id="Grupo_1212737" data-name="Grupo 1212737" transform="translate(15.613 40.952)">
          <path id="Trazado_1085341" data-name="Trazado 1085341" d="M132.268,312.109v2.23l-5.576,1.487-2.532.675a11.474,11.474,0,0,0-1.238.406A7.5,7.5,0,0,1,120,314.34a11.116,11.116,0,0,0,2.229-2.23h0a11.158,11.158,0,0,0,2.23-6.691V301.76A10.763,10.763,0,0,0,132.268,312.109Z" transform="translate(-120 -301.76)" fill="#656d78"/>
        </g>
        <g id="Grupo_1212738" data-name="Grupo 1212738" transform="translate(11.152 39.545)">
          <path id="Trazado_1085342" data-name="Trazado 1085342" d="M96.922,293.077v3.658a11.158,11.158,0,0,1-2.23,6.691h-.441A7.514,7.514,0,0,1,88,300.08a11.158,11.158,0,0,0,4.45-8.41,4.427,4.427,0,0,0,2.242.6h2.23Z" transform="translate(-88 -291.67)" fill="#656d78"/>
        </g>
        <g id="Grupo_1212739" data-name="Grupo 1212739" transform="translate(46.84 31.227)">
          <path id="Trazado_1085343" data-name="Trazado 1085343" d="M344,238.691V232h2.23a4.461,4.461,0,1,1,0,8.922H344Z" transform="translate(-344 -232)" fill="#f0d0b4"/>
        </g>
        <g id="Grupo_1212740" data-name="Grupo 1212740" transform="translate(20.074 31.227)">
          <path id="Trazado_1085344" data-name="Trazado 1085344" d="M178.766,240.922v.8a10.762,10.762,0,0,1-7.807,10.349v2.23l-.033.134a5.714,5.714,0,0,1-11.086,0l-.033-.134v-2.23A10.763,10.763,0,0,1,152,241.725V232h26.766v8.922Z" transform="translate(-152 -232)" fill="#f0d0b4"/>
        </g>
        <g id="Grupo_1212741" data-name="Grupo 1212741" transform="translate(13.383 31.227)">
          <path id="Trazado_1085345" data-name="Trazado 1085345" d="M110.691,238.691v2.23h-2.23a4.461,4.461,0,1,1,0-8.922h2.23Z" transform="translate(-104 -232)" fill="#f0d0b4"/>
        </g>
      </g>
      <g id="Grupo_1212743" data-name="Grupo 1212743" transform="translate(0)">
        <path id="Trazado_1085346" data-name="Trazado 1085346" d="M212.122,316.125a5.136,5.136,0,0,1-8.547,0l-.375-.562-1.856,1.237.375.562a7.367,7.367,0,0,0,12.259,0l.375-.562-1.856-1.237Z" transform="translate(-173.276 -271.572)"/>
        <path id="Trazado_1085347" data-name="Trazado 1085347" d="M271.418,244.657a2.494,2.494,0,0,1-4.461,0l-.118-.235-2,1,.118.235a4.724,4.724,0,0,0,8.451,0l.118-.235-2-1Z" transform="translate(-227.923 -210.348)"/>
        <path id="Trazado_1085348" data-name="Trazado 1085348" d="M177.413,245.655l.118-.235-2-1-.118.235a2.494,2.494,0,0,1-4.461,0l-.118-.235-2,1,.118.235a4.724,4.724,0,0,0,8.451,0Z" transform="translate(-145.306 -210.348)"/>
        <path id="Trazado_1085349" data-name="Trazado 1085349" d="M233.714,260.9l1-1.995-1.43-.715.9-3.593-2.164-.541-1.332,5.329Z" transform="translate(-198.525 -218.643)"/>
        <path id="Trazado_1085350" data-name="Trazado 1085350" d="M57.805,49.689l.585-.878-.844-.633a10,10,0,0,1-3.957-6.963,5.566,5.566,0,0,0,1.054-7.758h5.579a8.922,8.922,0,1,0,0-17.844h-.037A16.728,16.728,0,0,0,31.723,4.844,14.5,14.5,0,0,0,8.964,15.613H8.922a8.922,8.922,0,1,0,0,17.844H14.5a5.566,5.566,0,0,0,1.054,7.758A10,10,0,0,1,11.6,48.178l-.844.633.585.878A8.609,8.609,0,0,0,16.6,53.316c-.175.152-.355.3-.542.438l-.844.633.585.878a8.634,8.634,0,0,0,1.613,1.805A12.746,12.746,0,0,0,11.152,68.03v1.115h46.84V68.03A12.746,12.746,0,0,0,51.731,57.07a8.634,8.634,0,0,0,1.613-1.805l.585-.878-.844-.633c-.187-.14-.367-.286-.542-.438a8.609,8.609,0,0,0,5.261-3.627ZM53.532,36.8a3.35,3.35,0,0,1-3.346,3.346H49.071V39.5l3.019-3.019L50.513,34.9l-1.442,1.442V33.457h1.115A3.35,3.35,0,0,1,53.532,36.8ZM39.842,51.344l-.809.231V54.51a4.6,4.6,0,0,1-8.922,0V51.575l-.809-.231a9.69,9.69,0,0,1-7-9.277v-8.61H46.84v8.61a9.69,9.69,0,0,1-7,9.277ZM28.26,56a6.815,6.815,0,0,0,2.76,3.231A11.483,11.483,0,0,0,27.576,62.1a6.9,6.9,0,0,1-3.01-5.119Zm12.625,0,3.693.985a6.9,6.9,0,0,1-3.01,5.119,11.483,11.483,0,0,0-3.444-2.873A6.814,6.814,0,0,0,40.885,56ZM60.223,17.844a6.691,6.691,0,0,1,0,13.383H35.688V25.351l-1.674.968a3.346,3.346,0,1,1,0-5.8l1.674.968V15.613h6.8a5.576,5.576,0,1,0,10.928,0H57.95q.042.552.043,1.115v1.115ZM57.6,13.383H49.886l.968,1.674a3.346,3.346,0,1,1-5.8,0l.968-1.674H35.688V11.3a.2.2,0,0,1,.073-.159.232.232,0,0,1,.192-.052,5.669,5.669,0,0,0,1.286.048A5.579,5.579,0,0,0,41.38,2.387a14.485,14.485,0,0,1,16.222,11ZM23.42,4.461A12.294,12.294,0,0,1,31.144,7.2l.826.67.709-.793a14.524,14.524,0,0,1,6.232-4.1,3.346,3.346,0,0,1-1.842,5.935,3.435,3.435,0,0,1-.778-.029,2.465,2.465,0,0,0-1.983.565,2.437,2.437,0,0,0-.851,1.852v2.083h-6.8a5.576,5.576,0,1,0-10.928,0h-4.11a12.29,12.29,0,0,1,11.8-8.922ZM2.231,24.535a6.7,6.7,0,0,1,6.691-6.691h2.23V16.729c0-.376.018-.748.051-1.115h8.056l-.968-1.674a3.346,3.346,0,1,1,5.8,0l-.968,1.674H33.457v2.342a5.579,5.579,0,0,0-6.678,5.071,5.53,5.53,0,0,0,1.486,4.2,5.578,5.578,0,0,0,5.192,1.66v2.343H8.922A6.7,6.7,0,0,1,2.231,24.535Zm17.844,8.922v2.884L18.633,34.9l-1.577,1.577L20.074,39.5v.653H18.959a3.346,3.346,0,1,1,0-6.691ZM13.814,49.24a12.205,12.205,0,0,0,3.85-7.014,5.57,5.57,0,0,0,1.295.153h1.115v3.346a10.074,10.074,0,0,1-1.7,5.573A6.382,6.382,0,0,1,13.814,49.24Zm4.461,5.575A12.358,12.358,0,0,0,21.982,48.5a11.91,11.91,0,0,0,5.9,4.725v.564L20.6,55.732c-.291.078-.577.167-.858.264a6.415,6.415,0,0,1-1.468-1.181ZM55.7,66.915H13.442a10.513,10.513,0,0,1,7.734-9.028l1.209-.322a9.126,9.126,0,0,0,5,7l.881.44.546-.819a9.267,9.267,0,0,1,5.474-3.858l.29-.072.289.072a9.267,9.267,0,0,1,5.474,3.858l.546.819.881-.44a9.127,9.127,0,0,0,5-7l1.209.322A10.513,10.513,0,0,1,55.7,66.915ZM48.544,55.731l-7.28-1.941v-.564a11.909,11.909,0,0,0,5.9-4.725,12.357,12.357,0,0,0,3.707,6.314A6.412,6.412,0,0,1,49.4,56c-.282-.1-.567-.187-.858-.264ZM50.767,51.3a10.074,10.074,0,0,1-1.7-5.573V42.379h1.115a5.563,5.563,0,0,0,1.295-.153,12.207,12.207,0,0,0,3.85,7.014A6.381,6.381,0,0,1,50.767,51.3Z" transform="translate(0)"/>
        <circle id="Elipse_12643" data-name="Elipse 12643" cx="1.404" cy="1.404" r="1.404" transform="translate(4.211 55.442)"/>
        <ellipse id="Elipse_12644" data-name="Elipse 12644" cx="1.404" cy="1.053" rx="1.404" ry="1.053" transform="translate(4.211 51.231)"/>
        <path id="Trazado_1085351" data-name="Trazado 1085351" d="M32,432h2.23v8.922H32Z" transform="translate(-27.539 -371.777)"/>
        <path id="Trazado_1085352" data-name="Trazado 1085352" d="M12.842,257.936l-5.25-5.249-5.25,5.249,1.577,1.577,2.557-2.557v9.575h2.23v-9.575l2.557,2.557Z" transform="translate(-2.016 -217.461)"/>
        <ellipse id="Elipse_12645" data-name="Elipse 12645" cx="1.053" cy="1.404" rx="1.053" ry="1.404" transform="translate(62.46 55.442)"/>
        <circle id="Elipse_12646" data-name="Elipse 12646" cx="1.053" cy="1.053" r="1.053" transform="translate(62.46 51.231)"/>
        <path id="Trazado_1085353" data-name="Trazado 1085353" d="M448,432h2.23v8.922H448Z" transform="translate(-385.546 -371.777)"/>
        <path id="Trazado_1085354" data-name="Trazado 1085354" d="M418.343,257.936l1.577,1.577,2.557-2.557v9.575h2.23v-9.575l2.557,2.557,1.577-1.577-5.25-5.249Z" transform="translate(-360.024 -217.461)"/>
      </g>
    </g>
  </g>
</svg>
