<svg xmlns="http://www.w3.org/2000/svg" xmlns:xlink="http://www.w3.org/1999/xlink" width="110" height="110" viewBox="0 0 110 110">
  <defs>
    <filter id="Trazado_982547" x="0" y="0" width="110" height="110" filterUnits="userSpaceOnUse">
      <feOffset dy="3" input="SourceAlpha"/>
      <feGaussianBlur stdDeviation="3" result="blur"/>
      <feFlood flood-opacity="0.161"/>
      <feComposite operator="in" in2="blur"/>
      <feComposite in="SourceGraphic"/>
    </filter>
  </defs>
  <g id="Grupo_1212751" data-name="Grupo 1212751" transform="translate(-1322 -4137.523)">
    <g id="Grupo_1211705" data-name="Grupo 1211705" transform="translate(630 -1936.756)">
      <g id="Grupo_1200151" data-name="Grupo 1200151" transform="translate(701 6080.28)">
        <g id="Grupo_1185952" data-name="Grupo 1185952" transform="translate(0 0)">
          <g id="Grupo_1184115" data-name="Grupo 1184115">
            <g id="Grupo_1183744" data-name="Grupo 1183744" transform="translate(0 0)">
              <g id="Grupo_1181546" data-name="Grupo 1181546">
                <g id="Grupo_1177563" data-name="Grupo 1177563">
                  <g id="Grupo_1173148" data-name="Grupo 1173148" transform="translate(0 0)">
                    <g id="Grupo_1163803" data-name="Grupo 1163803" transform="translate(0 0)">
                      <g id="Grupo_1163015" data-name="Grupo 1163015" transform="translate(0 0)">
                        <g id="Grupo_1157017" data-name="Grupo 1157017" transform="translate(0 0)">
                          <g id="Grupo_1155793" data-name="Grupo 1155793" transform="translate(0 0)">
                            <g id="Grupo_1154704" data-name="Grupo 1154704" transform="translate(0 0)">
                              <g id="Grupo_1150790" data-name="Grupo 1150790">
                                <g id="Grupo_1154214" data-name="Grupo 1154214">
                                  <g id="Grupo_1152583" data-name="Grupo 1152583">
                                    <g id="Grupo_1146973" data-name="Grupo 1146973">
                                      <g id="Grupo_1146954" data-name="Grupo 1146954">
                                        <g transform="matrix(1, 0, 0, 1, -9, -6)" filter="url(#Trazado_982547)">
                                          <g id="Trazado_982547-2" data-name="Trazado 982547" transform="translate(9 6)" fill="#fdecc1">
                                            <path d="M 46.00000762939453 90.49988555908203 C 39.99188613891602 90.49988555908203 34.16427612304688 89.32352447509766 28.67906188964844 87.00347137451172 C 23.38020706176758 84.76226043701172 18.62104797363281 81.55342864990234 14.53375434875488 77.46615600585938 C 10.44647407531738 73.37887573242188 7.237647533416748 68.61971282958984 4.996420860290527 63.32085800170898 C 2.676367521286011 57.83565902709961 1.500007629394531 52.00806045532227 1.500007629394531 45.99993896484375 C 1.500007629394531 39.99181747436523 2.676367521286011 34.16421890258789 4.996420860290527 28.67901802062988 C 7.237647533416748 23.38017845153809 10.44647407531738 18.62101936340332 14.53375434875488 14.53373908996582 C 18.62104797363281 10.44645881652832 23.38020706176758 7.237632274627686 28.67906188964844 4.996418952941895 C 34.16427612304688 2.676365613937378 39.99188613891602 1.500005602836609 46.00000762939453 1.500005602836609 C 52.00812911987305 1.500005602836609 57.83573913574219 2.676365613937378 63.32095336914062 4.996418952941895 C 68.61980438232422 7.237632274627686 73.37896728515625 10.44645881652832 77.46626281738281 14.53373908996582 C 81.55354309082031 18.62101936340332 84.76236724853516 23.38017845153809 87.00359344482422 28.67901802062988 C 89.32364654541016 34.16421890258789 90.50000762939453 39.99181747436523 90.50000762939453 45.99993896484375 C 90.50000762939453 52.00806045532227 89.32364654541016 57.83565902709961 87.00359344482422 63.32085800170898 C 84.76236724853516 68.61971282958984 81.55354309082031 73.37887573242188 77.46626281738281 77.46615600585938 C 73.37896728515625 81.55342864990234 68.61980438232422 84.76226043701172 63.32095336914062 87.00347137451172 C 57.83573913574219 89.32352447509766 52.00812911987305 90.49988555908203 46.00000762939453 90.49988555908203 Z" stroke="none"/>
                                            <path d="M 46.00000762939453 2.999992370605469 C 40.19372177124023 2.999992370605469 34.56270599365234 4.136497497558594 29.26339340209961 6.377906799316406 C 24.14333343505859 8.543510437011719 19.54441833496094 11.64437866210938 15.59440612792969 15.59439849853516 C 11.6444091796875 19.54439544677734 8.543525695800781 24.14329528808594 6.377922058105469 29.26335144042969 C 4.136505126953125 34.56266784667969 3.000007629394531 40.19366836547852 3.000007629394531 45.99993896484375 C 3.000007629394531 51.80620956420898 4.136505126953125 57.43722534179688 6.377922058105469 62.73654174804688 C 8.543525695800781 67.85658264160156 11.6444091796875 72.45548248291016 15.59440612792969 76.40549468994141 C 19.54441833496094 80.35549926757812 24.14333343505859 83.45636749267578 29.26337814331055 85.62196350097656 C 34.56270599365234 87.86338043212891 40.19372177124023 88.9998779296875 46.00000762939453 88.9998779296875 C 51.80629348754883 88.9998779296875 57.43730926513672 87.86338043212891 62.73662185668945 85.62196350097656 C 67.85668182373047 83.45636749267578 72.45558166503906 80.35549926757812 76.40559387207031 76.40549468994141 C 80.35560607910156 72.45548248291016 83.45648193359375 67.85658264160156 85.62207794189453 62.73654174804688 C 87.86351013183594 57.43722534179688 89.00000762939453 51.80620956420898 89.00000762939453 45.99993896484375 C 89.00000762939453 40.19366836547852 87.86351013183594 34.56266784667969 85.62207794189453 29.26335144042969 C 83.45648193359375 24.14329528808594 80.35560607910156 19.54439544677734 76.40559387207031 15.59439849853516 C 72.45558166503906 11.64437866210938 67.85668182373047 8.543510437011719 62.73662185668945 6.377906799316406 C 57.43729400634766 4.136497497558594 51.80629348754883 2.999992370605469 46.00000762939453 2.999992370605469 M 46.00000762939453 -7.62939453125e-06 C 71.40509033203125 -7.62939453125e-06 92.00000762939453 20.59487915039062 92.00000762939453 45.99993896484375 C 92.00000762939453 71.40501403808594 71.40509033203125 91.99988555908203 46.00000762939453 91.99988555908203 C 20.59490966796875 91.99988555908203 7.62939453125e-06 71.40501403808594 7.62939453125e-06 45.99993896484375 C 7.62939453125e-06 20.59487915039062 20.59490966796875 -7.62939453125e-06 46.00000762939453 -7.62939453125e-06 Z" stroke="none" fill="#f8c234"/>
                                          </g>
                                        </g>
                                      </g>
                                    </g>
                                  </g>
                                </g>
                              </g>
                            </g>
                          </g>
                        </g>
                      </g>
                    </g>
                  </g>
                </g>
              </g>
            </g>
          </g>
        </g>
      </g>
    </g>
    <g id="idea_2_" data-name="idea (2)" transform="translate(1334.451 4155.141)">
      <path id="Trazado_1085383" data-name="Trazado 1085383" d="M87.624,387.133c1.25.334,2.7.778,4.223,1.349a34.66,34.66,0,0,1,5.64,2.673,3.806,3.806,0,0,1,1.8,2.689c.3,1.97.787,5.442,1.147,9.3H66.463c.36-3.855.849-7.327,1.147-9.3a3.805,3.805,0,0,1,1.8-2.689,34.664,34.664,0,0,1,5.639-2.673c1.525-.571,2.972-1.015,4.223-1.349" transform="translate(-43.97 -334.33)" fill="#f9f6f6"/>
      <path id="Trazado_1085384" data-name="Trazado 1085384" d="M151.968,407.948l2.452,2.9h3.451l2.453-2.9v-6.116h-9.68" transform="translate(-116.669 -347.024)" fill="#dd636e"/>
      <path id="Trazado_1085385" data-name="Trazado 1085385" d="M72.441,404.961a4.4,4.4,0,0,0-1.392,2.883c-.246,2.238-.658,6.272-.943,10.694H66.463c.36-3.855.849-7.327,1.147-9.3a3.805,3.805,0,0,1,1.8-2.689A31.543,31.543,0,0,1,72.441,404.961Z" transform="translate(-43.97 -349.726)" fill="#e7ecf6"/>
      <path id="Trazado_1085386" data-name="Trazado 1085386" d="M146.2,383.086l-2.9,8.045-5.5-5.29-5.5,5.29-2.9-8.045a46.1,46.1,0,0,1,7.723-2.141,3.768,3.768,0,0,1,1.352,0A46.1,46.1,0,0,1,146.2,383.086Z" transform="translate(-98.326 -328.934)" fill="#e7ecf6"/>
      <path id="Trazado_1085387" data-name="Trazado 1085387" d="M168.708,335.451v6.976a4.178,4.178,0,0,1-8.355,0v-6.976Z" transform="translate(-125.053 -289.697)" fill="#ffddce"/>
      <g id="Grupo_1212748" data-name="Grupo 1212748" transform="translate(16.572 31.184)">
        <path id="Trazado_1085388" data-name="Trazado 1085388" d="M165.9,346.374a4.182,4.182,0,0,1-5.542-3.95v-6.976h2.728v6.976A4.177,4.177,0,0,0,165.9,346.374Z" transform="translate(-141.628 -320.878)" fill="#ffcbbe"/>
        <path id="Trazado_1085389" data-name="Trazado 1085389" d="M28.5,237.389a5.459,5.459,0,0,1-5.32-6.66,2.693,2.693,0,0,1,5.32.593h34.9a2.693,2.693,0,0,1,5.32-.593,5.458,5.458,0,0,1-5.32,6.66" transform="translate(-23.051 -228.628)" fill="#ffcbbe"/>
        <path id="Trazado_1085390" data-name="Trazado 1085390" d="M160.353,335.451h8.355v6.427h-8.355Z" transform="translate(-141.626 -320.881)" fill="#ffcbbe"/>
      </g>
      <path id="Trazado_1085391" data-name="Trazado 1085391" d="M85.219,172.236H75.755a12.72,12.72,0,0,1-12.72-12.72V141.577h34.9v17.939A12.72,12.72,0,0,1,85.219,172.236Z" transform="translate(-41.009 -122.267)" fill="#ffddce"/>
      <path id="Trazado_1085392" data-name="Trazado 1085392" d="M84.111,172.233H75.756a12.721,12.721,0,0,1-12.72-12.72v-17.94h8.355v17.94A12.72,12.72,0,0,0,84.111,172.233Z" transform="translate(-41.01 -122.263)" fill="#ffcbbe"/>
      <g id="Grupo_1212749" data-name="Grupo 1212749" transform="translate(25.108 35.184)">
        <ellipse id="Elipse_12647" data-name="Elipse 12647" cx="2.857" cy="1.737" rx="2.857" ry="1.737" transform="translate(23.025)" fill="#eaa598"/>
        <ellipse id="Elipse_12648" data-name="Elipse 12648" cx="2.857" cy="1.737" rx="2.857" ry="1.737" fill="#eaa598"/>
      </g>
      <path id="Trazado_1085393" data-name="Trazado 1085393" d="M54.184,50.281h-5.4a6.076,6.076,0,0,0-6.076,6.076v8.228a3.029,3.029,0,0,0,3.029,3.029h3.8a9.056,9.056,0,0,0,9.056-9.056V54.687A4.406,4.406,0,0,0,54.184,50.281Z" transform="translate(-23.455 -43.423)" fill="#aa7a63"/>
      <path id="Trazado_1085394" data-name="Trazado 1085394" d="M54.151,50.275a6.076,6.076,0,0,0-6.075,6.076V67.608h-2.34a3.029,3.029,0,0,1-3.029-3.029V56.351a6.076,6.076,0,0,1,6.075-6.076Z" transform="translate(-23.454 -43.418)" fill="#986b54"/>
      <path id="Trazado_1085395" data-name="Trazado 1085395" d="M154.335,29.188h-8.411a8.245,8.245,0,0,1-8.245-8.245v-5.2A8.245,8.245,0,0,1,145.924,7.5h24.613v5.486A16.2,16.2,0,0,1,154.335,29.188Z" transform="translate(-105.472 -6.477)" fill="#aa7a63"/>
      <path id="Trazado_1085396" data-name="Trazado 1085396" d="M153.194,29.189h-7.271a8.244,8.244,0,0,1-8.245-8.245v-5.2A8.244,8.244,0,0,1,145.924,7.5h7.271a8.244,8.244,0,0,0-8.245,8.245v5.2A8.244,8.244,0,0,0,153.194,29.189Z" transform="translate(-105.472 -6.479)" fill="#986b54"/>
      <path id="Trazado_1085397" data-name="Trazado 1085397" d="M175.043,472.946h-5.981a18.6,18.6,0,0,1,1.264-4.983h3.451A18.607,18.607,0,0,1,175.043,472.946Z" transform="translate(-132.575 -404.135)" fill="#dd636e"/>
      <ellipse id="Elipse_12649" data-name="Elipse 12649" cx="1.726" cy="2.991" rx="1.726" ry="2.991" transform="translate(37.752 38.342)" fill="#2b4d66"/>
      <g id="Grupo_1212750" data-name="Grupo 1212750" transform="translate(49.384 4.186)">
        <path id="Trazado_1085398" data-name="Trazado 1085398" d="M276.115,50.36a3.325,3.325,0,0,1,1.817-2.981,5.3,5.3,0,0,0,2.927-4.5,74.732,74.732,0,0,0-.041-7.839,4.506,4.506,0,0,0-4.241-4.231,74.726,74.726,0,0,0-8.595,0,4.505,4.505,0,0,0-4.241,4.231,74.683,74.683,0,0,0-.041,7.839,5.3,5.3,0,0,0,2.927,4.5,3.325,3.325,0,0,1,1.817,2.981l4.058,1.3Z" transform="translate(-263.616 -30.689)" fill="#f6e266"/>
        <path id="Trazado_1085399" data-name="Trazado 1085399" d="M271.076,51.409l-2.633-.841a3.325,3.325,0,0,0-1.817-2.981,5.3,5.3,0,0,1-2.927-4.5,74.684,74.684,0,0,1,.041-7.839,4.506,4.506,0,0,1,4.241-4.231q1.052-.06,2.1-.091c-.407.813-1.884,2.215-1.913,3.831q-.077,4.234-.014,8.467c.032,2.133,1.627,3.955,2.2,4.856a6.873,6.873,0,0,1,.619,3.22Z" transform="translate(-263.616 -30.896)" fill="#ffc250"/>
        <path id="Trazado_1085400" data-name="Trazado 1085400" d="M304.463,179.179h-3.241a2.215,2.215,0,0,1-2.215-2.215v-2.058h7.671v2.058A2.215,2.215,0,0,1,304.463,179.179Z" transform="translate(-294.18 -155.236)" fill="#365e7d"/>
        <path id="Trazado_1085401" data-name="Trazado 1085401" d="M303.6,179.18h-2.378a2.215,2.215,0,0,1-2.215-2.215v-2.058h2.378v2.058A2.215,2.215,0,0,0,303.6,179.18Z" transform="translate(-294.18 -155.236)" fill="#2b4d66"/>
      </g>
      <path id="Trazado_1085402" data-name="Trazado 1085402" d="M410.538,187.026l.158-.273a2.118,2.118,0,0,1,2.766-.844l3.077,1.506a2.119,2.119,0,0,1,.9,2.962l-.392.68a2.118,2.118,0,0,1-3.017.7l-2.842-1.912A2.118,2.118,0,0,1,410.538,187.026Z" transform="translate(-340.869 -160.365)" fill="#f7f493"/>
      <path id="Trazado_1085403" data-name="Trazado 1085403" d="M432.83,104.4v-.316a2.118,2.118,0,0,1,1.973-2.113l3.418-.234a2.118,2.118,0,0,1,2.263,2.113v.785a2.118,2.118,0,0,1-2.263,2.113l-3.418-.234A2.118,2.118,0,0,1,432.83,104.4Z" transform="translate(-360.366 -87.857)" fill="#f7f493"/>
      <path id="Trazado_1085404" data-name="Trazado 1085404" d="M410.7,12.863l-.158-.273a2.118,2.118,0,0,1,.652-2.817l2.842-1.912a2.118,2.118,0,0,1,3.017.7l.392.68a2.118,2.118,0,0,1-.9,2.962l-3.077,1.506A2.118,2.118,0,0,1,410.7,12.863Z" transform="translate(-340.869 -6.477)" fill="#f7f493"/>
      <path id="Trazado_1085405" data-name="Trazado 1085405" d="M122.2,213.147c0-1.508-.739-2.735-1.648-2.735s-1.648,1.227-1.648,2.735.739,2.735,1.648,2.735S122.2,214.655,122.2,213.147Z" transform="translate(-89.262 -181.713)"/>
      <path id="Trazado_1085406" data-name="Trazado 1085406" d="M242.2,213.147c0-1.508-.739-2.735-1.648-2.735s-1.648,1.227-1.648,2.735.739,2.735,1.648,2.735S242.2,214.655,242.2,213.147Z" transform="translate(-192.889 -181.713)"/>
      <path id="Trazado_1085407" data-name="Trazado 1085407" d="M176.331,277.627c0-2.289-1.182-4.014-2.749-4.014s-2.748,1.726-2.748,4.014,1.182,4.014,2.748,4.014S176.331,279.916,176.331,277.627Zm-3.451,0c0-1.283.54-1.944.7-1.969.164.024.7.685.7,1.969s-.54,1.944-.7,1.969C173.42,279.572,172.88,278.911,172.88,277.627Z" transform="translate(-134.105 -236.294)"/>
      <path id="Trazado_1085408" data-name="Trazado 1085408" d="M66.088,4.991V1.023A1.023,1.023,0,0,0,65.065,0H40.452A9.282,9.282,0,0,0,31.8,5.942a5.44,5.44,0,0,0-1.074-.107h-5.4a7.107,7.107,0,0,0-7.1,7.1v8.228A4.058,4.058,0,0,0,21,25v5.536a3.914,3.914,0,0,0-1.259-.356,3.624,3.624,0,0,0-4.037,2.875,6.48,6.48,0,0,0,5.8,7.886,13.637,13.637,0,0,0,1.594,3.6,1.023,1.023,0,1,0,1.732-1.09,11.643,11.643,0,0,1-1.785-6.211V25.213h3.029a10.1,10.1,0,0,0,8.035-3.994,9.232,9.232,0,0,0,6.338,2.515h8.41a17.262,17.262,0,0,0,4.234-.528,2.351,2.351,0,0,1,.092.646s0,0,0,0v2.058a3.243,3.243,0,0,0,2.719,3.2v8.139a11.711,11.711,0,0,1-11.7,11.7H34.747a11.711,11.711,0,0,1-7.486-2.709,1.023,1.023,0,1,0-1.31,1.571,13.76,13.76,0,0,0,8.327,3.173v1.046c-1.212.345-2.405.735-3.556,1.166a35.594,35.594,0,0,0-5.807,2.754,4.813,4.813,0,0,0-2.284,3.413c-.333,2.194-.8,5.6-1.154,9.355a1.023,1.023,0,0,0,1.018,1.118H56.463a1.023,1.023,0,0,0,1.018-1.118c-.351-3.758-.822-7.162-1.155-9.356a4.812,4.812,0,0,0-2.284-3.412,35.591,35.591,0,0,0-5.806-2.754c-1.152-.432-2.346-.821-3.558-1.167V50.984a13.77,13.77,0,0,0,12.77-10.039,6.48,6.48,0,0,0,5.8-7.886,3.625,3.625,0,0,0-4.037-2.875,3.916,3.916,0,0,0-1.257.355V29.153h1.714a3.242,3.242,0,0,0,3.238-3.238V23.857h0a2.316,2.316,0,0,1,1.251-2.065,6.34,6.34,0,0,0,2.91-2.993,1.023,1.023,0,1,0-1.856-.861,4.288,4.288,0,0,1-1.969,2.024,4.293,4.293,0,0,0-2.262,2.873H55.114a4.294,4.294,0,0,0-2.263-2.873,4.283,4.283,0,0,1-2.362-3.629A73.688,73.688,0,0,1,50.53,8.6a3.477,3.477,0,0,1,3.278-3.268,73.994,73.994,0,0,1,8.478,0A3.477,3.477,0,0,1,65.564,8.6c.11,1.907.146,3.829.106,5.713a1.023,1.023,0,0,0,2.046.043c.041-1.938,0-3.914-.109-5.874a5.5,5.5,0,0,0-1.519-3.492ZM38.437,64.85h2.08a16.854,16.854,0,0,1,.758,2.938h-3.6A16.879,16.879,0,0,1,38.437,64.85ZM40.728,62.8h-2.5L36.7,61l2.778-2.67L42.255,61Zm-3.335-5.312L34.4,60.367l-2.016-5.6q1.021-.356,2.075-.666a5.223,5.223,0,0,0,2.931,3.391Zm4.17,0A5.222,5.222,0,0,0,44.493,54.1q1.051.31,2.075.666l-2.016,5.6Zm1.07-4.763a3.158,3.158,0,0,1-3.153,3.155h0a3.158,3.158,0,0,1-3.153-3.155V50.993h6.309Zm-17.98,6.939A2.772,2.772,0,0,1,25.965,57.7a32.47,32.47,0,0,1,4.507-2.215l2.541,7.057a1.023,1.023,0,0,0,1.672.391l.538-.517,1.346,1.593a19.339,19.339,0,0,0-.963,3.777H23.621c.331-3.262.736-6.173,1.031-8.119Zm29.652,0c.3,1.947.7,4.859,1.031,8.121H43.351a19.317,19.317,0,0,0-.964-3.777l1.346-1.594.538.517a1.023,1.023,0,0,0,1.672-.391l2.541-7.057A32.473,32.473,0,0,1,52.99,57.7,2.772,2.772,0,0,1,54.3,59.668ZM17.6,34.491a4.462,4.462,0,0,1,.109-.981,1.669,1.669,0,0,1,3.3.315,2.906,2.906,0,0,0-2.191,0,1.023,1.023,0,1,0,.765,1.9.986.986,0,0,1,1,.185,2.672,2.672,0,0,1,.427.371v.975a13.813,13.813,0,0,0,.091,1.573,4.438,4.438,0,0,1-3.5-4.331Zm8.484-11.324h-3.8a2.009,2.009,0,0,1-2.007-2.006V12.934a5.058,5.058,0,0,1,5.053-5.053h5.4a3.413,3.413,0,0,1,.553.045,9.3,9.3,0,0,0-.1,1.342v5.2a9.214,9.214,0,0,0,1.564,5.145A8.049,8.049,0,0,1,26.079,23.167Zm33.358,9.051a1.6,1.6,0,0,1,1.814,1.292,4.436,4.436,0,0,1-3.389,5.312,13.827,13.827,0,0,0,.091-1.572v-.977a2.669,2.669,0,0,1,.426-.369.986.986,0,0,1,1-.185,1.023,1.023,0,0,0,.765-1.9,2.905,2.905,0,0,0-2.191,0A1.594,1.594,0,0,1,59.437,32.218Zm1.423-6.3a1.194,1.194,0,0,1-1.192,1.193h-3.24a1.194,1.194,0,0,1-1.193-1.193V24.879H60.86ZM53.691,3.289a5.523,5.523,0,0,0-5.2,5.193,75.765,75.765,0,0,0-.041,7.946,6.329,6.329,0,0,0,2.941,5.049,15.273,15.273,0,0,1-2.525.212h-8.41a7.23,7.23,0,0,1-7.222-7.222v-5.2a7.23,7.23,0,0,1,7.222-7.222h23.59V3.637A5.537,5.537,0,0,0,62.4,3.289a76.069,76.069,0,0,0-8.713,0Z" transform="translate(0)"/>
      <path id="Trazado_1085409" data-name="Trazado 1085409" d="M410.528,180.033l-3.077-1.506a3.151,3.151,0,0,0-4.1,1.251l-.158.273a3.151,3.151,0,0,0,.967,4.177L407,186.14a3.141,3.141,0,0,0,4.474-1.036l.392-.68a3.142,3.142,0,0,0-1.339-4.392ZM410.1,183.4l-.392.68a1.1,1.1,0,0,1-1.56.361l-2.842-1.912a1.1,1.1,0,0,1-.337-1.457l.158-.273a1.1,1.1,0,0,1,.952-.547,1.088,1.088,0,0,1,.478.111l3.077,1.506a1.1,1.1,0,0,1,.467,1.532Z" transform="translate(-334.409 -153.902)"/>
      <path id="Trazado_1085410" data-name="Trazado 1085410" d="M434.034,95.079a3.152,3.152,0,0,0-2.359-.838l-3.418.234a3.151,3.151,0,0,0-2.926,3.134v.316a3.151,3.151,0,0,0,2.926,3.134l3.418.234q.107.007.213.007a3.141,3.141,0,0,0,3.143-3.141v-.785A3.153,3.153,0,0,0,434.034,95.079Zm-1.048,3.081a1.1,1.1,0,0,1-1.17,1.093l-3.418-.234a1.1,1.1,0,0,1-1.02-1.093v-.316a1.1,1.1,0,0,1,1.02-1.093l3.418-.234.077,0a1.1,1.1,0,0,1,1.093,1.1Z" transform="translate(-353.89 -81.381)"/>
      <path id="Trazado_1085411" data-name="Trazado 1085411" d="M403.35,6.9a3.15,3.15,0,0,0,2.729,1.569,3.114,3.114,0,0,0,1.372-.318l3.077-1.506a3.141,3.141,0,0,0,1.34-4.392l-.392-.68A3.141,3.141,0,0,0,407,.54l-2.843,1.912a3.151,3.151,0,0,0-.967,4.177ZM405.3,4.15l2.843-1.912a1.1,1.1,0,0,1,1.56.361l.392.679a1.1,1.1,0,0,1-.467,1.532l-3.077,1.506a1.1,1.1,0,0,1-1.43-.436l-.158-.273A1.1,1.1,0,0,1,405.3,4.15Z" transform="translate(-334.409 -0.005)"/>
    </g>
  </g>
</svg>
