<svg xmlns="http://www.w3.org/2000/svg" xmlns:xlink="http://www.w3.org/1999/xlink" width="110" height="110" viewBox="0 0 110 110">
  <defs>
    <filter id="Trazado_982547" x="0" y="0" width="110" height="110" filterUnits="userSpaceOnUse">
      <feOffset dy="3" input="SourceAlpha"/>
      <feGaussianBlur stdDeviation="3" result="blur"/>
      <feFlood flood-opacity="0.161"/>
      <feComposite operator="in" in2="blur"/>
      <feComposite in="SourceGraphic"/>
    </filter>
  </defs>
  <g id="Grupo_1212257" data-name="Grupo 1212257" transform="translate(-377 -1903.28)">
    <g id="Grupo_1210976" data-name="Grupo 1210976" transform="translate(0 -4170)">
      <g id="Grupo_1200150" data-name="Grupo 1200150" transform="translate(386 6079.28)">
        <g id="Grupo_1185951" data-name="Grupo 1185951" transform="translate(0 0)">
          <g id="Grupo_1184083" data-name="Grupo 1184083" transform="translate(0 0)">
            <g id="Grupo_1183743" data-name="Grupo 1183743" transform="translate(0 0)">
              <g id="Grupo_1181545" data-name="Grupo 1181545">
                <g id="Grupo_1177562" data-name="Grupo 1177562">
                  <g id="Grupo_1173147" data-name="Grupo 1173147" transform="translate(0 0)">
                    <g id="Grupo_1163801" data-name="Grupo 1163801" transform="translate(0 0)">
                      <g id="Grupo_1163014" data-name="Grupo 1163014" transform="translate(0 0)">
                        <g id="Grupo_1157015" data-name="Grupo 1157015" transform="translate(0 0)">
                          <g id="Grupo_1155792" data-name="Grupo 1155792" transform="translate(0 0)">
                            <g id="Grupo_1154703" data-name="Grupo 1154703" transform="translate(0 0)">
                              <g id="Grupo_1150789" data-name="Grupo 1150789">
                                <g id="Grupo_1154212" data-name="Grupo 1154212">
                                  <g id="Grupo_1152583" data-name="Grupo 1152583">
                                    <g id="Grupo_1146973" data-name="Grupo 1146973">
                                      <g id="Grupo_1146954" data-name="Grupo 1146954">
                                        <g transform="matrix(1, 0, 0, 1, -9, -6)" filter="url(#Trazado_982547)">
                                          <g id="Trazado_982547-2" data-name="Trazado 982547" transform="translate(9 6)" fill="#fdecc1">
                                            <path d="M 46.00000762939453 90.49988555908203 C 39.99188613891602 90.49988555908203 34.16427612304688 89.32352447509766 28.67906188964844 87.00347137451172 C 23.38020706176758 84.76226043701172 18.62104797363281 81.55342864990234 14.53375434875488 77.46615600585938 C 10.44647407531738 73.37887573242188 7.237647533416748 68.61971282958984 4.996420860290527 63.32085800170898 C 2.676367521286011 57.83565902709961 1.500007629394531 52.00806045532227 1.500007629394531 45.99993896484375 C 1.500007629394531 39.99181747436523 2.676367521286011 34.16421890258789 4.996420860290527 28.67901802062988 C 7.237647533416748 23.38017845153809 10.44647407531738 18.62101936340332 14.53375434875488 14.53373908996582 C 18.62104797363281 10.44645881652832 23.38020706176758 7.237632274627686 28.67906188964844 4.996418952941895 C 34.16427612304688 2.676365613937378 39.99188613891602 1.500005602836609 46.00000762939453 1.500005602836609 C 52.00812911987305 1.500005602836609 57.83573913574219 2.676365613937378 63.32095336914062 4.996418952941895 C 68.61980438232422 7.237632274627686 73.37896728515625 10.44645881652832 77.46626281738281 14.53373908996582 C 81.55354309082031 18.62101936340332 84.76236724853516 23.38017845153809 87.00359344482422 28.67901802062988 C 89.32364654541016 34.16421890258789 90.50000762939453 39.99181747436523 90.50000762939453 45.99993896484375 C 90.50000762939453 52.00806045532227 89.32364654541016 57.83565902709961 87.00359344482422 63.32085800170898 C 84.76236724853516 68.61971282958984 81.55354309082031 73.37887573242188 77.46626281738281 77.46615600585938 C 73.37896728515625 81.55342864990234 68.61980438232422 84.76226043701172 63.32095336914062 87.00347137451172 C 57.83573913574219 89.32352447509766 52.00812911987305 90.49988555908203 46.00000762939453 90.49988555908203 Z" stroke="none"/>
                                            <path d="M 46.00000762939453 2.999992370605469 C 40.19372177124023 2.999992370605469 34.56270599365234 4.136497497558594 29.26339340209961 6.377906799316406 C 24.14333343505859 8.543510437011719 19.54441833496094 11.64437866210938 15.59440612792969 15.59439849853516 C 11.6444091796875 19.54439544677734 8.543525695800781 24.14329528808594 6.377922058105469 29.26335144042969 C 4.136505126953125 34.56266784667969 3.000007629394531 40.19366836547852 3.000007629394531 45.99993896484375 C 3.000007629394531 51.80620956420898 4.136505126953125 57.43722534179688 6.377922058105469 62.73654174804688 C 8.543525695800781 67.85658264160156 11.6444091796875 72.45548248291016 15.59440612792969 76.40549468994141 C 19.54441833496094 80.35549926757812 24.14333343505859 83.45636749267578 29.26337814331055 85.62196350097656 C 34.56270599365234 87.86338043212891 40.19372177124023 88.9998779296875 46.00000762939453 88.9998779296875 C 51.80629348754883 88.9998779296875 57.43730926513672 87.86338043212891 62.73662185668945 85.62196350097656 C 67.85668182373047 83.45636749267578 72.45558166503906 80.35549926757812 76.40559387207031 76.40549468994141 C 80.35560607910156 72.45548248291016 83.45648193359375 67.85658264160156 85.62207794189453 62.73654174804688 C 87.86351013183594 57.43722534179688 89.00000762939453 51.80620956420898 89.00000762939453 45.99993896484375 C 89.00000762939453 40.19366836547852 87.86351013183594 34.56266784667969 85.62207794189453 29.26335144042969 C 83.45648193359375 24.14329528808594 80.35560607910156 19.54439544677734 76.40559387207031 15.59439849853516 C 72.45558166503906 11.64437866210938 67.85668182373047 8.543510437011719 62.73662185668945 6.377906799316406 C 57.43729400634766 4.136497497558594 51.80629348754883 2.999992370605469 46.00000762939453 2.999992370605469 M 46.00000762939453 -7.62939453125e-06 C 71.40509033203125 -7.62939453125e-06 92.00000762939453 20.59487915039062 92.00000762939453 45.99993896484375 C 92.00000762939453 71.40501403808594 71.40509033203125 91.99988555908203 46.00000762939453 91.99988555908203 C 20.59490966796875 91.99988555908203 7.62939453125e-06 71.40501403808594 7.62939453125e-06 45.99993896484375 C 7.62939453125e-06 20.59487915039062 20.59490966796875 -7.62939453125e-06 46.00000762939453 -7.62939453125e-06 Z" stroke="none" fill="#f8c234"/>
                                          </g>
                                        </g>
                                      </g>
                                    </g>
                                  </g>
                                </g>
                              </g>
                            </g>
                          </g>
                        </g>
                      </g>
                    </g>
                  </g>
                </g>
              </g>
            </g>
          </g>
        </g>
      </g>
    </g>
    <g id="conferencia-en-linea" transform="translate(401.297 1915.696)">
      <g id="Grupo_1212255" data-name="Grupo 1212255" transform="translate(1.199 14.699)">
        <path id="Trazado_1084599" data-name="Trazado 1084599" d="M10,61.159H69.007V28.3a4.8,4.8,0,0,0-4.8-4.8H14.8A4.8,4.8,0,0,0,10,28.3Z" transform="translate(-10 -23.5)" fill="#dfedff"/>
        <path id="Trazado_1084600" data-name="Trazado 1084600" d="M69.007,337.5v.72a4.8,4.8,0,0,1-4.8,4.8H14.8a4.8,4.8,0,0,1-4.8-4.8v-.72Z" transform="translate(-10 -299.841)" fill="#faf7f5"/>
        <path id="Trazado_1084601" data-name="Trazado 1084601" d="M167.588,390.1h-3v-6.6H153.8v6.6h-3a4.8,4.8,0,0,0-4.8,4.8v1.2h26.385v-1.2A4.8,4.8,0,0,0,167.588,390.1Z" transform="translate(-129.689 -340.324)" fill="#faf7f5"/>
        <path id="Trazado_1084602" data-name="Trazado 1084602" d="M91.193,131.4v1.139H78V131.4a5.4,5.4,0,0,1,5.4-5.4h2.4A5.4,5.4,0,0,1,91.193,131.4Z" transform="translate(-69.845 -113.707)" fill="#a0c8ff"/>
        <circle id="Elipse_12602" data-name="Elipse 12602" cx="3.598" cy="3.598" r="3.598" transform="translate(11.154 5.097)" fill="#ffd0c7"/>
        <path id="Trazado_1084603" data-name="Trazado 1084603" d="M337.193,131.4v1.139H324V131.4a5.4,5.4,0,0,1,5.4-5.4h2.4A5.4,5.4,0,0,1,337.193,131.4Z" transform="translate(-286.341 -113.707)" fill="#ff9c9b"/>
        <circle id="Elipse_12603" data-name="Elipse 12603" cx="3.598" cy="3.598" r="3.598" transform="translate(40.657 5.097)" fill="#ffd0c7"/>
        <path id="Trazado_1084604" data-name="Trazado 1084604" d="M91.193,288.4v1.139H78V288.4a5.4,5.4,0,0,1,5.4-5.4h2.4A5.4,5.4,0,0,1,91.193,288.4Z" transform="translate(-69.845 -251.878)" fill="#9de3d1"/>
        <circle id="Elipse_12604" data-name="Elipse 12604" cx="3.598" cy="3.598" r="3.598" transform="translate(11.154 23.926)" fill="#ffd0c7"/>
      </g>
      <g id="Grupo_1212256" data-name="Grupo 1212256" transform="translate(0 13.5)">
        <path id="Trazado_1084605" data-name="Trazado 1084605" d="M60.934,17.163a6.063,6.063,0,0,0-3.191-3.191,5.972,5.972,0,0,0-2.334-.471H36.083a1.2,1.2,0,0,0,0,2.4H55.409a3.612,3.612,0,0,1,3.6,3.6V32.329H53.248a6.605,6.605,0,0,0-4-6,4.8,4.8,0,1,0-7.587,0,6.605,6.605,0,0,0-4,6H31.9V19.5a1.2,1.2,0,1,0-2.4,0V32.329H23.745a6.605,6.605,0,0,0-4-6,4.8,4.8,0,1,0-7.587,0,6.605,6.605,0,0,0-4,6H2.4V19.5A3.612,3.612,0,0,1,6,15.9H25.289a1.2,1.2,0,1,0,0-2.4H6a5.972,5.972,0,0,0-2.334.471A6.063,6.063,0,0,0,.471,17.163,5.948,5.948,0,0,0,0,19.5V53.078a6,6,0,0,0,6,6h18.11v4.2h-1.8a6,6,0,0,0-6,6v1.2a1.2,1.2,0,0,0,1.2,1.2H43.9a1.2,1.2,0,0,0,1.2-1.2v-1.2a6,6,0,0,0-6-6H37.3v-4.2h18.11a6,6,0,0,0,6-6V19.5A5.948,5.948,0,0,0,60.934,17.163ZM45.454,21a2.4,2.4,0,1,1-2.4,2.4A2.4,2.4,0,0,1,45.454,21Zm-1.2,7.2h2.4a4.2,4.2,0,0,1,4.2,4.138H40.058A4.2,4.2,0,0,1,44.255,28.192Zm14.752,6.536V51.159H31.9V34.728ZM15.951,21a2.4,2.4,0,1,1-2.4,2.4A2.4,2.4,0,0,1,15.951,21Zm-1.2,7.2h2.4a4.2,4.2,0,0,1,4.2,4.138H10.554A4.2,4.2,0,0,1,14.752,28.192ZM29.5,34.728V51.159H23.745a6.605,6.605,0,0,0-4-6,4.8,4.8,0,1,0-7.587,0,6.605,6.605,0,0,0-4,6H2.4V34.728ZM15.951,44.622a2.4,2.4,0,1,1,2.4-2.4A2.4,2.4,0,0,1,15.951,44.622Zm-1.2,2.4h2.4a4.2,4.2,0,0,1,4.2,4.138H10.554A4.2,4.2,0,0,1,14.752,47.021ZM34.9,63.272h-.24a1.2,1.2,0,0,0,0,2.4H39.1a3.6,3.6,0,0,1,3.6,3.6H18.709a3.6,3.6,0,0,1,3.6-3.6h7.556a1.2,1.2,0,0,0,0-2.4H26.5v-4.2h8.4Zm20.508-6.6H6a3.6,3.6,0,0,1-3.566-3.118H58.975A3.6,3.6,0,0,1,55.409,56.675Z" transform="translate(0 -13.5)"/>
        <circle id="Elipse_12605" data-name="Elipse 12605" cx="1.199" cy="1.199" r="1.199" transform="translate(29.486)"/>
        <path id="Trazado_1084606" data-name="Trazado 1084606" d="M392,270.2a1.2,1.2,0,0,0,1.2,1.2h7.2a1.2,1.2,0,0,0,0-2.4h-7.2A1.2,1.2,0,0,0,392,270.2Z" transform="translate(-344.987 -238.357)"/>
        <path id="Trazado_1084607" data-name="Trazado 1084607" d="M287.2,271.4h7.316a1.2,1.2,0,1,0,0-2.4H287.2a1.2,1.2,0,0,0,0,2.4Z" transform="translate(-251.699 -238.357)"/>
        <path id="Trazado_1084608" data-name="Trazado 1084608" d="M325.2,231.4h10.794a1.2,1.2,0,0,0,0-2.4H325.2a1.2,1.2,0,0,0,0,2.4Z" transform="translate(-285.142 -203.155)"/>
      </g>
    </g>
  </g>
</svg>
