<svg xmlns="http://www.w3.org/2000/svg" xmlns:xlink="http://www.w3.org/1999/xlink" width="110" height="110" viewBox="0 0 110 110">
  <defs>
    <filter id="Trazado_982547" x="0" y="0" width="110" height="110" filterUnits="userSpaceOnUse">
      <feOffset dy="3" input="SourceAlpha"/>
      <feGaussianBlur stdDeviation="3" result="blur"/>
      <feFlood flood-opacity="0.161"/>
      <feComposite operator="in" in2="blur"/>
      <feComposite in="SourceGraphic"/>
    </filter>
  </defs>
  <g id="Grupo_1212278" data-name="Grupo 1212278" transform="translate(-692 -1904.28)">
    <g id="Grupo_1211001" data-name="Grupo 1211001" transform="translate(0 -4170)">
      <g id="Grupo_1200151" data-name="Grupo 1200151" transform="translate(701 6080.28)">
        <g id="Grupo_1185952" data-name="Grupo 1185952" transform="translate(0 0)">
          <g id="Grupo_1184115" data-name="Grupo 1184115">
            <g id="Grupo_1183744" data-name="Grupo 1183744" transform="translate(0 0)">
              <g id="Grupo_1181546" data-name="Grupo 1181546">
                <g id="Grupo_1177563" data-name="Grupo 1177563">
                  <g id="Grupo_1173148" data-name="Grupo 1173148" transform="translate(0 0)">
                    <g id="Grupo_1163803" data-name="Grupo 1163803" transform="translate(0 0)">
                      <g id="Grupo_1163015" data-name="Grupo 1163015" transform="translate(0 0)">
                        <g id="Grupo_1157017" data-name="Grupo 1157017" transform="translate(0 0)">
                          <g id="Grupo_1155793" data-name="Grupo 1155793" transform="translate(0 0)">
                            <g id="Grupo_1154704" data-name="Grupo 1154704" transform="translate(0 0)">
                              <g id="Grupo_1150790" data-name="Grupo 1150790">
                                <g id="Grupo_1154214" data-name="Grupo 1154214">
                                  <g id="Grupo_1152583" data-name="Grupo 1152583">
                                    <g id="Grupo_1146973" data-name="Grupo 1146973">
                                      <g id="Grupo_1146954" data-name="Grupo 1146954">
                                        <g transform="matrix(1, 0, 0, 1, -9, -6)" filter="url(#Trazado_982547)">
                                          <g id="Trazado_982547-2" data-name="Trazado 982547" transform="translate(9 6)" fill="#fdecc1">
                                            <path d="M 46.00000762939453 90.49988555908203 C 39.99188613891602 90.49988555908203 34.16427612304688 89.32352447509766 28.67906188964844 87.00347137451172 C 23.38020706176758 84.76226043701172 18.62104797363281 81.55342864990234 14.53375434875488 77.46615600585938 C 10.44647407531738 73.37887573242188 7.237647533416748 68.61971282958984 4.996420860290527 63.32085800170898 C 2.676367521286011 57.83565902709961 1.500007629394531 52.00806045532227 1.500007629394531 45.99993896484375 C 1.500007629394531 39.99181747436523 2.676367521286011 34.16421890258789 4.996420860290527 28.67901802062988 C 7.237647533416748 23.38017845153809 10.44647407531738 18.62101936340332 14.53375434875488 14.53373908996582 C 18.62104797363281 10.44645881652832 23.38020706176758 7.237632274627686 28.67906188964844 4.996418952941895 C 34.16427612304688 2.676365613937378 39.99188613891602 1.500005602836609 46.00000762939453 1.500005602836609 C 52.00812911987305 1.500005602836609 57.83573913574219 2.676365613937378 63.32095336914062 4.996418952941895 C 68.61980438232422 7.237632274627686 73.37896728515625 10.44645881652832 77.46626281738281 14.53373908996582 C 81.55354309082031 18.62101936340332 84.76236724853516 23.38017845153809 87.00359344482422 28.67901802062988 C 89.32364654541016 34.16421890258789 90.50000762939453 39.99181747436523 90.50000762939453 45.99993896484375 C 90.50000762939453 52.00806045532227 89.32364654541016 57.83565902709961 87.00359344482422 63.32085800170898 C 84.76236724853516 68.61971282958984 81.55354309082031 73.37887573242188 77.46626281738281 77.46615600585938 C 73.37896728515625 81.55342864990234 68.61980438232422 84.76226043701172 63.32095336914062 87.00347137451172 C 57.83573913574219 89.32352447509766 52.00812911987305 90.49988555908203 46.00000762939453 90.49988555908203 Z" stroke="none"/>
                                            <path d="M 46.00000762939453 2.999992370605469 C 40.19372177124023 2.999992370605469 34.56270599365234 4.136497497558594 29.26339340209961 6.377906799316406 C 24.14333343505859 8.543510437011719 19.54441833496094 11.64437866210938 15.59440612792969 15.59439849853516 C 11.6444091796875 19.54439544677734 8.543525695800781 24.14329528808594 6.377922058105469 29.26335144042969 C 4.136505126953125 34.56266784667969 3.000007629394531 40.19366836547852 3.000007629394531 45.99993896484375 C 3.000007629394531 51.80620956420898 4.136505126953125 57.43722534179688 6.377922058105469 62.73654174804688 C 8.543525695800781 67.85658264160156 11.6444091796875 72.45548248291016 15.59440612792969 76.40549468994141 C 19.54441833496094 80.35549926757812 24.14333343505859 83.45636749267578 29.26337814331055 85.62196350097656 C 34.56270599365234 87.86338043212891 40.19372177124023 88.9998779296875 46.00000762939453 88.9998779296875 C 51.80629348754883 88.9998779296875 57.43730926513672 87.86338043212891 62.73662185668945 85.62196350097656 C 67.85668182373047 83.45636749267578 72.45558166503906 80.35549926757812 76.40559387207031 76.40549468994141 C 80.35560607910156 72.45548248291016 83.45648193359375 67.85658264160156 85.62207794189453 62.73654174804688 C 87.86351013183594 57.43722534179688 89.00000762939453 51.80620956420898 89.00000762939453 45.99993896484375 C 89.00000762939453 40.19366836547852 87.86351013183594 34.56266784667969 85.62207794189453 29.26335144042969 C 83.45648193359375 24.14329528808594 80.35560607910156 19.54439544677734 76.40559387207031 15.59439849853516 C 72.45558166503906 11.64437866210938 67.85668182373047 8.543510437011719 62.73662185668945 6.377906799316406 C 57.43729400634766 4.136497497558594 51.80629348754883 2.999992370605469 46.00000762939453 2.999992370605469 M 46.00000762939453 -7.62939453125e-06 C 71.40509033203125 -7.62939453125e-06 92.00000762939453 20.59487915039062 92.00000762939453 45.99993896484375 C 92.00000762939453 71.40501403808594 71.40509033203125 91.99988555908203 46.00000762939453 91.99988555908203 C 20.59490966796875 91.99988555908203 7.62939453125e-06 71.40501403808594 7.62939453125e-06 45.99993896484375 C 7.62939453125e-06 20.59487915039062 20.59490966796875 -7.62939453125e-06 46.00000762939453 -7.62939453125e-06 Z" stroke="none" fill="#f8c234"/>
                                          </g>
                                        </g>
                                      </g>
                                    </g>
                                  </g>
                                </g>
                              </g>
                            </g>
                          </g>
                        </g>
                      </g>
                    </g>
                  </g>
                </g>
              </g>
            </g>
          </g>
        </g>
      </g>
    </g>
    <g id="leccion-en-linea" transform="translate(716.138 1884.059)">
      <g id="Grupo_1212258" data-name="Grupo 1212258" transform="translate(0.89 54.019)">
        <path id="Trazado_1084609" data-name="Trazado 1084609" d="M477.141,102.523H474.8v6.406h3.522v-5.22A1.186,1.186,0,0,0,477.141,102.523Z" transform="translate(-419.382 -102.523)" fill="#0593fc"/>
        <path id="Trazado_1084610" data-name="Trazado 1084610" d="M38.085,102.523H8.686A1.186,1.186,0,0,0,7.5,103.709v5.22H38.085Z" transform="translate(-7.5 -102.523)" fill="#0593fc"/>
      </g>
      <path id="Trazado_1084611" data-name="Trazado 1084611" d="M13.252,103.709a1.186,1.186,0,0,1,1.186-1.186H8.686A1.186,1.186,0,0,0,7.5,103.709v5.22h5.752Z" transform="translate(-6.61 -48.504)" fill="#0182fc"/>
      <g id="Grupo_1212259" data-name="Grupo 1212259" transform="translate(0.89 60.425)">
        <path id="Trazado_1084612" data-name="Trazado 1084612" d="M65.852,192.173H8.093a.593.593,0,0,1-.593-.593V156.537H66.445V191.58A.593.593,0,0,1,65.852,192.173Z" transform="translate(-7.5 -156.537)" fill="#eaf6ff"/>
      </g>
      <g id="Grupo_1212260" data-name="Grupo 1212260" transform="translate(0.89 60.425)">
        <path id="Trazado_1084613" data-name="Trazado 1084613" d="M13.252,191.58V156.537H7.5V191.58a.593.593,0,0,0,.593.593h5.752A.593.593,0,0,1,13.252,191.58Z" transform="translate(-7.5 -156.537)" fill="#d8ecfe"/>
      </g>
      <g id="Grupo_1212261" data-name="Grupo 1212261" transform="translate(31.474 50.132)">
        <path id="Trazado_1084614" data-name="Trazado 1084614" d="M289.86,69.753H265.733a.356.356,0,0,0-.356.356V85.34a.356.356,0,0,0,.356.356h2.812a.356.356,0,0,1,.356.356V89a.356.356,0,0,0,.607.252l3.447-3.447a.356.356,0,0,1,.252-.1H289.86a.356.356,0,0,0,.356-.356V70.109A.356.356,0,0,0,289.86,69.753Z" transform="translate(-265.377 -69.753)" fill="#97d729"/>
      </g>
      <g id="Grupo_1212262" data-name="Grupo 1212262" transform="translate(31.474 50.132)">
        <path id="Trazado_1084615" data-name="Trazado 1084615" d="M270.788,85.34V70.109a.356.356,0,0,1,.356-.356h-5.411a.356.356,0,0,0-.356.356V85.34a.356.356,0,0,0,.356.356h2.812a.356.356,0,0,1,.356.356V89a.356.356,0,0,0,.607.252l3.447-3.447a.356.356,0,0,1,.252-.1h-2.063a.356.356,0,0,1-.356-.356Z" transform="translate(-265.377 -69.753)" fill="#8bc727"/>
      </g>
      <g id="Grupo_1212266" data-name="Grupo 1212266" transform="translate(4.067 48.382)">
        <path id="Trazado_1084616" data-name="Trazado 1084616" d="M106.15,61.574a8.655,8.655,0,0,1,2.465-.358h2.848a8.656,8.656,0,0,1,2.465.358,3.594,3.594,0,0,0-2-6.581h-3.774a3.594,3.594,0,0,0-2,6.581Z" transform="translate(-96.222 -54.993)" fill="#a44f3e"/>
        <path id="Trazado_1084617" data-name="Trazado 1084617" d="M106.149,61.575a8.655,8.655,0,0,1,2.465-.358h2.121a3.59,3.59,0,0,1,1.82-6.166,3.573,3.573,0,0,0-.63-.057h-3.774a3.594,3.594,0,0,0-2,6.581Z" transform="translate(-96.221 -54.994)" fill="#883f2e"/>
        <path id="Trazado_1084618" data-name="Trazado 1084618" d="M59.163,313.542a1.244,1.244,0,0,1-.133-.114l-2.58-2.58c-.15-.011-.3-.019-.454-.019H40.222a5.93,5.93,0,0,0-5.93,5.93v11.407H58.727V313.542Z" transform="translate(-34.292 -280.486)" fill="#ffd15b"/>
        <path id="Trazado_1084619" data-name="Trazado 1084619" d="M42.492,310.83h-2.27a5.93,5.93,0,0,0-5.93,5.93v11.407h5.065V316.76a5.928,5.928,0,0,1,3.135-5.23Z" transform="translate(-34.292 -280.487)" fill="#fdb441"/>
        <path id="Trazado_1084620" data-name="Trazado 1084620" d="M109.594,293.522h-1.1a6.3,6.3,0,0,1-1.913-.3l-3.157,2.088v6.325a.356.356,0,0,0,.541.3l5.077-3.091,5.077,3.091a.356.356,0,0,0,.541-.3v-6.325l-3.157-2.088a6.306,6.306,0,0,1-1.913.3Z" transform="translate(-95.229 -264.971)" fill="#fff"/>
        <path id="Trazado_1084621" data-name="Trazado 1084621" d="M133.812,293.752h-1.1a6.306,6.306,0,0,1-1.811-.265v3.786l2.359,1.809,2.359-1.809v-3.786A6.307,6.307,0,0,1,133.812,293.752Z" transform="translate(-119.447 -265.201)" fill="#fed2a4"/>
        <path id="Trazado_1084622" data-name="Trazado 1084622" d="M133.434,293.752h-.717a6.306,6.306,0,0,1-1.811-.265v3.786l2.359,1.809,1.887-1.447-1.717-1.317Z" transform="translate(-119.447 -265.201)" fill="#ffbd86"/>
        <path id="Trazado_1084623" data-name="Trazado 1084623" d="M67.24,118.372h1.772v-.437a3.072,3.072,0,0,1,3.072-3.072h7.569a3.072,3.072,0,0,1,3.072,3.072v.437H84.5a2.564,2.564,0,0,1,1.454.45v-2.7a8.658,8.658,0,0,0-8.658-8.658H74.444a8.658,8.658,0,0,0-8.658,8.658v2.7A2.563,2.563,0,0,1,67.24,118.372Z" transform="translate(-62.051 -101.242)" fill="#bb5d4c"/>
        <path id="Trazado_1084624" data-name="Trazado 1084624" d="M67.239,118.372h1.772v-.437a3.072,3.072,0,0,1,2.821-3.061,8.663,8.663,0,0,1,7.013-7.267,8.7,8.7,0,0,0-1.554-.142H74.443a8.658,8.658,0,0,0-8.658,8.658v2.7A2.564,2.564,0,0,1,67.239,118.372Z" transform="translate(-62.05 -101.242)" fill="#a44f3e"/>
        <g id="Grupo_1212263" data-name="Grupo 1212263" transform="translate(2.613 17.13)">
          <path id="Trazado_1084625" data-name="Trazado 1084625" d="M60.673,204.541v-5.112H58.9A2.576,2.576,0,0,0,56.325,202v.846a2.576,2.576,0,0,0,2.576,2.576h1.835A6.36,6.36,0,0,1,60.673,204.541Z" transform="translate(-56.325 -199.429)" fill="#ffe5c2"/>
          <path id="Trazado_1084626" data-name="Trazado 1084626" d="M209.907,199.428h-1.772v5.112a6.356,6.356,0,0,1-.063.885h1.835a2.576,2.576,0,0,0,2.576-2.576V202A2.576,2.576,0,0,0,209.907,199.428Z" transform="translate(-190.075 -199.428)" fill="#ffe5c2"/>
        </g>
        <g id="Grupo_1212264" data-name="Grupo 1212264" transform="translate(6.961 13.621)">
          <path id="Trazado_1084627" data-name="Trazado 1084627" d="M92.983,178.463v-5.549a3.072,3.072,0,0,1,3.072-3.072h7.569a3.072,3.072,0,0,1,3.072,3.072v5.549a6.309,6.309,0,0,1-6.309,6.309h-1.1A6.309,6.309,0,0,1,92.983,178.463Z" transform="translate(-92.983 -169.842)" fill="#ffe5c2"/>
        </g>
        <g id="Grupo_1212265" data-name="Grupo 1212265" transform="translate(6.961 13.621)">
          <path id="Trazado_1084628" data-name="Trazado 1084628" d="M96.944,178.463v-5.549a3.072,3.072,0,0,1,3.072-3.072H96.055a3.072,3.072,0,0,0-3.072,3.072v5.549a6.309,6.309,0,0,0,6.309,6.309h1.1a6.324,6.324,0,0,0,1.433-.165A6.31,6.31,0,0,1,96.944,178.463Z" transform="translate(-92.983 -169.842)" fill="#fed2a4"/>
        </g>
      </g>
      <g id="Grupo_1212269" data-name="Grupo 1212269" transform="translate(25.79 72.945)">
        <path id="Trazado_1084629" data-name="Trazado 1084629" d="M220.6,270.6h6.212v-6.149a2.343,2.343,0,0,0-2.342-2.342h-1.29a2.343,2.343,0,0,0-2.342,2.342v2.783l-1.2-1.2a1.28,1.28,0,1,0-1.811,1.811l2.641,2.641A1.225,1.225,0,0,0,220.6,270.6Z" transform="translate(-217.45 -262.104)" fill="#ffe5c2"/>
        <path id="Trazado_1084630" data-name="Trazado 1084630" d="M220.6,270.613h2.531v-8.489a2.341,2.341,0,0,0-2.295,2.34v2.783l-1.2-1.2a1.28,1.28,0,0,0-1.811,1.811l2.641,2.641A1.243,1.243,0,0,0,220.6,270.613Z" transform="translate(-217.449 -262.122)" fill="#fed2a4"/>
        <g id="Grupo_1212267" data-name="Grupo 1212267" transform="translate(2.713 8.491)">
          <path id="Trazado_1084631" data-name="Trazado 1084631" d="M240.32,333.7H247.4v14.624H240.32Z" transform="translate(-240.32 -333.701)" fill="#ffd15b"/>
        </g>
        <g id="Grupo_1212268" data-name="Grupo 1212268" transform="translate(2.713 8.491)">
          <path id="Trazado_1084632" data-name="Trazado 1084632" d="M240.32,333.7h2.967v14.624H240.32Z" transform="translate(-240.32 -333.701)" fill="#fdb441"/>
        </g>
      </g>
      <g id="Grupo_1212272" data-name="Grupo 1212272" transform="translate(39.398 70.589)">
        <g id="Grupo_1212270" data-name="Grupo 1212270" transform="translate(0 0)">
          <path id="Trazado_1084633" data-name="Trazado 1084633" d="M348.75,250.631h-16.2a.356.356,0,0,1-.356-.356V242.6a.356.356,0,0,1,.356-.356h16.2a.356.356,0,0,1,.356.356v7.68A.356.356,0,0,1,348.75,250.631Z" transform="translate(-332.192 -242.24)" fill="#fd4755"/>
        </g>
        <g id="Grupo_1212271" data-name="Grupo 1212271" transform="translate(0 0)">
          <path id="Trazado_1084634" data-name="Trazado 1084634" d="M336.6,250.276V242.6a.356.356,0,0,1,.356-.356h-4.411a.356.356,0,0,0-.356.356v7.68a.356.356,0,0,0,.356.356h4.411A.356.356,0,0,1,336.6,250.276Z" transform="translate(-332.192 -242.24)" fill="#fb2b3a"/>
        </g>
        <circle id="Elipse_12606" data-name="Elipse 12606" cx="1.699" cy="1.699" r="1.699" transform="translate(2.794 2.497)" fill="#fff"/>
      </g>
      <g id="Grupo_1212276" data-name="Grupo 1212276" transform="translate(39.398 82.657)">
        <g id="Grupo_1212273" data-name="Grupo 1212273" transform="translate(0 0)">
          <path id="Trazado_1084635" data-name="Trazado 1084635" d="M348.75,352.385h-16.2a.356.356,0,0,1-.356-.356v-7.68a.356.356,0,0,1,.356-.356h16.2a.356.356,0,0,1,.356.356v7.68A.356.356,0,0,1,348.75,352.385Z" transform="translate(-332.192 -343.993)" fill="#0593fc"/>
        </g>
        <g id="Grupo_1212274" data-name="Grupo 1212274" transform="translate(0 0)">
          <path id="Trazado_1084636" data-name="Trazado 1084636" d="M336.6,352.029v-7.68a.356.356,0,0,1,.356-.356h-4.411a.356.356,0,0,0-.356.356v7.68a.356.356,0,0,0,.356.356h4.411A.356.356,0,0,1,336.6,352.029Z" transform="translate(-332.192 -343.993)" fill="#0182fc"/>
        </g>
        <g id="Grupo_1212275" data-name="Grupo 1212275" transform="translate(2.794 2.497)">
          <circle id="Elipse_12607" data-name="Elipse 12607" cx="1.699" cy="1.699" r="1.699" fill="#fff"/>
        </g>
      </g>
      <g id="Grupo_1212277" data-name="Grupo 1212277" transform="translate(0 47.492)">
        <path id="Trazado_1084637" data-name="Trazado 1084637" d="M130.553,250.758a1.971,1.971,0,0,1-2.785,0,.89.89,0,1,0-1.258,1.258,3.753,3.753,0,0,0,5.3,0,.89.89,0,1,0-1.258-1.258Z" transform="translate(-111.277 -226.421)"/>
        <path id="Trazado_1084638" data-name="Trazado 1084638" d="M117.229,201.163v-1.7a.89.89,0,1,0-1.779,0v1.7a.89.89,0,1,0,1.779,0Z" transform="translate(-101.757 -180.657)"/>
        <path id="Trazado_1084639" data-name="Trazado 1084639" d="M172.026,198.576a.889.889,0,0,0-.889.89v1.7a.89.89,0,1,0,1.779,0v-1.7A.89.89,0,0,0,172.026,198.576Z" transform="translate(-150.84 -180.657)"/>
        <path id="Trazado_1084640" data-name="Trazado 1084640" d="M136.506,214.572a.889.889,0,0,0,1.33-1.182l-.445-.5.475-.593a.89.89,0,0,0-1.389-1.111l-.943,1.179a.889.889,0,0,0,.03,1.147Z" transform="translate(-119.286 -191.476)"/>
        <path id="Trazado_1084641" data-name="Trazado 1084641" d="M309.612,99.269H292.861a.89.89,0,0,0,0,1.779h16.751a.89.89,0,1,0,0-1.779Z" transform="translate(-257.343 -93.128)"/>
        <path id="Trazado_1084642" data-name="Trazado 1084642" d="M310.5,127.433a.889.889,0,0,0-.89-.889H292.861a.89.89,0,0,0,0,1.779h16.751A.89.89,0,0,0,310.5,127.433Z" transform="translate(-257.343 -117.167)"/>
        <path id="Trazado_1084643" data-name="Trazado 1084643" d="M292.861,153.817a.89.89,0,0,0,0,1.779h10.282a.89.89,0,0,0,0-1.779Z" transform="translate(-257.343 -141.207)"/>
        <path id="Trazado_1084644" data-name="Trazado 1084644" d="M58.648,53.129H57.2V50.488a1.247,1.247,0,0,0-1.245-1.245H52.54a.89.89,0,1,0,0,1.779h2.883V65.185H39.3a1.237,1.237,0,0,0-.881.365l-2.536,2.536V66.431a1.247,1.247,0,0,0-1.245-1.245H32.363V51.022H48.389a.89.89,0,0,0,0-1.779H31.83a1.247,1.247,0,0,0-1.245,1.245v2.641H24.107a4.485,4.485,0,0,0-4.336-5.637H16a4.485,4.485,0,0,0-4.336,5.637H2.076A2.078,2.078,0,0,0,0,55.2V95.468A1.484,1.484,0,0,0,1.483,96.95h51.3a.89.89,0,0,0,0-1.779H36.468V92.621a.89.89,0,0,0-1.779,0v2.551h-5.3V82.326h5.3V88.47a.89.89,0,0,0,1.779,0V81.437a.888.888,0,0,0-.429-.76V75.288a3.236,3.236,0,0,0-3.232-3.232H31.517a3.236,3.236,0,0,0-3.232,3.232v.69A2.167,2.167,0,0,0,24.9,77.835H23.769l-1.6-1.06A7.227,7.227,0,0,0,25.408,72.4h1.1a3.469,3.469,0,0,0,3.465-3.465v-.846a3.456,3.456,0,0,0-1.122-2.55V63.263a9.542,9.542,0,0,0-.2-1.949h1.93v4.4a1.247,1.247,0,0,0,1.245,1.245h2.278v2.41a1.245,1.245,0,0,0,2.126.88l3.291-3.291H55.957A1.247,1.247,0,0,0,57.2,65.719v-4.4h1.743V95.171H56.929a.89.89,0,0,0,0,1.779h2.313a1.484,1.484,0,0,0,1.483-1.483V55.2a2.078,2.078,0,0,0-2.076-2.076ZM16,49.271h3.774a2.7,2.7,0,0,1,1.807,4.719,9.534,9.534,0,0,0-2.27-.275H16.46a9.528,9.528,0,0,0-2.27.275A2.7,2.7,0,0,1,16,49.271ZM1.779,55.2a.3.3,0,0,1,.3-.3h9.771a9.608,9.608,0,0,0-4.175,4.627H1.779ZM9.256,66.4h.882v4.218H9.256A1.688,1.688,0,0,1,7.57,68.933v-.846A1.688,1.688,0,0,1,9.256,66.4ZM3.178,95.171h-1.4V61.314H7.114a9.542,9.542,0,0,0-.2,1.949v2.275a3.456,3.456,0,0,0-1.122,2.55v.846A3.469,3.469,0,0,0,9.256,72.4h1.1A7.227,7.227,0,0,0,13.6,76.775L12,77.835H10a6.827,6.827,0,0,0-6.82,6.82ZM14.984,81.159l1.328,1.019L13.156,84.1V79.2l1.48-.979v2.23a.889.889,0,0,0,.348.706ZM26.794,77.5a.391.391,0,0,1,.553,0l1.2,1.2a.89.89,0,0,0,1.519-.629V75.288a1.455,1.455,0,0,1,1.453-1.453h1.291a1.455,1.455,0,0,1,1.453,1.453v5.259H29.288l-2.494-2.494A.391.391,0,0,1,26.794,77.5Zm-3.037,8.634a1.247,1.247,0,0,0,.635-1.086V79.614h1.448l1.776,1.776c0,.015,0,.03,0,.046V95.171H4.957V84.654A5.046,5.046,0,0,1,10,79.614h1.38v5.436a1.245,1.245,0,0,0,1.893,1.064L17.884,83.3,22.5,86.113a1.247,1.247,0,0,0,1.258.022Zm-7.341-6.12V77.763a7.23,7.23,0,0,0,.922.059h1.1a7.229,7.229,0,0,0,.922-.059v2.252l-1.469,1.127Zm6.2-.812v4.9l-3.156-1.922,1.328-1.019a.889.889,0,0,0,.348-.706v-2.23Zm1.239-8.579a5.425,5.425,0,0,1-5.419,5.419h-1.1a5.425,5.425,0,0,1-5.419-5.419V65.075A2.185,2.185,0,0,1,14.1,62.892h7.569a2.185,2.185,0,0,1,2.183,2.183Zm-2.183-9.51H14.1a3.967,3.967,0,0,0-3.935,3.509H9.256a3.473,3.473,0,0,0-.564.047V63.263a7.778,7.778,0,0,1,7.769-7.769h2.848a7.777,7.777,0,0,1,7.769,7.769v1.406a3.471,3.471,0,0,0-.564-.047H25.6a3.967,3.967,0,0,0-3.935-3.509Zm6.53,7.82a1.688,1.688,0,0,1-1.686,1.686H25.63V66.4h.882A1.688,1.688,0,0,1,28.2,68.088Zm2.386-9.4H28.1a9.607,9.607,0,0,0-4.175-4.627h6.663Zm28.36,0H57.2V54.908h1.446a.3.3,0,0,1,.3.3Z" transform="translate(0 -47.492)"/>
        <path id="Trazado_1084645" data-name="Trazado 1084645" d="M325.937,244.91h16.2a1.247,1.247,0,0,0,1.245-1.245v-7.68a1.247,1.247,0,0,0-1.245-1.245h-16.2a1.247,1.247,0,0,0-1.245,1.245v7.68A1.247,1.247,0,0,0,325.937,244.91Zm.534-8.391h15.135v6.612H326.471Z" transform="translate(-286.183 -212.532)"/>
        <path id="Trazado_1084646" data-name="Trazado 1084646" d="M350.84,255.792a2.588,2.588,0,1,0,2.588,2.588A2.591,2.591,0,0,0,350.84,255.792Zm0,3.4a.809.809,0,1,1,.809-.809A.81.81,0,0,1,350.84,259.19Z" transform="translate(-306.949 -231.087)"/>
        <path id="Trazado_1084647" data-name="Trazado 1084647" d="M405.357,258.882h-5.285a.89.89,0,0,0,0,1.779h5.285a.89.89,0,0,0,0-1.779Z" transform="translate(-351.839 -233.811)"/>
        <path id="Trazado_1084648" data-name="Trazado 1084648" d="M405.357,280.1h-5.285a.889.889,0,0,0,0,1.779h5.285a.889.889,0,1,0,0-1.779Z" transform="translate(-351.839 -252.515)"/>
        <path id="Trazado_1084649" data-name="Trazado 1084649" d="M324.692,345.418a1.247,1.247,0,0,0,1.245,1.245h16.2a1.247,1.247,0,0,0,1.245-1.245v-7.68a1.247,1.247,0,0,0-1.245-1.245h-16.2a1.247,1.247,0,0,0-1.245,1.245Zm1.779-7.146h15.135v6.613H326.471Z" transform="translate(-286.183 -302.217)"/>
        <path id="Trazado_1084650" data-name="Trazado 1084650" d="M350.84,357.546a2.588,2.588,0,1,0,2.588,2.588A2.591,2.591,0,0,0,350.84,357.546Zm0,3.4a.809.809,0,1,1,.809-.809A.81.81,0,0,1,350.84,360.944Z" transform="translate(-306.949 -320.773)"/>
        <path id="Trazado_1084651" data-name="Trazado 1084651" d="M405.357,360.636h-5.285a.889.889,0,0,0,0,1.779h5.285a.889.889,0,0,0,0-1.779Z" transform="translate(-351.839 -323.497)"/>
        <path id="Trazado_1084652" data-name="Trazado 1084652" d="M405.357,381.857h-5.285a.889.889,0,0,0,0,1.779h5.285a.889.889,0,1,0,0-1.779Z" transform="translate(-351.839 -342.201)"/>
      </g>
    </g>
  </g>
</svg>
