<svg id="pantalla-tactil" xmlns="http://www.w3.org/2000/svg" width="36.88" height="36.88" viewBox="0 0 36.88 36.88">
  <path id="Trazado_1078986" data-name="Trazado 1078986" d="M33.906,0H2.974A2.978,2.978,0,0,0,0,2.974V24.389a2.978,2.978,0,0,0,2.974,2.974H22.968l.117.352-1.406.938a.6.6,0,0,0-.253.611l.595,2.974a.606.606,0,0,0,.067.179l2.379,4.164a.6.6,0,0,0,.517.3h6.543a.594.594,0,0,0,.516-.3l2.379-4.164a.591.591,0,0,0,.078-.3V28.552a.6.6,0,0,0-.1-.33l-.573-.859h.078a2.978,2.978,0,0,0,2.974-2.974V2.974A2.978,2.978,0,0,0,33.906,0ZM24.389,16.061A1.787,1.787,0,0,0,22.6,17.845v2.379H3.569V3.569H33.311V20.225H26.173V17.845A1.787,1.787,0,0,0,24.389,16.061Zm8.923,15.9-2.13,3.727H25.328l-2.16-3.78-.5-2.489.805-.536.349,1.046,1.129-.376-1.159-3.478V17.845a.595.595,0,1,1,1.19,0v7.138a.595.595,0,0,0,1.09.33l1.013-1.52h.553l1.013,1.52a.6.6,0,0,0,.495.265h.871l1.013,1.52a.6.6,0,0,0,.495.265H32.4l.913,1.37Zm2.379-7.575a1.787,1.787,0,0,1-1.785,1.785H31.845l-1.013-1.52a.6.6,0,0,0-.495-.265h-.871l-1.013-1.52a.6.6,0,0,0-.495-.265h-1.19a.6.6,0,0,0-.495.265l-.1.15v-1.6h7.733a.6.6,0,0,0,.595-.595V2.974a.6.6,0,0,0-.595-.595H2.974a.6.6,0,0,0-.595.595V20.819a.6.6,0,0,0,.595.595H22.6v4.759H2.974A1.787,1.787,0,0,1,1.19,24.389V2.974A1.787,1.787,0,0,1,2.974,1.19H33.906a1.787,1.787,0,0,1,1.785,1.785Zm0,0" transform="translate(0)"/>
  <path id="Trazado_1078987" data-name="Trazado 1078987" d="M225.785,299.569A1.785,1.785,0,1,0,224,297.785,1.787,1.787,0,0,0,225.785,299.569Zm0-2.379a.595.595,0,1,1-.595.595A.6.6,0,0,1,225.785,297.19Zm0,0" transform="translate(-207.344 -273.991)"/>
  <path id="Trazado_1078988" data-name="Trazado 1078988" d="M279.138,156.164a2.97,2.97,0,0,1-.4,1.487l1.029.6a4.164,4.164,0,1,0-7.212,0l1.029-.6a2.975,2.975,0,1,1,5.551-1.487Zm0,0" transform="translate(-251.775 -140.698)"/>
</svg>
