<svg xmlns="http://www.w3.org/2000/svg" width="42.535" height="31.902" viewBox="0 0 42.535 31.902">
  <g id="anuncio" transform="translate(0 0)">
    <path id="Trazado_1084738" data-name="Trazado 1084738" d="M136.656,50.5a1.059,1.059,0,0,0-.86-.725l-2.929-.425-1.31-2.653a1.065,1.065,0,0,0-1.909,0l-1.31,2.653-2.929.425a1.065,1.065,0,0,0-.59,1.816l2.119,2.065-.5,2.916a1.065,1.065,0,0,0,1.545,1.123l2.62-1.377,2.62,1.377a1.065,1.065,0,0,0,1.545-1.123l-.5-2.915,2.119-2.065A1.058,1.058,0,0,0,136.656,50.5Zm-3.327,2.33a1.064,1.064,0,0,0-.306.942l.454,2.648-2.379-1.25a1.066,1.066,0,0,0-.991,0l-2.379,1.25.454-2.648a1.066,1.066,0,0,0-.306-.942l-1.924-1.874,2.659-.387a1.064,1.064,0,0,0,.8-.582l1.19-2.409,1.19,2.409a1.064,1.064,0,0,0,.8.582l2.659.387Zm0,0" transform="translate(-114.153 -42.272)"/>
    <path id="Trazado_1084739" data-name="Trazado 1084739" d="M41.912,11.246a.623.623,0,0,0,.623-.623V8.931a2.121,2.121,0,0,0-2.118-2.118H33.646V2.284A2.287,2.287,0,0,0,31.361,0H2.285A2.287,2.287,0,0,0,0,2.284V3.25a.623.623,0,1,0,1.246,0V2.284A1.039,1.039,0,0,1,2.285,1.246H31.361A1.039,1.039,0,0,1,32.4,2.284V6.812H29.783a2.121,2.121,0,0,0-2.118,2.118v9.346h-1.1a.623.623,0,1,0,0,1.246h1.1v3.738H2.285a1.039,1.039,0,0,1-1.038-1.038v-2.7H23.923a.623.623,0,1,0,0-1.246H1.246V6.009A.623.623,0,0,0,0,6.009V22.223a2.287,2.287,0,0,0,2.285,2.285h9.346v3.738H8.1a.623.623,0,1,0,0,1.246H25.546a.623.623,0,0,0,0-1.246H22.015V24.507h5.649v5.275A2.121,2.121,0,0,0,29.783,31.9H40.417a2.121,2.121,0,0,0,2.118-2.118V13.312a.623.623,0,1,0-1.246,0V27.561H28.911V8.931a.873.873,0,0,1,.872-.872h.706V9.287a1.456,1.456,0,0,0,1.454,1.454h6.314a1.456,1.456,0,0,0,1.454-1.454V8.058h.706a.873.873,0,0,1,.872.872v1.692a.623.623,0,0,0,.623.623Zm-21.143,17H12.877V24.507h7.892Zm20.52.561v.976a.873.873,0,0,1-.872.872H29.783a.873.873,0,0,1-.872-.872v-.976ZM38.465,9.287a.208.208,0,0,1-.208.208H31.943a.208.208,0,0,1-.208-.208v-1.2h6.729Zm0,0"/>
    <path id="Trazado_1084740" data-name="Trazado 1084740" d="M376.65,169.25h4.835a.623.623,0,1,0,0-1.246H376.65a.623.623,0,1,0,0,1.246Zm0,0" transform="translate(-344.788 -154.047)"/>
    <path id="Trazado_1084741" data-name="Trazado 1084741" d="M384.164,196.2h-7.514a.623.623,0,0,0,0,1.246h7.514a.623.623,0,0,0,0-1.246Zm0,0" transform="translate(-344.788 -179.9)"/>
    <path id="Trazado_1084742" data-name="Trazado 1084742" d="M384.164,224.4h-7.514a.623.623,0,0,0,0,1.246h7.514a.623.623,0,0,0,0-1.246Zm0,0" transform="translate(-344.788 -205.753)"/>
    <path id="Trazado_1084743" data-name="Trazado 1084743" d="M384.164,252.594h-7.514a.623.623,0,0,0,0,1.246h7.514a.623.623,0,0,0,0-1.246Zm0,0" transform="translate(-344.788 -231.609)"/>
    <path id="Trazado_1084744" data-name="Trazado 1084744" d="M384.164,280.789h-7.514a.623.623,0,0,0,0,1.246h7.514a.623.623,0,0,0,0-1.246Zm0,0" transform="translate(-344.788 -257.462)"/>
  </g>
</svg>
