<svg xmlns="http://www.w3.org/2000/svg" xmlns:xlink="http://www.w3.org/1999/xlink" width="103" height="103" viewBox="0 0 103 103">
  <defs>
    <filter id="Trazado_978624" x="0" y="0" width="103" height="103" filterUnits="userSpaceOnUse">
      <feOffset dy="3" input="SourceAlpha"/>
      <feGaussianBlur stdDeviation="3" result="blur"/>
      <feFlood flood-opacity="0.161"/>
      <feComposite operator="in" in2="blur"/>
      <feComposite in="SourceGraphic"/>
    </filter>
  </defs>
  <g id="Grupo_1212301" data-name="Grupo 1212301" transform="translate(-164.789 -2285)">
    <g id="Grupo_1211421" data-name="Grupo 1211421" transform="translate(-0.711 -4.5)">
      <g id="Grupo_1208651" data-name="Grupo 1208651" transform="translate(0 1231.5)">
        <g id="Grupo_1178144" data-name="Grupo 1178144" transform="translate(-19.5 -2004)">
          <g id="Grupo_1177896" data-name="Grupo 1177896" transform="translate(14 196)">
            <g id="Grupo_1176881" data-name="Grupo 1176881">
              <g id="Grupo_1175148" data-name="Grupo 1175148" transform="translate(0 1580)">
                <g id="Grupo_1173798" data-name="Grupo 1173798" transform="translate(-3 -3520)">
                  <g id="Grupo_1171925" data-name="Grupo 1171925" transform="translate(-22 -2246)">
                    <g id="Grupo_1164524" data-name="Grupo 1164524" transform="translate(205 7058)">
                      <g id="Grupo_1144123" data-name="Grupo 1144123">
                        <g transform="matrix(1, 0, 0, 1, -9, -6)" filter="url(#Trazado_978624)">
                          <g id="Trazado_978624-2" data-name="Trazado 978624" transform="translate(9 6)" fill="#f8ecfd">
                            <path d="M 42.5 83.5 C 36.96437835693359 83.5 31.59512901306152 82.41617584228516 26.54141235351562 80.27863311767578 C 21.65934181213379 78.21369171142578 17.27447128295898 75.25723266601562 13.50862312316895 71.49137878417969 C 9.742764472961426 67.72553253173828 6.786305904388428 63.34066009521484 4.721364498138428 58.45858764648438 C 2.583823442459106 53.40486907958984 1.5 48.03562164306641 1.5 42.5 C 1.5 36.96437835693359 2.583823442459106 31.59512901306152 4.721364498138428 26.54141235351562 C 6.786305904388428 21.65934181213379 9.742764472961426 17.27447128295898 13.50862312316895 13.50862312316895 C 17.27447128295898 9.742764472961426 21.65934181213379 6.786305904388428 26.54141235351562 4.721364498138428 C 31.59512901306152 2.583823442459106 36.96437835693359 1.5 42.5 1.5 C 48.03562164306641 1.5 53.40486907958984 2.583823442459106 58.45858764648438 4.721364498138428 C 63.34066009521484 6.786305904388428 67.72553253173828 9.742764472961426 71.49137878417969 13.50862312316895 C 75.25723266601562 17.27447128295898 78.21369171142578 21.65934181213379 80.27863311767578 26.54141235351562 C 82.41617584228516 31.59512901306152 83.5 36.96437835693359 83.5 42.5 C 83.5 48.03562164306641 82.41617584228516 53.40486907958984 80.27863311767578 58.45858764648438 C 78.21369171142578 63.34066009521484 75.25723266601562 67.72553253173828 71.49137878417969 71.49137878417969 C 67.72553253173828 75.25723266601562 63.34066009521484 78.21369171142578 58.45858764648438 80.27863311767578 C 53.40486907958984 82.41617584228516 48.03562164306641 83.5 42.5 83.5 Z" stroke="none"/>
                            <path d="M 42.5 3 C 37.16621398925781 3 31.99356079101562 4.043960571289062 27.125732421875 6.102882385253906 C 22.42246627807617 8.092185974121094 18.19785308837891 10.94070434570312 14.56928253173828 14.56928253173828 C 10.94070434570312 18.19785308837891 8.092185974121094 22.42246627807617 6.102882385253906 27.125732421875 C 4.043960571289062 31.99356079101562 3 37.16621398925781 3 42.5 C 3 47.83378601074219 4.043960571289062 53.00643920898438 6.102882385253906 57.87425231933594 C 8.092185974121094 62.57753372192383 10.94070434570312 66.80213165283203 14.56928253173828 70.43071746826172 C 18.19786834716797 74.05929565429688 22.42246627807617 76.90781402587891 27.125732421875 78.89711761474609 C 31.99356079101562 80.95603942871094 37.16621398925781 82 42.5 82 C 47.83378601074219 82 53.00642395019531 80.95603942871094 57.87425231933594 78.89711761474609 C 62.57753372192383 76.90781402587891 66.80213165283203 74.05929565429688 70.43071746826172 70.43071746826172 C 74.05929565429688 66.80213165283203 76.90781402587891 62.57753372192383 78.89711761474609 57.87425231933594 C 80.95603942871094 53.00642395019531 82 47.83378601074219 82 42.5 C 82 37.16621398925781 80.95603942871094 31.99356079101562 78.89711761474609 27.125732421875 C 76.90781402587891 22.42246627807617 74.05929565429688 18.19786834716797 70.43071746826172 14.56928253173828 C 66.80213165283203 10.94070434570312 62.57753372192383 8.092185974121094 57.87425231933594 6.102882385253906 C 53.00643920898438 4.043960571289062 47.83378601074219 3 42.5 3 M 42.5 0 C 65.97209167480469 0 85 19.02789306640625 85 42.5 C 85 65.97209167480469 65.97209167480469 85 42.5 85 C 19.02789306640625 85 0 65.97209167480469 0 42.5 C 0 19.02789306640625 19.02789306640625 0 42.5 0 Z" stroke="none" fill="#c252f0"/>
                          </g>
                        </g>
                      </g>
                    </g>
                  </g>
                </g>
              </g>
            </g>
          </g>
        </g>
      </g>
    </g>
    <g id="asistente-virtual_1_" data-name="asistente-virtual (1)" transform="translate(160.321 2299.965)">
      <g id="Grupo_1212299" data-name="Grupo 1212299" transform="translate(26.708 0.982)">
        <g id="Grupo_1212298" data-name="Grupo 1212298" transform="translate(0)">
          <circle id="Elipse_12609" data-name="Elipse 12609" cx="29.215" cy="29.215" r="29.215" transform="translate(0 3.387)" fill="#d8ecfe"/>
          <path id="Trazado_1084718" data-name="Trazado 1084718" d="M126.745,67.227A29.216,29.216,0,0,1,89.5,111.491a29.215,29.215,0,1,0,37.247-44.264Z" transform="translate(-82.049 -59.403)" fill="#c4e2ff"/>
          <g id="Grupo_1212294" data-name="Grupo 1212294" transform="translate(18.376 24.388)">
            <path id="Trazado_1084719" data-name="Trazado 1084719" d="M288.269,204.538a.787.787,0,0,0,.786.786h5.781V193.676h-.266a10.742,10.742,0,0,1-6.3,8.124v2.738Z" transform="translate(-273.157 -193.676)" fill="#c57a44"/>
            <path id="Trazado_1084720" data-name="Trazado 1084720" d="M179.476,204.537V201.8a10.742,10.742,0,0,1-6.3-8.124h-.266v11.648h5.781A.787.787,0,0,0,179.476,204.537Z" transform="translate(-172.909 -193.675)" fill="#d88a55"/>
          </g>
          <path id="Trazado_1084721" data-name="Trazado 1084721" d="M137.465,22.535h4.116V20.71a8.347,8.347,0,0,1,8.337-8.337h4.742A8.347,8.347,0,0,1,163,20.71v1.825h4.116a3.5,3.5,0,0,1,.757.083V20.71A13.226,13.226,0,0,0,154.661,7.5h-4.742a13.225,13.225,0,0,0-13.21,13.21v1.908A3.5,3.5,0,0,1,137.465,22.535Z" transform="translate(-123.074 -7.5)" fill="#685e68"/>
          <g id="Grupo_1212295" data-name="Grupo 1212295" transform="translate(33.989 0.22)">
            <path id="Trazado_1084722" data-name="Trazado 1084722" d="M292.1,9.177a8.427,8.427,0,0,1,1.185,4.32v1.147a8.347,8.347,0,0,1,4.749,7.524v1.825h4.116a3.5,3.5,0,0,1,.757.083V22.168A13.232,13.232,0,0,0,292.1,9.177Z" transform="translate(-292.098 -9.177)" fill="#554e56"/>
          </g>
          <path id="Trazado_1084723" data-name="Trazado 1084723" d="M340.617,121.274H336.5v7.791a10.728,10.728,0,0,1-.135,1.694h4.251a3.636,3.636,0,0,0,3.636-3.636V124.91A3.636,3.636,0,0,0,340.617,121.274Z" transform="translate(-296.578 -106.37)" fill="#433f43"/>
          <g id="Grupo_1212296" data-name="Grupo 1212296" transform="translate(10.754 11.047)">
            <path id="Trazado_1084724" data-name="Trazado 1084724" d="M122.481,129.065v-7.791h-4.116a3.636,3.636,0,0,0-3.636,3.636v2.212a3.636,3.636,0,0,0,3.636,3.636h4.251A10.747,10.747,0,0,1,122.481,129.065Z" transform="translate(-114.728 -117.417)" fill="#7a6d79"/>
            <path id="Trazado_1084725" data-name="Trazado 1084725" d="M194.336,95.05h-4.583a1.839,1.839,0,0,1-1.588-.917l-1.144-1.981a.639.639,0,0,0-1.107,0l-1.144,1.981a1.839,1.839,0,0,1-1.588.917h-9.84l-.432.131v8.3a10.839,10.839,0,1,0,21.679,0v-8.3Z" transform="translate(-165.288 -91.832)" fill="#ffdfcf"/>
            <path id="Trazado_1084726" data-name="Trazado 1084726" d="M236.218,116.386h-4.628v7.45a10.837,10.837,0,0,1-10.485,10.83,10.839,10.839,0,0,0,15.365-9.849v-8.3Z" transform="translate(-207.171 -113.169)" fill="#ffcebf"/>
          </g>
          <path id="Trazado_1084727" data-name="Trazado 1084727" d="M123.146,281.592h-27.1a8.468,8.468,0,0,0-8.468,8.468v7.432a29.36,29.36,0,0,0,3.577,3.456,1.98,1.98,0,0,1,.734,1.629l-.331,6.814a1.334,1.334,0,0,0,2.055,1.186l6.207-4a1.974,1.974,0,0,1,1.621-.232,29.243,29.243,0,0,0,30.172-8.857V290.06A8.468,8.468,0,0,0,123.146,281.592Z" transform="translate(-80.381 -245.687)" fill="#fe5694"/>
          <path id="Trazado_1084728" data-name="Trazado 1084728" d="M105,324.928a29.075,29.075,0,0,1-15.478-4.435,29.37,29.37,0,0,0,3.323,3.171,1.98,1.98,0,0,1,.735,1.629l-.331,6.814a1.334,1.334,0,0,0,2.055,1.186l6.207-4a1.974,1.974,0,0,1,1.621-.232,29.242,29.242,0,0,0,30.172-8.857v-7.432a8.43,8.43,0,0,0-1.666-5.044A29.221,29.221,0,0,1,105,324.928Z" transform="translate(-82.068 -268.402)" fill="#fd3581"/>
          <path id="Trazado_1084729" data-name="Trazado 1084729" d="M189.275,258.029v-2.8a10.668,10.668,0,0,1-8.807,0v2.8a.655.655,0,0,1-.655.655H174.2v.508a10.67,10.67,0,1,0,21.34,0v-.508H189.93A.655.655,0,0,1,189.275,258.029Z" transform="translate(-155.657 -222.779)" fill="#ffb09e"/>
          <g id="Grupo_1212297" data-name="Grupo 1212297" transform="translate(18.376 4.742)">
            <path id="Trazado_1084730" data-name="Trazado 1084730" d="M186.119,43.7h-4.742a8.468,8.468,0,0,0-8.468,8.468v1.186h10.272a1.965,1.965,0,0,0,1.7-.982l1.144-1.981a.508.508,0,0,1,.88,0l1.144,1.981a1.965,1.965,0,0,0,1.7.982h4.836V52.169a8.468,8.468,0,0,0-8.468-8.468Z" transform="translate(-172.909 -43.701)" fill="#d88a55"/>
            <path id="Trazado_1084731" data-name="Trazado 1084731" d="M301.143,49.788v8.855h4.88V57.459A8.467,8.467,0,0,0,301.143,49.788Z" transform="translate(-284.345 -48.991)" fill="#c57a44"/>
          </g>
          <path id="Trazado_1084732" data-name="Trazado 1084732" d="M238.956,200.548h-4.584a1.344,1.344,0,0,1-1.344-1.344v-1.547a1.344,1.344,0,0,1,1.344-1.344h3.24a1.344,1.344,0,0,1,1.344,1.344v2.89Z" transform="translate(-206.777 -171.58)" fill="#7a6d79"/>
        </g>
      </g>
      <g id="Grupo_1212300" data-name="Grupo 1212300" transform="translate(25.815 0)">
        <path id="Trazado_1084733" data-name="Trazado 1084733" d="M217.8,141.461v-.847a.982.982,0,0,0-1.965,0v.847a.982.982,0,0,0,1.965,0Z" transform="translate(-190.94 -121.341)"/>
        <path id="Trazado_1084734" data-name="Trazado 1084734" d="M281.458,142.444a.982.982,0,0,0,.982-.982v-.847a.982.982,0,1,0-1.965,0v.847A.982.982,0,0,0,281.458,142.444Z" transform="translate(-247.116 -121.341)"/>
        <path id="Trazado_1084735" data-name="Trazado 1084735" d="M249.136,392.461a.983.983,0,0,0-.982.982v.393a.982.982,0,1,0,1.965,0v-.393A.983.983,0,0,0,249.136,392.461Z" transform="translate(-219.028 -341.05)"/>
        <path id="Trazado_1084736" data-name="Trazado 1084736" d="M249.136,432.5a.982.982,0,0,0-.982.982v.393a.982.982,0,1,0,1.965,0v-.393A.982.982,0,0,0,249.136,432.5Z" transform="translate(-219.028 -375.844)"/>
        <path id="Trazado_1084737" data-name="Trazado 1084737" d="M86.121,33.585A30.211,30.211,0,0,0,70.652,7.219,14.2,14.2,0,0,0,58.294,0H53.552A14.2,14.2,0,0,0,41.193,7.222,30.187,30.187,0,0,0,25.818,31.217a.982.982,0,0,0,.9,1.056l.077,0a.983.983,0,0,0,.978-.907A28.2,28.2,0,0,1,39.888,10.351a14.159,14.159,0,0,0-.529,3.842v1.052a4.625,4.625,0,0,0-2.879,4.278v2.212A4.624,4.624,0,0,0,41.1,26.353h3v9.552H42.374a9.461,9.461,0,0,0-9.451,9.451v4.6A27.917,27.917,0,0,1,27.778,35.8a.983.983,0,0,0-1.959.152A30.559,30.559,0,0,0,36.862,57.006a1,1,0,0,1,.374.82l-.331,6.814a2.315,2.315,0,0,0,3.568,2.06l6.207-4a.992.992,0,0,1,.815-.114,30.206,30.206,0,0,0,38.626-29Zm-1.965,0a28.214,28.214,0,0,1-5.233,16.37v-4.6a9.461,9.461,0,0,0-9.451-9.451H67.745V30.933H68.8a3.527,3.527,0,0,0,3.523-3.523V26.078a4.627,4.627,0,0,0,3.049-4.343V19.523a4.625,4.625,0,0,0-2.879-4.278V14.193a14.159,14.159,0,0,0-.531-3.849A28.243,28.243,0,0,1,84.156,33.585Zm-38.09,2.32V30.193a11.913,11.913,0,0,0,4.471,4v1.708Zm0-12.228V16.361h9.289a2.955,2.955,0,0,0,2.552-1.474l.733-1.27.733,1.27a2.956,2.956,0,0,0,2.552,1.474H65.78v7.316a9.794,9.794,0,0,1-1.547,5.291H59.87V27.06a2.329,2.329,0,0,0-2.326-2.326H54.3a2.329,2.329,0,0,0-2.326,2.326v1.547A2.329,2.329,0,0,0,54.3,30.933h8.283a9.851,9.851,0,0,1-16.52-7.256Zm0-9.281v-.2a7.494,7.494,0,0,1,7.486-7.486h4.742a7.494,7.494,0,0,1,7.486,7.486v.2H61.927a.985.985,0,0,1-.851-.491l-1.144-1.981a1.491,1.491,0,0,0-2.582,0L56.207,13.9a.985.985,0,0,1-.851.491ZM54.3,28.968a.362.362,0,0,1-.361-.361V27.06A.362.362,0,0,1,54.3,26.7h3.24a.362.362,0,0,1,.361.361v1.908Zm7.006,5.23a11.9,11.9,0,0,0,3.939-3.265h.532v4.972H61.309V34.2Zm6.436-5.23V26.354h2.608V27.41A1.56,1.56,0,0,1,68.8,28.968Zm3-12.1A2.657,2.657,0,0,1,73.4,19.523v2.212a2.657,2.657,0,0,1-2.654,2.654H67.723c.014-.235.022-.472.022-.711V16.869ZM41.324,14.193A12.242,12.242,0,0,1,53.552,1.965h4.742A12.242,12.242,0,0,1,70.522,14.193V14.9H67.745v-.711a9.461,9.461,0,0,0-9.451-9.451H53.552A9.461,9.461,0,0,0,44.1,14.193V14.9H41.324Zm-.225,10.2a2.657,2.657,0,0,1-2.654-2.654V19.523A2.657,2.657,0,0,1,41.1,16.869h3v6.808c0,.239.008.476.022.711ZM76.958,52.416A28.26,28.26,0,0,1,48.043,60.7a2.957,2.957,0,0,0-2.427.349l-6.207,4a.351.351,0,0,1-.541-.313l.331-6.814a2.975,2.975,0,0,0-1.1-2.438,28.476,28.476,0,0,1-3.215-3.067V45.356a7.494,7.494,0,0,1,7.486-7.486h1.908a11.651,11.651,0,0,0,19.85,7.795.982.982,0,1,0-1.384-1.394,9.687,9.687,0,0,1-16.5-6.4h4.618A1.639,1.639,0,0,0,52.5,36.233v-1.24a11.812,11.812,0,0,0,6.842,0v1.24a1.639,1.639,0,0,0,1.637,1.637H65.6a9.634,9.634,0,0,1-.589,2.891.982.982,0,1,0,1.842.683,11.6,11.6,0,0,0,.714-3.574h1.906a7.494,7.494,0,0,1,7.486,7.486v7.059Z" transform="translate(-25.815 0)"/>
      </g>
    </g>
  </g>
</svg>
