<svg xmlns="http://www.w3.org/2000/svg" xmlns:xlink="http://www.w3.org/1999/xlink" width="400" height="280" viewBox="0 0 400 280">
  <defs>
    <clipPath id="clip-path">
      <rect id="Rectángulo_418552" data-name="Rectángulo 418552" width="400" height="280" transform="translate(180 3498)" fill="#fff" stroke="#707070" stroke-width="1"/>
    </clipPath>
  </defs>
  <g id="Enmascarar_grupo_1098927" data-name="Enmascarar grupo 1098927" transform="translate(-180 -3498)" clip-path="url(#clip-path)">
    <g id="_13561899_5274248" data-name="13561899_5274248" transform="translate(128.903 3371.256)">
      <g id="Grupo_1212319" data-name="Grupo 1212319">
        <g id="Grupo_1212317" data-name="Grupo 1212317">
          <path id="Trazado_1084749" data-name="Trazado 1084749" d="M332.33,197.31H310.56a.5.5,0,0,1,0-1h21.77a.5.5,0,0,1,0,1Z" fill="#fce4e0"/>
          <path id="Trazado_1084750" data-name="Trazado 1084750" d="M332.33,203.43H310.56a.5.5,0,0,1,0-1h21.77a.5.5,0,0,1,0,1Z" fill="#fce4e0"/>
          <path id="Trazado_1084751" data-name="Trazado 1084751" d="M332.33,209.55H310.56a.5.5,0,1,1,0-1h21.77a.5.5,0,0,1,0,1Z" fill="#fce4e0"/>
          <path id="Trazado_1084752" data-name="Trazado 1084752" d="M332.33,215.67H310.56a.5.5,0,1,1,0-1h21.77a.5.5,0,0,1,0,1Z" fill="#fce4e0"/>
        </g>
        <g id="Grupo_1212318" data-name="Grupo 1212318">
          <path id="Trazado_1084753" data-name="Trazado 1084753" d="M123.49,251.76H56.35a.5.5,0,1,1,0-1h67.14a.5.5,0,0,1,0,1Z" fill="#fce4e0"/>
          <path id="Trazado_1084754" data-name="Trazado 1084754" d="M123.49,258.21H56.35a.5.5,0,0,1,0-1h67.14a.5.5,0,1,1,0,1Z" fill="#fce4e0"/>
          <path id="Trazado_1084755" data-name="Trazado 1084755" d="M123.49,264.66H56.35a.5.5,0,0,1,0-1h67.14a.5.5,0,1,1,0,1Z" fill="#fce4e0"/>
          <path id="Trazado_1084756" data-name="Trazado 1084756" d="M123.49,271.11H56.35a.5.5,0,0,1,0-1h67.14a.5.5,0,1,1,0,1Z" fill="#fce4e0"/>
        </g>
      </g>
      <g id="Grupo_1212320" data-name="Grupo 1212320">
        <circle id="Elipse_12615" data-name="Elipse 12615" cx="26.7" cy="26.7" r="26.7" transform="translate(71.41 174.49)" fill="#c252f0"/>
        <circle id="Elipse_12616" data-name="Elipse 12616" cx="76.6" cy="76.6" r="76.6" transform="translate(239.981 381.888) rotate(-80.56)" fill="#f2dbfc"/>
        <circle id="Elipse_12617" data-name="Elipse 12617" cx="15.8" cy="15.8" r="15.8" transform="translate(356.65 365.31)" fill="#c252f0"/>
        <ellipse id="Elipse_12618" data-name="Elipse 12618" cx="41.95" cy="44.95" rx="41.95" ry="44.95" transform="translate(155.066 209.124) rotate(-80.64)" fill="#f2dbfc"/>
        <circle id="Elipse_12619" data-name="Elipse 12619" cx="37.56" cy="37.56" r="37.56" transform="translate(107.963 312.848) rotate(-45)" fill="#e6b9f9"/>
        <circle id="Elipse_12620" data-name="Elipse 12620" cx="7.31" cy="7.31" r="7.31" transform="translate(267.45 139.45)" fill="#c252f0"/>
      </g>
      <g id="Grupo_1212321" data-name="Grupo 1212321">
        <rect id="Rectángulo_418536" data-name="Rectángulo 418536" width="61.3" height="39.68" transform="translate(345.05 173.52)" fill="#fff"/>
        <rect id="Rectángulo_418537" data-name="Rectángulo 418537" width="61.3" height="8.94" transform="translate(345.05 173.52)" fill="#4f47aa"/>
        <path id="Trazado_1084757" data-name="Trazado 1084757" d="M402.12,177.71a1.65,1.65,0,1,1-1.65-1.65A1.652,1.652,0,0,1,402.12,177.71Z" fill="#f6a1dc"/>
        <path id="Trazado_1084758" data-name="Trazado 1084758" d="M395.06,177.71a1.65,1.65,0,1,1-1.65-1.65A1.652,1.652,0,0,1,395.06,177.71Z" fill="#fff"/>
        <path id="Trazado_1084759" data-name="Trazado 1084759" d="M387.99,177.71a1.65,1.65,0,1,1-1.65-1.65A1.652,1.652,0,0,1,387.99,177.71Z" fill="#fff"/>
        <path id="Trazado_1084760" data-name="Trazado 1084760" d="M403.39,171.03H342.98a.5.5,0,0,0-.5.5v39.05a.5.5,0,0,0,.5.5h60.41a.5.5,0,0,0,.5-.5V171.53A.5.5,0,0,0,403.39,171.03Zm-.5,1v7.94H343.48v-7.94Zm-59.41,38.05V180.97h59.41v29.11Z" fill="#18173f"/>
        <path id="Trazado_1084761" data-name="Trazado 1084761" d="M393.24,187.49H358.69a.412.412,0,0,1-.41-.41.406.406,0,0,1,.41-.41h34.55a.412.412,0,0,1,.41.41A.406.406,0,0,1,393.24,187.49Z" fill="#18173f"/>
        <path id="Trazado_1084762" data-name="Trazado 1084762" d="M396.53,193.68H358.69a.412.412,0,0,1-.41-.41.406.406,0,0,1,.41-.41h37.84a.412.412,0,0,1,.41.41A.406.406,0,0,1,396.53,193.68Z" fill="#18173f"/>
        <path id="Trazado_1084763" data-name="Trazado 1084763" d="M391.21,199.87H358.69a.412.412,0,0,1-.41-.41.406.406,0,0,1,.41-.41h32.52a.412.412,0,0,1,.41.41A.406.406,0,0,1,391.21,199.87Z" fill="#18173f"/>
        <path id="Trazado_1084764" data-name="Trazado 1084764" d="M395.66,206.07H358.69a.412.412,0,0,1-.41-.41.406.406,0,0,1,.41-.41h36.97a.412.412,0,0,1,.41.41A.406.406,0,0,1,395.66,206.07Z" fill="#18173f"/>
        <path id="Trazado_1084765" data-name="Trazado 1084765" d="M352.86,187.02a.85.85,0,1,1-.85-.85A.849.849,0,0,1,352.86,187.02Z" fill="#be350b"/>
        <path id="Trazado_1084766" data-name="Trazado 1084766" d="M352.86,193.28a.85.85,0,1,1-.85-.85A.849.849,0,0,1,352.86,193.28Z" fill="#be350b"/>
        <circle id="Elipse_12621" data-name="Elipse 12621" cx="0.85" cy="0.85" r="0.85" transform="translate(351.17 198.68)" fill="#be350b"/>
        <path id="Trazado_1084767" data-name="Trazado 1084767" d="M352.86,205.79a.85.85,0,1,1-.85-.85A.849.849,0,0,1,352.86,205.79Z" fill="#be350b"/>
      </g>
      <g id="Grupo_1212325" data-name="Grupo 1212325">
        <rect id="Rectángulo_418538" data-name="Rectángulo 418538" width="145.58" height="109.56" transform="translate(290.33 212.39)" fill="#fff"/>
        <g id="Grupo_1212322" data-name="Grupo 1212322">
          <path id="Trazado_1084768" data-name="Trazado 1084768" d="M382.08,275.3l7.48-33.89a34.708,34.708,0,1,0,27.23,33.89c0-1.09-.06-2.17-.16-3.24Z" fill="#b87259"/>
          <path id="Trazado_1084769" data-name="Trazado 1084769" d="M388.25,269.68l33.98-3.09a34.131,34.131,0,0,0-26.62-30.23l-7.36,33.32Z" fill="#7d3319"/>
        </g>
        <rect id="Rectángulo_418539" data-name="Rectángulo 418539" width="145.58" height="8.94" transform="translate(290.33 212.39)" fill="#4f47aa"/>
        <path id="Trazado_1084770" data-name="Trazado 1084770" d="M431.69,216.58a1.65,1.65,0,1,1-1.65-1.65A1.652,1.652,0,0,1,431.69,216.58Z" fill="#f6a1dc"/>
        <path id="Trazado_1084771" data-name="Trazado 1084771" d="M424.62,216.58a1.65,1.65,0,1,1-1.65-1.65A1.652,1.652,0,0,1,424.62,216.58Z" fill="#fff"/>
        <path id="Trazado_1084772" data-name="Trazado 1084772" d="M417.56,216.58a1.65,1.65,0,1,1-1.65-1.65A1.652,1.652,0,0,1,417.56,216.58Z" fill="#fff"/>
        <path id="Trazado_1084773" data-name="Trazado 1084773" d="M433.6,210.09H288.02a.491.491,0,0,0-.49.49V320.14a.491.491,0,0,0,.49.49H433.6a.491.491,0,0,0,.49-.49V210.58a.491.491,0,0,0-.49-.49Zm-.5.98v7.95H288.5v-7.95ZM288.5,319.65V220H433.1v99.65Z" fill="#18173f"/>
        <g id="Grupo_1212323" data-name="Grupo 1212323">
          <path id="Trazado_1084774" data-name="Trazado 1084774" d="M379.76,308.69a35.2,35.2,0,1,1,7.59-69.57.487.487,0,0,1,.31.21.53.53,0,0,1,.07.37l-7.34,33.23,33.88-3.17a.57.57,0,0,1,.36.11.518.518,0,0,1,.18.33c.1,1.13.16,2.23.16,3.28a35.239,35.239,0,0,1-35.2,35.2Zm0-69.42a34.21,34.21,0,1,0,34.21,34.21c0-.87-.04-1.77-.11-2.7l-34.06,3.19a.521.521,0,0,1-.41-.16.486.486,0,0,1-.11-.43l7.37-33.41a34.229,34.229,0,0,0-6.9-.7Z" fill="#18173f"/>
          <path id="Trazado_1084775" data-name="Trazado 1084775" d="M385.93,268.28a.375.375,0,0,1-.3-.14.394.394,0,0,1-.09-.36l7.36-33.32a.4.4,0,0,1,.48-.31,34.356,34.356,0,0,1,26.94,30.59.4.4,0,0,1-.37.44l-33.98,3.09h-.04Zm7.66-33.24-7.15,32.38,33.02-3.01a33.522,33.522,0,0,0-25.87-29.37Z" fill="#18173f"/>
        </g>
        <g id="Grupo_1212324" data-name="Grupo 1212324">
          <path id="Trazado_1084776" data-name="Trazado 1084776" d="M305.62,244.44h-7.35a.412.412,0,0,1-.41-.41.406.406,0,0,1,.41-.41h7.35a.412.412,0,0,1,.41.41A.406.406,0,0,1,305.62,244.44Z" fill="#18173f"/>
          <path id="Trazado_1084777" data-name="Trazado 1084777" d="M336.53,244.44h-25.1a.412.412,0,0,1-.41-.41.406.406,0,0,1,.41-.41h25.1a.412.412,0,0,1,.41.41A.406.406,0,0,1,336.53,244.44Z" fill="#18173f"/>
          <path id="Trazado_1084778" data-name="Trazado 1084778" d="M326.53,256.37H298.27a.412.412,0,0,1-.41-.41.406.406,0,0,1,.41-.41h28.26a.412.412,0,0,1,.41.41A.406.406,0,0,1,326.53,256.37Z" fill="#18173f"/>
          <path id="Trazado_1084779" data-name="Trazado 1084779" d="M326.33,268.31H298.27a.412.412,0,0,1-.41-.41.406.406,0,0,1,.41-.41h28.06a.412.412,0,0,1,.41.41A.406.406,0,0,1,326.33,268.31Z" fill="#18173f"/>
          <path id="Trazado_1084780" data-name="Trazado 1084780" d="M336.53,268.31H330.6a.412.412,0,0,1-.41-.41.406.406,0,0,1,.41-.41h5.93a.412.412,0,0,1,.41.41A.406.406,0,0,1,336.53,268.31Z" fill="#18173f"/>
          <path id="Trazado_1084781" data-name="Trazado 1084781" d="M322.85,280.25H298.27a.412.412,0,0,1-.41-.41.406.406,0,0,1,.41-.41h24.58a.412.412,0,0,1,.41.41A.406.406,0,0,1,322.85,280.25Z" fill="#18173f"/>
        </g>
      </g>
      <g id="Grupo_1212326" data-name="Grupo 1212326">
        <rect id="Rectángulo_418540" data-name="Rectángulo 418540" width="151.8" height="109.56" transform="translate(72.35 202.93)" fill="#fff"/>
        <rect id="Rectángulo_418541" data-name="Rectángulo 418541" width="151.8" height="8.94" transform="translate(72.35 202.93)" fill="#4f47aa"/>
        <path id="Trazado_1084782" data-name="Trazado 1084782" d="M219.92,207.12a1.65,1.65,0,1,1-1.65-1.65A1.652,1.652,0,0,1,219.92,207.12Z" fill="#f6a1dc"/>
        <path id="Trazado_1084783" data-name="Trazado 1084783" d="M212.85,207.12a1.65,1.65,0,1,1-1.65-1.65A1.652,1.652,0,0,1,212.85,207.12Z" fill="#fff"/>
        <path id="Trazado_1084784" data-name="Trazado 1084784" d="M205.79,207.12a1.65,1.65,0,1,1-1.65-1.65A1.652,1.652,0,0,1,205.79,207.12Z" fill="#fff"/>
        <path id="Trazado_1084785" data-name="Trazado 1084785" d="M222.46,200.69H69.99a.491.491,0,0,0-.49.49V310.74a.491.491,0,0,0,.49.49H222.47a.491.491,0,0,0,.49-.49V201.18a.491.491,0,0,0-.49-.49Zm-.49.99v7.95H70.48v-7.95h151.5ZM70.48,310.26V210.61h151.5v99.65Z" fill="#18173f"/>
        <path id="Trazado_1084786" data-name="Trazado 1084786" d="M151.36,233.49h-38.3a.354.354,0,0,0-.34.25l-8.04,26.73-3.7-9.94a.346.346,0,0,0-.33-.23H91.94a.348.348,0,0,0-.35.35.354.354,0,0,0,.35.35h8.46l3.98,10.7a.346.346,0,0,0,.33.23h.01a.364.364,0,0,0,.33-.25l8.26-27.49h38.03a.348.348,0,0,0,.35-.35.354.354,0,0,0-.35-.35Zm-26.68,17.77a6.428,6.428,0,0,0,3.53-2.19,5.261,5.261,0,0,0,.68-4.88,2.756,2.756,0,0,0-1.7-1.92c-2.58-.97-6.81,1.61-6.99,1.73a.355.355,0,0,0,.38.6c.04-.03,4.11-2.51,6.37-1.66a2.1,2.1,0,0,1,1.28,1.47,4.586,4.586,0,0,1-.56,4.25c-1.06,1.39-3.05,2.2-5.54,2.26h-.67a.35.35,0,0,0,0,.7h.67c2.48.07,4.48.88,5.54,2.26a4.558,4.558,0,0,1,.56,4.25,2.083,2.083,0,0,1-1.28,1.47c-2.25.85-6.33-1.64-6.37-1.66a.359.359,0,0,0-.49.12.365.365,0,0,0,.11.49c.15.09,3.17,1.94,5.66,1.94a3.555,3.555,0,0,0,1.32-.22,2.776,2.776,0,0,0,1.7-1.92,5.233,5.233,0,0,0-.68-4.88,6.464,6.464,0,0,0-3.53-2.19Z" fill="#18173f"/>
      </g>
      <g id="Grupo_1212329" data-name="Grupo 1212329">
        <path id="Trazado_1084787" data-name="Trazado 1084787" d="M220.85,265.45s-3.26,14.45-3.86,17.81,0,9.42,0,9.42l-11.5-.58s4.9-10.61,6.54-13.32,8.82-13.32,8.82-13.32Z" fill="#fdd4ce"/>
        <path id="Trazado_1084788" data-name="Trazado 1084788" d="M232.85,259.84l8.9-3.48a14.056,14.056,0,0,0,1.95-5.7,74.532,74.532,0,0,0,7.15,3.38c1.86.58,8.27-4.51,8.27-4.51s.04,6.04,1.98,6.83l7.18,2.9s2.52,18.05-16.65,18.23c-17.29.16-17.87-11.58-18.77-17.65Z" fill="#fdd4ce"/>
        <path id="Trazado_1084789" data-name="Trazado 1084789" d="M238.47,244.65l-2.04-11.33s6.87-4.16,9.97-9.19c0,0,8.63,8.7,19.08,8.67,0,0-1.73,9.49-2.6,11.91s-8.84,9.04-12.03,9.33c-1.37.12-10.25-4.06-12.38-9.38Z" fill="#fdd4ce"/>
        <path id="Trazado_1084790" data-name="Trazado 1084790" d="M200.4,304.14s-1.68,4.34-1.81,5.24a65.786,65.786,0,0,0,.39,8.9c.31,1.81,5.36,5.29,5.36,5.29l-3.94-19.44Z" fill="#fdd4ce"/>
        <path id="Trazado_1084791" data-name="Trazado 1084791" d="M286.33,292.63s.07-8.88-1.09-13.27-3.07-13.27-3.07-13.27a43.8,43.8,0,0,1,9.57,14.46c1.5,3.66,5.67,11.7,5.67,11.7l-11.09.38Z" fill="#fdd4ce"/>
        <path id="Trazado_1084792" data-name="Trazado 1084792" d="M298.27,323.32l4.19-19.16s1.64,4.71,1.8,5.22-.39,8.9-.39,8.9l-5.6,5.03Z" fill="#fdd4ce"/>
        <path id="Trazado_1084793" data-name="Trazado 1084793" d="M216.99,292.68a75.543,75.543,0,0,1,1.73-18.13l2.13-9.1,12-5.61s-1.35,16.26,14.32,17.61,21.68-10.06,21.1-18.19l13.74,6.19a156.866,156.866,0,0,1,3.29,16.45c.97,7.55.39,11.42.39,11.42l-68.7-.65Z" fill="#8c82f3"/>
        <path id="Trazado_1084794" data-name="Trazado 1084794" d="M177.43,358.87s-6.71-6.58-7.23-11.48,3.74-8.77,5.29-10.45,3.61-3.61,3.61-3.61,20-2.19,27.23-.39l2.32,10.19s14.84,2.19,21.68,6.19,23.35,9.81,26.19,10.06c0,0-14.06,4.52-15.74,4.65a40.433,40.433,0,0,0-5.94,1.55s-6.71-1.16-8.9-.39a71.411,71.411,0,0,1-8.26,1.68s-35.87-5.68-40.26-8Z" fill="#18173f"/>
        <path id="Trazado_1084795" data-name="Trazado 1084795" d="M252.59,361.31h-.07c-.15-.04-14.71-4.14-30.8-10.27-16.05-6.11-39.77-9.44-40.01-9.47a.236.236,0,0,1-.21-.23.258.258,0,0,1,.18-.26l4.97-1.52-1.35-.87a.264.264,0,0,1-.11-.27.257.257,0,0,1,.22-.19c.66-.05,16.13-1.14,22.56,1.18a.25.25,0,1,1-.17.47c-5.53-1.99-18.34-1.39-21.59-1.2l1.17.75a.236.236,0,0,1,.11.24.249.249,0,0,1-.17.21l-4.42,1.35c4.88.74,24.9,3.96,39.02,9.34,16.06,6.12,30.61,10.21,30.75,10.25a.253.253,0,0,1,.17.31.246.246,0,0,1-.24.18Z" fill="#fff"/>
        <path id="Trazado_1084796" data-name="Trazado 1084796" d="M221.43,345.97l61.55.06s-11.42,6.9-13.16,7.87-13.38,5.6-13.38,5.6h0c-2.88.21-16.04-6.18-18.36-6.76s-13.35-6.39-16.65-6.77Z" fill="#18173f"/>
        <path id="Trazado_1084797" data-name="Trazado 1084797" d="M238.27,378.68s-3.74-10.13-3.42-13.1c0,0,28.58-6.84,35.74-12.45s15.48-8.32,18.58-9.87a31.594,31.594,0,0,1,5.23-2.13l1.74-7.74s17.81-3.29,23.81-2.71,7.94,4.26,9.87,6.97,4.84,8.9,4.45,12-5.03,7.35-10.06,9.87-23.23,9.68-32.52,11.23-33.1,6.19-34.26,6-19.16,1.94-19.16,1.94Z" fill="#18173f"/>
        <path id="Trazado_1084798" data-name="Trazado 1084798" d="M321.34,338.37l-7.24-1.19,3.59-2.36a.251.251,0,0,0,.1-.29.258.258,0,0,0-.25-.17c-.7.04-17.27,1.06-22.54,3.51a.248.248,0,1,0,.21.45c4.47-2.07,17.74-3.14,21.41-3.4l-3.33,2.19a.249.249,0,0,0-.11.26.257.257,0,0,0,.2.2l5.3.87c-10.43.78-27.72,7.04-41.13,15.06-13.62,8.14-35.84,13.85-36.06,13.91h0a12.488,12.488,0,0,0-1.41-3.13.244.244,0,0,0-.35-.05.255.255,0,0,0-.06.35c.02.03,2.33,3.33,3.5,13.69a.242.242,0,0,0,.25.22h.03a.244.244,0,0,0,.22-.28,53.723,53.723,0,0,0-2.03-10.32c.68-.18,22.63-5.86,36.17-13.96,14.27-8.54,32.94-15.07,42.93-15.07h.54a.266.266,0,0,0,.25-.23.252.252,0,0,0-.21-.27Zm-83.33,26.1a.246.246,0,0,0-.08.34c.02.04,2.43,3.89,3.38,13.76a.251.251,0,0,0,.25.23h.02a.254.254,0,0,0,.23-.27c-.96-10.01-3.36-13.83-3.46-13.98a.237.237,0,0,0-.34-.07Z" fill="#fff"/>
        <path id="Trazado_1084799" data-name="Trazado 1084799" d="M199.26,298.1l9.4,45.03a86.405,86.405,0,0,1,11.61,2.84l62.71.06,2.45-1.35,8.97-3.55,8.9-43.03H199.26Z" fill="#4f47aa"/>
        <path id="Trazado_1084800" data-name="Trazado 1084800" d="M201.5,292.74l-2.71,2.71,105.09-.19-2.9-2.71Z" fill="#fff"/>
        <path id="Trazado_1084801" data-name="Trazado 1084801" d="M199.26,298.1l-.47-2.65,105.09-.19-.58,2.84Z" fill="#8c82f3"/>
        <path id="Trazado_1084802" data-name="Trazado 1084802" d="M256.4,321.19a4.77,4.77,0,1,1-4.77-4.77A4.769,4.769,0,0,1,256.4,321.19Z" fill="#8c82f3"/>
        <path id="Trazado_1084803" data-name="Trazado 1084803" d="M291.01,379.35l.39-8.32s-10.26,1.84-14.81,2.71-15.97,2.32-15.97,2.32a84.088,84.088,0,0,0,10.94,2.52c3.78.39,19.45.77,19.45.77Z" fill="#fe7d1f"/>
        <path id="Trazado_1084804" data-name="Trazado 1084804" d="M196.08,379.55s-2.52-2.23-2.42-4.94,2.32-3.87,5.23-4.94a10.091,10.091,0,0,1,5.13-.58s1.94,3.39,1.65,5.71a61.235,61.235,0,0,1-1.45,6.48s-5.61-.19-8.13-1.74Z" fill="#fff"/>
        <path id="Trazado_1084805" data-name="Trazado 1084805" d="M291.01,379.35s7.16,0,9.29-1.26a6.678,6.678,0,0,0,2.9-5.32c0-1.35-1.55-4.35-1.55-4.35l-10.26,2.61-.39,8.32Z" fill="#fff"/>
        <path id="Trazado_1084806" data-name="Trazado 1084806" d="M231.88,373.74c-.43-2.15.42-5.58.88-7.21-4.73-.61-10.9.61-16.75,1.69a60.765,60.765,0,0,1-11.93.75,15.937,15.937,0,0,1,1.58,5.83,21.127,21.127,0,0,1-1.55,6.87s9.39,0,11.42-.48,6.29-.29,7.55-.29,12-1.74,12-1.74a12.3,12.3,0,0,1-3.19-5.42Z" fill="#fe7d1f"/>
        <path id="Trazado_1084807" data-name="Trazado 1084807" d="M238.66,254.2l-.23-10.07-2.17-10.84s7.49-3.85,9.83-9.14a29.774,29.774,0,0,0,19.85,8.57l-1.44,7.48s-.66,6.84-.66,7.74-.79,5.03-.79,5.03,4.28-7.99,5.2-13.79,1.2-16.38-1.49-22.58-4.88-7.24-7.46-7.76a32.561,32.561,0,0,0-8.39-.41c-1.55.25-4.65,1.02-4.65,1.02s-4.77-.01-7.49,1.14-4.14,4.12-4.92,6.18-1.7,9.8-1.33,13.8,3.31,18.85,6.13,23.63Z" fill="#18173f"/>
        <path id="Trazado_1084808" data-name="Trazado 1084808" d="M238.72,212.03s-.9-4.9.65-8.52a12.854,12.854,0,0,1,9.42-7.87,7.8,7.8,0,0,1,8.65,3.61,23.109,23.109,0,0,1,2.45,8.13,27.927,27.927,0,0,1,.13,2.84l-21.29,1.81Z" fill="#18173f"/>
        <path id="Trazado_1084809" data-name="Trazado 1084809" d="M262.91,276.55a33.7,33.7,0,0,1-8.63,3.37c-16.44,4.15-22.11-7.87-22.16-7.99a.244.244,0,0,0-.33-.12.252.252,0,0,0-.12.33c.05.11,4.31,9.16,16.03,9.16a27.566,27.566,0,0,0,6.71-.89,33.842,33.842,0,0,0,8.76-3.42.249.249,0,0,0-.25-.43Zm6.1-5.31a.255.255,0,0,0-.35.07,14.819,14.819,0,0,1-2.58,2.97.251.251,0,0,0-.02.35.236.236,0,0,0,.19.08.272.272,0,0,0,.17-.06,14.932,14.932,0,0,0,2.67-3.07.255.255,0,0,0-.07-.35Z" fill="#18173f"/>
        <g id="Grupo_1212327" data-name="Grupo 1212327">
          <path id="Trazado_1084810" data-name="Trazado 1084810" d="M216.66,377.31a.5.5,0,0,1-.5-.46l-.52-6.19a.5.5,0,0,1,.46-.54.5.5,0,0,1,.54.46l.52,6.19a.5.5,0,0,1-.46.54Z" fill="#fff"/>
          <path id="Trazado_1084811" data-name="Trazado 1084811" d="M220.91,377.31a.5.5,0,0,1-.5-.46l-.52-6.19a.5.5,0,0,1,.46-.54.509.509,0,0,1,.54.46l.52,6.19a.5.5,0,0,1-.46.54Z" fill="#fff"/>
          <path id="Trazado_1084812" data-name="Trazado 1084812" d="M225.17,377.31a.5.5,0,0,1-.5-.46l-.52-6.19a.5.5,0,0,1,.46-.54.515.515,0,0,1,.54.46l.52,6.19a.5.5,0,0,1-.46.54Z" fill="#fff"/>
        </g>
        <path id="Trazado_1084813" data-name="Trazado 1084813" d="M241.48,210.11a.5.5,0,0,1-.09-.99,15.883,15.883,0,0,1,4.96-.11,24.736,24.736,0,0,1,11.02-.89.5.5,0,0,1-.18.98,24.159,24.159,0,0,0-10.63.89.533.533,0,0,1-.25.02,15.035,15.035,0,0,0-4.74.09h-.09Z" fill="#fff"/>
        <path id="Trazado_1084814" data-name="Trazado 1084814" d="M249.35,242.23a3.643,3.643,0,0,0,2.18.1S250.61,243.64,249.35,242.23Z" fill="#18173f"/>
        <path id="Trazado_1084815" data-name="Trazado 1084815" d="M255.93,236.03c0,.67-.29,1.21-.65,1.21s-.65-.54-.65-1.21.29-1.21.65-1.21S255.93,235.36,255.93,236.03Z" fill="#18173f"/>
        <path id="Trazado_1084816" data-name="Trazado 1084816" d="M244.12,236.03c0,.67.29,1.21.65,1.21s.65-.54.65-1.21-.29-1.21-.65-1.21S244.12,235.36,244.12,236.03Z" fill="#18173f"/>
        <g id="Grupo_1212328" data-name="Grupo 1212328">
          <path id="Trazado_1084817" data-name="Trazado 1084817" d="M201.56,293.18h99.61a.5.5,0,0,0,0-1H297.9a.7.7,0,0,0-.03-.14c-4.97-10.91-11.59-23.62-15.42-26.86a.542.542,0,0,0-.3-.24c-2.39-1.58-18.9-8.26-20.73-9-.09-.13-.25-.39-.45-.75,0-.02.03-.03.04-.05a63.969,63.969,0,0,0,1.08-7.84.585.585,0,0,0-.02-.19,7.566,7.566,0,0,0,.53-.76,16.622,16.622,0,0,0,1.23-2.69c-.58,4.61-1.65,9.91-1.67,9.98a.5.5,0,0,0,.31.57.566.566,0,0,0,.18.03.5.5,0,0,0,.43-.25,53.872,53.872,0,0,0,5.67-16.14c.76-5.01,1.5-20.65-4.8-26.57a11.859,11.859,0,0,0-3.42-2.22c.11-5.48-1.76-10.05-5.02-12.27-2.67-1.81-6.03-1.92-9.71-.32-8.14,3.54-7.94,11.91-7.79,13.79a9.112,9.112,0,0,0-4.08,4.26c-3.25,6.9-1.95,26.62,4.55,40.78a.493.493,0,0,0,.45.29.318.318,0,0,0,.13-.02.5.5,0,0,0,.37-.52c0-.06-.35-4.48-.55-8.16a21.926,21.926,0,0,0,4.3,3.72,11.56,11.56,0,0,1-1.77,5.33c-1.87.76-19.2,7.76-20.89,9.11-3.79,3.03-10.49,15.85-15.5,26.83a.478.478,0,0,0-.03.29h-3.45a.5.5,0,0,0,0,1Zm19.72-27.42c1.07-.73,6.05-2.89,11.07-5,.01,1.6.36,8.21,5,12.81,2.95,2.93,7.04,4.41,12.16,4.41.38,0,.77,0,1.17-.02,16.89-.71,18.19-14.99,18.28-17.83,5.41,2.25,11.24,4.76,12.56,5.6.44,1.56,5.1,18.43,4.32,26.45H217.65c-.97-11.07,3.14-24.83,3.63-26.42Zm75.56,26.42h-9.92c.65-7.06-2.57-20.08-3.88-24.97,3.8,4.47,9.59,15.75,13.8,24.97Zm-37.22-42.61c.49-.42.96-.84,1.37-1.25-.13,1.37-.39,3.72-.69,5.36a11.552,11.552,0,0,1-.69-4.11Zm-24.77-34.61a8.112,8.112,0,0,1,3.79-3.88.467.467,0,0,0,.24-.13c.26-.12.52-.23.79-.33a.5.5,0,1,0-.34-.94c-.12.04-.23.1-.35.15-.14-2.23,0-9.29,7.22-12.43,3.36-1.46,6.38-1.38,8.75.23,2.91,1.98,4.59,6.09,4.57,11.07-.15-.05-.29-.11-.45-.16a.5.5,0,0,0-.29.95,11.168,11.168,0,0,1,4.48,2.53c6.09,5.72,5.09,21.72,4.49,25.69a49.124,49.124,0,0,1-3.96,12.59,83.385,83.385,0,0,0,1.37-10.76.448.448,0,0,0-.04-.2,52.613,52.613,0,0,0,1.2-6.43.508.508,0,0,0-.11-.37.5.5,0,0,0-.34-.18,43.845,43.845,0,0,1-7.07-1.45.329.329,0,0,0-.13-.07,7.762,7.762,0,0,0-.79-.22,23.682,23.682,0,0,1-2.78-1.11,42.309,42.309,0,0,1-8.4-5.73.524.524,0,0,0-.45-.12.5.5,0,0,0-.35.3c-2.12,5.36-9.64,8.89-9.71,8.92a.51.51,0,0,0-.29.52c.04.34.84,6.64,1.84,10.58V244c.06,2.16.28,5.65.46,8.15-5.37-13.6-6.34-30.9-3.38-37.18Zm4.72,31.17c-1.03-1.69-2.18-9.28-2.6-12.51a29.521,29.521,0,0,0,4.08-2.51.562.562,0,0,0-.02.34.5.5,0,0,0,.47.34.3.3,0,0,0,.16-.03,10.8,10.8,0,0,1,4.91-.23.5.5,0,0,0,.21-.97,11.648,11.648,0,0,0-5.28.21,16.951,16.951,0,0,0,5.07-5.82,41.966,41.966,0,0,0,8.1,5.42,12.119,12.119,0,0,0-1.42.18.5.5,0,1,0,.21.97,11.281,11.281,0,0,1,4.14.02,43.438,43.438,0,0,0,7.69,1.72c-.44,3.54-1.8,9.62-3.55,12.57-1.82,3.06-9.06,7.69-10.89,7.69s-10.02-5.33-11.28-7.4Zm2.37,10.69a.474.474,0,0,0,.21-.16,12.147,12.147,0,0,0,1.98-5.4c2.63,1.76,5.46,3.27,6.72,3.27,1.44,0,4.91-1.93,7.78-4.16a12.16,12.16,0,0,0,2.06,6.28.537.537,0,0,0,.21.16c1.69.68,4.28,1.74,7.06,2.89.03,1.05.11,16.51-17.33,17.24-5.36.24-9.61-1.15-12.58-4.09-4.89-4.83-4.71-12.35-4.71-12.43,0-.03-.01-.06-.01-.08,3.35-1.4,6.6-2.72,8.6-3.53ZM219.82,267.2c-1.22,4.39-3.97,15.59-3.18,24.97H206.01C210.21,282.98,216.02,271.67,219.82,267.2Z" fill="#18173f"/>
          <path id="Trazado_1084818" data-name="Trazado 1084818" d="M282.98,345.53H222.46a.5.5,0,0,0,0,1h60.52a.5.5,0,0,0,0-1Z" fill="#18173f"/>
          <path id="Trazado_1084819" data-name="Trazado 1084819" d="M323.2,330.78c-4.5-1.44-22.74,1.11-26.34,1.64l1.8-8.76c.29-.23.64-.51,1.04-.83,2.28-1.78,4.2-3.34,4.63-4.34,1.2-2.8.46-8.9.41-9.24-.38-1.35-1-3.12-1.81-5.26a.537.537,0,0,0-.19-.23l1.71-8.34a.491.491,0,0,0-.1-.42.5.5,0,0,0-.39-.18H198.8a.532.532,0,0,0-.39.18.526.526,0,0,0-.1.42l1.72,8.41a.549.549,0,0,0-.09.14c-.82,2.16-1.43,3.93-1.84,5.36-.03.26-.78,6.36.42,9.16.79,1.83,3.44,4,5.53,5.5.03.02.07.02.11.04l1.68,8.22a109.938,109.938,0,0,0-25.46.56c-.41.05-.67.09-.75.09-1.26,0-9.79,8.5-9.98,13.06-.2,4.79,7.17,12.98,7.48,13.32a.6.6,0,0,0,.21.14c7.44,2.52,23.64,5.25,37.17,7.26a29.009,29.009,0,0,1-3.9.22c-9.13-.22-14.34.73-15.9,2.92-1.35,1.89-2.3,4.9-1.38,7.37.75,2.03,2.57,3.41,5.41,4.11a31.215,31.215,0,0,0,5.08.74.031.031,0,0,1,.02.01.567.567,0,0,0,.18.03.317.317,0,0,0,.09-.03c1.19.08,2.39.13,3.58.13,3.12,0,6.13-.22,8.53-.4,1.61-.12,2.99-.22,3.93-.22a83.723,83.723,0,0,0,14.61-1.87.464.464,0,0,0,.23.06.523.523,0,0,0,.37-.16.218.218,0,0,1,.03-.05,14.241,14.241,0,0,0,2.38-.8c.02.06.04.1.04.11a.5.5,0,0,0,.47.33h.05c.14-.02,9.34-.98,21.47-2.58,1.37.37,7.28,1.94,10.45,2.51,2.77.49,9.95.61,15.19.7,1.66.03,3.1.05,4.11.08.4.01.83.02,1.28.02,3.8,0,8.92-.47,10.52-1.67a6.747,6.747,0,0,0,2.19-4.31,7.633,7.633,0,0,0-1.28-5.37,141.423,141.423,0,0,0,23.93-9.76c6.67-3.53,8.48-8.2,8.56-8.39.01-.04.02-.08.03-.11.82-6.56-6.57-17.91-11.57-19.51Zm-19.44-21.33c0,.06.75,6.09-.35,8.64-.36.85-2.84,2.79-4.33,3.95l-.12.09,3.42-16.71c.6,1.63,1.07,3.01,1.37,4.03Zm-104.32,8.64c-1.09-2.55-.36-8.57-.37-8.57.3-1.04.74-2.36,1.31-3.91l3.48,17c-2.37-1.78-3.94-3.37-4.43-4.52Zm-5.18,58.74c-.79-2.13.06-4.77,1.26-6.45.64-.9,2.5-1.89,7.25-2.32a.524.524,0,0,0,.11.19c.04.04,3.99,4.15.79,12.77a29,29,0,0,1-4.71-.71c-2.5-.61-4.08-1.79-4.71-3.49Zm21.88,3.96a91.494,91.494,0,0,1-11.43.31c2.7-7.56.23-11.82-.76-13.11,1.82-.12,4-.16,6.63-.09a44.657,44.657,0,0,0,7.46-.7.375.375,0,0,1,.1.01h.07a.512.512,0,0,0,.27-.09c.93-.15,1.86-.3,2.76-.46a41.49,41.49,0,0,1,6.63-.84c1.53.06,3.32.22,4.73.37-.57,1.44-2.83,8.01,1.32,12.67a83.133,83.133,0,0,1-13.77,1.7c-.97,0-2.37.1-4,.22Zm18.9-2.19c-4.77-4.74-1.44-12.21-1.41-12.29h0c.52.06.92.1,1.16.13a64.562,64.562,0,0,0,2.65,11.36,13.23,13.23,0,0,1-2.4.81Zm50.41.2c-5.21-.08-12.34-.2-15.03-.68-2.17-.39-5.64-1.25-8.03-1.87,6.14-.83,12.88-1.8,19.5-2.88,3-.49,5.9-1.06,8.68-1.69-.2,2.45-.23,6.27-.23,7.23-.26,0-.52,0-.78-.02-1.01-.03-2.46-.05-4.12-.08Zm17.09-5.01a5.774,5.774,0,0,1-1.8,3.65c-1.17.88-5.52,1.42-9.39,1.46,0-1,.03-5.13.25-7.46,3.41-.79,6.63-1.67,9.65-2.58A6.662,6.662,0,0,1,302.54,373.79Zm31.24-23.69c-.21.5-2.12,4.66-8.07,7.81a148.5,148.5,0,0,1-43.98,14.46c-7.49,1.23-15.13,2.31-21.88,3.2-.06-.02-.1-.03-.1-.03a.494.494,0,0,0-.44.1c-10.56,1.39-18.84,2.29-20.71,2.49a63.869,63.869,0,0,1-2.9-12.42c.24-.05.56-.12.97-.22a.5.5,0,0,0-.22-.98c-.89.2-1.39.31-1.4.31a.484.484,0,0,0-.39.53v.05c-1.19-.14-4.32-.49-6.78-.59a42.72,42.72,0,0,0-6.84.86c-.98.17-2,.34-3.02.5-13.99-2.02-32.2-4.98-40.27-7.67-.83-.93-7.31-8.39-7.14-12.52.17-4.19,8.03-11.56,9.08-12.11.14-.01.41-.05.79-.09a108.884,108.884,0,0,1,25.54-.52l2.03,9.93a.5.5,0,0,0,.49.4h.1a.507.507,0,0,0,.39-.59l-2.06-10.06a.2.2,0,0,0,.02-.07.483.483,0,0,0-.11-.37l-7.51-36.67H303.3l-9.14,44.64a.5.5,0,1,0,.98.2l1.48-7.2c2.34-.34,21.83-3.14,26.25-1.72,4.57,1.46,11.59,12.29,10.89,18.37Z" fill="#18173f"/>
          <path id="Trazado_1084820" data-name="Trazado 1084820" d="M253.83,246.43a.5.5,0,0,0-.66-.26c-3.3,1.41-5.33.11-5.43.05a.5.5,0,0,0-.69.13.487.487,0,0,0,.13.69,5.62,5.62,0,0,0,3.04.78,8.426,8.426,0,0,0,3.34-.73.5.5,0,0,0,.26-.66Z" fill="#18173f"/>
          <path id="Trazado_1084821" data-name="Trazado 1084821" d="M251.37,326.34a5.145,5.145,0,1,0-5.14-5.15A5.155,5.155,0,0,0,251.37,326.34Zm0-9.29a4.145,4.145,0,1,1-4.14,4.14A4.15,4.15,0,0,1,251.37,317.05Z" fill="#18173f"/>
        </g>
        <path id="Trazado_1084822" data-name="Trazado 1084822" d="M306.73,337.73c-13.79,1.52-24.57,8-33.22,13.21-2.48,1.5-4.83,2.91-7.02,4.07a67.675,67.675,0,0,1-9.92,4.01h0c-9.07-2.38-18.77-6.86-28.15-11.18-10.02-4.62-31.49-6.99-31.7-7.01a.5.5,0,1,0-.11.99c.21.02,21.52,2.37,31.39,6.92,8.93,4.12,18.14,8.35,26.88,10.83-6.49,2.07-13.27,3.75-16.88,4.59a.489.489,0,0,0-.37.6.5.5,0,0,0,.49.39.375.375,0,0,0,.11-.01c6.07-1.42,21.01-5.16,28.73-9.25,2.22-1.17,4.57-2.59,7.07-4.09,8.58-5.16,19.25-11.59,32.82-13.08a.5.5,0,0,0,.44-.55.5.5,0,0,0-.55-.44Z" fill="#fff"/>
      </g>
      <g id="Grupo_1212330" data-name="Grupo 1212330">
        <rect id="Rectángulo_418542" data-name="Rectángulo 418542" width="5.94" height="5.94" transform="translate(418.37 162.23)" fill="#8ad3f4"/>
        <rect id="Rectángulo_418543" data-name="Rectángulo 418543" width="5.94" height="5.94" transform="translate(418.37 174.36)" fill="#8ad3f4"/>
        <rect id="Rectángulo_418544" data-name="Rectángulo 418544" width="5.94" height="5.94" transform="translate(418.37 186.49)" fill="#f6a1dc"/>
        <path id="Trazado_1084823" data-name="Trazado 1084823" d="M422.98,166.98h-5.94a.5.5,0,0,1-.5-.5v-5.94a.5.5,0,0,1,.5-.5h5.94a.5.5,0,0,1,.5.5v5.94A.5.5,0,0,1,422.98,166.98Zm-5.44-1h4.94v-4.94h-4.94Z" fill="#18173f"/>
        <path id="Trazado_1084824" data-name="Trazado 1084824" d="M422.98,179.11h-5.94a.5.5,0,0,1-.5-.5v-5.94a.5.5,0,0,1,.5-.5h5.94a.5.5,0,0,1,.5.5v5.94A.5.5,0,0,1,422.98,179.11Zm-5.44-1h4.94v-4.94h-4.94Z" fill="#18173f"/>
        <path id="Trazado_1084825" data-name="Trazado 1084825" d="M422.98,191.24h-5.94a.5.5,0,0,1-.5-.5V184.8a.5.5,0,0,1,.5-.5h5.94a.5.5,0,0,1,.5.5v5.94A.5.5,0,0,1,422.98,191.24Zm-5.44-1h4.94V185.3h-4.94Z" fill="#18173f"/>
      </g>
      <g id="Grupo_1212332" data-name="Grupo 1212332">
        <g id="Grupo_1212331" data-name="Grupo 1212331">
          <rect id="Rectángulo_418545" data-name="Rectángulo 418545" width="5.94" height="5.94" transform="translate(95.14 155.65)" fill="#be350b"/>
          <rect id="Rectángulo_418546" data-name="Rectángulo 418546" width="5.94" height="5.94" transform="translate(95.14 167.77)" fill="#fe7d1f"/>
          <rect id="Rectángulo_418547" data-name="Rectángulo 418547" width="5.94" height="5.94" transform="translate(95.14 179.9)" fill="#fe7d1f"/>
        </g>
        <path id="Trazado_1084826" data-name="Trazado 1084826" d="M99.72,160.85H93.78a.5.5,0,0,1-.5-.5v-5.94a.5.5,0,0,1,.5-.5h5.94a.5.5,0,0,1,.5.5v5.94A.5.5,0,0,1,99.72,160.85Zm-5.43-1h4.94v-4.94H94.29Z" fill="#18173f"/>
        <path id="Trazado_1084827" data-name="Trazado 1084827" d="M99.72,172.98H93.78a.5.5,0,0,1-.5-.5v-5.94a.5.5,0,0,1,.5-.5h5.94a.5.5,0,0,1,.5.5v5.94A.5.5,0,0,1,99.72,172.98Zm-5.43-1h4.94v-4.94H94.29Z" fill="#18173f"/>
        <path id="Trazado_1084828" data-name="Trazado 1084828" d="M99.72,185.11H93.78a.5.5,0,0,1-.5-.5v-5.94a.5.5,0,0,1,.5-.5h5.94a.5.5,0,0,1,.5.5v5.94A.5.5,0,0,1,99.72,185.11Zm-5.43-1h4.94v-4.94H94.29Z" fill="#18173f"/>
      </g>
      <g id="Grupo_1212334" data-name="Grupo 1212334">
        <g id="Grupo_1212333" data-name="Grupo 1212333">
          <rect id="Rectángulo_418548" data-name="Rectángulo 418548" width="5.94" height="5.94" transform="translate(73.66 354.77) rotate(-90)" fill="#fdc307"/>
          <rect id="Rectángulo_418549" data-name="Rectángulo 418549" width="5.94" height="5.94" transform="translate(85.79 354.77) rotate(-90)" fill="#fdc307"/>
        </g>
        <path id="Trazado_1084829" data-name="Trazado 1084829" d="M78.29,353.88H72.35a.5.5,0,0,1-.5-.5v-5.94a.5.5,0,0,1,.5-.5h5.94a.5.5,0,0,1,.5.5v5.94A.5.5,0,0,1,78.29,353.88Zm-5.44-1h4.94v-4.94H72.85Z" fill="#18173f"/>
        <path id="Trazado_1084830" data-name="Trazado 1084830" d="M90.42,353.88H84.48a.5.5,0,0,1-.5-.5v-5.94a.5.5,0,0,1,.5-.5h5.94a.5.5,0,0,1,.5.5v5.94A.5.5,0,0,1,90.42,353.88Zm-5.44-1h4.94v-4.94H84.98Z" fill="#18173f"/>
      </g>
      <g id="Grupo_1212335" data-name="Grupo 1212335">
        <path id="Trazado_1084831" data-name="Trazado 1084831" d="M379.12,158.34H352.86a.5.5,0,0,1,0-1h26.26a.5.5,0,0,1,0,1Z" fill="#18173f"/>
        <path id="Trazado_1084832" data-name="Trazado 1084832" d="M370.9,151.95H352.86a.5.5,0,0,1,0-1H370.9a.5.5,0,0,1,0,1Z" fill="#18173f"/>
        <path id="Trazado_1084833" data-name="Trazado 1084833" d="M367.57,145.56h-14.7a.5.5,0,0,1,0-1h14.7a.5.5,0,0,1,0,1Z" fill="#18173f"/>
        <path id="Trazado_1084834" data-name="Trazado 1084834" d="M372.11,139.18H352.86a.5.5,0,0,1,0-1h19.25a.5.5,0,0,1,0,1Z" fill="#18173f"/>
      </g>
      <g id="Grupo_1212336" data-name="Grupo 1212336">
        <path id="Trazado_1084835" data-name="Trazado 1084835" d="M275.62,162.34V198.6l8.78-12h45.8V162.34Z" fill="#fdc307"/>
        <path id="Trazado_1084836" data-name="Trazado 1084836" d="M273.69,197.29a.389.389,0,0,1-.15-.02.493.493,0,0,1-.34-.46V160.55a.491.491,0,0,1,.49-.49h54.58a.491.491,0,0,1,.49.49v24.26a.491.491,0,0,1-.49.49H282.71l-8.63,11.8a.474.474,0,0,1-.39.2Zm.49-36.25v34.27l7.89-10.79a.474.474,0,0,1,.39-.2h45.32V161.04h-53.6Z" fill="#18173f"/>
        <path id="Trazado_1084837" data-name="Trazado 1084837" d="M320.79,165.42H280.27a.49.49,0,0,1,0-.98h40.52a.49.49,0,0,1,0,.98Z" fill="#fff"/>
        <path id="Trazado_1084838" data-name="Trazado 1084838" d="M323.37,170h-43.1a.49.49,0,0,1,0-.98h43.1a.49.49,0,0,1,0,.98Z" fill="#fff"/>
        <path id="Trazado_1084839" data-name="Trazado 1084839" d="M318.59,174.59H280.27a.49.49,0,0,1,0-.98h38.32a.49.49,0,0,1,0,.98Z" fill="#fff"/>
        <path id="Trazado_1084840" data-name="Trazado 1084840" d="M322.2,179.17H280.26a.49.49,0,0,1,0-.98H322.2a.49.49,0,0,1,0,.98Z" fill="#fff"/>
      </g>
      <g id="Grupo_1212337" data-name="Grupo 1212337">
        <rect id="Rectángulo_418550" data-name="Rectángulo 418550" width="36.74" height="22.35" transform="translate(159.14 254.2)" fill="#8ad3f4"/>
        <path id="Trazado_1084841" data-name="Trazado 1084841" d="M194.67,252.84a.836.836,0,0,0-.02-.1.318.318,0,0,0-.03-.09.037.037,0,0,0-.01-.03c-.01-.02-.03-.03-.04-.04a.5.5,0,0,0-.07-.08.218.218,0,0,0-.08-.05.455.455,0,0,0-.19-.06c-.02,0-.04-.01-.06-.01h-36.7s-.04,0-.05.01a.164.164,0,0,0-.1.02.355.355,0,0,0-.09.04c-.03.02-.05.03-.08.05a.27.27,0,0,0-.07.08c-.01.02-.03.03-.04.04a.037.037,0,0,1-.01.03.317.317,0,0,0-.03.09c0,.03-.02.07-.02.1v21.9a.5.5,0,0,0,.5.5h36.7a.5.5,0,0,0,.5-.5v-21.9Zm-2.31.53-16.53,9.85-16.53-9.85h33.07Zm1.31,20.87h-35.7V253.75l17.59,10.49a.518.518,0,0,0,.52,0l17.59-10.49v20.49Z" fill="#18173f"/>
      </g>
      <g id="Grupo_1212338" data-name="Grupo 1212338">
        <rect id="Rectángulo_418551" data-name="Rectángulo 418551" width="63.53" height="48.07" transform="translate(84.72 288.46)" fill="#ff9cdc"/>
        <path id="Trazado_1084842" data-name="Trazado 1084842" d="M146.22,335.11H82.69a.5.5,0,0,1-.5-.5V286.54a.5.5,0,0,1,.5-.5h63.53a.5.5,0,0,1,.5.5v48.07A.5.5,0,0,1,146.22,335.11Zm-63.02-1h62.53V287.04H83.2Z" fill="#18173f"/>
        <path id="Trazado_1084843" data-name="Trazado 1084843" d="M143.82,290.94H85.1a.48.48,0,0,1,0-.96h58.72a.48.48,0,0,1,0,.96Z" fill="#fff"/>
        <path id="Trazado_1084844" data-name="Trazado 1084844" d="M122.71,311.21l-13.52-7.81a1.272,1.272,0,0,0-1.91,1.1v15.62a1.272,1.272,0,0,0,1.91,1.1l13.52-7.81a1.268,1.268,0,0,0,0-2.2Z" fill="#fff"/>
      </g>
      <g id="Grupo_1212339" data-name="Grupo 1212339">
        <path id="Trazado_1084845" data-name="Trazado 1084845" d="M160.27,171.1H124.62a.348.348,0,0,1-.35-.35.354.354,0,0,1,.35-.35h35.65a.348.348,0,0,1,.35.35A.354.354,0,0,1,160.27,171.1Z" fill="#18173f"/>
        <path id="Trazado_1084846" data-name="Trazado 1084846" d="M160.27,182H124.62a.348.348,0,0,1-.35-.35.354.354,0,0,1,.35-.35h35.65a.348.348,0,0,1,.35.35A.354.354,0,0,1,160.27,182Z" fill="#18173f"/>
        <path id="Trazado_1084847" data-name="Trazado 1084847" d="M160.27,185.97H134.33a.348.348,0,0,1-.35-.35.354.354,0,0,1,.35-.35h25.94a.348.348,0,0,1,.35.35A.354.354,0,0,1,160.27,185.97Z" fill="#18173f"/>
        <path id="Trazado_1084848" data-name="Trazado 1084848" d="M160.27,189.93H142.44a.348.348,0,0,1-.35-.35.354.354,0,0,1,.35-.35h17.83a.348.348,0,0,1,.35.35A.354.354,0,0,1,160.27,189.93Z" fill="#18173f"/>
      </g>
      <path id="Trazado_1084849" data-name="Trazado 1084849" d="M235.42,184.66H219.11a2.565,2.565,0,0,1-2.56-2.56v-4.07a.5.5,0,0,1,.5-.5h3.45l-7.09-7.48-7.09,7.48h3.45a.5.5,0,0,1,.5.5v4.07a2.565,2.565,0,0,1-2.56,2.56H193.25a5.312,5.312,0,0,1-5.19-3.87,9.34,9.34,0,0,1,1.16-6.93,6.467,6.467,0,0,1,4.16-3.44c2.58-.64,5.27.45,6.7,1.19a8.855,8.855,0,0,1,1.77-7.49c1.8-2.11,5.65-4.43,13.71-3.55,3.72.41,6.36,1.78,7.86,4.1a10.6,10.6,0,0,1,1.12,7.66,13.119,13.119,0,0,1,12.92.57h0c3.94,2.43,4.1,5.48,3.54,7.62a5.69,5.69,0,0,1-5.56,4.15Zm-17.88-6.13v3.57a1.562,1.562,0,0,0,1.56,1.56h16.31a4.676,4.676,0,0,0,4.59-3.4c.69-2.63-.35-4.82-3.1-6.51h0a12,12,0,0,0-12.87-.02.512.512,0,0,1-.58,0,.519.519,0,0,1-.18-.56c.01-.05,1.45-4.6-.73-7.97-1.32-2.05-3.72-3.27-7.12-3.64-5.96-.65-10.52.49-12.85,3.21-1.69,1.97-2.14,4.64-1.31,7.71a.511.511,0,0,1-.19.54.5.5,0,0,1-.57,0c-.04-.02-3.68-2.43-6.92-1.63a5.473,5.473,0,0,0-3.51,2.94,8.379,8.379,0,0,0-1.07,6.2,4.3,4.3,0,0,0,4.22,3.12h14.46a1.562,1.562,0,0,0,1.56-1.56v-3.57h-4.11a.505.505,0,0,1-.46-.3.492.492,0,0,1,.1-.54l8.26-8.7a.507.507,0,0,1,.72,0l8.25,8.7a.492.492,0,0,1,.1.54.505.505,0,0,1-.46.3h-4.11Z" fill="#18173f"/>
      <g id="Grupo_1212340" data-name="Grupo 1212340">
        <path id="Trazado_1084850" data-name="Trazado 1084850" d="M417.88,332H398.72a.5.5,0,0,1,0-1h19.16a.5.5,0,0,1,0,1Z" fill="#18173f"/>
        <path id="Trazado_1084851" data-name="Trazado 1084851" d="M413.9,336.84H398.72a.5.5,0,0,1,0-1H413.9a.5.5,0,0,1,0,1Z" fill="#18173f"/>
        <path id="Trazado_1084852" data-name="Trazado 1084852" d="M417.88,341.68H398.72a.5.5,0,0,1,0-1h19.16a.5.5,0,0,1,0,1Z" fill="#18173f"/>
      </g>
      <g id="Grupo_1212341" data-name="Grupo 1212341">
        <path id="Trazado_1084853" data-name="Trazado 1084853" d="M373.16,351.92H355.18a.5.5,0,0,0,0,1h17.98a.5.5,0,0,0,0-1Z" fill="#18173f"/>
        <path id="Trazado_1084854" data-name="Trazado 1084854" d="M382.45,351.92h-4.64a.5.5,0,1,0,0,1h4.64a.5.5,0,1,0,0-1Z" fill="#18173f"/>
        <path id="Trazado_1084855" data-name="Trazado 1084855" d="M351.32,351.31a.143.143,0,0,0,.04-.02l14.57-12.74,2.77-2.42a.494.494,0,0,0,.05-.7l-3.89-4.44a.505.505,0,0,0-.71-.05l-2.77,2.42L346.81,346.1a.187.187,0,0,0-.03.04.554.554,0,0,0-.06.08.356.356,0,0,0-.04.09c0,.02-.02.03-.02.04l-1.41,5.15a.516.516,0,0,0,.11.46.5.5,0,0,0,.38.17h.07l5.29-.71a.227.227,0,0,1,.04-.01.246.246,0,0,0,.11-.04.436.436,0,0,0,.07-.04ZM364.43,332l3.23,3.69-2.02,1.76-3.23-3.69Zm-2.76,2.42,1.61,1.85.02.02-3.27,2.86a.505.505,0,0,0-.05.71.512.512,0,0,0,.71.05l3.27-2.86.93,1.07L351.07,350.2l-.93-1.07,8.66-7.57a.5.5,0,0,0-.66-.76l-8.65,7.57-1.64-1.87,13.82-12.09Zm-14.29,13.07,1.68,1.92h0l.98,1.12-3.62.49Z" fill="#18173f"/>
      </g>
      <g id="Grupo_1212342" data-name="Grupo 1212342">
        <path id="Trazado_1084856" data-name="Trazado 1084856" d="M143.62,347.95H122.33a.5.5,0,0,1,0-1h21.29a.5.5,0,0,1,0,1Z" fill="#18173f"/>
        <path id="Trazado_1084857" data-name="Trazado 1084857" d="M137.71,352.3H122.34a.5.5,0,0,1,0-1h15.37a.5.5,0,0,1,0,1Z" fill="#18173f"/>
        <path id="Trazado_1084858" data-name="Trazado 1084858" d="M134.2,356.65H122.33a.5.5,0,0,1,0-1H134.2a.5.5,0,0,1,0,1Z" fill="#18173f"/>
      </g>
    </g>
  </g>
</svg>
