<svg xmlns="http://www.w3.org/2000/svg" xmlns:xlink="http://www.w3.org/1999/xlink" width="103" height="103" viewBox="0 0 103 103">
  <defs>
    <filter id="Trazado_978624" x="0" y="0" width="103" height="103" filterUnits="userSpaceOnUse">
      <feOffset dy="3" input="SourceAlpha"/>
      <feGaussianBlur stdDeviation="3" result="blur"/>
      <feFlood flood-opacity="0.161"/>
      <feComposite operator="in" in2="blur"/>
      <feComposite in="SourceGraphic"/>
    </filter>
  </defs>
  <g id="Grupo_1212725" data-name="Grupo 1212725" transform="translate(-164.789 -2183)">
    <g id="Grupo_1211667" data-name="Grupo 1211667" transform="translate(-0.711 -106.5)">
      <g id="Grupo_1208651" data-name="Grupo 1208651" transform="translate(0 1231.5)">
        <g id="Grupo_1178144" data-name="Grupo 1178144" transform="translate(-19.5 -2004)">
          <g id="Grupo_1177896" data-name="Grupo 1177896" transform="translate(14 196)">
            <g id="Grupo_1176881" data-name="Grupo 1176881">
              <g id="Grupo_1175148" data-name="Grupo 1175148" transform="translate(0 1580)">
                <g id="Grupo_1173798" data-name="Grupo 1173798" transform="translate(-3 -3520)">
                  <g id="Grupo_1171925" data-name="Grupo 1171925" transform="translate(-22 -2246)">
                    <g id="Grupo_1164524" data-name="Grupo 1164524" transform="translate(205 7058)">
                      <g id="Grupo_1144123" data-name="Grupo 1144123">
                        <g transform="matrix(1, 0, 0, 1, -9, -6)" filter="url(#Trazado_978624)">
                          <g id="Trazado_978624-2" data-name="Trazado 978624" transform="translate(9 6)" fill="#f8ecfd">
                            <path d="M 42.5 83.5 C 36.96437835693359 83.5 31.59512901306152 82.41617584228516 26.54141235351562 80.27863311767578 C 21.65934181213379 78.21369171142578 17.27447128295898 75.25723266601562 13.50862312316895 71.49137878417969 C 9.742764472961426 67.72553253173828 6.786305904388428 63.34066009521484 4.721364498138428 58.45858764648438 C 2.583823442459106 53.40486907958984 1.5 48.03562164306641 1.5 42.5 C 1.5 36.96437835693359 2.583823442459106 31.59512901306152 4.721364498138428 26.54141235351562 C 6.786305904388428 21.65934181213379 9.742764472961426 17.27447128295898 13.50862312316895 13.50862312316895 C 17.27447128295898 9.742764472961426 21.65934181213379 6.786305904388428 26.54141235351562 4.721364498138428 C 31.59512901306152 2.583823442459106 36.96437835693359 1.5 42.5 1.5 C 48.03562164306641 1.5 53.40486907958984 2.583823442459106 58.45858764648438 4.721364498138428 C 63.34066009521484 6.786305904388428 67.72553253173828 9.742764472961426 71.49137878417969 13.50862312316895 C 75.25723266601562 17.27447128295898 78.21369171142578 21.65934181213379 80.27863311767578 26.54141235351562 C 82.41617584228516 31.59512901306152 83.5 36.96437835693359 83.5 42.5 C 83.5 48.03562164306641 82.41617584228516 53.40486907958984 80.27863311767578 58.45858764648438 C 78.21369171142578 63.34066009521484 75.25723266601562 67.72553253173828 71.49137878417969 71.49137878417969 C 67.72553253173828 75.25723266601562 63.34066009521484 78.21369171142578 58.45858764648438 80.27863311767578 C 53.40486907958984 82.41617584228516 48.03562164306641 83.5 42.5 83.5 Z" stroke="none"/>
                            <path d="M 42.5 3 C 37.16621398925781 3 31.99356079101562 4.043960571289062 27.125732421875 6.102882385253906 C 22.42246627807617 8.092185974121094 18.19785308837891 10.94070434570312 14.56928253173828 14.56928253173828 C 10.94070434570312 18.19785308837891 8.092185974121094 22.42246627807617 6.102882385253906 27.125732421875 C 4.043960571289062 31.99356079101562 3 37.16621398925781 3 42.5 C 3 47.83378601074219 4.043960571289062 53.00643920898438 6.102882385253906 57.87425231933594 C 8.092185974121094 62.57753372192383 10.94070434570312 66.80213165283203 14.56928253173828 70.43071746826172 C 18.19786834716797 74.05929565429688 22.42246627807617 76.90781402587891 27.125732421875 78.89711761474609 C 31.99356079101562 80.95603942871094 37.16621398925781 82 42.5 82 C 47.83378601074219 82 53.00642395019531 80.95603942871094 57.87425231933594 78.89711761474609 C 62.57753372192383 76.90781402587891 66.80213165283203 74.05929565429688 70.43071746826172 70.43071746826172 C 74.05929565429688 66.80213165283203 76.90781402587891 62.57753372192383 78.89711761474609 57.87425231933594 C 80.95603942871094 53.00642395019531 82 47.83378601074219 82 42.5 C 82 37.16621398925781 80.95603942871094 31.99356079101562 78.89711761474609 27.125732421875 C 76.90781402587891 22.42246627807617 74.05929565429688 18.19786834716797 70.43071746826172 14.56928253173828 C 66.80213165283203 10.94070434570312 62.57753372192383 8.092185974121094 57.87425231933594 6.102882385253906 C 53.00643920898438 4.043960571289062 47.83378601074219 3 42.5 3 M 42.5 0 C 65.97209167480469 0 85 19.02789306640625 85 42.5 C 85 65.97209167480469 65.97209167480469 85 42.5 85 C 19.02789306640625 85 0 65.97209167480469 0 42.5 C 0 19.02789306640625 19.02789306640625 0 42.5 0 Z" stroke="none" fill="#c252f0"/>
                          </g>
                        </g>
                      </g>
                    </g>
                  </g>
                </g>
              </g>
            </g>
          </g>
        </g>
      </g>
    </g>
    <g id="international-literacy-day" transform="translate(181.723 2196.93)">
      <g id="Grupo_1212723" data-name="Grupo 1212723" transform="translate(1.35 1.353)">
        <path id="Trazado_1085324" data-name="Trazado 1085324" d="M36,386.552c9.811-3.3,20.858-6.635,29.706.192,8.848-6.827,19.895-3.489,29.706-.192v-6.363c-9.361-2.508-21.548-8.158-29.706,0-8.158-8.158-20.344-2.508-29.706,0Z" transform="translate(-32.491 -326.528)" fill="#e8eaf0" fill-rule="evenodd"/>
        <path id="Trazado_1085325" data-name="Trazado 1085325" d="M43.219,430.463c-8.848-6.827-19.895-3.489-29.706-.192-1.191.4-2.363.8-3.511,1.18l1.4,5.229c9.042-2.423,22.17-8.432,29.9-.7h3.832c7.734-7.734,20.861-1.724,29.9.7l1.4-5.229c-1.148-.381-2.32-.78-3.511-1.18C63.113,426.974,52.066,423.636,43.219,430.463Z" transform="translate(-10.002 -370.247)" fill="#b278d3" fill-rule="evenodd"/>
        <path id="Trazado_1085326" data-name="Trazado 1085326" d="M279.03,33.96a22.28,22.28,0,0,0-21.206-23.785v.035c.935,2.145-3.121,5.4.966,7.805,2.1,1.239,2.013,2.567-.043,3.117a2.084,2.084,0,0,0,.036,4.136c5.127,0,2.907,4.81,4.924,7.511,1.095,1.467,3.745,1.956,4.067-.114.527-3.39,1.968-2.039,3.531-2.69,2.275-.948,1.54,2.822,3.722,4.082a4.282,4.282,0,0,0,3.8-.044Z" transform="translate(-223.587 -10.152)" fill="#cbe558" fill-rule="evenodd"/>
        <path id="Trazado_1085327" data-name="Trazado 1085327" d="M115.625,25.118a2.084,2.084,0,0,1-.036-4.136c2.056-.551,2.145-1.879.043-3.117-4.087-2.407-.031-5.66-.966-7.805v-.035A22.28,22.28,0,0,0,91.422,30.691h.353c2.518-.64,3.3.882,4.636-.994.712-1,1.877-2.352,3.158-2.013a1.883,1.883,0,0,1,1.214,2.45c-.323,1.588-.3,3.348,1.265,3.647,1.707.326,2.5-1.791,3.979-3.269a2.264,2.264,0,0,1,3.924,1.892c-.107,1.729-1.011,2.766-2.762,4.274a10.315,10.315,0,0,0-3.3,3.968c-1.045,2.663-3.528,6.487-5.322,7.524l-.265.265A22.28,22.28,0,0,0,135.872,33.81l-.2.054a4.281,4.281,0,0,1-3.8.044c-2.182-1.26-1.447-5.03-3.722-4.082-1.562.651-3-.7-3.531,2.69-.322,2.07-2.972,1.58-4.067.114-2.017-2.7.2-7.511-4.924-7.511Z" transform="translate(-80.428 -10.002)" fill="#66e0f7" fill-rule="evenodd"/>
        <path id="Trazado_1085328" data-name="Trazado 1085328" d="M109.586,145.33a2.264,2.264,0,0,0-3.924-1.892c-1.478,1.478-2.272,3.6-3.979,3.269-1.567-.3-1.588-2.059-1.265-3.647a1.883,1.883,0,0,0-1.214-2.45c-1.28-.338-2.446,1.012-3.158,2.013-1.333,1.876-2.118.354-4.636.994h-.353a22.228,22.228,0,0,0,6.469,17.344q.2.2.408.4l.265-.265c1.794-1.036,4.277-4.861,5.322-7.524a10.315,10.315,0,0,1,3.3-3.968c1.751-1.508,2.656-2.545,2.762-4.274Z" transform="translate(-80.064 -122.929)" fill="#cbe558" fill-rule="evenodd"/>
      </g>
      <g id="Grupo_1212724" data-name="Grupo 1212724" transform="translate(-0.001 0.003)">
        <path id="Trazado_1085329" data-name="Trazado 1085329" d="M68.208,377.8c-.752-.249-1.514-.507-2.285-.767l-.3-.1v-5.393a1.35,1.35,0,0,0-1-1.3c-1.413-.379-2.882-.827-4.438-1.3-4.219-1.288-9-2.748-13.547-2.966-4.9-.234-8.864.988-12.07,3.733-3.206-2.744-7.169-3.967-12.07-3.733-4.546.218-9.328,1.677-13.548,2.966-1.555.475-3.024.923-4.438,1.3a1.35,1.35,0,0,0-1,1.3v5.393l-.307.1c-.769.259-1.529.516-2.279.765a1.35,1.35,0,0,0-.88,1.63l1.4,5.229a1.35,1.35,0,0,0,1.654.956c1.484-.4,3.049-.882,4.705-1.394,4.117-1.274,8.782-2.717,13.068-3.019,4.69-.331,8.232.771,10.826,3.365a1.35,1.35,0,0,0,.955.4h3.832a1.351,1.351,0,0,0,.955-.4c2.594-2.594,6.137-3.695,10.826-3.365,4.285.3,8.951,1.745,13.068,3.019,1.657.513,3.221,1,4.705,1.394a1.35,1.35,0,0,0,1.654-.956l1.4-5.229a1.35,1.35,0,0,0-.879-1.63ZM59.4,371.517c1.219.372,2.386.728,3.526,1.051v3.462a61.579,61.579,0,0,0-13.1-3.116c-5.4-.525-9.977.34-13.909,2.642v-3.44h0c6.322-5.836,15.426-3.057,23.479-.6Zm6.038,11.127c-1.053-.305-2.156-.646-3.3-1C53.591,379,43,375.727,35.939,382.264H33.194C26.128,375.727,15.542,379,7,381.643c-1.148.355-2.252.7-3.3,1l-.717-2.683,1.085-.366c2.732-.922,5.556-1.876,8.4-2.635a1.35,1.35,0,1,0-.7-2.609c-1.882.5-3.739,1.082-5.561,1.68v-3.462c1.14-.323,2.307-.679,3.526-1.051,8.053-2.458,17.158-5.238,23.479.6h0v3.438a20.425,20.425,0,0,0-8.973-2.716,1.35,1.35,0,0,0-.2,2.693,17.544,17.544,0,0,1,9.7,3.633,1.351,1.351,0,0,0,1.65,0c8.644-6.669,19.814-2.9,29.668.429l1.091.368Z" transform="translate(0.001 -316.529)"/>
        <path id="Trazado_1085330" data-name="Trazado 1085330" d="M125.184,418.733h0a1.35,1.35,0,1,0,1.351,1.35A1.35,1.35,0,0,0,125.183,418.733Z" transform="translate(-107.112 -362.193)"/>
        <path id="Trazado_1085331" data-name="Trazado 1085331" d="M104.632,47.262A23.63,23.63,0,0,0,121.34,6.924,23.63,23.63,0,0,0,87.923,40.341,23.476,23.476,0,0,0,104.632,47.262Zm20.929-23.63q0,.27-.007.539a2.345,2.345,0,0,1-2.023-.081,3.443,3.443,0,0,1-1.116-1.847,3.656,3.656,0,0,0-1.729-2.381,2.572,2.572,0,0,0-2.073.07,2.584,2.584,0,0,1-.864.124c-1.422.056-2.981.386-3.481,3.605-.032.2-.073.215-.125.228a1.811,1.811,0,0,1-1.525-.715,6.223,6.223,0,0,1-.818-2.8c-.294-2.09-.739-5.248-5.188-5.248-.183,0-.441-.283-.487-.635-.02-.151-.08-.61.8-.846,2.027-.543,2.475-1.694,2.562-2.331.113-.831-.174-2.07-2.183-3.254-1.538-.906-1.387-1.6-.725-3.456a10.346,10.346,0,0,0,.509-1.752,20.935,20.935,0,0,1,18.473,20.787ZM89.833,8.833a20.787,20.787,0,0,1,14.525-6.128c-.083.315-.209.67-.322.986-.613,1.722-1.639,4.6,1.9,6.688a3.818,3.818,0,0,1,.7.511,2.908,2.908,0,0,1-.41.139,3.458,3.458,0,0,0-2.779,3.807,3.313,3.313,0,0,0,3.165,2.983c2.013,0,2.195.654,2.514,2.924a8.393,8.393,0,0,0,1.328,4.044,4.451,4.451,0,0,0,4.34,1.72,2.853,2.853,0,0,0,2.142-2.434,2.8,2.8,0,0,1,.383-1.273,3.018,3.018,0,0,1,.537-.048,5.042,5.042,0,0,0,1.736-.3c.1.2.207.505.289.728a5.652,5.652,0,0,0,2.3,3.253,4.64,4.64,0,0,0,2.355.637,5.181,5.181,0,0,0,.756-.057A20.936,20.936,0,0,1,91.364,39.822a23.05,23.05,0,0,0,4.766-7.333,8.329,8.329,0,0,1,2.619-3.177c.109-.092.212-.179.307-.261,1.68-1.447,3.082-2.838,3.228-5.214a3.725,3.725,0,0,0-2.094-3.767,3.684,3.684,0,0,0-4.132.838,15.042,15.042,0,0,0-1.294,1.538c-.772,1.01-1.149,1.423-1.476,1.359-.147-.028-.174-.068-.192-.1a3.148,3.148,0,0,1,0-1.957A3.228,3.228,0,0,0,90.9,17.729c-1.564-.413-3.113.44-4.6,2.536-.252.354-.374.4-.375.4a2.8,2.8,0,0,1-.608-.046,8.472,8.472,0,0,0-1.383-.1,20.771,20.771,0,0,1,5.9-11.69ZM83.706,23.241a5.071,5.071,0,0,1,1.249.058A3.2,3.2,0,0,0,88.5,21.83c.918-1.291,1.508-1.543,1.712-1.49.325.086.308.523.236.875a5.185,5.185,0,0,0,.407,4,2.918,2.918,0,0,0,1.928,1.244c2.02.387,3.189-1.143,4.129-2.372a12.776,12.776,0,0,1,1.058-1.269.991.991,0,0,1,1.112-.285,1.08,1.08,0,0,1,.509,1.139c-.069,1.125-.563,1.842-2.3,3.334-.089.076-.185.157-.286.243A10.739,10.739,0,0,0,93.616,31.5a19.808,19.808,0,0,1-4.228,6.47A20.782,20.782,0,0,1,83.7,23.632q0-.2,0-.391Z" transform="translate(-70.065 -0.003)"/>
      </g>
    </g>
  </g>
</svg>
