<svg xmlns="http://www.w3.org/2000/svg" xmlns:xlink="http://www.w3.org/1999/xlink" width="110" height="110" viewBox="0 0 110 110">
  <defs>
    <filter id="Trazado_982547" x="0" y="0" width="110" height="110" filterUnits="userSpaceOnUse">
      <feOffset dy="3" input="SourceAlpha"/>
      <feGaussianBlur stdDeviation="3" result="blur"/>
      <feFlood flood-opacity="0.161"/>
      <feComposite operator="in" in2="blur"/>
      <feComposite in="SourceGraphic"/>
    </filter>
  </defs>
  <g id="Grupo_1212727" data-name="Grupo 1212727" transform="translate(-377 -4145.525)">
    <g id="Grupo_1211701" data-name="Grupo 1211701" transform="translate(0 -1927.754)">
      <g id="Grupo_1200150" data-name="Grupo 1200150" transform="translate(386 6079.28)">
        <g id="Grupo_1185951" data-name="Grupo 1185951" transform="translate(0 0)">
          <g id="Grupo_1184083" data-name="Grupo 1184083" transform="translate(0 0)">
            <g id="Grupo_1183743" data-name="Grupo 1183743" transform="translate(0 0)">
              <g id="Grupo_1181545" data-name="Grupo 1181545">
                <g id="Grupo_1177562" data-name="Grupo 1177562">
                  <g id="Grupo_1173147" data-name="Grupo 1173147" transform="translate(0 0)">
                    <g id="Grupo_1163801" data-name="Grupo 1163801" transform="translate(0 0)">
                      <g id="Grupo_1163014" data-name="Grupo 1163014" transform="translate(0 0)">
                        <g id="Grupo_1157015" data-name="Grupo 1157015" transform="translate(0 0)">
                          <g id="Grupo_1155792" data-name="Grupo 1155792" transform="translate(0 0)">
                            <g id="Grupo_1154703" data-name="Grupo 1154703" transform="translate(0 0)">
                              <g id="Grupo_1150789" data-name="Grupo 1150789">
                                <g id="Grupo_1154212" data-name="Grupo 1154212">
                                  <g id="Grupo_1152583" data-name="Grupo 1152583">
                                    <g id="Grupo_1146973" data-name="Grupo 1146973">
                                      <g id="Grupo_1146954" data-name="Grupo 1146954">
                                        <g transform="matrix(1, 0, 0, 1, -9, -6)" filter="url(#Trazado_982547)">
                                          <g id="Trazado_982547-2" data-name="Trazado 982547" transform="translate(9 6)" fill="#fdecc1">
                                            <path d="M 46.00000762939453 90.49988555908203 C 39.99188613891602 90.49988555908203 34.16427612304688 89.32352447509766 28.67906188964844 87.00347137451172 C 23.38020706176758 84.76226043701172 18.62104797363281 81.55342864990234 14.53375434875488 77.46615600585938 C 10.44647407531738 73.37887573242188 7.237647533416748 68.61971282958984 4.996420860290527 63.32085800170898 C 2.676367521286011 57.83565902709961 1.500007629394531 52.00806045532227 1.500007629394531 45.99993896484375 C 1.500007629394531 39.99181747436523 2.676367521286011 34.16421890258789 4.996420860290527 28.67901802062988 C 7.237647533416748 23.38017845153809 10.44647407531738 18.62101936340332 14.53375434875488 14.53373908996582 C 18.62104797363281 10.44645881652832 23.38020706176758 7.237632274627686 28.67906188964844 4.996418952941895 C 34.16427612304688 2.676365613937378 39.99188613891602 1.500005602836609 46.00000762939453 1.500005602836609 C 52.00812911987305 1.500005602836609 57.83573913574219 2.676365613937378 63.32095336914062 4.996418952941895 C 68.61980438232422 7.237632274627686 73.37896728515625 10.44645881652832 77.46626281738281 14.53373908996582 C 81.55354309082031 18.62101936340332 84.76236724853516 23.38017845153809 87.00359344482422 28.67901802062988 C 89.32364654541016 34.16421890258789 90.50000762939453 39.99181747436523 90.50000762939453 45.99993896484375 C 90.50000762939453 52.00806045532227 89.32364654541016 57.83565902709961 87.00359344482422 63.32085800170898 C 84.76236724853516 68.61971282958984 81.55354309082031 73.37887573242188 77.46626281738281 77.46615600585938 C 73.37896728515625 81.55342864990234 68.61980438232422 84.76226043701172 63.32095336914062 87.00347137451172 C 57.83573913574219 89.32352447509766 52.00812911987305 90.49988555908203 46.00000762939453 90.49988555908203 Z" stroke="none"/>
                                            <path d="M 46.00000762939453 2.999992370605469 C 40.19372177124023 2.999992370605469 34.56270599365234 4.136497497558594 29.26339340209961 6.377906799316406 C 24.14333343505859 8.543510437011719 19.54441833496094 11.64437866210938 15.59440612792969 15.59439849853516 C 11.6444091796875 19.54439544677734 8.543525695800781 24.14329528808594 6.377922058105469 29.26335144042969 C 4.136505126953125 34.56266784667969 3.000007629394531 40.19366836547852 3.000007629394531 45.99993896484375 C 3.000007629394531 51.80620956420898 4.136505126953125 57.43722534179688 6.377922058105469 62.73654174804688 C 8.543525695800781 67.85658264160156 11.6444091796875 72.45548248291016 15.59440612792969 76.40549468994141 C 19.54441833496094 80.35549926757812 24.14333343505859 83.45636749267578 29.26337814331055 85.62196350097656 C 34.56270599365234 87.86338043212891 40.19372177124023 88.9998779296875 46.00000762939453 88.9998779296875 C 51.80629348754883 88.9998779296875 57.43730926513672 87.86338043212891 62.73662185668945 85.62196350097656 C 67.85668182373047 83.45636749267578 72.45558166503906 80.35549926757812 76.40559387207031 76.40549468994141 C 80.35560607910156 72.45548248291016 83.45648193359375 67.85658264160156 85.62207794189453 62.73654174804688 C 87.86351013183594 57.43722534179688 89.00000762939453 51.80620956420898 89.00000762939453 45.99993896484375 C 89.00000762939453 40.19366836547852 87.86351013183594 34.56266784667969 85.62207794189453 29.26335144042969 C 83.45648193359375 24.14329528808594 80.35560607910156 19.54439544677734 76.40559387207031 15.59439849853516 C 72.45558166503906 11.64437866210938 67.85668182373047 8.543510437011719 62.73662185668945 6.377906799316406 C 57.43729400634766 4.136497497558594 51.80629348754883 2.999992370605469 46.00000762939453 2.999992370605469 M 46.00000762939453 -7.62939453125e-06 C 71.40509033203125 -7.62939453125e-06 92.00000762939453 20.59487915039062 92.00000762939453 45.99993896484375 C 92.00000762939453 71.40501403808594 71.40509033203125 91.99988555908203 46.00000762939453 91.99988555908203 C 20.59490966796875 91.99988555908203 7.62939453125e-06 71.40501403808594 7.62939453125e-06 45.99993896484375 C 7.62939453125e-06 20.59487915039062 20.59490966796875 -7.62939453125e-06 46.00000762939453 -7.62939453125e-06 Z" stroke="none" fill="#f8c234"/>
                                          </g>
                                        </g>
                                      </g>
                                    </g>
                                  </g>
                                </g>
                              </g>
                            </g>
                          </g>
                        </g>
                      </g>
                    </g>
                  </g>
                </g>
              </g>
            </g>
          </g>
        </g>
      </g>
    </g>
    <g id="Page-1" transform="translate(398.843 4161.726)">
      <g id="_026---Idea" data-name="026---Idea" transform="translate(0.424)">
        <path id="Shape" d="M27.608,52.377l-.49,5.929H3.61a2.18,2.18,0,0,1-2.147-2.594l4.773-24.5A1.09,1.09,0,0,1,7.3,30.33h3.03L6.705,52.148a1.1,1.1,0,0,0,1.406,1.221,37.283,37.283,0,0,1,19.5-.992Z" transform="translate(-0.334 2.724)" fill="sienna"/>
        <path id="Shape-2" data-name="Shape" d="M58.548,58.306H35.04l-.49-5.929a37.283,37.283,0,0,1,19.5.992,1.1,1.1,0,0,0,1.406-1.221L51.824,30.33h3.03a1.09,1.09,0,0,1,1.068.883l4.773,24.5a2.18,2.18,0,0,1-2.147,2.594Z" transform="translate(2.642 2.724)" fill="sienna"/>
        <path id="Shape-3" data-name="Shape" d="M59.271,55.712,54.5,31.213a1.09,1.09,0,0,0-1.068-.883H50.4l.008.044a1.09,1.09,0,0,1,.821.839L56,55.712a2.18,2.18,0,0,1-2.147,2.594h3.269a2.18,2.18,0,0,0,2.147-2.594Z" transform="translate(4.065 2.724)" fill="#783e22"/>
        <path id="Shape-4" data-name="Shape" d="M56.588,53.62a37.283,37.283,0,0,0-19.5-.992A25.231,25.231,0,0,0,32.133,54.2a25.231,25.231,0,0,0-4.959-1.569,37.283,37.283,0,0,0-19.5.992A1.1,1.1,0,0,1,6.271,52.4L9.9,30.582l.305-1.842a1.1,1.1,0,0,1,.915-.9c.741-.109,1.5-.218,2.267-.305a7.774,7.774,0,0,0,6.91,4.218,7.858,7.858,0,0,0,2.692-.48,5.74,5.74,0,0,0,9.776,1.875,9.453,9.453,0,0,0,3.422.643h.065c.229,1.962,1.253,3.117,4.675,4.261a5.961,5.961,0,0,1,2.7,1.787,2.308,2.308,0,0,0,2.67.687,2.276,2.276,0,0,0,1.373-2.082,2.218,2.218,0,0,0-.109-.7,9.621,9.621,0,0,0-1.439-2.9,8.106,8.106,0,0,0,4.13-5.667,5.65,5.65,0,0,0,1.014-1.591c.632.076,1.253.153,1.875.251a1.1,1.1,0,0,1,.915.9l.305,1.842L57.994,52.4a1.1,1.1,0,0,1-1.406,1.221Z" transform="translate(0.1 2.473)" fill="#f5f5f5"/>
        <path id="Shape-5" data-name="Shape" d="M54.329,52.4,50.7,30.577l-.305-1.842a1.1,1.1,0,0,0-.915-.9c-.621-.1-1.242-.174-1.875-.251a5.667,5.667,0,0,1-.545.971,1.077,1.077,0,0,1,.062.184l.305,1.842L51.056,52.4a1.055,1.055,0,0,1-.109.654c.654.171,1.308.355,1.969.568A1.1,1.1,0,0,0,54.329,52.4Z" transform="translate(3.765 2.477)" fill="#cfd8dc"/>
        <path id="Shape-6" data-name="Shape" d="M35.9,56.489c0,1.2-2.441,2.18-5.449,2.18S25,57.687,25,56.489l.49-5.929a25.231,25.231,0,0,1,4.959,1.569,25.231,25.231,0,0,1,4.959-1.569Z" transform="translate(1.784 4.542)" fill="#783e22"/>
        <path id="Shape-7" data-name="Shape" d="M51.234,26.971a5.506,5.506,0,0,1-.48,2.278,5.65,5.65,0,0,1-1.014,1.591,8.106,8.106,0,0,1-4.13,5.667,9.621,9.621,0,0,1,1.439,2.9,2.218,2.218,0,0,1,.109.7,2.276,2.276,0,0,1-1.373,2.082,2.308,2.308,0,0,1-2.67-.687,5.961,5.961,0,0,0-2.7-1.787c-3.422-1.144-4.446-2.3-4.675-4.261h-.065a9.453,9.453,0,0,1-3.422-.643,5.74,5.74,0,0,1-9.776-1.874,7.786,7.786,0,0,1-8.926-11.966,3.183,3.183,0,0,1-.2-1.112,3.4,3.4,0,0,1,2.725-3.335c-.011-.131-.022-.262-.022-.4a4.405,4.405,0,0,1,4.4-4.4,4.3,4.3,0,0,1,1.907.436A6.437,6.437,0,0,1,27.9,9a6.321,6.321,0,0,1,4.229,1.6,3.378,3.378,0,0,1,5.994.49,8.837,8.837,0,0,1,.937-.054,8.128,8.128,0,0,1,8.087,7.454h.033a3.378,3.378,0,0,1,3.378,3.389,3.5,3.5,0,0,1-.436,1.678,5.776,5.776,0,0,1,1.112,3.411Z" transform="translate(0.616 0.808)" fill="#e91e63"/>
        <path id="Shape-8" data-name="Shape" d="M48.362,23.56a3.5,3.5,0,0,0,.436-1.678,3.378,3.378,0,0,0-3.378-3.389h-.033A8.128,8.128,0,0,0,37.3,11.038a8.836,8.836,0,0,0-.937.054A3.366,3.366,0,0,0,31.6,9.428a3.352,3.352,0,0,1,1.493,1.664,8.836,8.836,0,0,1,.937-.054,8.128,8.128,0,0,1,8.087,7.454h.033a3.378,3.378,0,0,1,3.378,3.389,3.5,3.5,0,0,1-.436,1.678A5.776,5.776,0,0,1,46.2,26.971a5.506,5.506,0,0,1-.48,2.278,5.65,5.65,0,0,1-1.014,1.591,8.106,8.106,0,0,1-4.13,5.667,9.621,9.621,0,0,1,1.439,2.9,2.218,2.218,0,0,1,.109.7,2.255,2.255,0,0,1-.634,1.537A2.25,2.25,0,0,0,45.4,40.1a2.218,2.218,0,0,0-.109-.7,9.621,9.621,0,0,0-1.439-2.9,8.106,8.106,0,0,0,4.13-5.667,5.65,5.65,0,0,0,1.014-1.591,5.506,5.506,0,0,0,.48-2.278,5.776,5.776,0,0,0-1.112-3.411Z" transform="translate(2.377 0.808)" fill="#ad1457"/>
        <path id="Shape-9" data-name="Shape" d="M41.131,25.532a1.09,1.09,0,0,0-1.948.981,1.623,1.623,0,0,1-.525,2.054,1.645,1.645,0,0,1-2.367-.6,1.09,1.09,0,1,0-1.95.975,3.8,3.8,0,1,0,6.79-3.4Z" transform="translate(2.612 2.24)" fill="#ad1457"/>
        <path id="Shape-10" data-name="Shape" d="M35.232,25.444a6.507,6.507,0,0,0,2.7-4.148,1.09,1.09,0,1,0-2.14-.41,4.344,4.344,0,0,1-1.8,2.767A4.449,4.449,0,0,1,28.251,23a1.091,1.091,0,0,0-1.613,1.47,6.572,6.572,0,0,0,3.493,2.014,3.247,3.247,0,0,1-2.653,1.364,1.09,1.09,0,0,0,0,2.18,5.4,5.4,0,0,0,5.078-3.5,6.566,6.566,0,0,0,2.676-1.089Z" transform="translate(1.905 1.795)" fill="#ad1457"/>
        <path id="Shape-11" data-name="Shape" d="M21.476,27.444a1.635,1.635,0,0,1-2.089-1.553v-.027a1.078,1.078,0,0,0-1.09-1.076,1.1,1.1,0,0,0-1.09,1.1A3.8,3.8,0,0,0,21,29.693a3.867,3.867,0,0,0,1.09-.16,1.09,1.09,0,0,0-.621-2.089Z" transform="translate(1.084 2.227)" fill="#ad1457"/>
        <path id="Shape-12" data-name="Shape" d="M28.3,17.09A1.09,1.09,0,0,0,27.213,16,5.019,5.019,0,0,0,22.2,21.013a1.09,1.09,0,1,0,2.18,0,2.834,2.834,0,0,1,2.834-2.834,1.09,1.09,0,0,0,1.09-1.09Z" transform="translate(1.532 1.437)" fill="#ad1457"/>
        <g id="Grupo_1212726" data-name="Grupo 1212726" transform="translate(5.972)">
          <path id="Shape-13" data-name="Shape" d="M30.09,3.269A1.09,1.09,0,0,1,29,2.18V1.09a1.09,1.09,0,1,1,2.18,0V2.18A1.09,1.09,0,0,1,30.09,3.269Z" transform="translate(-3.829)" fill="#ffdc00"/>
          <path id="Shape-14" data-name="Shape" d="M46.207,10.154a1.09,1.09,0,0,1-.771-1.86l1.09-1.09a1.09,1.09,0,1,1,1.541,1.541l-1.09,1.09a1.09,1.09,0,0,1-.771.319Z" transform="translate(-2.381 0.617)" fill="#ffdc00"/>
          <path id="Shape-15" data-name="Shape" d="M14.064,10.154a1.09,1.09,0,0,1-.771-.319L12.2,8.744A1.09,1.09,0,1,1,13.744,7.2l1.09,1.09a1.09,1.09,0,0,1-.771,1.86Z" transform="translate(-5.367 0.617)" fill="#ffdc00"/>
          <path id="Shape-16" data-name="Shape" d="M21.775,6.105a1.09,1.09,0,0,1-1.007-.672L19.517,2.412a1.09,1.09,0,1,1,2.013-.835L22.782,4.6a1.09,1.09,0,0,1-.59,1.425,1.105,1.105,0,0,1-.417.082Z" transform="translate(-4.689 0.079)" fill="#ffdc00"/>
          <path id="Shape-17" data-name="Shape" d="M38.509,6.105a1.105,1.105,0,0,1-.417-.083A1.09,1.09,0,0,1,37.5,4.6l1.252-3.021a1.09,1.09,0,1,1,2.013.835L39.516,5.433a1.09,1.09,0,0,1-1.007.672Z" transform="translate(-3.073 0.079)" fill="#ffdc00"/>
          <path id="Shape-18" data-name="Shape" d="M50.415,17.865a1.09,1.09,0,0,1-.417-2.1l3.021-1.251a1.09,1.09,0,1,1,.834,2.014l-3.02,1.251a1.09,1.09,0,0,1-.417.084Z" transform="translate(-2.003 1.296)" fill="#ffdc00"/>
          <path id="Shape-19" data-name="Shape" d="M10.014,17.865a1.09,1.09,0,0,1-.417-.084L6.576,16.53a1.09,1.09,0,0,1,.834-2.014l3.021,1.251a1.09,1.09,0,0,1-.417,2.1Z" transform="translate(-5.903 1.296)" fill="#ffdc00"/>
        </g>
        <path id="Shape-20" data-name="Shape" d="M60.058,33.015a2.18,2.18,0,0,0-2.139-1.769h-2.1l-.155-.927a2.191,2.191,0,0,0-1.821-1.806c-.207-.033-.416-.054-.622-.083a6.648,6.648,0,0,0-.828-4.86A4.46,4.46,0,0,0,49.157,17.6a9.273,9.273,0,0,0-9.06-7.57c-.109,0-.206.014-.31.017a4.433,4.433,0,0,0-6.782-.844A7.481,7.481,0,0,0,28.936,8a7.567,7.567,0,0,0-5.948,2.929,5.428,5.428,0,0,0-6.938,4.878A4.486,4.486,0,0,0,13.3,19.94a4.432,4.432,0,0,0,.109.93,8.771,8.771,0,0,0-1.045,7.52c-.292.04-.591.076-.872.118a2.193,2.193,0,0,0-1.835,1.8l-.155.931H7.395a2.18,2.18,0,0,0-2.138,1.764L.484,57.509A3.269,3.269,0,0,0,3.7,61.4H26.427c.9,1.489,3.644,2.18,6.229,2.18,2.558,0,5.274-.675,6.2-2.18H61.613A3.269,3.269,0,0,0,64.83,57.51ZM16.6,21.913a2.3,2.3,0,0,1,1.177-4.274,2.26,2.26,0,0,1,1.83.924,1.09,1.09,0,0,0,1.75-1.3,4.4,4.4,0,0,0-3.091-1.744A3.313,3.313,0,0,1,21.5,12.9a3.4,3.4,0,0,1,.4.044,7.158,7.158,0,0,0-.229.682,1.09,1.09,0,0,0,2.11.545,5.3,5.3,0,0,1,.566-1.364,5.382,5.382,0,0,1,4.6-2.623,5.293,5.293,0,0,1,2.887.872,4.43,4.43,0,0,0-.256,1.429,1.09,1.09,0,0,0,2.18,0,2.292,2.292,0,1,1,4.585,0,1.09,1.09,0,1,0,2.18,0c0-.084-.021-.163-.025-.247a7.074,7.074,0,0,1,6.454,5.456,4.406,4.406,0,0,0-1.409.7,1.09,1.09,0,0,0,1.308,1.744,2.3,2.3,0,0,1,3.37,2.972,2.325,2.325,0,0,1-1.032.955,1.09,1.09,0,0,0,.464,2.071,1.076,1.076,0,0,0,.462-.1,4.476,4.476,0,0,0,.814-.509,4.655,4.655,0,0,1-.922,4.648l-.026.027a4.707,4.707,0,0,1-5.558,1.02,4.416,4.416,0,0,1-1.291-.972,1.09,1.09,0,1,0-1.607,1.472,6.606,6.606,0,0,0,1.906,1.445,6.713,6.713,0,0,0,5.034.465,6.947,6.947,0,0,1-4.488,2.752,1.09,1.09,0,0,0,.171,2.165,1.16,1.16,0,0,0,.173-.013,8.956,8.956,0,0,0,1.933-.565,9.745,9.745,0,0,1,.813,1.871,1.124,1.124,0,0,1,.057.352A1.176,1.176,0,0,1,46.4,41.27a1.234,1.234,0,0,1-1.407-.378,6.956,6.956,0,0,0-3.19-2.12c-2.355-.789-3.264-1.494-3.65-2.261a10.462,10.462,0,0,0,1.671-.349,1.09,1.09,0,1,0-.641-2.084,8.259,8.259,0,0,1-1.881.345,8.089,8.089,0,0,1-3.612-.545,1.09,1.09,0,0,0-1.222.3,4.667,4.667,0,0,1-7.526-5.457A1.092,1.092,0,1,0,23.066,27.6a6.75,6.75,0,0,0-.872,4.651,6.66,6.66,0,0,1-7.535-9.121,4.393,4.393,0,0,0,.811.646,1.09,1.09,0,0,0,1.125-1.867Zm-4.8,8.755c.5-.074,1.021-.139,1.537-.207A8.8,8.8,0,0,0,22.9,34.338,6.827,6.827,0,0,0,33.591,36.15a10.462,10.462,0,0,0,2.274.412c.526,2,2.048,3.206,5.244,4.278A4.83,4.83,0,0,1,43.328,42.3a3.471,3.471,0,0,0,2.633,1.237,3.31,3.31,0,0,0,1.294-.264,3.356,3.356,0,0,0,2.037-3.085,3.233,3.233,0,0,0-.166-1.031,11.913,11.913,0,0,0-.963-2.218A9.187,9.187,0,0,0,51.784,31.4a6.827,6.827,0,0,0,.628-.878c.365.047.73.088,1.1.149l3.934,23.665a37.409,37.409,0,0,0-23.7,0V40.695a1.09,1.09,0,1,0-2.18,0V54.342a37.416,37.416,0,0,0-23.7-.009ZM2.851,58.821a1.081,1.081,0,0,1-.229-.894l4.772-24.5H9.138L5.718,53.979a2.187,2.187,0,0,0,2.813,2.435,36.46,36.46,0,0,1,18-1.142l-.325,3.951H3.7a1.1,1.1,0,0,1-.849-.4ZM32.657,61.4c-2.625,0-4.132-.776-4.353-1.121l.375-4.523a23.29,23.29,0,0,1,3.507,1.176,1.1,1.1,0,0,0,.471.109,1.083,1.083,0,0,0,.472-.109,23.213,23.213,0,0,1,3.506-1.184l.375,4.529c-.221.347-1.727,1.123-4.353,1.123Zm29.806-2.581a1.1,1.1,0,0,1-.849.4H39.11l-.327-3.958a36.471,36.471,0,0,1,18.008,1.152,2.186,2.186,0,0,0,2.8-2.44L56.177,33.427h1.744l4.773,24.5A1.081,1.081,0,0,1,62.462,58.821Z" transform="translate(-0.424 0.719)"/>
      </g>
    </g>
  </g>
</svg>
