<svg xmlns="http://www.w3.org/2000/svg" xmlns:xlink="http://www.w3.org/1999/xlink" width="110" height="110" viewBox="0 0 110 110">
  <defs>
    <filter id="Trazado_982547" x="0" y="0" width="110" height="110" filterUnits="userSpaceOnUse">
      <feOffset dy="3" input="SourceAlpha"/>
      <feGaussianBlur stdDeviation="3" result="blur"/>
      <feFlood flood-opacity="0.161"/>
      <feComposite operator="in" in2="blur"/>
      <feComposite in="SourceGraphic"/>
    </filter>
  </defs>
  <g id="Grupo_1212747" data-name="Grupo 1212747" transform="translate(-1007 -4136.523)">
    <g id="Grupo_1211704" data-name="Grupo 1211704" transform="translate(630 -1936.756)">
      <g id="Grupo_1200150" data-name="Grupo 1200150" transform="translate(386 6079.28)">
        <g id="Grupo_1185951" data-name="Grupo 1185951" transform="translate(0 0)">
          <g id="Grupo_1184083" data-name="Grupo 1184083" transform="translate(0 0)">
            <g id="Grupo_1183743" data-name="Grupo 1183743" transform="translate(0 0)">
              <g id="Grupo_1181545" data-name="Grupo 1181545">
                <g id="Grupo_1177562" data-name="Grupo 1177562">
                  <g id="Grupo_1173147" data-name="Grupo 1173147" transform="translate(0 0)">
                    <g id="Grupo_1163801" data-name="Grupo 1163801" transform="translate(0 0)">
                      <g id="Grupo_1163014" data-name="Grupo 1163014" transform="translate(0 0)">
                        <g id="Grupo_1157015" data-name="Grupo 1157015" transform="translate(0 0)">
                          <g id="Grupo_1155792" data-name="Grupo 1155792" transform="translate(0 0)">
                            <g id="Grupo_1154703" data-name="Grupo 1154703" transform="translate(0 0)">
                              <g id="Grupo_1150789" data-name="Grupo 1150789">
                                <g id="Grupo_1154212" data-name="Grupo 1154212">
                                  <g id="Grupo_1152583" data-name="Grupo 1152583">
                                    <g id="Grupo_1146973" data-name="Grupo 1146973">
                                      <g id="Grupo_1146954" data-name="Grupo 1146954">
                                        <g transform="matrix(1, 0, 0, 1, -9, -6)" filter="url(#Trazado_982547)">
                                          <g id="Trazado_982547-2" data-name="Trazado 982547" transform="translate(9 6)" fill="#fdecc1">
                                            <path d="M 46.00000762939453 90.49988555908203 C 39.99188613891602 90.49988555908203 34.16427612304688 89.32352447509766 28.67906188964844 87.00347137451172 C 23.38020706176758 84.76226043701172 18.62104797363281 81.55342864990234 14.53375434875488 77.46615600585938 C 10.44647407531738 73.37887573242188 7.237647533416748 68.61971282958984 4.996420860290527 63.32085800170898 C 2.676367521286011 57.83565902709961 1.500007629394531 52.00806045532227 1.500007629394531 45.99993896484375 C 1.500007629394531 39.99181747436523 2.676367521286011 34.16421890258789 4.996420860290527 28.67901802062988 C 7.237647533416748 23.38017845153809 10.44647407531738 18.62101936340332 14.53375434875488 14.53373908996582 C 18.62104797363281 10.44645881652832 23.38020706176758 7.237632274627686 28.67906188964844 4.996418952941895 C 34.16427612304688 2.676365613937378 39.99188613891602 1.500005602836609 46.00000762939453 1.500005602836609 C 52.00812911987305 1.500005602836609 57.83573913574219 2.676365613937378 63.32095336914062 4.996418952941895 C 68.61980438232422 7.237632274627686 73.37896728515625 10.44645881652832 77.46626281738281 14.53373908996582 C 81.55354309082031 18.62101936340332 84.76236724853516 23.38017845153809 87.00359344482422 28.67901802062988 C 89.32364654541016 34.16421890258789 90.50000762939453 39.99181747436523 90.50000762939453 45.99993896484375 C 90.50000762939453 52.00806045532227 89.32364654541016 57.83565902709961 87.00359344482422 63.32085800170898 C 84.76236724853516 68.61971282958984 81.55354309082031 73.37887573242188 77.46626281738281 77.46615600585938 C 73.37896728515625 81.55342864990234 68.61980438232422 84.76226043701172 63.32095336914062 87.00347137451172 C 57.83573913574219 89.32352447509766 52.00812911987305 90.49988555908203 46.00000762939453 90.49988555908203 Z" stroke="none"/>
                                            <path d="M 46.00000762939453 2.999992370605469 C 40.19372177124023 2.999992370605469 34.56270599365234 4.136497497558594 29.26339340209961 6.377906799316406 C 24.14333343505859 8.543510437011719 19.54441833496094 11.64437866210938 15.59440612792969 15.59439849853516 C 11.6444091796875 19.54439544677734 8.543525695800781 24.14329528808594 6.377922058105469 29.26335144042969 C 4.136505126953125 34.56266784667969 3.000007629394531 40.19366836547852 3.000007629394531 45.99993896484375 C 3.000007629394531 51.80620956420898 4.136505126953125 57.43722534179688 6.377922058105469 62.73654174804688 C 8.543525695800781 67.85658264160156 11.6444091796875 72.45548248291016 15.59440612792969 76.40549468994141 C 19.54441833496094 80.35549926757812 24.14333343505859 83.45636749267578 29.26337814331055 85.62196350097656 C 34.56270599365234 87.86338043212891 40.19372177124023 88.9998779296875 46.00000762939453 88.9998779296875 C 51.80629348754883 88.9998779296875 57.43730926513672 87.86338043212891 62.73662185668945 85.62196350097656 C 67.85668182373047 83.45636749267578 72.45558166503906 80.35549926757812 76.40559387207031 76.40549468994141 C 80.35560607910156 72.45548248291016 83.45648193359375 67.85658264160156 85.62207794189453 62.73654174804688 C 87.86351013183594 57.43722534179688 89.00000762939453 51.80620956420898 89.00000762939453 45.99993896484375 C 89.00000762939453 40.19366836547852 87.86351013183594 34.56266784667969 85.62207794189453 29.26335144042969 C 83.45648193359375 24.14329528808594 80.35560607910156 19.54439544677734 76.40559387207031 15.59439849853516 C 72.45558166503906 11.64437866210938 67.85668182373047 8.543510437011719 62.73662185668945 6.377906799316406 C 57.43729400634766 4.136497497558594 51.80629348754883 2.999992370605469 46.00000762939453 2.999992370605469 M 46.00000762939453 -7.62939453125e-06 C 71.40509033203125 -7.62939453125e-06 92.00000762939453 20.59487915039062 92.00000762939453 45.99993896484375 C 92.00000762939453 71.40501403808594 71.40509033203125 91.99988555908203 46.00000762939453 91.99988555908203 C 20.59490966796875 91.99988555908203 7.62939453125e-06 71.40501403808594 7.62939453125e-06 45.99993896484375 C 7.62939453125e-06 20.59487915039062 20.59490966796875 -7.62939453125e-06 46.00000762939453 -7.62939453125e-06 Z" stroke="none" fill="#f8c234"/>
                                          </g>
                                        </g>
                                      </g>
                                    </g>
                                  </g>
                                </g>
                              </g>
                            </g>
                          </g>
                        </g>
                      </g>
                    </g>
                  </g>
                </g>
              </g>
            </g>
          </g>
        </g>
      </g>
    </g>
    <g id="infografias" transform="translate(1025 4094.207)">
      <g id="Grupo_1212745" data-name="Grupo 1212745" transform="translate(1.084 68.084)">
        <path id="Trazado_1085355" data-name="Trazado 1085355" d="M9.5,77.478a2.087,2.087,0,0,1,.47-1.523c.386-.5.783-1.167,1.409-1.343a2.978,2.978,0,0,1,.809-.111H78.066a2.977,2.977,0,0,1,2.977,2.977v46.51a2.977,2.977,0,0,1-.111.809,2.816,2.816,0,0,1-.847,1.091,2.452,2.452,0,0,1-2.019.643H12.188a2.291,2.291,0,0,1-2.544-2.544Z" transform="translate(-9.211 -74.501)" fill="#f9f8f9"/>
        <path id="Trazado_1085356" data-name="Trazado 1085356" d="M79.221,125.456a2.978,2.978,0,0,1-2.866,2.168H10.477A2.977,2.977,0,0,1,7.5,124.646V78.136A2.978,2.978,0,0,1,9.668,75.27v47.295a2.89,2.89,0,0,0,2.891,2.891Z" transform="translate(-7.5 -75.159)" fill="#e8e8e8"/>
        <path id="Trazado_1085357" data-name="Trazado 1085357" d="M365.234,108.188a4.117,4.117,0,0,0-5.232-3.96,4.737,4.737,0,0,0-.753.44,3.772,3.772,0,0,0-2.1,3.52,3.871,3.871,0,0,0,3.969,3.969,4.1,4.1,0,0,0,2.745-1.05,3.333,3.333,0,0,0,.651-.6A4.093,4.093,0,0,0,365.234,108.188Z" transform="translate(-306.615 -99.8)" fill="#ff7d91"/>
        <path id="Trazado_1085358" data-name="Trazado 1085358" d="M362.542,111.574a4.114,4.114,0,0,1-3.4-6.437,4.114,4.114,0,1,0,4.514,6.282A4.112,4.112,0,0,1,362.542,111.574Z" transform="translate(-305.76 -100.709)" fill="#e15f78"/>
        <path id="Trazado_1085359" data-name="Trazado 1085359" d="M428.873,183.188a4.117,4.117,0,0,0-5.232-3.96,4.735,4.735,0,0,0-.753.44,3.772,3.772,0,0,0-2.1,3.52,3.871,3.871,0,0,0,3.969,3.969,4.1,4.1,0,0,0,2.745-1.05,3.333,3.333,0,0,0,.651-.6A4.093,4.093,0,0,0,428.873,183.188Z" transform="translate(-361.057 -163.96)" fill="#ffe07d"/>
        <path id="Trazado_1085360" data-name="Trazado 1085360" d="M426.181,186.574a4.114,4.114,0,0,1-3.4-6.437,4.114,4.114,0,1,0,4.514,6.282A4.112,4.112,0,0,1,426.181,186.574Z" transform="translate(-360.201 -164.869)" fill="#ffd064"/>
        <path id="Trazado_1085361" data-name="Trazado 1085361" d="M428.873,280.114a4.117,4.117,0,0,0-5.232-3.96,4.734,4.734,0,0,0-.753.44,3.771,3.771,0,0,0-2.1,3.52,3.871,3.871,0,0,0,3.969,3.969,4.1,4.1,0,0,0,2.745-1.05,3.333,3.333,0,0,0,.651-.6A4.094,4.094,0,0,0,428.873,280.114Z" transform="translate(-361.057 -246.877)" fill="#8ce1a4"/>
        <path id="Trazado_1085362" data-name="Trazado 1085362" d="M426.181,283.5a4.114,4.114,0,0,1-3.4-6.437,4.114,4.114,0,1,0,4.514,6.282A4.112,4.112,0,0,1,426.181,283.5Z" transform="translate(-360.201 -247.786)" fill="#80d696"/>
        <path id="Trazado_1085363" data-name="Trazado 1085363" d="M365.234,355.114a4.117,4.117,0,0,0-5.232-3.96,4.737,4.737,0,0,0-.753.44,3.772,3.772,0,0,0-2.1,3.52,3.871,3.871,0,0,0,3.969,3.969,4.1,4.1,0,0,0,2.745-1.05,3.333,3.333,0,0,0,.651-.6A4.094,4.094,0,0,0,365.234,355.114Z" transform="translate(-306.615 -311.037)" fill="#bde4ff"/>
        <path id="Trazado_1085364" data-name="Trazado 1085364" d="M362.542,358.5a4.114,4.114,0,0,1-3.4-6.437,4.114,4.114,0,1,0,4.514,6.282A4.111,4.111,0,0,1,362.542,358.5Z" transform="translate(-305.76 -311.946)" fill="#99dbff"/>
        <path id="Trazado_1085365" data-name="Trazado 1085365" d="M78.18,116.808H61.937a1.161,1.161,0,0,1-1.161-1.161V113.54a1.161,1.161,0,0,1,1.161-1.161H78.18a1.161,1.161,0,0,1,1.161,1.161v2.106A1.161,1.161,0,0,1,78.18,116.808Z" transform="translate(-53.076 -106.904)" fill="#afefa5"/>
        <path id="Trazado_1085366" data-name="Trazado 1085366" d="M185.141,182.518c-.144.039-.287-.064-.428-.02a11.114,11.114,0,0,0-4.346,2.567c-2.122,2.025-2.866,4.881-2.866,8.046,0,.267-.279.531-.261.793l11.766-.05Z" transform="translate(-152.706 -166.879)" fill="#bde4ff"/>
        <path id="Trazado_1085367" data-name="Trazado 1085367" d="M263.122,218.214a11.086,11.086,0,0,1-3.264,7.87l-4.042-3.319L252,218.214l4.407-3.5,4.7-2.888A11.058,11.058,0,0,1,263.122,218.214Z" transform="translate(-216.662 -191.982)" fill="#ffe07d"/>
        <path id="Trazado_1085368" data-name="Trazado 1085368" d="M241.387,183.788l-9.107,6.384-3.332-10.614a11.135,11.135,0,0,1,12.439,4.23Z" transform="translate(-196.942 -163.939)" fill="#ff7d91"/>
        <path id="Trazado_1085369" data-name="Trazado 1085369" d="M195.9,263.87c-.023.023-.046.047-.069.068-.3.275-.613.425-.942.683a10.854,10.854,0,0,1-6.846,2.067A10.492,10.492,0,0,1,177.239,256h10.805Z" transform="translate(-152.706 -229.768)" fill="#8ce1a4"/>
        <path id="Trazado_1085370" data-name="Trazado 1085370" d="M178.494,200.33a11.415,11.415,0,0,0-1.506,8.046l-1.037.245-.9-.245a11.083,11.083,0,0,1,3.444-8.046Z" transform="translate(-150.834 -182.144)" fill="#99dbff"/>
        <path id="Trazado_1085371" data-name="Trazado 1085371" d="M193.96,263.938A11.121,11.121,0,0,1,175.05,256h1.938q.072.4.172.786a11.565,11.565,0,0,0,16.8,7.151Z" transform="translate(-150.834 -229.768)" fill="#80d696"/>
      </g>
      <g id="Grupo_1212746" data-name="Grupo 1212746" transform="translate(0 67)">
        <path id="Trazado_1085372" data-name="Trazado 1085372" d="M69.939,67H4.061A4.066,4.066,0,0,0,0,71.061v30.12a1.084,1.084,0,0,0,2.168,0V71.061a1.9,1.9,0,0,1,1.893-1.893H69.939a1.9,1.9,0,0,1,1.893,1.893v46.51a1.9,1.9,0,0,1-1.893,1.893H4.061a1.9,1.9,0,0,1-1.893-1.893V106.24a1.084,1.084,0,0,0-2.168,0v11.331a4.066,4.066,0,0,0,4.061,4.061H69.939A4.066,4.066,0,0,0,74,117.571V71.061A4.066,4.066,0,0,0,69.939,67Z" transform="translate(0 -67)"/>
        <path id="Trazado_1085373" data-name="Trazado 1085373" d="M178.674,107.461a12.211,12.211,0,0,0-10.335,16.473,1.084,1.084,0,1,0,2.028-.767,9.947,9.947,0,0,1-.586-2.467h9.528l6.729,6.738a9.987,9.987,0,0,1-6.278,2.215h0a10.021,10.021,0,0,1-6.676-2.544,1.084,1.084,0,0,0-1.443,1.618,12.181,12.181,0,0,0,7.037,3.045v3.367a1.084,1.084,0,0,0,1.084,1.084,16.618,16.618,0,0,0,5.412-.911l2.915,2.915a1.084,1.084,0,0,0,.767.317h4.99a5.2,5.2,0,1,0,0-2.168H189.3l-1.977-1.977a16.522,16.522,0,0,0,3-1.969,1.084,1.084,0,1,0-1.38-1.672,14.459,14.459,0,0,1-8.1,3.253v-2.241a12.2,12.2,0,0,0,0-24.309v-2.244A14.443,14.443,0,0,1,192.049,127.2a1.084,1.084,0,1,0,1.844,1.14,16.516,16.516,0,0,0,1.382-2.8l2.182,1.9a1.085,1.085,0,0,0,.712.267h4.871a5.2,5.2,0,1,0,0-2.168h-4.466l-2.614-2.278a16.621,16.621,0,0,0,0-7.287l2.613-2.277h4.472a5.2,5.2,0,1,0-.013-2.168h-4.864a1.084,1.084,0,0,0-.712.267l-2.183,1.9a16.7,16.7,0,0,0-7.951-8.862l1.978-1.978h4.541a5.2,5.2,0,1,0,0-2.168h-4.99a1.085,1.085,0,0,0-.767.317l-2.911,2.911a16.534,16.534,0,0,0-5.416-.908,1.084,1.084,0,0,0-1.084,1.084c0,.024,0,.048,0,.072s0,.048,0,.072v3.224Zm20.251,26.969a3.03,3.03,0,1,1-3.03,3.03A3.033,3.033,0,0,1,198.925,134.43Zm9.2-10.84a3.03,3.03,0,1,1-3.03,3.03A3.033,3.033,0,0,1,208.123,123.59Zm0-14.038a3.03,3.03,0,1,1-3.03,3.03A3.033,3.033,0,0,1,208.123,109.552Zm-9.2-10.811a3.03,3.03,0,1,1-3.03,3.03A3.033,3.033,0,0,1,198.925,98.741Zm-22.882,11.552,2.289,8.238h-8.552a10.06,10.06,0,0,1,6.263-8.238Zm11.528,15.612-6.135-6.144,7.112-4.986a10.011,10.011,0,0,1-.977,11.13ZM187.3,113l-6.908,4.844-2.26-8.135A10.007,10.007,0,0,1,187.3,113Z" transform="translate(-143.336 -92.299)"/>
        <path id="Trazado_1085374" data-name="Trazado 1085374" d="M72.925,104.879H54.36a1.084,1.084,0,0,0-1.084,1.084v4.429a1.084,1.084,0,0,0,1.084,1.084h3.018a1.084,1.084,0,0,0,0-2.168H55.444v-2.261h16.4v2.261h-9.4a1.084,1.084,0,1,0,0,2.168H72.925a1.084,1.084,0,0,0,1.084-1.084v-4.429A1.084,1.084,0,0,0,72.925,104.879Z" transform="translate(-45.576 -99.404)"/>
        <path id="Trazado_1085375" data-name="Trazado 1085375" d="M54.36,185.668h9.973a1.084,1.084,0,0,0,0-2.168H54.36a1.084,1.084,0,0,0,0,2.168Z" transform="translate(-45.576 -166.662)"/>
        <path id="Trazado_1085376" data-name="Trazado 1085376" d="M54.36,211.668h9.973a1.084,1.084,0,0,0,0-2.168H54.36a1.084,1.084,0,0,0,0,2.168Z" transform="translate(-45.576 -188.904)"/>
        <path id="Trazado_1085377" data-name="Trazado 1085377" d="M54.36,237.668h5.6a1.084,1.084,0,0,0,0-2.168h-5.6a1.084,1.084,0,0,0,0,2.168Z" transform="translate(-45.576 -211.146)"/>
        <path id="Trazado_1085378" data-name="Trazado 1085378" d="M54.36,263.668h9.973a1.084,1.084,0,0,0,0-2.168H54.36a1.084,1.084,0,0,0,0,2.168Z" transform="translate(-45.576 -233.389)"/>
        <path id="Trazado_1085379" data-name="Trazado 1085379" d="M54.36,289.668h9.973a1.084,1.084,0,0,0,0-2.168H54.36a1.084,1.084,0,0,0,0,2.168Z" transform="translate(-45.576 -255.631)"/>
        <path id="Trazado_1085380" data-name="Trazado 1085380" d="M54.36,315.668h7.877a1.084,1.084,0,0,0,0-2.168H54.36a1.084,1.084,0,0,0,0,2.168Z" transform="translate(-45.576 -277.873)"/>
        <path id="Trazado_1085381" data-name="Trazado 1085381" d="M54.36,341.668h9.973a1.084,1.084,0,0,0,0-2.168H54.36a1.084,1.084,0,0,0,0,2.168Z" transform="translate(-45.576 -300.115)"/>
        <path id="Trazado_1085382" data-name="Trazado 1085382" d="M54.36,367.668h4.248a1.084,1.084,0,0,0,0-2.168H54.36a1.084,1.084,0,0,0,0,2.168Z" transform="translate(-45.576 -322.357)"/>
      </g>
    </g>
  </g>
</svg>
