<svg xmlns="http://www.w3.org/2000/svg" xmlns:xlink="http://www.w3.org/1999/xlink" width="110" height="110" viewBox="0 0 110 110">
  <defs>
    <filter id="Trazado_982547" x="0" y="0" width="110" height="110" filterUnits="userSpaceOnUse">
      <feOffset dy="3" input="SourceAlpha"/>
      <feGaussianBlur stdDeviation="3" result="blur"/>
      <feFlood flood-opacity="0.161"/>
      <feComposite operator="in" in2="blur"/>
      <feComposite in="SourceGraphic"/>
    </filter>
  </defs>
  <g id="Grupo_1212765" data-name="Grupo 1212765" transform="translate(-1322 -4516.523)">
    <g id="Grupo_1211706" data-name="Grupo 1211706" transform="translate(630 -1557.756)">
      <g id="Grupo_1200151" data-name="Grupo 1200151" transform="translate(701 6080.28)">
        <g id="Grupo_1185952" data-name="Grupo 1185952" transform="translate(0 0)">
          <g id="Grupo_1184115" data-name="Grupo 1184115">
            <g id="Grupo_1183744" data-name="Grupo 1183744" transform="translate(0 0)">
              <g id="Grupo_1181546" data-name="Grupo 1181546">
                <g id="Grupo_1177563" data-name="Grupo 1177563">
                  <g id="Grupo_1173148" data-name="Grupo 1173148" transform="translate(0 0)">
                    <g id="Grupo_1163803" data-name="Grupo 1163803" transform="translate(0 0)">
                      <g id="Grupo_1163015" data-name="Grupo 1163015" transform="translate(0 0)">
                        <g id="Grupo_1157017" data-name="Grupo 1157017" transform="translate(0 0)">
                          <g id="Grupo_1155793" data-name="Grupo 1155793" transform="translate(0 0)">
                            <g id="Grupo_1154704" data-name="Grupo 1154704" transform="translate(0 0)">
                              <g id="Grupo_1150790" data-name="Grupo 1150790">
                                <g id="Grupo_1154214" data-name="Grupo 1154214">
                                  <g id="Grupo_1152583" data-name="Grupo 1152583">
                                    <g id="Grupo_1146973" data-name="Grupo 1146973">
                                      <g id="Grupo_1146954" data-name="Grupo 1146954">
                                        <g transform="matrix(1, 0, 0, 1, -9, -6)" filter="url(#Trazado_982547)">
                                          <g id="Trazado_982547-2" data-name="Trazado 982547" transform="translate(9 6)" fill="#fdecc1">
                                            <path d="M 46.00000762939453 90.49988555908203 C 39.99188613891602 90.49988555908203 34.16427612304688 89.32352447509766 28.67906188964844 87.00347137451172 C 23.38020706176758 84.76226043701172 18.62104797363281 81.55342864990234 14.53375434875488 77.46615600585938 C 10.44647407531738 73.37887573242188 7.237647533416748 68.61971282958984 4.996420860290527 63.32085800170898 C 2.676367521286011 57.83565902709961 1.500007629394531 52.00806045532227 1.500007629394531 45.99993896484375 C 1.500007629394531 39.99181747436523 2.676367521286011 34.16421890258789 4.996420860290527 28.67901802062988 C 7.237647533416748 23.38017845153809 10.44647407531738 18.62101936340332 14.53375434875488 14.53373908996582 C 18.62104797363281 10.44645881652832 23.38020706176758 7.237632274627686 28.67906188964844 4.996418952941895 C 34.16427612304688 2.676365613937378 39.99188613891602 1.500005602836609 46.00000762939453 1.500005602836609 C 52.00812911987305 1.500005602836609 57.83573913574219 2.676365613937378 63.32095336914062 4.996418952941895 C 68.61980438232422 7.237632274627686 73.37896728515625 10.44645881652832 77.46626281738281 14.53373908996582 C 81.55354309082031 18.62101936340332 84.76236724853516 23.38017845153809 87.00359344482422 28.67901802062988 C 89.32364654541016 34.16421890258789 90.50000762939453 39.99181747436523 90.50000762939453 45.99993896484375 C 90.50000762939453 52.00806045532227 89.32364654541016 57.83565902709961 87.00359344482422 63.32085800170898 C 84.76236724853516 68.61971282958984 81.55354309082031 73.37887573242188 77.46626281738281 77.46615600585938 C 73.37896728515625 81.55342864990234 68.61980438232422 84.76226043701172 63.32095336914062 87.00347137451172 C 57.83573913574219 89.32352447509766 52.00812911987305 90.49988555908203 46.00000762939453 90.49988555908203 Z" stroke="none"/>
                                            <path d="M 46.00000762939453 2.999992370605469 C 40.19372177124023 2.999992370605469 34.56270599365234 4.136497497558594 29.26339340209961 6.377906799316406 C 24.14333343505859 8.543510437011719 19.54441833496094 11.64437866210938 15.59440612792969 15.59439849853516 C 11.6444091796875 19.54439544677734 8.543525695800781 24.14329528808594 6.377922058105469 29.26335144042969 C 4.136505126953125 34.56266784667969 3.000007629394531 40.19366836547852 3.000007629394531 45.99993896484375 C 3.000007629394531 51.80620956420898 4.136505126953125 57.43722534179688 6.377922058105469 62.73654174804688 C 8.543525695800781 67.85658264160156 11.6444091796875 72.45548248291016 15.59440612792969 76.40549468994141 C 19.54441833496094 80.35549926757812 24.14333343505859 83.45636749267578 29.26337814331055 85.62196350097656 C 34.56270599365234 87.86338043212891 40.19372177124023 88.9998779296875 46.00000762939453 88.9998779296875 C 51.80629348754883 88.9998779296875 57.43730926513672 87.86338043212891 62.73662185668945 85.62196350097656 C 67.85668182373047 83.45636749267578 72.45558166503906 80.35549926757812 76.40559387207031 76.40549468994141 C 80.35560607910156 72.45548248291016 83.45648193359375 67.85658264160156 85.62207794189453 62.73654174804688 C 87.86351013183594 57.43722534179688 89.00000762939453 51.80620956420898 89.00000762939453 45.99993896484375 C 89.00000762939453 40.19366836547852 87.86351013183594 34.56266784667969 85.62207794189453 29.26335144042969 C 83.45648193359375 24.14329528808594 80.35560607910156 19.54439544677734 76.40559387207031 15.59439849853516 C 72.45558166503906 11.64437866210938 67.85668182373047 8.543510437011719 62.73662185668945 6.377906799316406 C 57.43729400634766 4.136497497558594 51.80629348754883 2.999992370605469 46.00000762939453 2.999992370605469 M 46.00000762939453 -7.62939453125e-06 C 71.40509033203125 -7.62939453125e-06 92.00000762939453 20.59487915039062 92.00000762939453 45.99993896484375 C 92.00000762939453 71.40501403808594 71.40509033203125 91.99988555908203 46.00000762939453 91.99988555908203 C 20.59490966796875 91.99988555908203 7.62939453125e-06 71.40501403808594 7.62939453125e-06 45.99993896484375 C 7.62939453125e-06 20.59487915039062 20.59490966796875 -7.62939453125e-06 46.00000762939453 -7.62939453125e-06 Z" stroke="none" fill="#f8c234"/>
                                          </g>
                                        </g>
                                      </g>
                                    </g>
                                  </g>
                                </g>
                              </g>
                            </g>
                          </g>
                        </g>
                      </g>
                    </g>
                  </g>
                </g>
              </g>
            </g>
          </g>
        </g>
      </g>
    </g>
    <g id="tecnologia" transform="translate(1346 4538)">
      <g id="Grupo_1212763" data-name="Grupo 1212763">
        <g id="Grupo_1212752" data-name="Grupo 1212752">
          <path id="Trazado_1085412" data-name="Trazado 1085412" d="M52,1V9H42V1Z" fill="#f0d0b4"/>
        </g>
        <g id="Grupo_1212753" data-name="Grupo 1212753">
          <path id="Trazado_1085413" data-name="Trazado 1085413" d="M20,1V9H10V1Z" fill="#f0d0b4"/>
        </g>
        <g id="Grupo_1212754" data-name="Grupo 1212754">
          <path id="Trazado_1085414" data-name="Trazado 1085414" d="M36,1V9H26V1Z" fill="#f0d0b4"/>
        </g>
        <g id="Grupo_1212755" data-name="Grupo 1212755">
          <path id="Trazado_1085415" data-name="Trazado 1085415" d="M57,53H5V19a4,4,0,0,1,4-4H53a4,4,0,0,1,4,4Z" fill="#ccd1d9"/>
        </g>
        <g id="Grupo_1212756" data-name="Grupo 1212756">
          <path id="Trazado_1085416" data-name="Trazado 1085416" d="M52,49H10a1,1,0,0,1-1-1V20a1,1,0,0,1,1-1H52a1,1,0,0,1,1,1V48A1,1,0,0,1,52,49Z" fill="#69d6f4"/>
        </g>
        <g id="Grupo_1212757" data-name="Grupo 1212757">
          <path id="Trazado_1085417" data-name="Trazado 1085417" d="M59,53H3a1.955,1.955,0,0,0-1.41.59A1.955,1.955,0,0,0,1,55a6,6,0,0,0,6,6H55a6.009,6.009,0,0,0,6-6,2.006,2.006,0,0,0-2-2Z" fill="#969faa"/>
        </g>
        <g id="Grupo_1212758" data-name="Grupo 1212758">
          <path id="Trazado_1085418" data-name="Trazado 1085418" d="M51,57h4v4H51Z" fill="#ff826e"/>
        </g>
        <g id="Grupo_1212759" data-name="Grupo 1212759">
          <path id="Trazado_1085419" data-name="Trazado 1085419" d="M43,57h4v4H43Z" fill="#ff826e"/>
        </g>
        <g id="Grupo_1212760" data-name="Grupo 1212760">
          <path id="Trazado_1085420" data-name="Trazado 1085420" d="M38,53v2a2.006,2.006,0,0,1-2,2H26a2.006,2.006,0,0,1-2-2V53Z" fill="#ff826e"/>
        </g>
        <g id="Grupo_1212761" data-name="Grupo 1212761">
          <path id="Trazado_1085421" data-name="Trazado 1085421" d="M47,43v6H40.55v-.03A10,10,0,1,0,21,46a9.908,9.908,0,0,0,.46,3H15V43l2.54-.81a14.529,14.529,0,0,1,1.24-3.02l-1.22-2.36,4.25-4.25,2.36,1.22a14.529,14.529,0,0,1,3.02-1.24L28,30h6l.81,2.54a14.529,14.529,0,0,1,3.02,1.24l2.36-1.22,4.25,4.25-1.22,2.36a14.529,14.529,0,0,1,1.24,3.02Z" fill="#ffc729"/>
        </g>
        <g id="Grupo_1212762" data-name="Grupo 1212762">
          <path id="Trazado_1085422" data-name="Trazado 1085422" d="M41,46a10.024,10.024,0,0,1-.45,2.97V49H33.64A3.949,3.949,0,0,0,35,46a4,4,0,0,0-8,0,3.949,3.949,0,0,0,1.36,3h-6.9A10,10,0,1,1,41,46Z" fill="#fcd770"/>
        </g>
      </g>
      <g id="Grupo_1212764" data-name="Grupo 1212764">
        <path id="Trazado_1085423" data-name="Trazado 1085423" d="M59,52H58V19a5.006,5.006,0,0,0-5-5H50v2h3a3,3,0,0,1,3,3V52H6V19a3,3,0,0,1,3-3h3V14H9a5.006,5.006,0,0,0-5,5V52H3a3,3,0,0,0-3,3,7.009,7.009,0,0,0,7,7H55a7.009,7.009,0,0,0,7-7A3,3,0,0,0,59,52ZM25,54H37v1a1,1,0,0,1-1,1H26a1,1,0,0,1-1-1Zm21,6H44V58h2Zm8,0H52V58h2Zm2-.1V56H50v4H48V56H42v4H7a5.006,5.006,0,0,1-5-5,1,1,0,0,1,1-1H23v1a3,3,0,0,0,3,3H36a3,3,0,0,0,3-3V54H59a1,1,0,0,1,1,1,5.009,5.009,0,0,1-4,4.9Z"/>
        <path id="Trazado_1085424" data-name="Trazado 1085424" d="M22,20V18H10a2,2,0,0,0-2,2V48a2,2,0,0,0,2,2H52a2,2,0,0,0,2-2V20a2,2,0,0,0-2-2H40v2H52V48H48V42.271L45.266,41.4a15.06,15.06,0,0,0-.919-2.229l1.312-2.549-5.274-5.274-2.549,1.312a15.105,15.105,0,0,0-2.229-.919L34.729,29H27.27l-.876,2.734a15.06,15.06,0,0,0-2.229.919l-2.549-1.312-5.274,5.274,1.312,2.549a15.105,15.105,0,0,0-.919,2.229L14,42.271V48H10V20Zm0,26a9,9,0,1,1,17.751,2H35.579a5,5,0,1,0-9.158,0H22.25A9.007,9.007,0,0,1,22,46Zm6,0a3,3,0,1,1,5.212,2H28.787A2.99,2.99,0,0,1,28,46ZM16,43.729l2.356-.754.146-.517a12.89,12.89,0,0,1,1.153-2.8l.262-.469L18.787,37,22,33.786l2.194,1.13.469-.262a12.89,12.89,0,0,1,2.8-1.153l.517-.146L28.729,31H33.27l.754,2.356.517.146a12.89,12.89,0,0,1,2.8,1.153l.469.262L40,33.787,43.213,37l-1.13,2.194.262.469a12.89,12.89,0,0,1,1.153,2.8l.146.517L46,43.729V48H41.811a11,11,0,1,0-21.622,0H16Z"/>
        <path id="Trazado_1085425" data-name="Trazado 1085425" d="M13,4h4V6H13Z"/>
        <path id="Trazado_1085426" data-name="Trazado 1085426" d="M29,4h4V6H29Z"/>
        <path id="Trazado_1085427" data-name="Trazado 1085427" d="M45,4h4V6H45Z"/>
        <path id="Trazado_1085428" data-name="Trazado 1085428" d="M30,27h2V10h5V0H25V10h5ZM27,2h8V8H27Z"/>
        <path id="Trazado_1085429" data-name="Trazado 1085429" d="M46,14H36V27h2V16H48V10h5V0H41V10h5ZM43,2h8V8H43Z"/>
        <path id="Trazado_1085430" data-name="Trazado 1085430" d="M14,16H24V27h2V14H16V10h5V0H9V10h5ZM11,2h8V8H11Z"/>
      </g>
    </g>
  </g>
</svg>
